<svg width="900" height="136" viewBox="0 0 900 136" fill="none" xmlns="http://www.w3.org/2000/svg">
<path d="M23.3214 13.2661C23.3214 14.9061 22.9267 16.4436 22.1373 17.8786C21.3772 19.3135 20.1639 20.4703 18.4975 21.3488C16.8603 22.2274 14.7845 22.6667 12.2703 22.6667H7.13938V34.4393H0.999864V3.77778H12.2703C14.6384 3.77778 16.6556 4.18777 18.3221 5.00775C19.9885 5.82774 21.231 6.95521 22.0496 8.39018C22.8975 9.82515 23.3214 11.4505 23.3214 13.2661ZM12.0071 17.7028C13.7028 17.7028 14.96 17.3221 15.7786 16.5607C16.5972 15.77 17.0065 14.6718 17.0065 13.2661C17.0065 10.2791 15.34 8.78553 12.0071 8.78553H7.13938V17.7028H12.0071Z" fill="#380E00"/>
<path d="M38.4684 34.8346C36.1295 34.8346 34.0246 34.3221 32.1535 33.2972C30.2824 32.2429 28.806 30.764 27.7242 28.8605C26.6718 26.9569 26.1455 24.7606 26.1455 22.2713C26.1455 19.7821 26.6864 17.5857 27.7681 15.6822C28.8791 13.7786 30.3847 12.3144 32.285 11.2894C34.1853 10.2351 36.3049 9.70801 38.6438 9.70801C40.9827 9.70801 43.1023 10.2351 45.0026 11.2894C46.9029 12.3144 48.3939 13.7786 49.4757 15.6822C50.5866 17.5857 51.1421 19.7821 51.1421 22.2713C51.1421 24.7606 50.572 26.9569 49.4318 28.8605C48.3209 30.764 46.8006 32.2429 44.871 33.2972C42.9707 34.3221 40.8365 34.8346 38.4684 34.8346ZM38.4684 29.4755C39.5794 29.4755 40.6172 29.2119 41.582 28.6848C42.576 28.1283 43.3654 27.3084 43.9501 26.2248C44.5348 25.1413 44.8272 23.8234 44.8272 22.2713C44.8272 19.9578 44.2132 18.186 42.9853 16.9561C41.7867 15.6968 40.3103 15.0672 38.5561 15.0672C36.802 15.0672 35.3255 15.6968 34.1269 16.9561C32.9574 18.186 32.3727 19.9578 32.3727 22.2713C32.3727 24.5848 32.9428 26.3712 34.083 27.6305C35.2525 28.8605 36.7142 29.4755 38.4684 29.4755Z" fill="#380E00"/>
<path d="M61.7852 13.6176C62.5746 12.5047 63.6563 11.5823 65.0304 10.8501C66.4337 10.0887 68.027 9.70801 69.8104 9.70801C71.8862 9.70801 73.7573 10.2205 75.4237 11.2455C77.1194 12.2705 78.4496 13.7347 79.4144 15.6382C80.4084 17.5125 80.9054 19.6942 80.9054 22.1835C80.9054 24.6727 80.4084 26.8837 79.4144 28.8165C78.4496 30.7201 77.1194 32.199 75.4237 33.2532C73.7573 34.3075 71.8862 34.8346 69.8104 34.8346C68.027 34.8346 66.4483 34.4686 65.0742 33.7364C63.7294 33.0043 62.633 32.0818 61.7852 30.969V46.0362H55.6457V10.1034H61.7852V13.6176ZM74.6343 22.1835C74.6343 20.7192 74.3274 19.4599 73.7134 18.4057C73.1287 17.3221 72.3393 16.5022 71.3453 15.9457C70.3805 15.3893 69.328 15.1111 68.1878 15.1111C67.0769 15.1111 66.0244 15.404 65.0304 15.9897C64.0656 16.5461 63.2762 17.3661 62.6623 18.4496C62.0776 19.5332 61.7852 20.8071 61.7852 22.2713C61.7852 23.7356 62.0776 25.0095 62.6623 26.093C63.2762 27.1766 64.0656 28.0112 65.0304 28.5969C66.0244 29.1533 67.0769 29.4315 68.1878 29.4315C69.328 29.4315 70.3805 29.1387 71.3453 28.553C72.3393 27.9673 73.1287 27.1326 73.7134 26.0491C74.3274 24.9655 74.6343 23.677 74.6343 22.1835Z" fill="#380E00"/>
<path d="M91.5064 13.6176C92.2957 12.5047 93.3774 11.5823 94.7515 10.8501C96.1549 10.0887 97.7482 9.70801 99.5316 9.70801C101.607 9.70801 103.478 10.2205 105.145 11.2455C106.841 12.2705 108.171 13.7347 109.136 15.6382C110.13 17.5125 110.627 19.6942 110.627 22.1835C110.627 24.6727 110.13 26.8837 109.136 28.8165C108.171 30.7201 106.841 32.199 105.145 33.2532C103.478 34.3075 101.607 34.8346 99.5316 34.8346C97.7482 34.8346 96.1695 34.4686 94.7954 33.7364C93.4505 33.0043 92.3542 32.0818 91.5064 30.969V46.0362H85.3668V10.1034H91.5064V13.6176ZM104.355 22.1835C104.355 20.7192 104.049 19.4599 103.435 18.4057C102.85 17.3221 102.06 16.5022 101.066 15.9457C100.102 15.3893 99.0492 15.1111 97.909 15.1111C96.798 15.1111 95.7456 15.404 94.7515 15.9897C93.7868 16.5461 92.9974 17.3661 92.3834 18.4496C91.7987 19.5332 91.5064 20.8071 91.5064 22.2713C91.5064 23.7356 91.7987 25.0095 92.3834 26.093C92.9974 27.1766 93.7868 28.0112 94.7515 28.5969C95.7456 29.1533 96.798 29.4315 97.909 29.4315C99.0492 29.4315 100.102 29.1387 101.066 28.553C102.06 27.9673 102.85 27.1326 103.435 26.0491C104.049 24.9655 104.355 23.677 104.355 22.1835Z" fill="#380E00"/>
<path d="M118.202 7.20414C117.12 7.20414 116.214 6.86736 115.483 6.1938C114.781 5.49096 114.43 4.62705 114.43 3.60207C114.43 2.57709 114.781 1.72782 115.483 1.05426C116.214 0.351421 117.12 0 118.202 0C119.283 0 120.175 0.351421 120.877 1.05426C121.608 1.72782 121.973 2.57709 121.973 3.60207C121.973 4.62705 121.608 5.49096 120.877 6.1938C120.175 6.86736 119.283 7.20414 118.202 7.20414ZM121.228 10.1034V34.4393H115.088V10.1034H121.228Z" fill="#380E00"/>
<path d="M140.756 9.75194C143.651 9.75194 145.99 10.6744 147.773 12.5194C149.556 14.3351 150.448 16.8829 150.448 20.1628V34.4393H144.309V20.9974C144.309 19.0646 143.826 17.5857 142.861 16.5607C141.897 15.5065 140.581 14.9793 138.915 14.9793C137.219 14.9793 135.874 15.5065 134.88 16.5607C133.915 17.5857 133.433 19.0646 133.433 20.9974V34.4393H127.293V10.1034H133.433V13.1344C134.251 12.0801 135.289 11.2601 136.547 10.6744C137.833 10.0594 139.236 9.75194 140.756 9.75194Z" fill="#380E00"/>
<path d="M165.583 34.8346C163.595 34.8346 161.812 34.4832 160.233 33.7804C158.655 33.0482 157.397 32.0672 156.462 30.8372C155.556 29.6072 155.059 28.2455 154.971 26.7519H161.154C161.271 27.6891 161.724 28.4651 162.514 29.0801C163.332 29.6951 164.341 30.0026 165.54 30.0026C166.709 30.0026 167.615 29.7683 168.259 29.2997C168.931 28.8312 169.267 28.2308 169.267 27.4987C169.267 26.708 168.858 26.1223 168.039 25.7416C167.25 25.3316 165.978 24.8923 164.224 24.4238C162.411 23.9845 160.92 23.5306 159.751 23.062C158.611 22.5935 157.617 21.876 156.769 20.9096C155.95 19.9432 155.541 18.64 155.541 17C155.541 15.6529 155.921 14.4229 156.681 13.3101C157.471 12.1972 158.581 11.3187 160.014 10.6744C161.476 10.0301 163.186 9.70801 165.145 9.70801C168.039 9.70801 170.349 10.4401 172.074 11.9044C173.799 13.3394 174.749 15.2868 174.924 17.7468H169.048C168.96 16.7804 168.551 16.0189 167.82 15.4625C167.118 14.8768 166.168 14.584 164.97 14.584C163.859 14.584 162.996 14.789 162.382 15.199C161.797 15.609 161.505 16.18 161.505 16.9121C161.505 17.7321 161.914 18.3618 162.733 18.801C163.552 19.211 164.823 19.6357 166.548 20.0749C168.302 20.5142 169.75 20.9681 170.89 21.4367C172.03 21.9053 173.009 22.6374 173.828 23.6331C174.676 24.5995 175.114 25.888 175.144 27.4987C175.144 28.9044 174.749 30.1637 173.96 31.2765C173.199 32.3893 172.088 33.2679 170.627 33.9121C169.194 34.5271 167.513 34.8346 165.583 34.8346Z" fill="#380E00"/>
<path d="M201.202 34.7468C199.067 34.7468 197.138 34.3807 195.413 33.6486C193.717 32.9165 192.372 31.8622 191.378 30.4858C190.384 29.1094 189.873 27.4841 189.843 25.6098H196.422C196.509 26.8691 196.948 27.8648 197.737 28.5969C198.556 29.329 199.667 29.6951 201.07 29.6951C202.503 29.6951 203.628 29.3583 204.447 28.6848C205.265 27.9819 205.675 27.0741 205.675 25.9612C205.675 25.0534 205.397 24.3066 204.841 23.7209C204.286 23.1352 203.584 22.6813 202.736 22.3592C201.918 22.0078 200.778 21.627 199.316 21.2171C197.328 20.6314 195.705 20.0603 194.448 19.5039C193.22 18.9182 192.153 18.0543 191.247 16.9121C190.37 15.7407 189.931 14.1886 189.931 12.2558C189.931 10.4401 190.384 8.85874 191.291 7.51163C192.197 6.16451 193.469 5.13953 195.106 4.43669C196.743 3.70457 198.614 3.3385 200.719 3.3385C203.877 3.3385 206.435 4.11456 208.394 5.66667C210.382 7.18949 211.478 9.3273 211.683 12.0801H204.929C204.871 11.0258 204.418 10.1619 203.57 9.48837C202.751 8.78553 201.655 8.43411 200.281 8.43411C199.082 8.43411 198.117 8.7416 197.386 9.35659C196.685 9.97158 196.334 10.8648 196.334 12.0362C196.334 12.8562 196.597 13.5444 197.123 14.1008C197.679 14.6279 198.351 15.0672 199.14 15.4186C199.959 15.7407 201.099 16.1214 202.561 16.5607C204.549 17.1464 206.172 17.7321 207.429 18.3178C208.686 18.9035 209.768 19.7821 210.674 20.9535C211.58 22.1249 212.033 23.6624 212.033 25.5659C212.033 27.2059 211.61 28.7287 210.762 30.1344C209.914 31.5401 208.671 32.6675 207.034 33.5168C205.397 34.3368 203.453 34.7468 201.202 34.7468Z" fill="#380E00"/>
<path d="M239.941 21.7442C239.941 22.6227 239.882 23.4134 239.765 24.1163H222.005C222.151 25.8734 222.765 27.2498 223.847 28.2455C224.928 29.2412 226.258 29.739 227.837 29.739C230.118 29.739 231.74 28.758 232.705 26.7959H239.327C238.625 29.1387 237.28 31.0715 235.292 32.5943C233.304 34.0879 230.863 34.8346 227.969 34.8346C225.63 34.8346 223.525 34.3221 221.654 33.2972C219.812 32.2429 218.365 30.764 217.312 28.8605C216.289 26.9569 215.777 24.7606 215.777 22.2713C215.777 19.7528 216.289 17.5418 217.312 15.6382C218.336 13.7347 219.768 12.2705 221.61 11.2455C223.452 10.2205 225.571 9.70801 227.969 9.70801C230.278 9.70801 232.34 10.2059 234.152 11.2015C235.994 12.1972 237.412 13.6176 238.406 15.4625C239.429 17.2782 239.941 19.3721 239.941 21.7442ZM233.582 19.9871C233.553 18.4057 232.983 17.1464 231.872 16.2093C230.761 15.2429 229.401 14.7597 227.793 14.7597C226.273 14.7597 224.987 15.2283 223.934 16.1654C222.911 17.0732 222.282 18.3471 222.049 19.9871H233.582Z" fill="#380E00"/>
<path d="M274.594 9.75194C277.576 9.75194 279.973 10.6744 281.785 12.5194C283.627 14.3351 284.548 16.8829 284.548 20.1628V34.4393H278.409V20.9974C278.409 19.0939 277.926 17.6443 276.962 16.6486C275.997 15.6236 274.681 15.1111 273.015 15.1111C271.348 15.1111 270.018 15.6236 269.024 16.6486C268.059 17.6443 267.577 19.0939 267.577 20.9974V34.4393H261.437V20.9974C261.437 19.0939 260.955 17.6443 259.99 16.6486C259.025 15.6236 257.71 15.1111 256.043 15.1111C254.348 15.1111 253.003 15.6236 252.009 16.6486C251.044 17.6443 250.562 19.0939 250.562 20.9974V34.4393H244.422V10.1034H250.562V13.0465C251.351 12.0215 252.36 11.2162 253.588 10.6305C254.845 10.0448 256.219 9.75194 257.71 9.75194C259.61 9.75194 261.306 10.1619 262.797 10.9819C264.288 11.7726 265.443 12.9147 266.261 14.4083C267.051 13.0026 268.191 11.8751 269.682 11.0258C271.202 10.1766 272.839 9.75194 274.594 9.75194Z" fill="#380E00"/>
<path d="M293.488 7.20414C292.406 7.20414 291.5 6.86736 290.769 6.1938C290.067 5.49096 289.717 4.62705 289.717 3.60207C289.717 2.57709 290.067 1.72782 290.769 1.05426C291.5 0.351421 292.406 0 293.488 0C294.57 0 295.461 0.351421 296.163 1.05426C296.894 1.72782 297.259 2.57709 297.259 3.60207C297.259 4.62705 296.894 5.49096 296.163 6.1938C295.461 6.86736 294.57 7.20414 293.488 7.20414ZM296.514 10.1034V34.4393H290.374V10.1034H296.514Z" fill="#380E00"/>
<path d="M319.946 18.7132C321.671 19.0353 323.089 19.8992 324.2 21.3049C325.311 22.7106 325.866 24.3213 325.866 26.1369C325.866 27.7769 325.457 29.2265 324.638 30.4858C323.849 31.7158 322.694 32.6822 321.174 33.385C319.653 34.0879 317.855 34.4393 315.78 34.4393H302.58V3.77778H315.21C317.285 3.77778 319.069 4.11456 320.56 4.78811C322.08 5.46167 323.22 6.3988 323.98 7.59948C324.77 8.80017 325.164 10.1619 325.164 11.6848C325.164 13.4711 324.682 14.9647 323.717 16.1654C322.782 17.3661 321.525 18.2153 319.946 18.7132ZM308.719 16.4289H314.332C315.794 16.4289 316.92 16.1068 317.709 15.4625C318.499 14.789 318.893 13.8372 318.893 12.6072C318.893 11.3773 318.499 10.4255 317.709 9.75194C316.92 9.07838 315.794 8.7416 314.332 8.7416H308.719V16.4289ZM314.903 29.4315C316.394 29.4315 317.548 29.0801 318.367 28.3773C319.215 27.6744 319.639 26.6787 319.639 25.3902C319.639 24.0724 319.2 23.0474 318.323 22.3152C317.446 21.5538 316.262 21.1731 314.771 21.1731H308.719V29.4315H314.903Z" fill="#380E00"/>
<path d="M341.547 34.8346C339.208 34.8346 337.103 34.3221 335.232 33.2972C333.361 32.2429 331.885 30.764 330.803 28.8605C329.75 26.9569 329.224 24.7606 329.224 22.2713C329.224 19.7821 329.765 17.5857 330.847 15.6822C331.958 13.7786 333.463 12.3144 335.364 11.2894C337.264 10.2351 339.384 9.70801 341.723 9.70801C344.061 9.70801 346.181 10.2351 348.081 11.2894C349.982 12.3144 351.473 13.7786 352.554 15.6822C353.665 17.5857 354.221 19.7821 354.221 22.2713C354.221 24.7606 353.651 26.9569 352.511 28.8605C351.4 30.764 349.879 32.2429 347.95 33.2972C346.049 34.3221 343.915 34.8346 341.547 34.8346ZM341.547 29.4755C342.658 29.4755 343.696 29.2119 344.661 28.6848C345.655 28.1283 346.444 27.3084 347.029 26.2248C347.614 25.1413 347.906 23.8234 347.906 22.2713C347.906 19.9578 347.292 18.186 346.064 16.9561C344.865 15.6968 343.389 15.0672 341.635 15.0672C339.881 15.0672 338.404 15.6968 337.206 16.9561C336.036 18.186 335.451 19.9578 335.451 22.2713C335.451 24.5848 336.022 26.3712 337.162 27.6305C338.331 28.8605 339.793 29.4755 341.547 29.4755Z" fill="#380E00"/>
<path d="M364.864 1.93282V34.4393H358.724V1.93282H364.864Z" fill="#380E00"/>
<path d="M369.351 22.1835C369.351 19.7235 369.833 17.5418 370.798 15.6382C371.792 13.7347 373.137 12.2705 374.833 11.2455C376.528 10.2205 378.414 9.70801 380.49 9.70801C382.069 9.70801 383.574 10.0594 385.007 10.7623C386.439 11.4358 387.58 12.3437 388.427 13.4858V1.93282H394.655V34.4393H388.427V30.8372C387.667 32.0379 386.6 33.0043 385.226 33.7364C383.852 34.4686 382.259 34.8346 380.446 34.8346C378.4 34.8346 376.528 34.3075 374.833 33.2532C373.137 32.199 371.792 30.7201 370.798 28.8165C369.833 26.8837 369.351 24.6727 369.351 22.1835ZM388.471 22.2713C388.471 20.7778 388.179 19.5039 387.594 18.4496C387.009 17.3661 386.22 16.5461 385.226 15.9897C384.232 15.404 383.165 15.1111 382.025 15.1111C380.885 15.1111 379.832 15.3893 378.867 15.9457C377.903 16.5022 377.113 17.3221 376.499 18.4057C375.914 19.4599 375.622 20.7192 375.622 22.1835C375.622 23.6477 375.914 24.9363 376.499 26.0491C377.113 27.1326 377.903 27.9673 378.867 28.553C379.861 29.1387 380.914 29.4315 382.025 29.4315C383.165 29.4315 384.232 29.1533 385.226 28.5969C386.22 28.0112 387.009 27.1912 387.594 26.1369C388.179 25.0534 388.471 23.7649 388.471 22.2713Z" fill="#380E00"/>
<path d="M412.328 27.4987C415.135 25.1559 417.372 23.2084 419.038 21.6563C420.704 20.0749 422.093 18.435 423.204 16.7364C424.315 15.0379 424.871 13.3686 424.871 11.7287C424.871 10.2351 424.52 9.06374 423.818 8.21447C423.116 7.3652 422.035 6.94057 420.573 6.94057C419.111 6.94057 417.985 7.43842 417.196 8.43411C416.407 9.40052 415.997 10.733 415.968 12.4315H410.004C410.121 8.91731 411.159 6.25237 413.118 4.43669C415.106 2.62102 417.62 1.71318 420.661 1.71318C423.993 1.71318 426.552 2.60637 428.335 4.39277C430.118 6.14987 431.01 8.47804 431.01 11.3773C431.01 13.6615 430.396 15.8432 429.168 17.9225C427.94 20.0017 426.537 21.8174 424.958 23.3695C423.379 24.8923 421.318 26.7373 418.775 28.9044H431.712V34H410.048V29.4315L412.328 27.4987Z" fill="#380E00"/>
<path d="M435.58 18.0103C435.58 12.944 436.487 8.97588 438.299 6.10594C440.141 3.236 443.182 1.80103 447.421 1.80103C451.66 1.80103 454.686 3.236 456.499 6.10594C458.34 8.97588 459.261 12.944 459.261 18.0103C459.261 23.1059 458.34 27.1034 456.499 30.0026C454.686 32.9018 451.66 34.3514 447.421 34.3514C443.182 34.3514 440.141 32.9018 438.299 30.0026C436.487 27.1034 435.58 23.1059 435.58 18.0103ZM453.21 18.0103C453.21 15.8432 453.063 14.0276 452.771 12.5633C452.508 11.0698 451.952 9.85444 451.105 8.91731C450.286 7.98019 449.058 7.51163 447.421 7.51163C445.784 7.51163 444.541 7.98019 443.693 8.91731C442.875 9.85444 442.319 11.0698 442.027 12.5633C441.764 14.0276 441.632 15.8432 441.632 18.0103C441.632 20.236 441.764 22.1102 442.027 23.6331C442.29 25.1266 442.846 26.3419 443.693 27.2791C444.541 28.1869 445.784 28.6408 447.421 28.6408C449.058 28.6408 450.301 28.1869 451.148 27.2791C451.996 26.3419 452.552 25.1266 452.815 23.6331C453.078 22.1102 453.21 20.236 453.21 18.0103Z" fill="#380E00"/>
<path d="M497.404 13.2661C497.404 14.9061 497.009 16.4436 496.22 17.8786C495.46 19.3135 494.246 20.4703 492.58 21.3488C490.943 22.2274 488.867 22.6667 486.353 22.6667H481.222V34.4393H475.082V3.77778H486.353C488.721 3.77778 490.738 4.18777 492.405 5.00775C494.071 5.82774 495.314 6.95521 496.132 8.39018C496.98 9.82515 497.404 11.4505 497.404 13.2661ZM486.09 17.7028C487.785 17.7028 489.042 17.3221 489.861 16.5607C490.68 15.77 491.089 14.6718 491.089 13.2661C491.089 10.2791 489.422 8.78553 486.09 8.78553H481.222V17.7028H486.09Z" fill="#380E00"/>
<path d="M504.876 7.20414C503.795 7.20414 502.888 6.86736 502.158 6.1938C501.456 5.49096 501.105 4.62705 501.105 3.60207C501.105 2.57709 501.456 1.72782 502.158 1.05426C502.888 0.351421 503.795 0 504.876 0C505.958 0 506.85 0.351421 507.552 1.05426C508.282 1.72782 508.648 2.57709 508.648 3.60207C508.648 4.62705 508.282 5.49096 507.552 6.1938C506.85 6.86736 505.958 7.20414 504.876 7.20414ZM507.902 10.1034V34.4393H501.763V10.1034H507.902Z" fill="#380E00"/>
<path d="M527.387 34.4393L522.388 26.8837L517.959 34.4393H511.381L519.318 22.2274L511.293 10.1034H518.222L523.177 17.615L527.651 10.1034H534.229L526.247 22.2274L534.316 34.4393H527.387Z" fill="#380E00"/>
<path d="M560.236 21.7442C560.236 22.6227 560.177 23.4134 560.06 24.1163H542.299C542.446 25.8734 543.06 27.2498 544.141 28.2455C545.223 29.2412 546.553 29.739 548.132 29.739C550.412 29.739 552.035 28.758 553 26.7959H559.622C558.92 29.1387 557.575 31.0715 555.587 32.5943C553.599 34.0879 551.158 34.8346 548.264 34.8346C545.925 34.8346 543.82 34.3221 541.949 33.2972C540.107 32.2429 538.66 30.764 537.607 28.8605C536.584 26.9569 536.072 24.7606 536.072 22.2713C536.072 19.7528 536.584 17.5418 537.607 15.6382C538.63 13.7347 540.063 12.2705 541.905 11.2455C543.747 10.2205 545.866 9.70801 548.264 9.70801C550.573 9.70801 552.634 10.2059 554.447 11.2015C556.289 12.1972 557.707 13.6176 558.701 15.4625C559.724 17.2782 560.236 19.3721 560.236 21.7442ZM553.877 19.9871C553.848 18.4057 553.277 17.1464 552.167 16.2093C551.056 15.2429 549.696 14.7597 548.088 14.7597C546.568 14.7597 545.281 15.2283 544.229 16.1654C543.206 17.0732 542.577 18.3471 542.343 19.9871H553.877Z" fill="#380E00"/>
<path d="M570.856 1.93282V34.4393H564.717V1.93282H570.856Z" fill="#380E00"/>
<path d="M586.219 34.8346C584.231 34.8346 582.448 34.4832 580.869 33.7804C579.29 33.0482 578.033 32.0672 577.098 30.8372C576.191 29.6072 575.694 28.2455 575.607 26.7519H581.79C581.907 27.6891 582.36 28.4651 583.149 29.0801C583.968 29.6951 584.977 30.0026 586.175 30.0026C587.345 30.0026 588.251 29.7683 588.894 29.2997C589.567 28.8312 589.903 28.2308 589.903 27.4987C589.903 26.708 589.494 26.1223 588.675 25.7416C587.886 25.3316 586.614 24.8923 584.86 24.4238C583.047 23.9845 581.556 23.5306 580.387 23.062C579.247 22.5935 578.253 21.876 577.405 20.9096C576.586 19.9432 576.177 18.64 576.177 17C576.177 15.6529 576.557 14.4229 577.317 13.3101C578.106 12.1972 579.217 11.3187 580.65 10.6744C582.112 10.0301 583.822 9.70801 585.781 9.70801C588.675 9.70801 590.985 10.4401 592.71 11.9044C594.435 13.3394 595.385 15.2868 595.56 17.7468H589.684C589.596 16.7804 589.187 16.0189 588.456 15.4625C587.754 14.8768 586.804 14.584 585.605 14.584C584.494 14.584 583.632 14.789 583.018 15.199C582.433 15.609 582.141 16.18 582.141 16.9121C582.141 17.7321 582.55 18.3618 583.369 18.801C584.187 19.211 585.459 19.6357 587.184 20.0749C588.938 20.5142 590.385 20.9681 591.526 21.4367C592.666 21.9053 593.645 22.6374 594.464 23.6331C595.312 24.5995 595.75 25.888 595.779 27.4987C595.779 28.9044 595.385 30.1637 594.595 31.2765C593.835 32.3893 592.724 33.2679 591.262 33.9121C589.83 34.5271 588.149 34.8346 586.219 34.8346Z" fill="#380E00"/>
<path d="M621.837 34.7468C619.703 34.7468 617.774 34.3807 616.049 33.6486C614.353 32.9165 613.008 31.8622 612.014 30.4858C611.02 29.1094 610.508 27.4841 610.479 25.6098H617.057C617.145 26.8691 617.584 27.8648 618.373 28.5969C619.192 29.329 620.302 29.6951 621.706 29.6951C623.138 29.6951 624.264 29.3583 625.083 28.6848C625.901 27.9819 626.31 27.0741 626.31 25.9612C626.31 25.0534 626.033 24.3066 625.477 23.7209C624.922 23.1352 624.22 22.6813 623.372 22.3592C622.554 22.0078 621.413 21.627 619.952 21.2171C617.964 20.6314 616.341 20.0603 615.084 19.5039C613.856 18.9182 612.789 18.0543 611.883 16.9121C611.005 15.7407 610.567 14.1886 610.567 12.2558C610.567 10.4401 611.02 8.85874 611.926 7.51163C612.833 6.16451 614.104 5.13953 615.742 4.43669C617.379 3.70457 619.25 3.3385 621.355 3.3385C624.512 3.3385 627.071 4.11456 629.029 5.66667C631.017 7.18949 632.114 9.3273 632.318 12.0801H625.565C625.506 11.0258 625.053 10.1619 624.205 9.48837C623.387 8.78553 622.29 8.43411 620.916 8.43411C619.718 8.43411 618.753 8.7416 618.022 9.35659C617.32 9.97158 616.97 10.8648 616.97 12.0362C616.97 12.8562 617.233 13.5444 617.759 14.1008C618.314 14.6279 618.987 15.0672 619.776 15.4186C620.595 15.7407 621.735 16.1214 623.197 16.5607C625.185 17.1464 626.807 17.7321 628.065 18.3178C629.322 18.9035 630.403 19.7821 631.31 20.9535C632.216 22.1249 632.669 23.6624 632.669 25.5659C632.669 27.2059 632.245 28.7287 631.397 30.1344C630.55 31.5401 629.307 32.6675 627.67 33.5168C626.033 34.3368 624.089 34.7468 621.837 34.7468Z" fill="#380E00"/>
<path d="M660.577 21.7442C660.577 22.6227 660.518 23.4134 660.401 24.1163H642.64C642.787 25.8734 643.401 27.2498 644.482 28.2455C645.564 29.2412 646.894 29.739 648.473 29.739C650.753 29.739 652.376 28.758 653.341 26.7959H659.963C659.261 29.1387 657.916 31.0715 655.928 32.5943C653.94 34.0879 651.499 34.8346 648.605 34.8346C646.266 34.8346 644.161 34.3221 642.29 33.2972C640.448 32.2429 639.001 30.764 637.948 28.8605C636.925 26.9569 636.413 24.7606 636.413 22.2713C636.413 19.7528 636.925 17.5418 637.948 15.6382C638.971 13.7347 640.404 12.2705 642.246 11.2455C644.088 10.2205 646.207 9.70801 648.605 9.70801C650.914 9.70801 652.975 10.2059 654.788 11.2015C656.63 12.1972 658.048 13.6176 659.042 15.4625C660.065 17.2782 660.577 19.3721 660.577 21.7442ZM654.218 19.9871C654.189 18.4057 653.618 17.1464 652.508 16.2093C651.397 15.2429 650.037 14.7597 648.429 14.7597C646.909 14.7597 645.622 15.2283 644.57 16.1654C643.547 17.0732 642.918 18.3471 642.684 19.9871H654.218Z" fill="#380E00"/>
<path d="M663.479 22.2713C663.479 19.7528 663.991 17.5564 665.014 15.6822C666.037 13.7786 667.455 12.3144 669.268 11.2894C671.081 10.2351 673.156 9.70801 675.495 9.70801C678.506 9.70801 680.991 10.4694 682.95 11.9922C684.938 13.4858 686.268 15.5943 686.941 18.3178H680.319C679.968 17.2636 679.369 16.4436 678.521 15.8579C677.702 15.2429 676.679 14.9354 675.451 14.9354C673.697 14.9354 672.308 15.5797 671.285 16.8682C670.262 18.1275 669.75 19.9285 669.75 22.2713C669.75 24.5848 670.262 26.3859 671.285 27.6744C672.308 28.9337 673.697 29.5633 675.451 29.5633C677.936 29.5633 679.559 28.4505 680.319 26.2248H686.941C686.268 28.8605 684.938 30.9543 682.95 32.5065C680.962 34.0586 678.477 34.8346 675.495 34.8346C673.156 34.8346 671.081 34.3221 669.268 33.2972C667.455 32.2429 666.037 30.7786 665.014 28.9044C663.991 27.0009 663.479 24.7898 663.479 22.2713Z" fill="#380E00"/>
<path d="M698.587 15.155V26.9276C698.587 27.7476 698.777 28.348 699.157 28.7287C699.566 29.0801 700.239 29.2558 701.174 29.2558H704.025V34.4393H700.166C694.991 34.4393 692.403 31.9208 692.403 26.8837V15.155H689.509V10.1034H692.403V4.08527H698.587V10.1034H704.025V15.155H698.587Z" fill="#380E00"/>
<path d="M711.554 7.20414C710.472 7.20414 709.566 6.86736 708.835 6.1938C708.134 5.49096 707.783 4.62705 707.783 3.60207C707.783 2.57709 708.134 1.72782 708.835 1.05426C709.566 0.351421 710.472 0 711.554 0C712.636 0 713.528 0.351421 714.229 1.05426C714.96 1.72782 715.326 2.57709 715.326 3.60207C715.326 4.62705 714.96 5.49096 714.229 6.1938C713.528 6.86736 712.636 7.20414 711.554 7.20414ZM714.58 10.1034V34.4393H708.44V10.1034H714.58Z" fill="#380E00"/>
<path d="M731.434 34.8346C729.095 34.8346 726.99 34.3221 725.119 33.2972C723.248 32.2429 721.771 30.764 720.69 28.8605C719.637 26.9569 719.111 24.7606 719.111 22.2713C719.111 19.7821 719.652 17.5857 720.734 15.6822C721.845 13.7786 723.35 12.3144 725.251 11.2894C727.151 10.2351 729.27 9.70801 731.609 9.70801C733.948 9.70801 736.068 10.2351 737.968 11.2894C739.868 12.3144 741.359 13.7786 742.441 15.6822C743.552 17.5857 744.108 19.7821 744.108 22.2713C744.108 24.7606 743.538 26.9569 742.397 28.8605C741.286 30.764 739.766 32.2429 737.837 33.2972C735.936 34.3221 733.802 34.8346 731.434 34.8346ZM731.434 29.4755C732.545 29.4755 733.583 29.2119 734.547 28.6848C735.542 28.1283 736.331 27.3084 736.916 26.2248C737.5 25.1413 737.793 23.8234 737.793 22.2713C737.793 19.9578 737.179 18.186 735.951 16.9561C734.752 15.6968 733.276 15.0672 731.522 15.0672C729.767 15.0672 728.291 15.6968 727.092 16.9561C725.923 18.186 725.338 19.9578 725.338 22.2713C725.338 24.5848 725.908 26.3712 727.049 27.6305C728.218 28.8605 729.68 29.4755 731.434 29.4755Z" fill="#380E00"/>
<path d="M762.074 9.75194C764.969 9.75194 767.307 10.6744 769.091 12.5194C770.874 14.3351 771.766 16.8829 771.766 20.1628V34.4393H765.626V20.9974C765.626 19.0646 765.144 17.5857 764.179 16.5607C763.214 15.5065 761.899 14.9793 760.232 14.9793C758.537 14.9793 757.192 15.5065 756.198 16.5607C755.233 17.5857 754.751 19.0646 754.751 20.9974V34.4393H748.611V10.1034H754.751V13.1344C755.569 12.0801 756.607 11.2601 757.864 10.6744C759.151 10.0594 760.554 9.75194 762.074 9.75194Z" fill="#380E00"/>
<path d="M813.445 3.77778V34.4393H807.306V21.3928H794.193V34.4393H788.054V3.77778H794.193V16.385H807.306V3.77778H813.445Z" fill="#380E00"/>
<path d="M842.073 21.7442C842.073 22.6227 842.014 23.4134 841.897 24.1163H824.136C824.283 25.8734 824.897 27.2498 825.978 28.2455C827.06 29.2412 828.39 29.739 829.969 29.739C832.249 29.739 833.872 28.758 834.837 26.7959H841.459C840.757 29.1387 839.412 31.0715 837.424 32.5943C835.436 34.0879 832.995 34.8346 830.101 34.8346C827.762 34.8346 825.657 34.3221 823.786 33.2972C821.944 32.2429 820.497 30.764 819.444 28.8605C818.421 26.9569 817.909 24.7606 817.909 22.2713C817.909 19.7528 818.421 17.5418 819.444 15.6382C820.467 13.7347 821.9 12.2705 823.742 11.2455C825.584 10.2205 827.703 9.70801 830.101 9.70801C832.41 9.70801 834.471 10.2059 836.284 11.2015C838.126 12.1972 839.544 13.6176 840.538 15.4625C841.561 17.2782 842.073 19.3721 842.073 21.7442ZM835.714 19.9871C835.685 18.4057 835.115 17.1464 834.004 16.2093C832.893 15.2429 831.533 14.7597 829.925 14.7597C828.405 14.7597 827.119 15.2283 826.066 16.1654C825.043 17.0732 824.414 18.3471 824.18 19.9871H835.714Z" fill="#380E00"/>
<path d="M844.975 22.1835C844.975 19.7235 845.458 17.5418 846.422 15.6382C847.416 13.7347 848.747 12.2705 850.413 11.2455C852.109 10.2205 853.994 9.70801 856.07 9.70801C857.883 9.70801 859.462 10.0741 860.806 10.8062C862.18 11.5383 863.277 12.4608 864.095 13.5736V10.1034H870.279V34.4393H864.095V30.8811C863.306 32.0233 862.21 32.975 860.806 33.7364C859.432 34.4686 857.839 34.8346 856.026 34.8346C853.98 34.8346 852.109 34.3075 850.413 33.2532C848.747 32.199 847.416 30.7201 846.422 28.8165C845.458 26.8837 844.975 24.6727 844.975 22.1835ZM864.095 22.2713C864.095 20.7778 863.803 19.5039 863.218 18.4496C862.634 17.3661 861.844 16.5461 860.85 15.9897C859.856 15.404 858.789 15.1111 857.649 15.1111C856.509 15.1111 855.456 15.3893 854.491 15.9457C853.527 16.5022 852.737 17.3221 852.123 18.4057C851.539 19.4599 851.246 20.7192 851.246 22.1835C851.246 23.6477 851.539 24.9363 852.123 26.0491C852.737 27.1326 853.527 27.9673 854.491 28.553C855.485 29.1387 856.538 29.4315 857.649 29.4315C858.789 29.4315 859.856 29.1533 860.85 28.5969C861.844 28.0112 862.634 27.1912 863.218 26.1369C863.803 25.0534 864.095 23.7649 864.095 22.2713Z" fill="#380E00"/>
<path d="M874.696 22.1835C874.696 19.7235 875.179 17.5418 876.144 15.6382C877.138 13.7347 878.482 12.2705 880.178 11.2455C881.874 10.2205 883.76 9.70801 885.835 9.70801C887.414 9.70801 888.92 10.0594 890.352 10.7623C891.785 11.4358 892.925 12.3437 893.773 13.4858V1.93282H900V34.4393H893.773V30.8372C893.013 32.0379 891.946 33.0043 890.571 33.7364C889.197 34.4686 887.604 34.8346 885.791 34.8346C883.745 34.8346 881.874 34.3075 880.178 33.2532C878.482 32.199 877.138 30.7201 876.144 28.8165C875.179 26.8837 874.696 24.6727 874.696 22.1835ZM893.817 22.2713C893.817 20.7778 893.524 19.5039 892.94 18.4496C892.355 17.3661 891.565 16.5461 890.571 15.9897C889.577 15.404 888.51 15.1111 887.37 15.1111C886.23 15.1111 885.177 15.3893 884.213 15.9457C883.248 16.5022 882.458 17.3221 881.845 18.4057C881.26 19.4599 880.967 20.7192 880.967 22.1835C880.967 23.6477 881.26 24.9363 881.845 26.0491C882.458 27.1326 883.248 27.9673 884.213 28.553C885.207 29.1387 886.259 29.4315 887.37 29.4315C888.51 29.4315 889.577 29.1533 890.571 28.5969C891.565 28.0112 892.355 27.1912 892.94 26.1369C893.524 25.0534 893.817 23.7649 893.817 22.2713Z" fill="#380E00"/>
<path d="M20.1157 72.2522C20.1157 73.6491 19.7868 74.9669 19.129 76.2057C18.4712 77.4444 17.4187 78.4592 15.9715 79.2499C14.5243 80.0142 12.6693 80.3964 10.4065 80.3964H5.43347V91.5452H0.934084V64.0685H10.4065C12.5115 64.0685 14.2875 64.4375 15.7347 65.1754C17.2082 65.8871 18.3001 66.8623 19.0106 68.101C19.7473 69.3398 20.1157 70.7235 20.1157 72.2522ZM10.4065 76.7196C12.1168 76.7196 13.3929 76.3375 14.2349 75.5731C15.0769 74.7824 15.4979 73.6754 15.4979 72.2522C15.4979 69.2475 13.8008 67.7452 10.4065 67.7452H5.43347V76.7196H10.4065Z" fill="#380E00"/>
<path d="M33.8399 91.901C31.7875 91.901 29.9325 91.4398 28.2748 90.5173C26.6172 89.5685 25.3147 88.2506 24.3675 86.5638C23.4202 84.8506 22.9466 82.8739 22.9466 80.6336C22.9466 78.4196 23.4334 76.4561 24.4069 74.7429C25.3805 73.0297 26.7093 71.7119 28.3932 70.7894C30.0772 69.8669 31.9586 69.4057 34.0372 69.4057C36.1159 69.4057 37.9972 69.8669 39.6812 70.7894C41.3652 71.7119 42.6939 73.0297 43.6675 74.7429C44.641 76.4561 45.1278 78.4196 45.1278 80.6336C45.1278 82.8475 44.6279 84.8111 43.628 86.5243C42.6282 88.2375 41.2599 89.5685 39.5233 90.5173C37.813 91.4398 35.9185 91.901 33.8399 91.901ZM33.8399 87.9871C34.9976 87.9871 36.0764 87.7103 37.0763 87.1568C38.1025 86.6034 38.9313 85.7731 39.5628 84.6661C40.1943 83.5592 40.51 82.215 40.51 80.6336C40.51 79.0522 40.2074 77.7212 39.6023 76.6406C38.9971 75.5336 38.1945 74.7034 37.1947 74.1499C36.1948 73.5964 35.116 73.3196 33.9583 73.3196C32.8005 73.3196 31.7217 73.5964 30.7219 74.1499C29.7483 74.7034 28.9721 75.5336 28.3932 76.6406C27.8144 77.7212 27.5249 79.0522 27.5249 80.6336C27.5249 82.9793 28.117 84.7979 29.301 86.0894C30.5114 87.3545 32.0243 87.9871 33.8399 87.9871Z" fill="#380E00"/>
<path d="M54.0751 72.9638C54.8382 71.9623 55.8775 71.1189 57.1931 70.4336C58.5087 69.7483 59.9954 69.4057 61.653 69.4057C63.5475 69.4057 65.271 69.8801 66.8234 70.8289C68.4021 71.7514 69.6388 73.0561 70.5334 74.7429C71.428 76.4297 71.8753 78.3669 71.8753 80.5545C71.8753 82.7421 71.428 84.7057 70.5334 86.4452C69.6388 88.1584 68.4021 89.5026 66.8234 90.4778C65.271 91.4266 63.5475 91.901 61.653 91.901C59.9954 91.901 58.5219 91.5716 57.2326 90.9127C55.9433 90.2274 54.8908 89.384 54.0751 88.3824V101.903H49.5757V69.7615H54.0751V72.9638ZM67.297 80.5545C67.297 79.0522 66.9812 77.7607 66.3498 76.6801C65.7446 75.5731 64.9289 74.7429 63.9027 74.1894C62.9029 73.6096 61.8241 73.3196 60.6663 73.3196C59.5349 73.3196 58.4561 73.6096 57.4299 74.1894C56.43 74.7692 55.6144 75.6127 54.9829 76.7196C54.3777 77.8266 54.0751 79.1313 54.0751 80.6336C54.0751 82.1359 54.3777 83.4537 54.9829 84.5871C55.6144 85.6941 56.43 86.5375 57.4299 87.1173C58.4561 87.6972 59.5349 87.9871 60.6663 87.9871C61.8241 87.9871 62.9029 87.6972 63.9027 87.1173C64.9289 86.5111 65.7446 85.6413 66.3498 84.508C66.9812 83.3747 67.297 82.0568 67.297 80.5545Z" fill="#380E00"/>
<path d="M80.8242 72.9638C81.5872 71.9623 82.6265 71.1189 83.9421 70.4336C85.2578 69.7483 86.7444 69.4057 88.4021 69.4057C90.2965 69.4057 92.02 69.8801 93.5724 70.8289C95.1511 71.7514 96.3878 73.0561 97.2824 74.7429C98.1771 76.4297 98.6244 78.3669 98.6244 80.5545C98.6244 82.7421 98.1771 84.7057 97.2824 86.4452C96.3878 88.1584 95.1511 89.5026 93.5724 90.4778C92.02 91.4266 90.2965 91.901 88.4021 91.901C86.7444 91.901 85.2709 91.5716 83.9816 90.9127C82.6923 90.2274 81.6398 89.384 80.8242 88.3824V101.903H76.3248V69.7615H80.8242V72.9638ZM94.046 80.5545C94.046 79.0522 93.7303 77.7607 93.0988 76.6801C92.4936 75.5731 91.6779 74.7429 90.6518 74.1894C89.6519 73.6096 88.5731 73.3196 87.4154 73.3196C86.2839 73.3196 85.2051 73.6096 84.179 74.1894C83.1791 74.7692 82.3634 75.6127 81.7319 76.7196C81.1267 77.8266 80.8242 79.1313 80.8242 80.6336C80.8242 82.1359 81.1267 83.4537 81.7319 84.5871C82.3634 85.6941 83.1791 86.5375 84.179 87.1173C85.2051 87.6972 86.2839 87.9871 87.4154 87.9871C88.5731 87.9871 89.6519 87.6972 90.6518 87.1173C91.6779 86.5111 92.4936 85.6413 93.0988 84.508C93.7303 83.3747 94.046 82.0568 94.046 80.5545Z" fill="#380E00"/>
<path d="M105.363 66.8755C104.547 66.8755 103.863 66.5987 103.311 66.0452C102.758 65.4917 102.482 64.8065 102.482 63.9894C102.482 63.1723 102.758 62.4871 103.311 61.9336C103.863 61.3801 104.547 61.1034 105.363 61.1034C106.152 61.1034 106.823 61.3801 107.376 61.9336C107.928 62.4871 108.205 63.1723 108.205 63.9894C108.205 64.8065 107.928 65.4917 107.376 66.0452C106.823 66.5987 106.152 66.8755 105.363 66.8755ZM107.573 69.7615V91.5452H103.074V69.7615H107.573Z" fill="#380E00"/>
<path d="M124.453 69.4057C126.163 69.4057 127.689 69.7615 129.031 70.4731C130.399 71.1847 131.465 72.239 132.228 73.6359C132.991 75.0328 133.373 76.7196 133.373 78.6964V91.5452H128.913V79.3685C128.913 77.4181 128.426 75.9289 127.452 74.901C126.479 73.8468 125.15 73.3196 123.466 73.3196C121.782 73.3196 120.44 73.8468 119.44 74.901C118.467 75.9289 117.98 77.4181 117.98 79.3685V91.5452H113.48V69.7615H117.98V72.2522C118.717 71.3561 119.651 70.6576 120.782 70.1568C121.94 69.6561 123.163 69.4057 124.453 69.4057Z" fill="#380E00"/>
<path d="M147.005 91.901C145.295 91.901 143.756 91.5979 142.388 90.9917C141.046 90.3592 139.98 89.5158 139.191 88.4615C138.401 87.3809 137.98 86.1816 137.928 84.8638H142.585C142.664 85.7863 143.098 86.5638 143.887 87.1964C144.703 87.8026 145.716 88.1057 146.926 88.1057C148.189 88.1057 149.163 87.8685 149.847 87.3941C150.558 86.8933 150.913 86.2607 150.913 85.4964C150.913 84.6793 150.518 84.0731 149.729 83.6778C148.966 83.2824 147.742 82.8475 146.058 82.3731C144.427 81.9251 143.098 81.4902 142.072 81.0685C141.046 80.6468 140.151 80.001 139.388 79.1313C138.651 78.2615 138.283 77.115 138.283 75.6917C138.283 74.532 138.625 73.4778 139.309 72.5289C139.993 71.5537 140.967 70.7894 142.23 70.2359C143.519 69.6824 144.993 69.4057 146.65 69.4057C149.124 69.4057 151.11 70.0382 152.61 71.3034C154.136 72.5421 154.952 74.2421 155.057 76.4034H150.558C150.479 75.4282 150.084 74.6506 149.374 74.0708C148.663 73.491 147.703 73.201 146.492 73.201C145.308 73.201 144.401 73.4251 143.769 73.8731C143.138 74.3212 142.822 74.9142 142.822 75.6522C142.822 76.232 143.032 76.7196 143.453 77.115C143.874 77.5103 144.387 77.8266 144.993 78.0638C145.598 78.2747 146.492 78.5514 147.676 78.8941C149.255 79.3158 150.544 79.7506 151.544 80.1987C152.57 80.6204 153.452 81.253 154.189 82.0964C154.925 82.9398 155.307 84.0599 155.333 85.4568C155.333 86.6956 154.991 87.8026 154.307 88.7778C153.623 89.753 152.649 90.5173 151.386 91.0708C150.15 91.6243 148.689 91.901 147.005 91.901Z" fill="#380E00"/>
<path d="M179.486 91.822C177.644 91.822 175.986 91.5057 174.513 90.8731C173.039 90.2142 171.881 89.2917 171.039 88.1057C170.197 86.9196 169.777 85.5359 169.777 83.9545H174.592C174.697 85.1406 175.157 86.1158 175.973 86.8801C176.815 87.6444 177.986 88.0266 179.486 88.0266C181.038 88.0266 182.249 87.6576 183.117 86.9196C183.985 86.1553 184.419 85.1801 184.419 83.994C184.419 83.0716 184.143 82.3204 183.59 81.7406C183.064 81.1607 182.393 80.7127 181.578 80.3964C180.788 80.0801 179.683 79.7375 178.262 79.3685C176.473 78.8941 175.013 78.4196 173.881 77.9452C172.776 77.4444 171.829 76.6801 171.039 75.6522C170.25 74.6243 169.855 73.2537 169.855 71.5406C169.855 69.9592 170.25 68.5754 171.039 67.3894C171.829 66.2034 172.934 65.2941 174.355 64.6615C175.776 64.0289 177.42 63.7127 179.288 63.7127C181.946 63.7127 184.117 64.3848 185.801 65.7289C187.511 67.0468 188.458 68.8654 188.642 71.1847H183.669C183.59 70.1832 183.117 69.3266 182.248 68.615C181.38 67.9034 180.236 67.5475 178.815 67.5475C177.525 67.5475 176.473 67.877 175.657 68.5359C174.842 69.1948 174.434 70.1437 174.434 71.3824C174.434 72.2258 174.684 72.9243 175.184 73.4778C175.71 74.0049 176.368 74.4266 177.157 74.7429C177.946 75.0592 179.025 75.4018 180.393 75.7708C182.209 76.2716 183.683 76.7723 184.814 77.2731C185.972 77.7739 186.945 78.5514 187.735 79.6057C188.55 80.6336 188.958 82.0173 188.958 83.7568C188.958 85.1537 188.577 86.4716 187.814 87.7103C187.077 88.9491 185.985 89.9506 184.538 90.715C183.117 91.453 181.433 91.822 179.486 91.822Z" fill="#380E00"/>
<path d="M214.199 80.1196C214.199 80.9367 214.146 81.6747 214.041 82.3336H197.425C197.556 84.0731 198.201 85.47 199.359 86.5243C200.516 87.5786 201.937 88.1057 203.621 88.1057C206.042 88.1057 207.752 87.091 208.752 85.0615H213.607C212.949 87.0646 211.752 88.7119 210.015 90.0034C208.305 91.2685 206.174 91.901 203.621 91.901C201.543 91.901 199.674 91.4398 198.017 90.5173C196.385 89.5685 195.096 88.2506 194.149 86.5638C193.228 84.8506 192.767 82.8739 192.767 80.6336C192.767 78.3933 193.215 76.4297 194.109 74.7429C195.03 73.0297 196.306 71.7119 197.938 70.7894C199.595 69.8669 201.49 69.4057 203.621 69.4057C205.674 69.4057 207.502 69.8537 209.107 70.7499C210.712 71.646 211.962 72.9111 212.857 74.5452C213.751 76.153 214.199 78.0111 214.199 80.1196ZM209.502 78.6964C209.476 77.0359 208.884 75.7049 207.726 74.7034C206.568 73.7018 205.134 73.201 203.424 73.201C201.871 73.201 200.543 73.7018 199.438 74.7034C198.332 75.6786 197.675 77.0096 197.464 78.6964H209.502Z" fill="#380E00"/>
<path d="M244.952 69.4057C246.662 69.4057 248.188 69.7615 249.53 70.4731C250.899 71.1847 251.964 72.239 252.727 73.6359C253.517 75.0328 253.911 76.7196 253.911 78.6964V91.5452H249.451V79.3685C249.451 77.4181 248.965 75.9289 247.991 74.901C247.017 73.8468 245.689 73.3196 244.005 73.3196C242.321 73.3196 240.979 73.8468 239.979 74.901C239.005 75.9289 238.519 77.4181 238.519 79.3685V91.5452H234.059V79.3685C234.059 77.4181 233.572 75.9289 232.598 74.901C231.625 73.8468 230.296 73.3196 228.612 73.3196C226.928 73.3196 225.586 73.8468 224.586 74.901C223.613 75.9289 223.126 77.4181 223.126 79.3685V91.5452H218.627V69.7615H223.126V72.2522C223.863 71.3561 224.797 70.6576 225.928 70.1568C227.06 69.6561 228.27 69.4057 229.559 69.4057C231.296 69.4057 232.848 69.7747 234.217 70.5127C235.585 71.2506 236.637 72.3181 237.374 73.715C238.032 72.3972 239.058 71.3561 240.453 70.5917C241.847 69.801 243.347 69.4057 244.952 69.4057Z" fill="#380E00"/>
<path d="M261.926 66.8755C261.11 66.8755 260.426 66.5987 259.873 66.0452C259.321 65.4917 259.045 64.8065 259.045 63.9894C259.045 63.1723 259.321 62.4871 259.873 61.9336C260.426 61.3801 261.11 61.1034 261.926 61.1034C262.715 61.1034 263.386 61.3801 263.939 61.9336C264.491 62.4871 264.768 63.1723 264.768 63.9894C264.768 64.8065 264.491 65.4917 263.939 66.0452C263.386 66.5987 262.715 66.8755 261.926 66.8755ZM264.136 69.7615V91.5452H259.637V69.7615H264.136Z" fill="#380E00"/>
<path d="M284.726 77.4313C286.199 77.6948 287.449 78.4724 288.475 79.7638C289.501 81.0553 290.014 82.5181 290.014 84.1522C290.014 85.5491 289.646 86.8142 288.909 87.9475C288.199 89.0545 287.159 89.9375 285.791 90.5964C284.423 91.2289 282.831 91.5452 281.016 91.5452H270.043V64.0685H280.502C282.371 64.0685 283.976 64.3848 285.318 65.0173C286.659 65.6499 287.673 66.5065 288.357 67.5871C289.041 68.6413 289.383 69.8274 289.383 71.1452C289.383 72.7266 288.962 74.0444 288.12 75.0987C287.278 76.153 286.146 76.9305 284.726 77.4313ZM274.543 75.6127H280.108C281.581 75.6127 282.726 75.2832 283.542 74.6243C284.383 73.939 284.805 72.9638 284.805 71.6987C284.805 70.4599 284.383 69.4979 283.542 68.8127C282.726 68.101 281.581 67.7452 280.108 67.7452H274.543V75.6127ZM280.621 87.8685C282.147 87.8685 283.344 87.4995 284.212 86.7615C285.081 86.0235 285.515 84.9956 285.515 83.6778C285.515 82.3336 285.054 81.2661 284.134 80.4754C283.213 79.6847 281.989 79.2894 280.463 79.2894H274.543V87.8685H280.621Z" fill="#380E00"/>
<path d="M304.337 91.901C302.284 91.901 300.429 91.4398 298.772 90.5173C297.114 89.5685 295.812 88.2506 294.864 86.5638C293.917 84.8506 293.443 82.8739 293.443 80.6336C293.443 78.4196 293.93 76.4561 294.904 74.7429C295.877 73.0297 297.206 71.7119 298.89 70.7894C300.574 69.8669 302.455 69.4057 304.534 69.4057C306.613 69.4057 308.494 69.8669 310.178 70.7894C311.862 71.7119 313.191 73.0297 314.164 74.7429C315.138 76.4561 315.625 78.4196 315.625 80.6336C315.625 82.8475 315.125 84.8111 314.125 86.5243C313.125 88.2375 311.757 89.5685 310.02 90.5173C308.31 91.4398 306.415 91.901 304.337 91.901ZM304.337 87.9871C305.494 87.9871 306.573 87.7103 307.573 87.1568C308.599 86.6034 309.428 85.7731 310.06 84.6661C310.691 83.5592 311.007 82.215 311.007 80.6336C311.007 79.0522 310.704 77.7212 310.099 76.6406C309.494 75.5336 308.691 74.7034 307.691 74.1499C306.692 73.5964 305.613 73.3196 304.455 73.3196C303.297 73.3196 302.219 73.5964 301.219 74.1499C300.245 74.7034 299.469 75.5336 298.89 76.6406C298.311 77.7212 298.022 79.0522 298.022 80.6336C298.022 82.9793 298.614 84.7979 299.798 86.0894C301.008 87.3545 302.521 87.9871 304.337 87.9871Z" fill="#380E00"/>
<path d="M324.572 62.2894V91.5452H320.073V62.2894H324.572Z" fill="#380E00"/>
<path d="M328.979 80.5545C328.979 78.3669 329.427 76.4297 330.321 74.7429C331.242 73.0561 332.479 71.7514 334.031 70.8289C335.61 69.8801 337.36 69.4057 339.281 69.4057C340.702 69.4057 342.096 69.722 343.464 70.3545C344.859 70.9607 345.964 71.7778 346.78 72.8057V62.2894H351.319V91.5452H346.78V88.2638C346.043 89.3181 345.017 90.1879 343.701 90.8731C342.412 91.5584 340.925 91.901 339.241 91.901C337.347 91.901 335.61 91.4266 334.031 90.4778C332.479 89.5026 331.242 88.1584 330.321 86.4452C329.427 84.7057 328.979 82.7421 328.979 80.5545ZM346.78 80.6336C346.78 79.1313 346.464 77.8266 345.832 76.7196C345.227 75.6127 344.425 74.7692 343.425 74.1894C342.425 73.6096 341.346 73.3196 340.188 73.3196C339.031 73.3196 337.952 73.6096 336.952 74.1894C335.952 74.7429 335.136 75.5731 334.505 76.6801C333.9 77.7607 333.597 79.0522 333.597 80.5545C333.597 82.0568 333.9 83.3747 334.505 84.508C335.136 85.6413 335.952 86.5111 336.952 87.1173C337.978 87.6972 339.057 87.9871 340.188 87.9871C341.346 87.9871 342.425 87.6972 343.425 87.1173C344.425 86.5375 345.227 85.6941 345.832 84.5871C346.464 83.4537 346.78 82.1359 346.78 80.6336Z" fill="#380E00"/>
<path d="M366.297 66.8359V62.7243H374.506V91.5452H369.967V66.8359H366.297Z" fill="#380E00"/>
<path d="M385.542 76.4824C382.805 75.1119 381.437 72.9506 381.437 69.9987C381.437 68.5754 381.792 67.2708 382.503 66.0847C383.213 64.8987 384.279 63.963 385.7 63.2778C387.121 62.5661 388.857 62.2103 390.91 62.2103C392.936 62.2103 394.659 62.5661 396.08 63.2778C397.527 63.963 398.606 64.8987 399.316 66.0847C400.027 67.2708 400.382 68.5754 400.382 69.9987C400.382 71.4747 400 72.7793 399.237 73.9127C398.501 75.0196 397.514 75.8762 396.277 76.4824C397.777 77.0359 398.961 77.9452 399.829 79.2103C400.698 80.4491 401.132 81.9119 401.132 83.5987C401.132 85.3119 400.698 86.8274 399.829 88.1452C398.961 89.463 397.751 90.4778 396.198 91.1894C394.646 91.901 392.883 92.2568 390.91 92.2568C388.936 92.2568 387.173 91.901 385.621 91.1894C384.095 90.4778 382.897 89.463 382.029 88.1452C381.161 86.8274 380.727 85.3119 380.727 83.5987C380.727 81.8855 381.161 80.4096 382.029 79.1708C382.897 77.932 384.068 77.0359 385.542 76.4824ZM396.08 70.5522C396.08 69.0762 395.619 67.9429 394.699 67.1522C393.778 66.3615 392.515 65.9661 390.91 65.9661C389.331 65.9661 388.081 66.3615 387.16 67.1522C386.239 67.9429 385.779 69.0894 385.779 70.5917C385.779 71.9096 386.252 72.9902 387.2 73.8336C388.173 74.6506 389.41 75.0592 390.91 75.0592C392.409 75.0592 393.646 74.6375 394.62 73.7941C395.593 72.9506 396.08 71.87 396.08 70.5522ZM390.91 78.4592C389.173 78.4592 387.752 78.8941 386.647 79.7638C385.568 80.6072 385.029 81.8328 385.029 83.4406C385.029 84.9429 385.555 86.1685 386.607 87.1173C387.66 88.0398 389.094 88.501 390.91 88.501C392.699 88.501 394.106 88.0266 395.133 87.0778C396.185 86.1289 396.711 84.9165 396.711 83.4406C396.711 81.8592 396.172 80.6336 395.093 79.7638C394.041 78.8941 392.646 78.4592 390.91 78.4592Z" fill="#380E00"/>
<path d="M435.882 72.2522C435.882 73.6491 435.553 74.9669 434.895 76.2057C434.238 77.4444 433.185 78.4592 431.738 79.2499C430.291 80.0142 428.436 80.3964 426.173 80.3964H421.2V91.5452H416.701V64.0685H426.173C428.278 64.0685 430.054 64.4375 431.501 65.1754C432.975 65.8871 434.067 66.8623 434.777 68.101C435.514 69.3398 435.882 70.7235 435.882 72.2522ZM426.173 76.7196C427.883 76.7196 429.159 76.3375 430.001 75.5731C430.843 74.7824 431.264 73.6754 431.264 72.2522C431.264 69.2475 429.567 67.7452 426.173 67.7452H421.2V76.7196H426.173Z" fill="#380E00"/>
<path d="M442.463 66.8755C441.647 66.8755 440.963 66.5987 440.41 66.0452C439.858 65.4917 439.581 64.8065 439.581 63.9894C439.581 63.1723 439.858 62.4871 440.41 61.9336C440.963 61.3801 441.647 61.1034 442.463 61.1034C443.252 61.1034 443.923 61.3801 444.475 61.9336C445.028 62.4871 445.304 63.1723 445.304 63.9894C445.304 64.8065 445.028 65.4917 444.475 66.0452C443.923 66.5987 443.252 66.8755 442.463 66.8755ZM444.673 69.7615V91.5452H440.173V69.7615H444.673Z" fill="#380E00"/>
<path d="M459.895 80.515L466.92 91.5452H461.829L457.132 84.1522L452.711 91.5452H448.015L455.04 80.8313L448.015 69.7615H453.106L457.803 77.1545L462.223 69.7615H466.92L459.895 80.515Z" fill="#380E00"/>
<path d="M490.207 80.1196C490.207 80.9367 490.155 81.6747 490.049 82.3336H473.433C473.565 84.0731 474.209 85.47 475.367 86.5243C476.525 87.5786 477.946 88.1057 479.63 88.1057C482.05 88.1057 483.761 87.091 484.761 85.0615H489.615C488.957 87.0646 487.76 88.7119 486.024 90.0034C484.313 91.2685 482.182 91.901 479.63 91.901C477.551 91.901 475.683 91.4398 474.025 90.5173C472.394 89.5685 471.105 88.2506 470.157 86.5638C469.236 84.8506 468.776 82.8739 468.776 80.6336C468.776 78.3933 469.223 76.4297 470.118 74.7429C471.039 73.0297 472.315 71.7119 473.946 70.7894C475.604 69.8669 477.498 69.4057 479.63 69.4057C481.682 69.4057 483.511 69.8537 485.116 70.7499C486.721 71.646 487.971 72.9111 488.865 74.5452C489.76 76.153 490.207 78.0111 490.207 80.1196ZM485.51 78.6964C485.484 77.0359 484.892 75.7049 483.734 74.7034C482.577 73.7018 481.143 73.201 479.432 73.201C477.88 73.201 476.551 73.7018 475.446 74.7034C474.341 75.6786 473.683 77.0096 473.473 78.6964H485.51Z" fill="#380E00"/>
<path d="M499.134 62.2894V91.5452H494.635V62.2894H499.134Z" fill="#380E00"/>
<path d="M512.935 91.901C511.225 91.901 509.686 91.5979 508.318 90.9917C506.976 90.3592 505.91 89.5158 505.121 88.4615C504.331 87.3809 503.91 86.1816 503.858 84.8638H508.515C508.594 85.7863 509.028 86.5638 509.817 87.1964C510.633 87.8026 511.646 88.1057 512.857 88.1057C514.12 88.1057 515.093 87.8685 515.777 87.3941C516.488 86.8933 516.843 86.2607 516.843 85.4964C516.843 84.6793 516.448 84.0731 515.659 83.6778C514.896 83.2824 513.672 82.8475 511.988 82.3731C510.357 81.9251 509.028 81.4902 508.002 81.0685C506.976 80.6468 506.081 80.001 505.318 79.1313C504.581 78.2615 504.213 77.115 504.213 75.6917C504.213 74.532 504.555 73.4778 505.239 72.5289C505.923 71.5537 506.897 70.7894 508.16 70.2359C509.449 69.6824 510.923 69.4057 512.58 69.4057C515.054 69.4057 517.04 70.0382 518.54 71.3034C520.066 72.5421 520.882 74.2421 520.987 76.4034H516.488C516.409 75.4282 516.014 74.6506 515.304 74.0708C514.593 73.491 513.633 73.201 512.422 73.201C511.238 73.201 510.331 73.4251 509.699 73.8731C509.068 74.3212 508.752 74.9142 508.752 75.6522C508.752 76.232 508.962 76.7196 509.383 77.115C509.804 77.5103 510.317 77.8266 510.923 78.0638C511.528 78.2747 512.422 78.5514 513.606 78.8941C515.185 79.3158 516.474 79.7506 517.474 80.1987C518.5 80.6204 519.382 81.253 520.119 82.0964C520.855 82.9398 521.237 84.0599 521.263 85.4568C521.263 86.6956 520.921 87.8026 520.237 88.7778C519.553 89.753 518.579 90.5173 517.316 91.0708C516.08 91.6243 514.619 91.901 512.935 91.901Z" fill="#380E00"/>
<path d="M545.416 91.822C543.574 91.822 541.916 91.5057 540.443 90.8731C538.969 90.2142 537.811 89.2917 536.969 88.1057C536.128 86.9196 535.706 85.5359 535.706 83.9545H540.522C540.627 85.1406 541.087 86.1158 541.903 86.8801C542.745 87.6444 543.916 88.0266 545.416 88.0266C546.968 88.0266 548.178 87.6576 549.047 86.9196C549.915 86.1553 550.349 85.1801 550.349 83.994C550.349 83.0716 550.073 82.3204 549.52 81.7406C548.994 81.1607 548.323 80.7127 547.508 80.3964C546.718 80.0801 545.613 79.7375 544.192 79.3685C542.403 78.8941 540.943 78.4196 539.811 77.9452C538.706 77.4444 537.759 76.6801 536.969 75.6522C536.18 74.6243 535.785 73.2537 535.785 71.5406C535.785 69.9592 536.18 68.5754 536.969 67.3894C537.759 66.2034 538.864 65.2941 540.285 64.6615C541.706 64.0289 543.35 63.7127 545.218 63.7127C547.876 63.7127 550.047 64.3848 551.731 65.7289C553.441 67.0468 554.388 68.8654 554.572 71.1847H549.599C549.52 70.1832 549.047 69.3266 548.178 68.615C547.31 67.9034 546.166 67.5475 544.745 67.5475C543.455 67.5475 542.403 67.877 541.587 68.5359C540.772 69.1948 540.364 70.1437 540.364 71.3824C540.364 72.2258 540.614 72.9243 541.114 73.4778C541.64 74.0049 542.298 74.4266 543.087 74.7429C543.876 75.0592 544.955 75.4018 546.323 75.7708C548.139 76.2716 549.612 76.7723 550.744 77.2731C551.902 77.7739 552.875 78.5514 553.665 79.6057C554.48 80.6336 554.888 82.0173 554.888 83.7568C554.888 85.1537 554.507 86.4716 553.744 87.7103C553.007 88.9491 551.915 89.9506 550.468 90.715C549.047 91.453 547.363 91.822 545.416 91.822Z" fill="#380E00"/>
<path d="M579.892 69.7615V91.5452H575.393V88.9754C574.682 89.8716 573.748 90.5832 572.59 91.1103C571.459 91.6111 570.248 91.8615 568.959 91.8615C567.249 91.8615 565.71 91.5057 564.341 90.7941C562.999 90.0824 561.934 89.0282 561.144 87.6313C560.381 86.2344 560 84.5475 560 82.5708V69.7615H564.46V81.8987C564.46 83.8491 564.947 85.3514 565.92 86.4057C566.894 87.4336 568.222 87.9475 569.906 87.9475C571.59 87.9475 572.919 87.4336 573.893 86.4057C574.893 85.3514 575.393 83.8491 575.393 81.8987V69.7615H579.892Z" fill="#380E00"/>
<path d="M590.328 73.0033C591.091 71.9491 592.13 71.0925 593.446 70.4336C594.788 69.7483 596.274 69.4057 597.906 69.4057C599.827 69.4057 601.563 69.8669 603.116 70.7894C604.668 71.7119 605.892 73.0297 606.786 74.7429C607.681 76.4297 608.128 78.3669 608.128 80.5545C608.128 82.7421 607.681 84.7057 606.786 86.4452C605.892 88.1584 604.655 89.5026 603.076 90.4778C601.524 91.4266 599.8 91.901 597.906 91.901C596.222 91.901 594.722 91.5716 593.406 90.9127C592.117 90.2537 591.091 89.4103 590.328 88.3824V91.5452H585.828V62.2894H590.328V73.0033ZM603.55 80.5545C603.55 79.0522 603.234 77.7607 602.603 76.6801C601.997 75.5731 601.182 74.7429 600.155 74.1894C599.156 73.6096 598.077 73.3196 596.919 73.3196C595.788 73.3196 594.709 73.6096 593.683 74.1894C592.683 74.7692 591.867 75.6127 591.236 76.7196C590.63 77.8266 590.328 79.1313 590.328 80.6336C590.328 82.1359 590.63 83.4537 591.236 84.5871C591.867 85.6941 592.683 86.5375 593.683 87.1173C594.709 87.6972 595.788 87.9871 596.919 87.9871C598.077 87.9871 599.156 87.6972 600.155 87.1173C601.182 86.5111 601.997 85.6413 602.603 84.508C603.234 83.3747 603.55 82.0568 603.55 80.5545Z" fill="#380E00"/>
<path d="M631.868 91.822C630.026 91.822 628.369 91.5057 626.895 90.8731C625.422 90.2142 624.264 89.2917 623.422 88.1057C622.58 86.9196 622.159 85.5359 622.159 83.9545H626.974C627.079 85.1406 627.54 86.1158 628.356 86.8801C629.198 87.6444 630.369 88.0266 631.868 88.0266C633.421 88.0266 634.631 87.6576 635.499 86.9196C636.368 86.1553 636.802 85.1801 636.802 83.994C636.802 83.0716 636.526 82.3204 635.973 81.7406C635.447 81.1607 634.776 80.7127 633.96 80.3964C633.171 80.0801 632.066 79.7375 630.645 79.3685C628.856 78.8941 627.395 78.4196 626.264 77.9452C625.159 77.4444 624.211 76.6801 623.422 75.6522C622.633 74.6243 622.238 73.2537 622.238 71.5406C622.238 69.9592 622.633 68.5754 623.422 67.3894C624.211 66.2034 625.317 65.2941 626.737 64.6615C628.158 64.0289 629.803 63.7127 631.671 63.7127C634.328 63.7127 636.499 64.3848 638.183 65.7289C639.894 67.0468 640.841 68.8654 641.025 71.1847H636.052C635.973 70.1832 635.499 69.3266 634.631 68.615C633.763 67.9034 632.618 67.5475 631.197 67.5475C629.908 67.5475 628.856 67.877 628.04 68.5359C627.224 69.1948 626.816 70.1437 626.816 71.3824C626.816 72.2258 627.066 72.9243 627.566 73.4778C628.092 74.0049 628.75 74.4266 629.54 74.7429C630.329 75.0592 631.408 75.4018 632.776 75.7708C634.592 76.2716 636.065 76.7723 637.197 77.2731C638.354 77.7739 639.328 78.5514 640.117 79.6057C640.933 80.6336 641.341 82.0173 641.341 83.7568C641.341 85.1537 640.959 86.4716 640.196 87.7103C639.459 88.9491 638.367 89.9506 636.92 90.715C635.499 91.453 633.815 91.822 631.868 91.822Z" fill="#380E00"/>
<path d="M666.581 80.1196C666.581 80.9367 666.529 81.6747 666.423 82.3336H649.807C649.939 84.0731 650.583 85.47 651.741 86.5243C652.899 87.5786 654.32 88.1057 656.004 88.1057C658.424 88.1057 660.135 87.091 661.135 85.0615H665.989C665.331 87.0646 664.134 88.7119 662.398 90.0034C660.687 91.2685 658.556 91.901 656.004 91.901C653.925 91.901 652.057 91.4398 650.399 90.5173C648.768 89.5685 647.479 88.2506 646.531 86.5638C645.61 84.8506 645.15 82.8739 645.15 80.6336C645.15 78.3933 645.597 76.4297 646.492 74.7429C647.413 73.0297 648.689 71.7119 650.32 70.7894C651.978 69.8669 653.872 69.4057 656.004 69.4057C658.056 69.4057 659.885 69.8537 661.49 70.7499C663.095 71.646 664.345 72.9111 665.239 74.5452C666.134 76.153 666.581 78.0111 666.581 80.1196ZM661.885 78.6964C661.858 77.0359 661.266 75.7049 660.109 74.7034C658.951 73.7018 657.517 73.201 655.806 73.201C654.254 73.201 652.925 73.7018 651.82 74.7034C650.715 75.6786 650.057 77.0096 649.847 78.6964H661.885Z" fill="#380E00"/>
<path d="M669.509 80.6336C669.509 78.3933 669.957 76.4297 670.851 74.7429C671.772 73.0297 673.035 71.7119 674.64 70.7894C676.245 69.8669 678.087 69.4057 680.166 69.4057C682.797 69.4057 684.968 70.0382 686.678 71.3034C688.415 72.5421 689.586 74.3212 690.191 76.6406H685.336C684.941 75.5599 684.31 74.7165 683.442 74.1103C682.573 73.5041 681.481 73.201 680.166 73.201C678.324 73.201 676.85 73.8599 675.745 75.1778C674.667 76.4692 674.127 78.2879 674.127 80.6336C674.127 82.9793 674.667 84.8111 675.745 86.1289C676.85 87.4468 678.324 88.1057 680.166 88.1057C682.771 88.1057 684.494 86.9592 685.336 84.6661H690.191C689.559 86.8801 688.375 88.646 686.639 89.9638C684.902 91.2553 682.744 91.901 680.166 91.901C678.087 91.901 676.245 91.4398 674.64 90.5173C673.035 89.5685 671.772 88.2506 670.851 86.5638C669.957 84.8506 669.509 82.8739 669.509 80.6336Z" fill="#380E00"/>
<path d="M699.924 73.4382V85.4964C699.924 86.3134 700.108 86.9065 700.477 87.2754C700.871 87.6181 701.529 87.7894 702.45 87.7894H705.213V91.5452H701.661C699.635 91.5452 698.082 91.0708 697.003 90.122C695.925 89.1731 695.385 87.6313 695.385 85.4964V73.4382H692.82V69.7615H695.385V64.3452H699.924V69.7615H705.213V73.4382H699.924Z" fill="#380E00"/>
<path d="M711.649 66.8755C710.833 66.8755 710.149 66.5987 709.597 66.0452C709.044 65.4917 708.768 64.8065 708.768 63.9894C708.768 63.1723 709.044 62.4871 709.597 61.9336C710.149 61.3801 710.833 61.1034 711.649 61.1034C712.438 61.1034 713.109 61.3801 713.662 61.9336C714.214 62.4871 714.491 63.1723 714.491 63.9894C714.491 64.8065 714.214 65.4917 713.662 66.0452C713.109 66.5987 712.438 66.8755 711.649 66.8755ZM713.859 69.7615V91.5452H709.36V69.7615H713.859Z" fill="#380E00"/>
<path d="M729.199 91.901C727.147 91.901 725.292 91.4398 723.634 90.5173C721.977 89.5685 720.674 88.2506 719.727 86.5638C718.78 84.8506 718.306 82.8739 718.306 80.6336C718.306 78.4196 718.793 76.4561 719.766 74.7429C720.74 73.0297 722.069 71.7119 723.753 70.7894C725.437 69.8669 727.318 69.4057 729.397 69.4057C731.475 69.4057 733.357 69.8669 735.041 70.7894C736.725 71.7119 738.053 73.0297 739.027 74.7429C740 76.4561 740.487 78.4196 740.487 80.6336C740.487 82.8475 739.987 84.8111 738.987 86.5243C737.988 88.2375 736.619 89.5685 734.883 90.5173C733.172 91.4398 731.278 91.901 729.199 91.901ZM729.199 87.9871C730.357 87.9871 731.436 87.7103 732.436 87.1568C733.462 86.6034 734.291 85.7731 734.922 84.6661C735.554 83.5592 735.87 82.215 735.87 80.6336C735.87 79.0522 735.567 77.7212 734.962 76.6406C734.357 75.5336 733.554 74.7034 732.554 74.1499C731.554 73.5964 730.476 73.3196 729.318 73.3196C728.16 73.3196 727.081 73.5964 726.081 74.1499C725.108 74.7034 724.332 75.5336 723.753 76.6406C723.174 77.7212 722.884 79.0522 722.884 80.6336C722.884 82.9793 723.476 84.7979 724.66 86.0894C725.871 87.3545 727.384 87.9871 729.199 87.9871Z" fill="#380E00"/>
<path d="M755.907 69.4057C757.618 69.4057 759.144 69.7615 760.486 70.4731C761.854 71.1847 762.92 72.239 763.683 73.6359C764.446 75.0328 764.827 76.7196 764.827 78.6964V91.5452H760.367V79.3685C760.367 77.4181 759.881 75.9289 758.907 74.901C757.933 73.8468 756.605 73.3196 754.921 73.3196C753.237 73.3196 751.895 73.8468 750.895 74.901C749.921 75.9289 749.435 77.4181 749.435 79.3685V91.5452H744.935V69.7615H749.435V72.2522C750.171 71.3561 751.105 70.6576 752.237 70.1568C753.395 69.6561 754.618 69.4057 755.907 69.4057Z" fill="#380E00"/>
<path d="M802.724 64.0685V91.5452H798.225V79.5266H785.318V91.5452H780.819V64.0685H785.318V75.8499H798.225V64.0685H802.724Z" fill="#380E00"/>
<path d="M828.579 80.1196C828.579 80.9367 828.526 81.6747 828.421 82.3336H811.805C811.936 84.0731 812.581 85.47 813.739 86.5243C814.896 87.5786 816.317 88.1057 818.001 88.1057C820.422 88.1057 822.132 87.091 823.132 85.0615H827.987C827.329 87.0646 826.132 88.7119 824.395 90.0034C822.685 91.2685 820.554 91.901 818.001 91.901C815.923 91.901 814.054 91.4398 812.397 90.5173C810.765 89.5685 809.476 88.2506 808.529 86.5638C807.608 84.8506 807.147 82.8739 807.147 80.6336C807.147 78.3933 807.595 76.4297 808.489 74.7429C809.41 73.0297 810.686 71.7119 812.318 70.7894C813.975 69.8669 815.87 69.4057 818.001 69.4057C820.054 69.4057 821.882 69.8537 823.487 70.7499C825.092 71.646 826.342 72.9111 827.237 74.5452C828.131 76.153 828.579 78.0111 828.579 80.1196ZM823.882 78.6964C823.856 77.0359 823.264 75.7049 822.106 74.7034C820.948 73.7018 819.514 73.201 817.804 73.201C816.251 73.201 814.923 73.7018 813.818 74.7034C812.712 75.6786 812.055 77.0096 811.844 78.6964H823.882Z" fill="#380E00"/>
<path d="M831.507 80.5545C831.507 78.3669 831.954 76.4297 832.849 74.7429C833.77 73.0561 835.006 71.7514 836.559 70.8289C838.137 69.8801 839.874 69.4057 841.769 69.4057C843.479 69.4057 844.966 69.7483 846.228 70.4336C847.518 71.0925 848.544 71.9227 849.307 72.9243V69.7615H853.846V91.5452H849.307V88.3034C848.544 89.3313 847.505 90.1879 846.189 90.8731C844.873 91.5584 843.374 91.901 841.69 91.901C839.821 91.901 838.111 91.4266 836.559 90.4778C835.006 89.5026 833.77 88.1584 832.849 86.4452C831.954 84.7057 831.507 82.7421 831.507 80.5545ZM849.307 80.6336C849.307 79.1313 848.991 77.8266 848.36 76.7196C847.755 75.6127 846.952 74.7692 845.952 74.1894C844.952 73.6096 843.874 73.3196 842.716 73.3196C841.558 73.3196 840.479 73.6096 839.479 74.1894C838.48 74.7429 837.664 75.5731 837.032 76.6801C836.427 77.7607 836.125 79.0522 836.125 80.5545C836.125 82.0568 836.427 83.3747 837.032 84.508C837.664 85.6413 838.48 86.5111 839.479 87.1173C840.506 87.6972 841.584 87.9871 842.716 87.9871C843.874 87.9871 844.952 87.6972 845.952 87.1173C846.952 86.5375 847.755 85.6941 848.36 84.5871C848.991 83.4537 849.307 82.1359 849.307 80.6336Z" fill="#380E00"/>
<path d="M858.256 80.5545C858.256 78.3669 858.703 76.4297 859.598 74.7429C860.519 73.0561 861.755 71.7514 863.308 70.8289C864.887 69.8801 866.636 69.4057 868.557 69.4057C869.978 69.4057 871.372 69.722 872.741 70.3545C874.135 70.9607 875.24 71.7778 876.056 72.8057V62.2894H880.595V91.5452H876.056V88.2638C875.319 89.3181 874.293 90.1879 872.978 90.8731C871.688 91.5584 870.202 91.901 868.518 91.901C866.623 91.901 864.887 91.4266 863.308 90.4778C861.755 89.5026 860.519 88.1584 859.598 86.4452C858.703 84.7057 858.256 82.7421 858.256 80.5545ZM876.056 80.6336C876.056 79.1313 875.74 77.8266 875.109 76.7196C874.504 75.6127 873.701 74.7692 872.701 74.1894C871.701 73.6096 870.623 73.3196 869.465 73.3196C868.307 73.3196 867.228 73.6096 866.228 74.1894C865.229 74.7429 864.413 75.5731 863.781 76.6801C863.176 77.7607 862.874 79.0522 862.874 80.5545C862.874 82.0568 863.176 83.3747 863.781 84.508C864.413 85.6413 865.229 86.5111 866.228 87.1173C867.255 87.6972 868.333 87.9871 869.465 87.9871C870.623 87.9871 871.701 87.6972 872.701 87.1173C873.701 86.5375 874.504 85.6941 875.109 84.5871C875.74 83.4537 876.056 82.1359 876.056 80.6336Z" fill="#380E00"/>
<path d="M12.2615 115.89C12.2615 117.419 11.7353 118.693 10.6828 119.712C9.64781 120.713 8.06031 121.214 5.92025 121.214H2.39441V128.884H0V110.513H5.92025C7.99014 110.513 9.56011 111.014 10.6301 112.015C11.7177 113.017 12.2615 114.309 12.2615 115.89ZM5.92025 119.237C7.2534 119.237 8.23572 118.947 8.86722 118.367C9.49871 117.788 9.81446 116.962 9.81446 115.89C9.81446 113.623 8.51639 112.49 5.92025 112.49H2.39441V119.237H5.92025Z" fill="#380E00"/>
<path d="M21.5261 129.121C20.1754 129.121 18.9475 128.813 17.8424 128.198C16.7548 127.583 15.8953 126.714 15.2638 125.589C14.6498 124.447 14.3428 123.129 14.3428 121.636C14.3428 120.16 14.6586 118.859 15.2901 117.735C15.9391 116.593 16.8162 115.723 17.9213 115.126C19.0264 114.511 20.2631 114.203 21.6313 114.203C22.9996 114.203 24.2362 114.511 25.3413 115.126C26.4465 115.723 27.3148 116.584 27.9462 117.709C28.5953 118.833 28.9198 120.142 28.9198 121.636C28.9198 123.129 28.5865 124.447 27.9199 125.589C27.2709 126.714 26.3851 127.583 25.2624 128.198C24.1397 128.813 22.8943 129.121 21.5261 129.121ZM21.5261 127.012C22.3856 127.012 23.1925 126.81 23.9468 126.406C24.7011 126.002 25.3063 125.396 25.7623 124.588C26.236 123.779 26.4728 122.795 26.4728 121.636C26.4728 120.476 26.2447 119.492 25.7886 118.684C25.3326 117.875 24.7362 117.278 23.9994 116.891C23.2627 116.487 22.4645 116.285 21.605 116.285C20.7279 116.285 19.921 116.487 19.1843 116.891C18.4651 117.278 17.8862 117.875 17.4477 118.684C17.0091 119.492 16.7899 120.476 16.7899 121.636C16.7899 122.813 17.0004 123.806 17.4214 124.614C17.8599 125.422 18.4388 126.028 19.158 126.433C19.8772 126.819 20.6665 127.012 21.5261 127.012Z" fill="#380E00"/>
<path d="M34.4624 117.102C34.936 116.276 35.6377 115.591 36.5674 115.047C37.5146 114.484 38.611 114.203 39.8564 114.203C41.137 114.203 42.2947 114.511 43.3296 115.126C44.3821 115.741 45.2066 116.61 45.803 117.735C46.3994 118.842 46.6976 120.133 46.6976 121.609C46.6976 123.068 46.3994 124.368 45.803 125.51C45.2066 126.652 44.3821 127.54 43.3296 128.172C42.2947 128.805 41.137 129.121 39.8564 129.121C38.6285 129.121 37.541 128.849 36.5937 128.304C35.664 127.742 34.9536 127.048 34.4624 126.222V135.736H32.068V114.44H34.4624V117.102ZM44.2506 121.609C44.2506 120.52 44.0313 119.571 43.5928 118.763C43.1542 117.955 42.5578 117.34 41.8035 116.918C41.0668 116.496 40.2511 116.285 39.3565 116.285C38.4794 116.285 37.6637 116.505 36.9095 116.944C36.1727 117.366 35.5763 117.99 35.1202 118.815C34.6817 119.624 34.4624 120.564 34.4624 121.636C34.4624 122.725 34.6817 123.683 35.1202 124.509C35.5763 125.317 36.1727 125.941 36.9095 126.38C37.6637 126.802 38.4794 127.012 39.3565 127.012C40.2511 127.012 41.0668 126.802 41.8035 126.38C42.5578 125.941 43.1542 125.317 43.5928 124.509C44.0313 123.683 44.2506 122.716 44.2506 121.609Z" fill="#380E00"/>
<path d="M52.2437 117.102C52.7174 116.276 53.419 115.591 54.3487 115.047C55.296 114.484 56.3923 114.203 57.6377 114.203C58.9183 114.203 60.076 114.511 61.111 115.126C62.1634 115.741 62.9879 116.61 63.5843 117.735C64.1807 118.842 64.4789 120.133 64.4789 121.609C64.4789 123.068 64.1807 124.368 63.5843 125.51C62.9879 126.652 62.1634 127.54 61.111 128.172C60.076 128.805 58.9183 129.121 57.6377 129.121C56.4098 129.121 55.3223 128.849 54.375 128.304C53.4453 127.742 52.7349 127.048 52.2437 126.222V135.736H49.8493V114.44H52.2437V117.102ZM62.0319 121.609C62.0319 120.52 61.8126 119.571 61.3741 118.763C60.9355 117.955 60.3391 117.34 59.5848 116.918C58.8481 116.496 58.0324 116.285 57.1378 116.285C56.2607 116.285 55.4451 116.505 54.6908 116.944C53.954 117.366 53.3576 117.99 52.9015 118.815C52.463 119.624 52.2437 120.564 52.2437 121.636C52.2437 122.725 52.463 123.683 52.9015 124.509C53.3576 125.317 53.954 125.941 54.6908 126.38C55.4451 126.802 56.2607 127.012 57.1378 127.012C58.0324 127.012 58.8481 126.802 59.5848 126.38C60.3391 125.941 60.9355 125.317 61.3741 124.509C61.8126 123.683 62.0319 122.716 62.0319 121.609Z" fill="#380E00"/>
<path d="M68.8673 112.095C68.4112 112.095 68.0253 111.936 67.7096 111.62C67.3938 111.304 67.2359 110.917 67.2359 110.46C67.2359 110.004 67.3938 109.617 67.7096 109.301C68.0253 108.984 68.4112 108.826 68.8673 108.826C69.3058 108.826 69.6742 108.984 69.9724 109.301C70.2882 109.617 70.446 110.004 70.446 110.46C70.446 110.917 70.2882 111.304 69.9724 111.62C69.6742 111.936 69.3058 112.095 68.8673 112.095ZM70.025 114.44V128.884H67.6306V114.44H70.025Z" fill="#380E00"/>
<path d="M81.1313 114.177C82.8854 114.177 84.3063 114.713 85.3938 115.784C86.4814 116.839 87.0252 118.367 87.0252 120.371V128.884H84.6571V120.713C84.6571 119.272 84.2975 118.174 83.5783 117.419C82.8591 116.645 81.8768 116.259 80.6313 116.259C79.3683 116.259 78.3597 116.654 77.6054 117.445C76.8687 118.236 76.5003 119.387 76.5003 120.898V128.884H74.1059V114.44H76.5003V116.496C76.9739 115.758 77.6142 115.187 78.4211 114.783C79.2455 114.379 80.1489 114.177 81.1313 114.177Z" fill="#380E00"/>
<path d="M96.041 129.121C94.9359 129.121 93.9448 128.936 93.0678 128.567C92.1907 128.181 91.4978 127.654 90.9891 126.986C90.4804 126.301 90.1997 125.519 90.1471 124.64H92.6205C92.6906 125.361 93.0239 125.949 93.6203 126.406C94.2343 126.863 95.0324 127.091 96.0147 127.091C96.9269 127.091 97.6461 126.889 98.1723 126.485C98.6986 126.081 98.9617 125.572 98.9617 124.957C98.9617 124.324 98.681 123.858 98.1197 123.56C97.5584 123.243 96.6901 122.936 95.5148 122.637C94.4448 122.356 93.5677 122.075 92.8836 121.794C92.217 121.495 91.6381 121.065 91.147 120.502C90.6733 119.922 90.4365 119.167 90.4365 118.236C90.4365 117.498 90.6558 116.821 91.0943 116.206C91.5329 115.591 92.1556 115.108 92.9625 114.757C93.7694 114.388 94.6903 114.203 95.7253 114.203C97.3216 114.203 98.6109 114.607 99.5932 115.415C100.576 116.224 101.102 117.331 101.172 118.736H98.7775C98.7249 117.981 98.4179 117.375 97.8566 116.918C97.3128 116.461 96.576 116.233 95.6464 116.233C94.7868 116.233 94.1027 116.417 93.594 116.786C93.0853 117.155 92.8309 117.638 92.8309 118.236C92.8309 118.71 92.98 119.105 93.2783 119.422C93.594 119.72 93.9799 119.966 94.436 120.16C94.9096 120.335 95.5586 120.537 96.3831 120.766C97.418 121.047 98.26 121.328 98.9091 121.609C99.5581 121.873 100.111 122.277 100.567 122.822C101.04 123.366 101.286 124.078 101.303 124.957C101.303 125.747 101.084 126.459 100.646 127.091C100.207 127.724 99.5844 128.225 98.7775 128.594C97.9881 128.945 97.076 129.121 96.041 129.121Z" fill="#380E00"/>
<path d="M121.355 128.884L116.987 121.372H114.093V128.884H111.698V110.513H117.619C119.004 110.513 120.171 110.75 121.118 111.225C122.083 111.699 122.802 112.341 123.276 113.149C123.749 113.957 123.986 114.88 123.986 115.916C123.986 117.181 123.618 118.297 122.881 119.264C122.162 120.23 121.074 120.871 119.618 121.188L124.223 128.884H121.355ZM114.093 119.448H117.619C118.917 119.448 119.89 119.132 120.539 118.499C121.188 117.849 121.513 116.988 121.513 115.916C121.513 114.827 121.188 113.983 120.539 113.386C119.908 112.789 118.934 112.49 117.619 112.49H114.093V119.448Z" fill="#380E00"/>
<path d="M140.863 121.109C140.863 121.565 140.837 122.049 140.784 122.558H129.259C129.347 123.981 129.829 125.097 130.706 125.905C131.601 126.696 132.68 127.091 133.943 127.091C134.978 127.091 135.837 126.854 136.521 126.38C137.223 125.888 137.714 125.238 137.995 124.429H140.573C140.188 125.818 139.416 126.951 138.258 127.829C137.1 128.69 135.662 129.121 133.943 129.121C132.575 129.121 131.347 128.813 130.259 128.198C129.189 127.583 128.347 126.714 127.733 125.589C127.119 124.447 126.812 123.129 126.812 121.636C126.812 120.142 127.11 118.833 127.707 117.709C128.303 116.584 129.136 115.723 130.206 115.126C131.294 114.511 132.539 114.203 133.943 114.203C135.311 114.203 136.521 114.502 137.574 115.099C138.626 115.697 139.433 116.522 139.995 117.577C140.573 118.613 140.863 119.791 140.863 121.109ZM138.39 120.608C138.39 119.694 138.188 118.912 137.784 118.262C137.381 117.594 136.828 117.094 136.127 116.76C135.443 116.408 134.68 116.233 133.838 116.233C132.627 116.233 131.592 116.619 130.733 117.392C129.891 118.165 129.408 119.237 129.286 120.608H138.39Z" fill="#380E00"/>
<path d="M149.97 114.203C151.215 114.203 152.303 114.475 153.233 115.02C154.18 115.565 154.882 116.25 155.338 117.076V114.44H157.758V129.2C157.758 130.518 157.478 131.686 156.916 132.705C156.355 133.742 155.548 134.55 154.496 135.13C153.461 135.71 152.25 136 150.865 136C148.97 136 147.391 135.552 146.128 134.656C144.865 133.76 144.12 132.538 143.892 130.992H146.26C146.523 131.871 147.067 132.574 147.891 133.101C148.716 133.645 149.707 133.918 150.865 133.918C152.18 133.918 153.25 133.505 154.075 132.679C154.917 131.853 155.338 130.694 155.338 129.2V126.169C154.864 127.012 154.162 127.715 153.233 128.278C152.303 128.84 151.215 129.121 149.97 129.121C148.689 129.121 147.523 128.805 146.47 128.172C145.436 127.54 144.62 126.652 144.023 125.51C143.427 124.368 143.129 123.068 143.129 121.609C143.129 120.133 143.427 118.842 144.023 117.735C144.62 116.61 145.436 115.741 146.47 115.126C147.523 114.511 148.689 114.203 149.97 114.203ZM155.338 121.636C155.338 120.546 155.118 119.597 154.68 118.789C154.241 117.981 153.645 117.366 152.891 116.944C152.154 116.505 151.338 116.285 150.444 116.285C149.549 116.285 148.733 116.496 147.997 116.918C147.26 117.34 146.672 117.955 146.234 118.763C145.795 119.571 145.576 120.52 145.576 121.609C145.576 122.716 145.795 123.683 146.234 124.509C146.672 125.317 147.26 125.941 147.997 126.38C148.733 126.802 149.549 127.012 150.444 127.012C151.338 127.012 152.154 126.802 152.891 126.38C153.645 125.941 154.241 125.317 154.68 124.509C155.118 123.683 155.338 122.725 155.338 121.636Z" fill="#380E00"/>
<path d="M174.592 114.44V128.884H172.198V126.749C171.742 127.487 171.102 128.067 170.277 128.488C169.47 128.893 168.576 129.095 167.593 129.095C166.471 129.095 165.462 128.866 164.568 128.409C163.673 127.935 162.962 127.232 162.436 126.301C161.928 125.37 161.673 124.236 161.673 122.901V114.44H164.041V122.584C164.041 124.008 164.401 125.106 165.12 125.879C165.839 126.635 166.822 127.012 168.067 127.012C169.348 127.012 170.356 126.617 171.093 125.826C171.83 125.036 172.198 123.885 172.198 122.374V114.44H174.592Z" fill="#380E00"/>
<path d="M181.03 109.38V128.884H178.635V109.38H181.03Z" fill="#380E00"/>
<path d="M184.216 121.609C184.216 120.133 184.514 118.842 185.111 117.735C185.707 116.61 186.523 115.741 187.558 115.126C188.61 114.511 189.777 114.203 191.057 114.203C192.32 114.203 193.416 114.475 194.346 115.02C195.276 115.565 195.969 116.25 196.425 117.076V114.44H198.846V128.884H196.425V126.195C195.951 127.039 195.241 127.742 194.294 128.304C193.364 128.849 192.276 129.121 191.031 129.121C189.75 129.121 188.593 128.805 187.558 128.172C186.523 127.54 185.707 126.652 185.111 125.51C184.514 124.368 184.216 123.068 184.216 121.609ZM196.425 121.636C196.425 120.546 196.206 119.597 195.767 118.789C195.328 117.981 194.732 117.366 193.978 116.944C193.241 116.505 192.425 116.285 191.531 116.285C190.636 116.285 189.82 116.496 189.084 116.918C188.347 117.34 187.759 117.955 187.321 118.763C186.882 119.571 186.663 120.52 186.663 121.609C186.663 122.716 186.882 123.683 187.321 124.509C187.759 125.317 188.347 125.941 189.084 126.38C189.82 126.802 190.636 127.012 191.531 127.012C192.425 127.012 193.241 126.802 193.978 126.38C194.732 125.941 195.328 125.317 195.767 124.509C196.206 123.683 196.425 122.725 196.425 121.636Z" fill="#380E00"/>
<path d="M205.286 116.786C205.707 115.96 206.304 115.319 207.076 114.862C207.865 114.405 208.821 114.177 209.944 114.177V116.654H209.312C206.628 116.654 205.286 118.113 205.286 121.029V128.884H202.892V114.44H205.286V116.786Z" fill="#380E00"/>
<path d="M218.696 112.015V109.828H223.643V128.884H221.222V112.015H218.696Z" fill="#380E00"/>
<path d="M227.466 126.96C229.694 125.167 231.44 123.7 232.703 122.558C233.966 121.398 235.027 120.195 235.886 118.947C236.763 117.682 237.202 116.443 237.202 115.231C237.202 114.089 236.921 113.193 236.36 112.543C235.816 111.875 234.93 111.541 233.702 111.541C232.51 111.541 231.58 111.919 230.913 112.674C230.264 113.412 229.913 114.405 229.861 115.653H227.545C227.616 113.685 228.212 112.165 229.335 111.093C230.457 110.021 231.904 109.485 233.676 109.485C235.483 109.485 236.913 109.986 237.965 110.988C239.035 111.989 239.57 113.368 239.57 115.126C239.57 116.584 239.132 118.007 238.254 119.395C237.395 120.766 236.413 121.978 235.307 123.033C234.202 124.069 232.79 125.282 231.071 126.67H240.123V128.673H227.466V126.96Z" fill="#380E00"/>
<path d="M262.562 115.89C262.562 117.419 262.035 118.693 260.983 119.712C259.948 120.713 258.36 121.214 256.22 121.214H252.695V128.884H250.3V110.513H256.22C258.29 110.513 259.86 111.014 260.93 112.015C262.018 113.017 262.562 114.309 262.562 115.89ZM256.22 119.237C257.554 119.237 258.536 118.947 259.167 118.367C259.799 117.788 260.115 116.962 260.115 115.89C260.115 113.623 258.816 112.49 256.22 112.49H252.695V119.237H256.22Z" fill="#380E00"/>
<path d="M266.774 112.095C266.318 112.095 265.932 111.936 265.617 111.62C265.301 111.304 265.143 110.917 265.143 110.46C265.143 110.004 265.301 109.617 265.617 109.301C265.932 108.984 266.318 108.826 266.774 108.826C267.213 108.826 267.581 108.984 267.879 109.301C268.195 109.617 268.353 110.004 268.353 110.46C268.353 110.917 268.195 111.304 267.879 111.62C267.581 111.936 267.213 112.095 266.774 112.095ZM267.932 114.44V128.884H265.538V114.44H267.932Z" fill="#380E00"/>
<path d="M279.538 128.884L276.118 123.507L272.829 128.884H270.329L274.986 121.715L270.329 114.44H273.039L276.46 119.791L279.722 114.44H282.222L277.591 121.583L282.248 128.884H279.538Z" fill="#380E00"/>
<path d="M297.76 121.109C297.76 121.565 297.733 122.049 297.681 122.558H286.156C286.244 123.981 286.726 125.097 287.603 125.905C288.498 126.696 289.577 127.091 290.84 127.091C291.875 127.091 292.734 126.854 293.418 126.38C294.12 125.888 294.611 125.238 294.892 124.429H297.47C297.084 125.818 296.313 126.951 295.155 127.829C293.997 128.69 292.559 129.121 290.84 129.121C289.471 129.121 288.243 128.813 287.156 128.198C286.086 127.583 285.244 126.714 284.63 125.589C284.016 124.447 283.709 123.129 283.709 121.636C283.709 120.142 284.007 118.833 284.604 117.709C285.2 116.584 286.033 115.723 287.103 115.126C288.191 114.511 289.436 114.203 290.84 114.203C292.208 114.203 293.418 114.502 294.471 115.099C295.523 115.697 296.33 116.522 296.891 117.577C297.47 118.613 297.76 119.791 297.76 121.109ZM295.286 120.608C295.286 119.694 295.085 118.912 294.681 118.262C294.278 117.594 293.725 117.094 293.024 116.76C292.339 116.408 291.576 116.233 290.734 116.233C289.524 116.233 288.489 116.619 287.63 117.392C286.788 118.165 286.305 119.237 286.182 120.608H295.286Z" fill="#380E00"/>
<path d="M303.315 109.38V128.884H300.92V109.38H303.315Z" fill="#380E00"/>
<path d="M312.5 129.121C311.395 129.121 310.404 128.936 309.527 128.567C308.65 128.181 307.957 127.654 307.448 126.986C306.94 126.301 306.659 125.519 306.606 124.64H309.08C309.15 125.361 309.483 125.949 310.079 126.406C310.693 126.863 311.492 127.091 312.474 127.091C313.386 127.091 314.105 126.889 314.631 126.485C315.158 126.081 315.421 125.572 315.421 124.957C315.421 124.324 315.14 123.858 314.579 123.56C314.017 123.243 313.149 122.936 311.974 122.637C310.904 122.356 310.027 122.075 309.343 121.794C308.676 121.495 308.097 121.065 307.606 120.502C307.132 119.922 306.896 119.167 306.896 118.236C306.896 117.498 307.115 116.821 307.553 116.206C307.992 115.591 308.615 115.108 309.422 114.757C310.229 114.388 311.149 114.203 312.184 114.203C313.781 114.203 315.07 114.607 316.052 115.415C317.035 116.224 317.561 117.331 317.631 118.736H315.237C315.184 117.981 314.877 117.375 314.316 116.918C313.772 116.461 313.035 116.233 312.105 116.233C311.246 116.233 310.562 116.417 310.053 116.786C309.544 117.155 309.29 117.638 309.29 118.236C309.29 118.71 309.439 119.105 309.737 119.422C310.053 119.72 310.439 119.966 310.895 120.16C311.369 120.335 312.018 120.537 312.842 120.766C313.877 121.047 314.719 121.328 315.368 121.609C316.017 121.873 316.57 122.277 317.026 122.822C317.499 123.366 317.745 124.078 317.763 124.957C317.763 125.747 317.543 126.459 317.105 127.091C316.666 127.724 316.044 128.225 315.237 128.594C314.447 128.945 313.535 129.121 312.5 129.121Z" fill="#380E00"/>
<path d="M337.341 119.422C338.007 119.527 338.612 119.799 339.156 120.239C339.717 120.678 340.156 121.223 340.472 121.873C340.805 122.523 340.972 123.217 340.972 123.955C340.972 124.886 340.735 125.73 340.261 126.485C339.788 127.223 339.095 127.812 338.183 128.251C337.288 128.673 336.227 128.884 334.999 128.884H328.158V110.513H334.736C335.981 110.513 337.042 110.724 337.919 111.146C338.796 111.55 339.454 112.103 339.893 112.806C340.331 113.509 340.551 114.3 340.551 115.178C340.551 116.268 340.252 117.173 339.656 117.893C339.077 118.596 338.305 119.105 337.341 119.422ZM330.552 118.447H334.578C335.7 118.447 336.569 118.183 337.183 117.656C337.797 117.129 338.104 116.399 338.104 115.468C338.104 114.537 337.797 113.808 337.183 113.281C336.569 112.753 335.683 112.49 334.525 112.49H330.552V118.447ZM334.788 126.907C335.981 126.907 336.911 126.626 337.577 126.064C338.244 125.501 338.577 124.719 338.577 123.718C338.577 122.699 338.226 121.899 337.525 121.319C336.823 120.722 335.885 120.423 334.709 120.423H330.552V126.907H334.788Z" fill="#380E00"/>
<path d="M350.583 129.121C349.232 129.121 348.004 128.813 346.899 128.198C345.812 127.583 344.952 126.714 344.321 125.589C343.707 124.447 343.4 123.129 343.4 121.636C343.4 120.16 343.715 118.859 344.347 117.735C344.996 116.593 345.873 115.723 346.978 115.126C348.083 114.511 349.32 114.203 350.688 114.203C352.056 114.203 353.293 114.511 354.398 115.126C355.503 115.723 356.372 116.584 357.003 117.709C357.652 118.833 357.977 120.142 357.977 121.636C357.977 123.129 357.643 124.447 356.977 125.589C356.328 126.714 355.442 127.583 354.319 128.198C353.197 128.813 351.951 129.121 350.583 129.121ZM350.583 127.012C351.443 127.012 352.249 126.81 353.004 126.406C353.758 126.002 354.363 125.396 354.819 124.588C355.293 123.779 355.53 122.795 355.53 121.636C355.53 120.476 355.302 119.492 354.846 118.684C354.389 117.875 353.793 117.278 353.056 116.891C352.32 116.487 351.521 116.285 350.662 116.285C349.785 116.285 348.978 116.487 348.241 116.891C347.522 117.278 346.943 117.875 346.505 118.684C346.066 119.492 345.847 120.476 345.847 121.636C345.847 122.813 346.057 123.806 346.478 124.614C346.917 125.422 347.496 126.028 348.215 126.433C348.934 126.819 349.723 127.012 350.583 127.012Z" fill="#380E00"/>
<path d="M360.23 121.609C360.23 120.133 360.529 118.842 361.125 117.735C361.721 116.61 362.537 115.741 363.572 115.126C364.624 114.511 365.8 114.203 367.098 114.203C368.22 114.203 369.264 114.467 370.229 114.994C371.194 115.503 371.93 116.18 372.439 117.023V109.38H374.86V128.884H372.439V126.169C371.966 127.03 371.264 127.742 370.334 128.304C369.404 128.849 368.317 129.121 367.072 129.121C365.791 129.121 364.624 128.805 363.572 128.172C362.537 127.54 361.721 126.652 361.125 125.51C360.529 124.368 360.23 123.068 360.23 121.609ZM372.439 121.636C372.439 120.546 372.22 119.597 371.781 118.789C371.343 117.981 370.746 117.366 369.992 116.944C369.255 116.505 368.44 116.285 367.545 116.285C366.65 116.285 365.835 116.496 365.098 116.918C364.361 117.34 363.774 117.955 363.335 118.763C362.897 119.571 362.677 120.52 362.677 121.609C362.677 122.716 362.897 123.683 363.335 124.509C363.774 125.317 364.361 125.941 365.098 126.38C365.835 126.802 366.65 127.012 367.545 127.012C368.44 127.012 369.255 126.802 369.992 126.38C370.746 125.941 371.343 125.317 371.781 124.509C372.22 123.683 372.439 122.725 372.439 121.636Z" fill="#380E00"/>
<path d="M391.326 114.44L382.643 135.684H380.169L383.011 128.726L377.196 114.44H379.853L384.379 126.143L388.852 114.44H391.326Z" fill="#380E00"/>
<path d="M399.853 119.685C399.853 117.893 400.256 116.285 401.063 114.862C401.87 113.421 402.966 112.297 404.352 111.488C405.756 110.68 407.308 110.276 409.009 110.276C411.009 110.276 412.755 110.759 414.246 111.726C415.737 112.692 416.824 114.063 417.508 115.837H414.64C414.132 114.73 413.395 113.878 412.43 113.281C411.483 112.683 410.343 112.384 409.009 112.384C407.729 112.384 406.58 112.683 405.563 113.281C404.545 113.878 403.747 114.73 403.168 115.837C402.589 116.927 402.3 118.209 402.3 119.685C402.3 121.144 402.589 122.426 403.168 123.533C403.747 124.623 404.545 125.466 405.563 126.064C406.58 126.661 407.729 126.96 409.009 126.96C410.343 126.96 411.483 126.67 412.43 126.09C413.395 125.493 414.132 124.64 414.64 123.533H417.508C416.824 125.29 415.737 126.652 414.246 127.619C412.755 128.567 411.009 129.042 409.009 129.042C407.308 129.042 405.756 128.646 404.352 127.856C402.966 127.048 401.87 125.932 401.063 124.509C400.256 123.085 399.853 121.478 399.853 119.685Z" fill="#380E00"/>
<path d="M427.361 129.121C426.01 129.121 424.783 128.813 423.677 128.198C422.59 127.583 421.73 126.714 421.099 125.589C420.485 124.447 420.178 123.129 420.178 121.636C420.178 120.16 420.494 118.859 421.125 117.735C421.774 116.593 422.651 115.723 423.756 115.126C424.862 114.511 426.098 114.203 427.466 114.203C428.835 114.203 430.071 114.511 431.176 115.126C432.282 115.723 433.15 116.584 433.781 117.709C434.43 118.833 434.755 120.142 434.755 121.636C434.755 123.129 434.422 124.447 433.755 125.589C433.106 126.714 432.22 127.583 431.098 128.198C429.975 128.813 428.729 129.121 427.361 129.121ZM427.361 127.012C428.221 127.012 429.028 126.81 429.782 126.406C430.536 126.002 431.141 125.396 431.597 124.588C432.071 123.779 432.308 122.795 432.308 121.636C432.308 120.476 432.08 119.492 431.624 118.684C431.168 117.875 430.571 117.278 429.835 116.891C429.098 116.487 428.3 116.285 427.44 116.285C426.563 116.285 425.756 116.487 425.019 116.891C424.3 117.278 423.721 117.875 423.283 118.684C422.844 119.492 422.625 120.476 422.625 121.636C422.625 122.813 422.836 123.806 423.257 124.614C423.695 125.422 424.274 126.028 424.993 126.433C425.712 126.819 426.502 127.012 427.361 127.012Z" fill="#380E00"/>
<path d="M440.298 117.102C440.771 116.276 441.473 115.591 442.403 115.047C443.35 114.484 444.446 114.203 445.692 114.203C446.972 114.203 448.13 114.511 449.165 115.126C450.217 115.741 451.042 116.61 451.638 117.735C452.235 118.842 452.533 120.133 452.533 121.609C452.533 123.068 452.235 124.368 451.638 125.51C451.042 126.652 450.217 127.54 449.165 128.172C448.13 128.805 446.972 129.121 445.692 129.121C444.464 129.121 443.376 128.849 442.429 128.304C441.499 127.742 440.789 127.048 440.298 126.222V135.736H437.903V114.44H440.298V117.102ZM450.086 121.609C450.086 120.52 449.866 119.571 449.428 118.763C448.989 117.955 448.393 117.34 447.639 116.918C446.902 116.496 446.086 116.285 445.192 116.285C444.315 116.285 443.499 116.505 442.745 116.944C442.008 117.366 441.411 117.99 440.955 118.815C440.517 119.624 440.298 120.564 440.298 121.636C440.298 122.725 440.517 123.683 440.955 124.509C441.411 125.317 442.008 125.941 442.745 126.38C443.499 126.802 444.315 127.012 445.192 127.012C446.086 127.012 446.902 126.802 447.639 126.38C448.393 125.941 448.989 125.317 449.428 124.509C449.866 123.683 450.086 122.716 450.086 121.609Z" fill="#380E00"/>
<path d="M468.104 114.44L459.421 135.684H456.947L459.789 128.726L453.974 114.44H456.632L461.157 126.143L465.63 114.44H468.104Z" fill="#380E00"/>
</svg>
