<svg width="888" height="230" viewBox="0 0 888 230" fill="none" xmlns="http://www.w3.org/2000/svg">
<path d="M0 0H150V156.545H0V0Z" fill="#FED401"/>
<path d="M5.016 178.419V182.803H10.656V185.583H5.016V190.217H11.376V193.072H1.656V175.564H11.376V178.419H5.016Z" fill="#380E00"/>
<path d="M19.6374 178.971C20.6294 178.971 21.5014 179.179 22.2534 179.597C23.0054 179.997 23.5974 180.523 24.0294 181.175V179.196H27.4134V193.172C27.4134 194.458 27.1654 195.602 26.6694 196.604C26.1734 197.622 25.4294 198.424 24.4374 199.008C23.4454 199.609 22.2454 199.91 20.8374 199.91C18.9494 199.91 17.3974 199.451 16.1814 198.532C14.9814 197.614 14.3014 196.362 14.1414 194.775H17.4774C17.6534 195.41 18.0294 195.911 18.6054 196.278C19.1974 196.662 19.9094 196.854 20.7414 196.854C21.7174 196.854 22.5094 196.545 23.1174 195.927C23.7254 195.326 24.0294 194.408 24.0294 193.172V191.018C23.5974 191.669 22.9974 192.212 22.2294 192.646C21.4774 193.08 20.6134 193.298 19.6374 193.298C18.5174 193.298 17.4934 192.997 16.5654 192.396C15.6374 191.795 14.9014 190.951 14.3574 189.866C13.8294 188.764 13.5654 187.503 13.5654 186.084C13.5654 184.681 13.8294 183.437 14.3574 182.352C14.9014 181.266 15.6294 180.432 16.5414 179.847C17.4694 179.263 18.5014 178.971 19.6374 178.971ZM24.0294 186.134C24.0294 185.282 23.8694 184.556 23.5494 183.955C23.2294 183.337 22.7974 182.87 22.2534 182.552C21.7094 182.218 21.1254 182.051 20.5014 182.051C19.8774 182.051 19.3014 182.21 18.7734 182.527C18.2454 182.844 17.8134 183.312 17.4774 183.93C17.1574 184.531 16.9974 185.249 16.9974 186.084C16.9974 186.919 17.1574 187.654 17.4774 188.288C17.8134 188.906 18.2454 189.382 18.7734 189.716C19.3174 190.05 19.8934 190.217 20.5014 190.217C21.1254 190.217 21.7094 190.058 22.2534 189.741C22.7974 189.407 23.2294 188.939 23.5494 188.338C23.8694 187.72 24.0294 186.986 24.0294 186.134Z" fill="#380E00"/>
<path d="M35.9031 178.971C36.8951 178.971 37.7671 179.179 38.5191 179.597C39.2711 179.997 39.8631 180.523 40.2951 181.175V179.196H43.6791V193.172C43.6791 194.458 43.4311 195.602 42.9351 196.604C42.4391 197.622 41.6951 198.424 40.7031 199.008C39.7111 199.609 38.5111 199.91 37.1031 199.91C35.2151 199.91 33.6631 199.451 32.4471 198.532C31.2471 197.614 30.5671 196.362 30.4071 194.775H33.7431C33.9191 195.41 34.2951 195.911 34.8711 196.278C35.4631 196.662 36.1751 196.854 37.0071 196.854C37.9831 196.854 38.7751 196.545 39.3831 195.927C39.9911 195.326 40.2951 194.408 40.2951 193.172V191.018C39.8631 191.669 39.2631 192.212 38.4951 192.646C37.7431 193.08 36.8791 193.298 35.9031 193.298C34.7831 193.298 33.7591 192.997 32.8311 192.396C31.9031 191.795 31.1671 190.951 30.6231 189.866C30.0951 188.764 29.8311 187.503 29.8311 186.084C29.8311 184.681 30.0951 183.437 30.6231 182.352C31.1671 181.266 31.8951 180.432 32.8071 179.847C33.7351 179.263 34.7671 178.971 35.9031 178.971ZM40.2951 186.134C40.2951 185.282 40.1351 184.556 39.8151 183.955C39.4951 183.337 39.0631 182.87 38.5191 182.552C37.9751 182.218 37.3911 182.051 36.7671 182.051C36.1431 182.051 35.5671 182.21 35.0391 182.527C34.5111 182.844 34.0791 183.312 33.7431 183.93C33.4231 184.531 33.2631 185.249 33.2631 186.084C33.2631 186.919 33.4231 187.654 33.7431 188.288C34.0791 188.906 34.5111 189.382 35.0391 189.716C35.5831 190.05 36.1591 190.217 36.7671 190.217C37.3911 190.217 37.9751 190.058 38.5191 189.741C39.0631 189.407 39.4951 188.939 39.8151 188.338C40.1351 187.72 40.2951 186.986 40.2951 186.134Z" fill="#380E00"/>
<path d="M65.9994 175.589L60.3354 186.986V193.072H56.9754V186.986L51.2874 175.589H55.0794L58.6794 183.579L62.2554 175.589H65.9994Z" fill="#380E00"/>
<path d="M73.8412 193.298C72.5612 193.298 71.4093 193.005 70.3853 192.421C69.3613 191.82 68.5533 190.976 67.9613 189.891C67.3853 188.806 67.0973 187.553 67.0973 186.134C67.0973 184.715 67.3932 183.462 67.9853 182.377C68.5933 181.292 69.4173 180.457 70.4573 179.872C71.4973 179.271 72.6572 178.971 73.9372 178.971C75.2172 178.971 76.3773 179.271 77.4173 179.872C78.4573 180.457 79.2732 181.292 79.8652 182.377C80.4733 183.462 80.7773 184.715 80.7773 186.134C80.7773 187.553 80.4652 188.806 79.8412 189.891C79.2332 190.976 78.4013 191.82 77.3453 192.421C76.3053 193.005 75.1372 193.298 73.8412 193.298ZM73.8412 190.242C74.4492 190.242 75.0173 190.091 75.5452 189.791C76.0892 189.474 76.5212 189.006 76.8412 188.388C77.1612 187.77 77.3213 187.019 77.3213 186.134C77.3213 184.815 76.9852 183.805 76.3132 183.103C75.6572 182.385 74.8493 182.026 73.8893 182.026C72.9293 182.026 72.1212 182.385 71.4652 183.103C70.8252 183.805 70.5052 184.815 70.5052 186.134C70.5052 187.453 70.8173 188.472 71.4413 189.19C72.0813 189.891 72.8812 190.242 73.8412 190.242Z" fill="#380E00"/>
<path d="M86.6019 174.537V193.072H83.2419V174.537H86.6019Z" fill="#380E00"/>
<path d="M97.7936 193.072L93.2816 187.161V193.072H89.9216V174.537H93.2816V185.082L97.7456 179.196H102.114L96.2576 186.159L102.162 193.072H97.7936Z" fill="#380E00"/>
<path d="M16.416 218.353L15.624 222.21H18.672V225.341H14.976L14.112 229.599H10.92L11.784 225.341H7.416L6.552 229.599H3.384L4.248 225.341H0.624V222.21H4.896L5.688 218.353H2.088V215.222H6.336L7.176 211.064H10.344L9.504 215.222H13.872L14.712 211.064H17.904L17.064 215.222H20.136V218.353H16.416ZM13.224 218.353H8.856L8.064 222.21H12.432L13.224 218.353Z" fill="#380E00"/>
<path d="M29.0333 218.604H26.7052V229.599H23.2973V218.604H21.7852V215.723H23.2973V215.022C23.2973 213.319 23.7613 212.066 24.6893 211.265C25.6173 210.463 27.0173 210.087 28.8892 210.138V213.093C28.0732 213.076 27.5052 213.218 27.1852 213.519C26.8652 213.82 26.7052 214.362 26.7052 215.147V215.723H29.0333V218.604Z" fill="#380E00"/>
<path d="M43.5707 222.361C43.5707 222.862 43.5387 223.312 43.4747 223.713H33.7547C33.8347 224.715 34.1707 225.5 34.7627 226.068C35.3547 226.635 36.0827 226.919 36.9467 226.919C38.1947 226.919 39.0827 226.36 39.6107 225.241H43.2347C42.8507 226.577 42.1147 227.679 41.0267 228.547C39.9387 229.399 38.6027 229.825 37.0187 229.825C35.7387 229.825 34.5867 229.532 33.5627 228.948C32.5547 228.347 31.7627 227.504 31.1867 226.418C30.6267 225.333 30.3467 224.081 30.3467 222.661C30.3467 221.225 30.6267 219.964 31.1867 218.879C31.7467 217.794 32.5307 216.959 33.5387 216.374C34.5467 215.79 35.7067 215.498 37.0187 215.498C38.2827 215.498 39.4107 215.782 40.4027 216.349C41.4107 216.917 42.1867 217.727 42.7307 218.779C43.2907 219.814 43.5707 221.008 43.5707 222.361ZM40.0907 221.359C40.0747 220.457 39.7627 219.739 39.1547 219.205C38.5467 218.654 37.8027 218.378 36.9227 218.378C36.0907 218.378 35.3867 218.645 34.8107 219.18C34.2507 219.697 33.9067 220.424 33.7787 221.359H40.0907Z" fill="#380E00"/>
<path d="M45.1592 222.611C45.1592 221.208 45.4232 219.964 45.9512 218.879C46.4952 217.794 47.2312 216.959 48.1592 216.374C49.0872 215.79 50.1192 215.498 51.2552 215.498C52.1192 215.498 52.9432 215.698 53.7272 216.099C54.5112 216.483 55.1352 217.001 55.5992 217.652V211.064H59.0072V229.599H55.5992V227.545C55.1832 228.23 54.5992 228.781 53.8472 229.198C53.0952 229.616 52.2232 229.825 51.2312 229.825C50.1112 229.825 49.0872 229.524 48.1592 228.923C47.2312 228.322 46.4952 227.479 45.9512 226.393C45.4232 225.291 45.1592 224.03 45.1592 222.611ZM55.6232 222.661C55.6232 221.81 55.4632 221.083 55.1432 220.482C54.8232 219.864 54.3912 219.397 53.8472 219.079C53.3032 218.745 52.7192 218.578 52.0952 218.578C51.4712 218.578 50.8952 218.737 50.3672 219.054C49.8392 219.372 49.4072 219.839 49.0712 220.457C48.7512 221.058 48.5912 221.776 48.5912 222.611C48.5912 223.446 48.7512 224.181 49.0712 224.815C49.4072 225.433 49.8392 225.909 50.3672 226.243C50.9112 226.577 51.4872 226.744 52.0952 226.744C52.7192 226.744 53.3032 226.585 53.8472 226.268C54.3912 225.934 54.8232 225.466 55.1432 224.865C55.4632 224.247 55.6232 223.513 55.6232 222.661Z" fill="#380E00"/>
<path d="M61.7608 226.043V223.287L69.6088 211.565H73.5208V222.987H75.6328V226.043H73.5208V229.599H70.1608V226.043H61.7608ZM70.3768 215.322L65.4568 222.987H70.3768V215.322Z" fill="#380E00"/>
<path d="M77.772 220.232C77.772 217.343 78.268 215.08 79.26 213.444C80.268 211.807 81.932 210.989 84.252 210.989C86.572 210.989 88.228 211.807 89.22 213.444C90.228 215.08 90.732 217.343 90.732 220.232C90.732 223.137 90.228 225.416 89.22 227.069C88.228 228.723 86.572 229.549 84.252 229.549C81.932 229.549 80.268 228.723 79.26 227.069C78.268 225.416 77.772 223.137 77.772 220.232ZM87.42 220.232C87.42 218.996 87.34 217.961 87.18 217.126C87.036 216.274 86.732 215.581 86.268 215.047C85.82 214.512 85.148 214.245 84.252 214.245C83.356 214.245 82.676 214.512 82.212 215.047C81.764 215.581 81.46 216.274 81.3 217.126C81.156 217.961 81.084 218.996 81.084 220.232C81.084 221.501 81.156 222.569 81.3 223.438C81.444 224.289 81.748 224.982 82.212 225.517C82.676 226.034 83.356 226.293 84.252 226.293C85.148 226.293 85.828 226.034 86.292 225.517C86.756 224.982 87.06 224.289 87.204 223.438C87.348 222.569 87.42 221.501 87.42 220.232Z" fill="#380E00"/>
<path d="M92.8796 214.571V211.34H98.6636V229.599H95.2076V214.571H92.8796Z" fill="#380E00"/>
<path d="M246 0H396V156.545H246V0Z" fill="#FFF9BA"/>
<path d="M257.16 184.105C258.104 184.289 258.88 184.781 259.488 185.583C260.096 186.384 260.4 187.303 260.4 188.338C260.4 189.273 260.176 190.1 259.728 190.818C259.296 191.519 258.664 192.07 257.832 192.471C257 192.872 256.016 193.072 254.88 193.072H247.656V175.589H254.568C255.704 175.589 256.68 175.781 257.496 176.165C258.328 176.549 258.952 177.084 259.368 177.768C259.8 178.453 260.016 179.229 260.016 180.098C260.016 181.116 259.752 181.968 259.224 182.652C258.712 183.337 258.024 183.821 257.16 184.105ZM251.016 182.803H254.088C254.888 182.803 255.504 182.619 255.936 182.252C256.368 181.868 256.584 181.325 256.584 180.624C256.584 179.922 256.368 179.38 255.936 178.996C255.504 178.611 254.888 178.419 254.088 178.419H251.016V182.803ZM254.4 190.217C255.216 190.217 255.848 190.016 256.296 189.616C256.76 189.215 256.992 188.647 256.992 187.912C256.992 187.161 256.752 186.577 256.272 186.159C255.792 185.725 255.144 185.508 254.328 185.508H251.016V190.217H254.4Z" fill="#380E00"/>
<path d="M262.214 186.084C262.214 184.681 262.478 183.437 263.006 182.352C263.55 181.266 264.278 180.432 265.19 179.847C266.118 179.263 267.15 178.971 268.286 178.971C269.278 178.971 270.142 179.179 270.878 179.597C271.63 180.014 272.23 180.54 272.678 181.175V179.196H276.062V193.072H272.678V191.043C272.246 191.694 271.646 192.237 270.878 192.671C270.126 193.089 269.254 193.298 268.262 193.298C267.142 193.298 266.118 192.997 265.19 192.396C264.278 191.795 263.55 190.951 263.006 189.866C262.478 188.764 262.214 187.503 262.214 186.084ZM272.678 186.134C272.678 185.282 272.518 184.556 272.198 183.955C271.878 183.337 271.446 182.87 270.902 182.552C270.358 182.218 269.774 182.051 269.15 182.051C268.526 182.051 267.95 182.21 267.422 182.527C266.894 182.844 266.462 183.312 266.126 183.93C265.806 184.531 265.646 185.249 265.646 186.084C265.646 186.919 265.806 187.654 266.126 188.288C266.462 188.906 266.894 189.382 267.422 189.716C267.966 190.05 268.542 190.217 269.15 190.217C269.774 190.217 270.358 190.058 270.902 189.741C271.446 189.407 271.878 188.939 272.198 188.338C272.518 187.72 272.678 186.986 272.678 186.134Z" fill="#380E00"/>
<path d="M286.711 178.996C288.296 178.996 289.576 179.522 290.552 180.574C291.528 181.609 292.016 183.062 292.016 184.932V193.072H288.655V185.408C288.655 184.306 288.391 183.462 287.863 182.878C287.336 182.277 286.615 181.976 285.703 181.976C284.775 181.976 284.04 182.277 283.496 182.878C282.967 183.462 282.703 184.306 282.703 185.408V193.072H279.344V179.196H282.703V180.924C283.151 180.323 283.72 179.856 284.408 179.522C285.112 179.171 285.879 178.996 286.711 178.996Z" fill="#380E00"/>
<path d="M294.347 186.084C294.347 184.681 294.611 183.437 295.139 182.352C295.683 181.266 296.411 180.432 297.323 179.847C298.251 179.263 299.283 178.971 300.419 178.971C301.411 178.971 302.275 179.179 303.011 179.597C303.763 180.014 304.363 180.54 304.811 181.175V179.196H308.195V193.072H304.811V191.043C304.379 191.694 303.779 192.237 303.011 192.671C302.259 193.089 301.387 193.298 300.395 193.298C299.275 193.298 298.251 192.997 297.323 192.396C296.411 191.795 295.683 190.951 295.139 189.866C294.611 188.764 294.347 187.503 294.347 186.084ZM304.811 186.134C304.811 185.282 304.651 184.556 304.331 183.955C304.011 183.337 303.579 182.87 303.035 182.552C302.491 182.218 301.907 182.051 301.283 182.051C300.659 182.051 300.083 182.21 299.555 182.527C299.027 182.844 298.595 183.312 298.259 183.93C297.939 184.531 297.779 185.249 297.779 186.084C297.779 186.919 297.939 187.654 298.259 188.288C298.595 188.906 299.027 189.382 299.555 189.716C300.099 190.05 300.675 190.217 301.283 190.217C301.907 190.217 302.491 190.058 303.035 189.741C303.579 189.407 304.011 188.939 304.331 188.338C304.651 187.72 304.811 186.986 304.811 186.134Z" fill="#380E00"/>
<path d="M318.844 178.996C320.428 178.996 321.708 179.522 322.684 180.574C323.66 181.609 324.148 183.062 324.148 184.932V193.072H320.788V185.408C320.788 184.306 320.524 183.462 319.996 182.878C319.468 182.277 318.748 181.976 317.836 181.976C316.908 181.976 316.172 182.277 315.628 182.878C315.1 183.462 314.836 184.306 314.836 185.408V193.072H311.476V179.196H314.836V180.924C315.284 180.323 315.852 179.856 316.54 179.522C317.244 179.171 318.012 178.996 318.844 178.996Z" fill="#380E00"/>
<path d="M326.479 186.084C326.479 184.681 326.743 183.437 327.272 182.352C327.816 181.266 328.544 180.432 329.456 179.847C330.384 179.263 331.416 178.971 332.552 178.971C333.544 178.971 334.408 179.179 335.143 179.597C335.896 180.014 336.496 180.54 336.944 181.175V179.196H340.328V193.072H336.944V191.043C336.512 191.694 335.911 192.237 335.143 192.671C334.391 193.089 333.52 193.298 332.527 193.298C331.408 193.298 330.384 192.997 329.456 192.396C328.544 191.795 327.816 190.951 327.272 189.866C326.743 188.764 326.479 187.503 326.479 186.084ZM336.944 186.134C336.944 185.282 336.784 184.556 336.464 183.955C336.143 183.337 335.712 182.87 335.168 182.552C334.624 182.218 334.039 182.051 333.415 182.051C332.792 182.051 332.216 182.21 331.688 182.527C331.159 182.844 330.728 183.312 330.392 183.93C330.072 184.531 329.911 185.249 329.911 186.084C329.911 186.919 330.072 187.654 330.392 188.288C330.728 188.906 331.159 189.382 331.688 189.716C332.232 190.05 332.807 190.217 333.415 190.217C334.039 190.217 334.624 190.058 335.168 189.741C335.712 189.407 336.143 188.939 336.464 188.338C336.784 187.72 336.944 186.986 336.944 186.134Z" fill="#380E00"/>
<path d="M262.416 218.353L261.624 222.21H264.672V225.341H260.976L260.112 229.599H256.92L257.784 225.341H253.416L252.552 229.599H249.384L250.248 225.341H246.624V222.21H250.896L251.688 218.353H248.088V215.222H252.336L253.176 211.064H256.344L255.504 215.222H259.872L260.712 211.064H263.904L263.064 215.222H266.136V218.353H262.416ZM259.224 218.353H254.856L254.064 222.21H258.432L259.224 218.353Z" fill="#380E00"/>
<path d="M275.033 218.604H272.705V229.599H269.297V218.604H267.785V215.723H269.297V215.022C269.297 213.319 269.761 212.066 270.689 211.265C271.617 210.463 273.017 210.087 274.889 210.138V213.093C274.073 213.076 273.505 213.218 273.185 213.519C272.865 213.82 272.705 214.362 272.705 215.147V215.723H275.033V218.604Z" fill="#380E00"/>
<path d="M283.307 218.604H280.979V229.599H277.571V218.604H276.059V215.723H277.571V215.022C277.571 213.319 278.035 212.066 278.963 211.265C279.891 210.463 281.291 210.087 283.163 210.138V213.093C282.347 213.076 281.779 213.218 281.459 213.519C281.139 213.82 280.979 214.362 280.979 215.147V215.723H283.307V218.604Z" fill="#380E00"/>
<path d="M291.58 218.604H289.252V229.599H285.844V218.604H284.332V215.723H285.844V215.022C285.844 213.319 286.308 212.066 287.236 211.265C288.164 210.463 289.564 210.087 291.436 210.138V213.093C290.62 213.076 290.052 213.218 289.732 213.519C289.412 213.82 289.252 214.362 289.252 215.147V215.723H291.58V218.604Z" fill="#380E00"/>
<path d="M297.262 224.465C297.39 225.199 297.678 225.767 298.126 226.168C298.59 226.552 299.206 226.744 299.974 226.744C300.966 226.744 301.686 226.318 302.134 225.466C302.582 224.598 302.806 223.145 302.806 221.108C302.438 221.643 301.918 222.06 301.246 222.361C300.59 222.661 299.878 222.811 299.11 222.811C298.086 222.811 297.158 222.594 296.326 222.16C295.51 221.709 294.862 221.05 294.382 220.181C293.902 219.296 293.662 218.228 293.662 216.975C293.662 215.122 294.19 213.653 295.246 212.567C296.302 211.465 297.742 210.914 299.566 210.914C301.838 210.914 303.438 211.674 304.366 213.193C305.31 214.713 305.782 217.001 305.782 220.056C305.782 222.227 305.598 224.005 305.23 225.391C304.878 226.777 304.262 227.829 303.382 228.547C302.518 229.265 301.334 229.624 299.83 229.624C298.646 229.624 297.638 229.391 296.806 228.923C295.974 228.439 295.334 227.813 294.886 227.044C294.454 226.26 294.206 225.4 294.142 224.465H297.262ZM299.806 219.956C300.638 219.956 301.294 219.689 301.774 219.155C302.254 218.62 302.494 217.902 302.494 217C302.494 216.015 302.238 215.256 301.726 214.721C301.23 214.17 300.55 213.895 299.686 213.895C298.822 213.895 298.134 214.179 297.622 214.746C297.126 215.297 296.878 216.032 296.878 216.95C296.878 217.835 297.118 218.562 297.598 219.13C298.094 219.681 298.83 219.956 299.806 219.956Z" fill="#380E00"/>
<path d="M312.141 217.752C312.573 217.084 313.165 216.541 313.917 216.124C314.685 215.706 315.557 215.498 316.533 215.498C317.669 215.498 318.693 215.79 319.605 216.374C320.533 216.959 321.261 217.794 321.789 218.879C322.333 219.948 322.605 221.192 322.605 222.611C322.605 224.03 322.333 225.291 321.789 226.393C321.261 227.479 320.533 228.322 319.605 228.923C318.693 229.524 317.669 229.825 316.533 229.825C315.541 229.825 314.669 229.624 313.917 229.224C313.181 228.806 312.589 228.272 312.141 227.621V229.599H308.781V211.064H312.141V217.752ZM319.173 222.611C319.173 221.776 319.005 221.058 318.669 220.457C318.349 219.839 317.917 219.372 317.373 219.054C316.845 218.737 316.269 218.578 315.645 218.578C315.037 218.578 314.461 218.745 313.917 219.079C313.389 219.397 312.957 219.864 312.621 220.482C312.301 221.1 312.141 221.826 312.141 222.661C312.141 223.496 312.301 224.222 312.621 224.84C312.957 225.458 313.389 225.934 313.917 226.268C314.461 226.585 315.037 226.744 315.645 226.744C316.269 226.744 316.845 226.577 317.373 226.243C317.917 225.909 318.349 225.433 318.669 224.815C319.005 224.197 319.173 223.463 319.173 222.611Z" fill="#380E00"/>
<path d="M324.183 222.611C324.183 221.208 324.447 219.964 324.975 218.879C325.519 217.794 326.247 216.959 327.159 216.374C328.087 215.79 329.119 215.498 330.255 215.498C331.247 215.498 332.111 215.706 332.847 216.124C333.599 216.541 334.199 217.067 334.647 217.702V215.723H338.031V229.599H334.647V227.57C334.215 228.222 333.615 228.764 332.847 229.198C332.095 229.616 331.223 229.825 330.231 229.825C329.111 229.825 328.087 229.524 327.159 228.923C326.247 228.322 325.519 227.479 324.975 226.393C324.447 225.291 324.183 224.03 324.183 222.611ZM334.647 222.661C334.647 221.81 334.487 221.083 334.167 220.482C333.847 219.864 333.415 219.397 332.871 219.079C332.327 218.745 331.743 218.578 331.119 218.578C330.495 218.578 329.919 218.737 329.391 219.054C328.863 219.372 328.431 219.839 328.095 220.457C327.775 221.058 327.615 221.776 327.615 222.611C327.615 223.446 327.775 224.181 328.095 224.815C328.431 225.433 328.863 225.909 329.391 226.243C329.935 226.577 330.511 226.744 331.119 226.744C331.743 226.744 332.327 226.585 332.871 226.268C333.415 225.934 333.847 225.466 334.167 224.865C334.487 224.247 334.647 223.513 334.647 222.661Z" fill="#380E00"/>
<path d="M492 0H642V156.545H492V0Z" fill="#380E00"/>
<path d="M492.84 184.306C492.84 182.586 493.208 181.049 493.944 179.697C494.696 178.328 495.712 177.267 496.992 176.516C498.288 175.748 499.736 175.364 501.336 175.364C503.208 175.364 504.848 175.865 506.256 176.867C507.664 177.868 508.648 179.254 509.208 181.024H505.344C504.96 180.189 504.416 179.563 503.712 179.146C503.024 178.728 502.224 178.52 501.312 178.52C500.336 178.52 499.464 178.762 498.696 179.246C497.944 179.714 497.352 180.382 496.92 181.25C496.504 182.118 496.296 183.137 496.296 184.306C496.296 185.458 496.504 186.476 496.92 187.361C497.352 188.23 497.944 188.906 498.696 189.39C499.464 189.858 500.336 190.091 501.312 190.091C502.224 190.091 503.024 189.883 503.712 189.465C504.416 189.031 504.96 188.397 505.344 187.562H509.208C508.648 189.348 507.664 190.743 506.256 191.745C504.864 192.73 503.224 193.222 501.336 193.222C499.736 193.222 498.288 192.847 496.992 192.095C495.712 191.327 494.696 190.267 493.944 188.914C493.208 187.562 492.84 186.025 492.84 184.306Z" fill="#380E00"/>
<path d="M519.566 178.996C520.574 178.996 521.47 179.229 522.254 179.697C523.038 180.148 523.646 180.824 524.078 181.726C524.526 182.611 524.75 183.679 524.75 184.932V193.072H521.39V185.408C521.39 184.306 521.126 183.462 520.598 182.878C520.07 182.277 519.35 181.976 518.438 181.976C517.51 181.976 516.774 182.277 516.23 182.878C515.702 183.462 515.438 184.306 515.438 185.408V193.072H512.078V174.537H515.438V180.924C515.87 180.323 516.446 179.856 517.166 179.522C517.886 179.171 518.686 178.996 519.566 178.996Z" fill="#380E00"/>
<path d="M533.849 193.298C532.569 193.298 531.417 193.005 530.393 192.421C529.369 191.82 528.561 190.976 527.969 189.891C527.393 188.806 527.105 187.553 527.105 186.134C527.105 184.715 527.401 183.462 527.993 182.377C528.601 181.292 529.425 180.457 530.465 179.872C531.505 179.271 532.665 178.971 533.945 178.971C535.225 178.971 536.385 179.271 537.425 179.872C538.465 180.457 539.281 181.292 539.873 182.377C540.481 183.462 540.785 184.715 540.785 186.134C540.785 187.553 540.473 188.806 539.849 189.891C539.241 190.976 538.409 191.82 537.353 192.421C536.313 193.005 535.145 193.298 533.849 193.298ZM533.849 190.242C534.457 190.242 535.025 190.091 535.553 189.791C536.097 189.474 536.529 189.006 536.849 188.388C537.169 187.77 537.329 187.019 537.329 186.134C537.329 184.815 536.993 183.805 536.321 183.103C535.665 182.385 534.857 182.026 533.897 182.026C532.937 182.026 532.129 182.385 531.473 183.103C530.833 183.805 530.513 184.815 530.513 186.134C530.513 187.453 530.825 188.472 531.449 189.19C532.089 189.891 532.889 190.242 533.849 190.242Z" fill="#380E00"/>
<path d="M542.386 186.134C542.386 184.698 542.666 183.446 543.226 182.377C543.786 181.292 544.562 180.457 545.554 179.872C546.546 179.271 547.682 178.971 548.962 178.971C550.61 178.971 551.97 179.405 553.042 180.273C554.13 181.125 554.858 182.327 555.226 183.88H551.602C551.41 183.279 551.082 182.811 550.618 182.477C550.17 182.126 549.61 181.951 548.938 181.951C547.978 181.951 547.218 182.318 546.658 183.053C546.098 183.771 545.818 184.798 545.818 186.134C545.818 187.453 546.098 188.48 546.658 189.215C547.218 189.933 547.978 190.292 548.938 190.292C550.298 190.292 551.186 189.657 551.602 188.388H555.226C554.858 189.891 554.13 191.085 553.042 191.97C551.954 192.855 550.594 193.298 548.962 193.298C547.682 193.298 546.546 193.005 545.554 192.421C544.562 191.82 543.786 190.985 543.226 189.916C542.666 188.831 542.386 187.57 542.386 186.134Z" fill="#380E00"/>
<path d="M563.591 193.298C562.311 193.298 561.159 193.005 560.135 192.421C559.111 191.82 558.303 190.976 557.711 189.891C557.135 188.806 556.847 187.553 556.847 186.134C556.847 184.715 557.143 183.462 557.735 182.377C558.343 181.292 559.167 180.457 560.207 179.872C561.247 179.271 562.407 178.971 563.687 178.971C564.967 178.971 566.127 179.271 567.167 179.872C568.207 180.457 569.023 181.292 569.615 182.377C570.223 183.462 570.527 184.715 570.527 186.134C570.527 187.553 570.215 188.806 569.591 189.891C568.983 190.976 568.151 191.82 567.095 192.421C566.055 193.005 564.887 193.298 563.591 193.298ZM563.591 190.242C564.199 190.242 564.767 190.091 565.295 189.791C565.839 189.474 566.271 189.006 566.591 188.388C566.911 187.77 567.071 187.019 567.071 186.134C567.071 184.815 566.735 183.805 566.063 183.103C565.407 182.385 564.599 182.026 563.639 182.026C562.679 182.026 561.871 182.385 561.215 183.103C560.575 183.805 560.255 184.815 560.255 186.134C560.255 187.453 560.567 188.472 561.191 189.19C561.831 189.891 562.631 190.242 563.591 190.242Z" fill="#380E00"/>
<path d="M576.352 174.537V193.072H572.992V174.537H576.352Z" fill="#380E00"/>
<path d="M578.808 186.084C578.808 184.681 579.072 183.437 579.6 182.352C580.144 181.266 580.872 180.432 581.784 179.847C582.712 179.263 583.744 178.971 584.88 178.971C585.872 178.971 586.736 179.179 587.472 179.597C588.224 180.014 588.824 180.54 589.272 181.175V179.196H592.656V193.072H589.272V191.043C588.84 191.694 588.24 192.237 587.472 192.671C586.72 193.089 585.848 193.298 584.856 193.298C583.736 193.298 582.712 192.997 581.784 192.396C580.872 191.795 580.144 190.951 579.6 189.866C579.072 188.764 578.808 187.503 578.808 186.084ZM589.272 186.134C589.272 185.282 589.112 184.556 588.792 183.955C588.472 183.337 588.04 182.87 587.496 182.552C586.952 182.218 586.368 182.051 585.744 182.051C585.12 182.051 584.544 182.21 584.016 182.527C583.488 182.844 583.056 183.312 582.72 183.93C582.4 184.531 582.24 185.249 582.24 186.084C582.24 186.919 582.4 187.654 582.72 188.288C583.056 188.906 583.488 189.382 584.016 189.716C584.56 190.05 585.136 190.217 585.744 190.217C586.368 190.217 586.952 190.058 587.496 189.741C588.04 189.407 588.472 188.939 588.792 188.338C589.112 187.72 589.272 186.986 589.272 186.134Z" fill="#380E00"/>
<path d="M599.849 182.076V188.789C599.849 189.257 599.953 189.599 600.161 189.816C600.385 190.016 600.753 190.117 601.265 190.117H602.825V193.072H600.713C597.881 193.072 596.465 191.636 596.465 188.764V182.076H594.881V179.196H596.465V175.764H599.849V179.196H602.825V182.076H599.849Z" fill="#380E00"/>
<path d="M617.602 185.833C617.602 186.334 617.57 186.785 617.506 187.186H607.786C607.866 188.188 608.202 188.973 608.794 189.54C609.386 190.108 610.114 190.392 610.978 190.392C612.226 190.392 613.114 189.833 613.642 188.714H617.266C616.882 190.05 616.146 191.152 615.058 192.02C613.97 192.872 612.634 193.298 611.05 193.298C609.77 193.298 608.618 193.005 607.594 192.421C606.586 191.82 605.794 190.976 605.218 189.891C604.658 188.806 604.378 187.553 604.378 186.134C604.378 184.698 604.658 183.437 605.218 182.352C605.778 181.266 606.562 180.432 607.57 179.847C608.578 179.263 609.738 178.971 611.05 178.971C612.314 178.971 613.442 179.254 614.434 179.822C615.442 180.39 616.218 181.2 616.762 182.252C617.322 183.287 617.602 184.481 617.602 185.833ZM614.122 184.832C614.106 183.93 613.794 183.212 613.186 182.677C612.578 182.126 611.834 181.851 610.954 181.851C610.122 181.851 609.418 182.118 608.842 182.652C608.282 183.17 607.938 183.896 607.81 184.832H614.122Z" fill="#380E00"/>
<path d="M508.416 218.353L507.624 222.21H510.672V225.341H506.976L506.112 229.599H502.92L503.784 225.341H499.416L498.552 229.599H495.384L496.248 225.341H492.624V222.21H496.896L497.688 218.353H494.088V215.222H498.336L499.176 211.064H502.344L501.504 215.222H505.872L506.712 211.064H509.904L509.064 215.222H512.136V218.353H508.416ZM505.224 218.353H500.856L500.064 222.21H504.432L505.224 218.353Z" fill="#380E00"/>
<path d="M514.601 216.149C514.681 214.479 515.241 213.193 516.281 212.292C517.337 211.373 518.721 210.914 520.433 210.914C521.601 210.914 522.601 211.131 523.433 211.565C524.265 211.983 524.889 212.559 525.305 213.294C525.737 214.012 525.953 214.83 525.953 215.748C525.953 216.8 525.689 217.693 525.161 218.428C524.649 219.146 524.033 219.63 523.313 219.881V219.981C524.241 220.282 524.961 220.816 525.473 221.584C526.001 222.352 526.265 223.337 526.265 224.54C526.265 225.542 526.041 226.435 525.593 227.22C525.161 228.005 524.513 228.622 523.649 229.073C522.801 229.507 521.777 229.724 520.577 229.724C518.769 229.724 517.297 229.249 516.161 228.297C515.025 227.345 514.425 225.942 514.361 224.089H517.625C517.657 224.907 517.921 225.567 518.417 226.068C518.929 226.552 519.625 226.794 520.505 226.794C521.321 226.794 521.945 226.56 522.377 226.093C522.825 225.608 523.049 224.991 523.049 224.239C523.049 223.237 522.745 222.519 522.137 222.085C521.529 221.651 520.585 221.434 519.305 221.434H518.609V218.553H519.305C521.577 218.553 522.713 217.76 522.713 216.174C522.713 215.456 522.505 214.897 522.089 214.496C521.689 214.095 521.105 213.895 520.337 213.895C519.585 213.895 519.001 214.112 518.585 214.546C518.185 214.963 517.953 215.498 517.889 216.149H514.601Z" fill="#380E00"/>
<path d="M531.848 219.931C530.248 219.063 529.448 217.719 529.448 215.898C529.448 214.997 529.664 214.179 530.096 213.444C530.544 212.692 531.208 212.1 532.088 211.665C532.984 211.215 534.072 210.989 535.352 210.989C536.632 210.989 537.712 211.215 538.592 211.665C539.488 212.1 540.152 212.692 540.584 213.444C541.032 214.179 541.256 214.997 541.256 215.898C541.256 216.817 541.04 217.627 540.608 218.328C540.176 219.013 539.6 219.547 538.88 219.931C539.76 220.332 540.448 220.916 540.944 221.684C541.44 222.452 541.688 223.362 541.688 224.414C541.688 225.55 541.408 226.543 540.848 227.395C540.304 228.23 539.552 228.873 538.592 229.324C537.632 229.775 536.552 230 535.352 230C534.152 230 533.072 229.775 532.112 229.324C531.168 228.873 530.416 228.23 529.856 227.395C529.312 226.543 529.04 225.55 529.04 224.414C529.04 223.362 529.288 222.452 529.784 221.684C530.28 220.9 530.968 220.315 531.848 219.931ZM537.992 216.399C537.992 215.581 537.752 214.947 537.272 214.496C536.808 214.045 536.168 213.82 535.352 213.82C534.552 213.82 533.912 214.045 533.432 214.496C532.968 214.947 532.736 215.59 532.736 216.424C532.736 217.176 532.976 217.777 533.456 218.228C533.952 218.679 534.584 218.904 535.352 218.904C536.12 218.904 536.752 218.679 537.248 218.228C537.744 217.76 537.992 217.151 537.992 216.399ZM535.352 221.459C534.44 221.459 533.696 221.701 533.12 222.185C532.56 222.67 532.28 223.362 532.28 224.264C532.28 225.099 532.552 225.784 533.096 226.318C533.656 226.836 534.408 227.095 535.352 227.095C536.296 227.095 537.04 226.827 537.584 226.293C538.128 225.759 538.4 225.082 538.4 224.264C538.4 223.379 538.12 222.695 537.56 222.21C537 221.709 536.264 221.459 535.352 221.459Z" fill="#380E00"/>
<path d="M544.342 220.232C544.342 217.343 544.838 215.08 545.83 213.444C546.838 211.807 548.502 210.989 550.822 210.989C553.142 210.989 554.798 211.807 555.79 213.444C556.798 215.08 557.302 217.343 557.302 220.232C557.302 223.137 556.798 225.416 555.79 227.069C554.798 228.723 553.142 229.549 550.822 229.549C548.502 229.549 546.838 228.723 545.83 227.069C544.838 225.416 544.342 223.137 544.342 220.232ZM553.99 220.232C553.99 218.996 553.91 217.961 553.75 217.126C553.606 216.274 553.302 215.581 552.838 215.047C552.39 214.512 551.718 214.245 550.822 214.245C549.926 214.245 549.246 214.512 548.782 215.047C548.334 215.581 548.03 216.274 547.87 217.126C547.726 217.961 547.654 218.996 547.654 220.232C547.654 221.501 547.726 222.569 547.87 223.438C548.014 224.289 548.318 224.982 548.782 225.517C549.246 226.034 549.926 226.293 550.822 226.293C551.718 226.293 552.398 226.034 552.862 225.517C553.326 224.982 553.63 224.289 553.774 223.438C553.918 222.569 553.99 221.501 553.99 220.232Z" fill="#380E00"/>
<path d="M572.602 222.361C572.602 222.862 572.57 223.312 572.506 223.713H562.786C562.866 224.715 563.202 225.5 563.794 226.068C564.386 226.635 565.114 226.919 565.978 226.919C567.226 226.919 568.114 226.36 568.642 225.241H572.266C571.882 226.577 571.146 227.679 570.058 228.547C568.97 229.399 567.634 229.825 566.05 229.825C564.77 229.825 563.618 229.532 562.594 228.948C561.586 228.347 560.794 227.504 560.218 226.418C559.658 225.333 559.378 224.081 559.378 222.661C559.378 221.225 559.658 219.964 560.218 218.879C560.778 217.794 561.562 216.959 562.57 216.374C563.578 215.79 564.738 215.498 566.05 215.498C567.314 215.498 568.442 215.782 569.434 216.349C570.442 216.917 571.218 217.727 571.762 218.779C572.322 219.814 572.602 221.008 572.602 222.361ZM569.122 221.359C569.106 220.457 568.794 219.739 568.186 219.205C567.578 218.654 566.834 218.378 565.954 218.378C565.122 218.378 564.418 218.645 563.842 219.18C563.282 219.697 562.938 220.424 562.81 221.359H569.122Z" fill="#380E00"/>
<path d="M574.67 220.232C574.67 217.343 575.166 215.08 576.158 213.444C577.166 211.807 578.83 210.989 581.15 210.989C583.47 210.989 585.126 211.807 586.118 213.444C587.126 215.08 587.63 217.343 587.63 220.232C587.63 223.137 587.126 225.416 586.118 227.069C585.126 228.723 583.47 229.549 581.15 229.549C578.83 229.549 577.166 228.723 576.158 227.069C575.166 225.416 574.67 223.137 574.67 220.232ZM584.318 220.232C584.318 218.996 584.238 217.961 584.078 217.126C583.934 216.274 583.63 215.581 583.166 215.047C582.718 214.512 582.046 214.245 581.15 214.245C580.254 214.245 579.574 214.512 579.11 215.047C578.662 215.581 578.358 216.274 578.198 217.126C578.054 217.961 577.982 218.996 577.982 220.232C577.982 221.501 578.054 222.569 578.198 223.438C578.342 224.289 578.646 224.982 579.11 225.517C579.574 226.034 580.254 226.293 581.15 226.293C582.046 226.293 582.726 226.034 583.19 225.517C583.654 224.982 583.958 224.289 584.102 223.438C584.246 222.569 584.318 221.501 584.318 220.232Z" fill="#380E00"/>
<path d="M590.186 220.232C590.186 217.343 590.682 215.08 591.674 213.444C592.682 211.807 594.346 210.989 596.666 210.989C598.986 210.989 600.642 211.807 601.634 213.444C602.642 215.08 603.146 217.343 603.146 220.232C603.146 223.137 602.642 225.416 601.634 227.069C600.642 228.723 598.986 229.549 596.666 229.549C594.346 229.549 592.682 228.723 591.674 227.069C590.682 225.416 590.186 223.137 590.186 220.232ZM599.834 220.232C599.834 218.996 599.754 217.961 599.594 217.126C599.45 216.274 599.146 215.581 598.682 215.047C598.234 214.512 597.562 214.245 596.666 214.245C595.77 214.245 595.09 214.512 594.626 215.047C594.178 215.581 593.874 216.274 593.714 217.126C593.57 217.961 593.498 218.996 593.498 220.232C593.498 221.501 593.57 222.569 593.714 223.438C593.858 224.289 594.162 224.982 594.626 225.517C595.09 226.034 595.77 226.293 596.666 226.293C597.562 226.293 598.242 226.034 598.706 225.517C599.17 224.982 599.474 224.289 599.618 223.438C599.762 222.569 599.834 221.501 599.834 220.232Z" fill="#380E00"/>
<path d="M738 0H888V156.545H738V0Z" fill="#613301"/>
<path d="M738.84 184.306C738.84 182.586 739.208 181.049 739.944 179.697C740.696 178.328 741.712 177.267 742.992 176.516C744.288 175.748 745.736 175.364 747.336 175.364C749.208 175.364 750.848 175.865 752.256 176.867C753.664 177.868 754.648 179.254 755.208 181.024H751.344C750.96 180.189 750.416 179.563 749.712 179.146C749.024 178.728 748.224 178.52 747.312 178.52C746.336 178.52 745.464 178.762 744.696 179.246C743.944 179.714 743.352 180.382 742.92 181.25C742.504 182.118 742.296 183.137 742.296 184.306C742.296 185.458 742.504 186.476 742.92 187.361C743.352 188.23 743.944 188.906 744.696 189.39C745.464 189.858 746.336 190.091 747.312 190.091C748.224 190.091 749.024 189.883 749.712 189.465C750.416 189.031 750.96 188.397 751.344 187.562H755.208C754.648 189.348 753.664 190.743 752.256 191.745C750.864 192.73 749.224 193.222 747.336 193.222C745.736 193.222 744.288 192.847 742.992 192.095C741.712 191.327 740.696 190.267 739.944 188.914C739.208 187.562 738.84 186.025 738.84 184.306Z" fill="#380E00"/>
<path d="M765.566 178.996C766.574 178.996 767.47 179.229 768.254 179.697C769.038 180.148 769.646 180.824 770.078 181.726C770.526 182.611 770.75 183.679 770.75 184.932V193.072H767.39V185.408C767.39 184.306 767.126 183.462 766.598 182.878C766.07 182.277 765.35 181.976 764.438 181.976C763.51 181.976 762.774 182.277 762.23 182.878C761.702 183.462 761.438 184.306 761.438 185.408V193.072H758.078V174.537H761.438V180.924C761.87 180.323 762.446 179.856 763.166 179.522C763.886 179.171 764.686 178.996 765.566 178.996Z" fill="#380E00"/>
<path d="M779.849 193.298C778.569 193.298 777.417 193.005 776.393 192.421C775.369 191.82 774.561 190.976 773.969 189.891C773.393 188.806 773.105 187.553 773.105 186.134C773.105 184.715 773.401 183.462 773.993 182.377C774.601 181.292 775.425 180.457 776.465 179.872C777.505 179.271 778.665 178.971 779.945 178.971C781.225 178.971 782.385 179.271 783.425 179.872C784.465 180.457 785.281 181.292 785.873 182.377C786.481 183.462 786.785 184.715 786.785 186.134C786.785 187.553 786.473 188.806 785.849 189.891C785.241 190.976 784.409 191.82 783.353 192.421C782.313 193.005 781.145 193.298 779.849 193.298ZM779.849 190.242C780.457 190.242 781.025 190.091 781.553 189.791C782.097 189.474 782.529 189.006 782.849 188.388C783.169 187.77 783.329 187.019 783.329 186.134C783.329 184.815 782.993 183.805 782.321 183.103C781.665 182.385 780.857 182.026 779.897 182.026C778.937 182.026 778.129 182.385 777.473 183.103C776.833 183.805 776.513 184.815 776.513 186.134C776.513 187.453 776.825 188.472 777.449 189.19C778.089 189.891 778.889 190.242 779.849 190.242Z" fill="#380E00"/>
<path d="M788.386 186.134C788.386 184.698 788.666 183.446 789.226 182.377C789.786 181.292 790.562 180.457 791.554 179.872C792.546 179.271 793.682 178.971 794.962 178.971C796.61 178.971 797.97 179.405 799.042 180.273C800.13 181.125 800.858 182.327 801.226 183.88H797.602C797.41 183.279 797.082 182.811 796.618 182.477C796.17 182.126 795.61 181.951 794.938 181.951C793.978 181.951 793.218 182.318 792.658 183.053C792.098 183.771 791.818 184.798 791.818 186.134C791.818 187.453 792.098 188.48 792.658 189.215C793.218 189.933 793.978 190.292 794.938 190.292C796.298 190.292 797.186 189.657 797.602 188.388H801.226C800.858 189.891 800.13 191.085 799.042 191.97C797.954 192.855 796.594 193.298 794.962 193.298C793.682 193.298 792.546 193.005 791.554 192.421C790.562 191.82 789.786 190.985 789.226 189.916C788.666 188.831 788.386 187.57 788.386 186.134Z" fill="#380E00"/>
<path d="M809.591 193.298C808.311 193.298 807.159 193.005 806.135 192.421C805.111 191.82 804.303 190.976 803.711 189.891C803.135 188.806 802.847 187.553 802.847 186.134C802.847 184.715 803.143 183.462 803.735 182.377C804.343 181.292 805.167 180.457 806.207 179.872C807.247 179.271 808.407 178.971 809.687 178.971C810.967 178.971 812.127 179.271 813.167 179.872C814.207 180.457 815.023 181.292 815.615 182.377C816.223 183.462 816.527 184.715 816.527 186.134C816.527 187.553 816.215 188.806 815.591 189.891C814.983 190.976 814.151 191.82 813.095 192.421C812.055 193.005 810.887 193.298 809.591 193.298ZM809.591 190.242C810.199 190.242 810.767 190.091 811.295 189.791C811.839 189.474 812.271 189.006 812.591 188.388C812.911 187.77 813.071 187.019 813.071 186.134C813.071 184.815 812.735 183.805 812.063 183.103C811.407 182.385 810.599 182.026 809.639 182.026C808.679 182.026 807.871 182.385 807.215 183.103C806.575 183.805 806.255 184.815 806.255 186.134C806.255 187.453 806.567 188.472 807.191 189.19C807.831 189.891 808.631 190.242 809.591 190.242Z" fill="#380E00"/>
<path d="M822.352 174.537V193.072H818.992V174.537H822.352Z" fill="#380E00"/>
<path d="M824.808 186.084C824.808 184.681 825.072 183.437 825.6 182.352C826.144 181.266 826.872 180.432 827.784 179.847C828.712 179.263 829.744 178.971 830.88 178.971C831.872 178.971 832.736 179.179 833.472 179.597C834.224 180.014 834.824 180.54 835.272 181.175V179.196H838.656V193.072H835.272V191.043C834.84 191.694 834.24 192.237 833.472 192.671C832.72 193.089 831.848 193.298 830.856 193.298C829.736 193.298 828.712 192.997 827.784 192.396C826.872 191.795 826.144 190.951 825.6 189.866C825.072 188.764 824.808 187.503 824.808 186.084ZM835.272 186.134C835.272 185.282 835.112 184.556 834.792 183.955C834.472 183.337 834.04 182.87 833.496 182.552C832.952 182.218 832.368 182.051 831.744 182.051C831.12 182.051 830.544 182.21 830.016 182.527C829.488 182.844 829.056 183.312 828.72 183.93C828.4 184.531 828.24 185.249 828.24 186.084C828.24 186.919 828.4 187.654 828.72 188.288C829.056 188.906 829.488 189.382 830.016 189.716C830.56 190.05 831.136 190.217 831.744 190.217C832.368 190.217 832.952 190.058 833.496 189.741C834.04 189.407 834.472 188.939 834.792 188.338C835.112 187.72 835.272 186.986 835.272 186.134Z" fill="#380E00"/>
<path d="M845.849 182.076V188.789C845.849 189.257 845.953 189.599 846.161 189.816C846.385 190.016 846.753 190.117 847.265 190.117H848.825V193.072H846.713C843.881 193.072 842.465 191.636 842.465 188.764V182.076H840.881V179.196H842.465V175.764H845.849V179.196H848.825V182.076H845.849Z" fill="#380E00"/>
<path d="M863.602 185.833C863.602 186.334 863.57 186.785 863.506 187.186H853.786C853.866 188.188 854.202 188.973 854.794 189.54C855.386 190.108 856.114 190.392 856.978 190.392C858.226 190.392 859.114 189.833 859.642 188.714H863.266C862.882 190.05 862.146 191.152 861.058 192.02C859.97 192.872 858.634 193.298 857.05 193.298C855.77 193.298 854.618 193.005 853.594 192.421C852.586 191.82 851.794 190.976 851.218 189.891C850.658 188.806 850.378 187.553 850.378 186.134C850.378 184.698 850.658 183.437 851.218 182.352C851.778 181.266 852.562 180.432 853.57 179.847C854.578 179.263 855.738 178.971 857.05 178.971C858.314 178.971 859.442 179.254 860.434 179.822C861.442 180.39 862.218 181.2 862.762 182.252C863.322 183.287 863.602 184.481 863.602 185.833ZM860.122 184.832C860.106 183.93 859.794 183.212 859.186 182.677C858.578 182.126 857.834 181.851 856.954 181.851C856.122 181.851 855.418 182.118 854.842 182.652C854.282 183.17 853.938 183.896 853.81 184.832H860.122Z" fill="#380E00"/>
<path d="M754.416 218.353L753.624 222.21H756.672V225.341H752.976L752.112 229.599H748.92L749.784 225.341H745.416L744.552 229.599H741.384L742.248 225.341H738.624V222.21H742.896L743.688 218.353H740.088V215.222H744.336L745.176 211.064H748.344L747.504 215.222H751.872L752.712 211.064H755.904L755.064 215.222H758.136V218.353H754.416ZM751.224 218.353H746.856L746.064 222.21H750.432L751.224 218.353Z" fill="#380E00"/>
<path d="M769.625 215.898C769.465 215.197 769.185 214.671 768.785 214.32C768.401 213.97 767.841 213.794 767.105 213.794C766.001 213.794 765.185 214.262 764.657 215.197C764.145 216.115 763.881 217.618 763.865 219.706C764.249 219.038 764.809 218.52 765.545 218.153C766.281 217.769 767.081 217.577 767.945 217.577C768.985 217.577 769.905 217.81 770.705 218.278C771.505 218.745 772.129 219.43 772.577 220.332C773.025 221.217 773.249 222.285 773.249 223.538C773.249 224.723 773.017 225.784 772.553 226.719C772.105 227.637 771.441 228.355 770.561 228.873C769.681 229.391 768.633 229.649 767.417 229.649C765.753 229.649 764.441 229.265 763.481 228.497C762.537 227.729 761.873 226.66 761.489 225.291C761.121 223.905 760.937 222.202 760.937 220.181C760.937 217.126 761.441 214.821 762.449 213.268C763.457 211.699 765.049 210.914 767.225 210.914C768.905 210.914 770.209 211.39 771.137 212.342C772.065 213.294 772.601 214.479 772.745 215.898H769.625ZM767.177 220.457C766.329 220.457 765.617 220.716 765.041 221.233C764.465 221.751 764.177 222.503 764.177 223.488C764.177 224.473 764.441 225.249 764.969 225.817C765.513 226.385 766.273 226.669 767.249 226.669C768.113 226.669 768.793 226.393 769.289 225.842C769.801 225.291 770.057 224.548 770.057 223.613C770.057 222.644 769.809 221.876 769.313 221.309C768.833 220.741 768.121 220.457 767.177 220.457Z" fill="#380E00"/>
<path d="M775.497 214.571V211.34H781.281V229.599H777.825V214.571H775.497Z" fill="#380E00"/>
<path d="M784.648 216.149C784.728 214.479 785.288 213.193 786.328 212.292C787.384 211.373 788.768 210.914 790.48 210.914C791.648 210.914 792.648 211.131 793.48 211.565C794.312 211.983 794.936 212.559 795.352 213.294C795.784 214.012 796 214.83 796 215.748C796 216.8 795.736 217.693 795.208 218.428C794.696 219.146 794.08 219.63 793.36 219.881V219.981C794.288 220.282 795.008 220.816 795.52 221.584C796.048 222.352 796.312 223.337 796.312 224.54C796.312 225.542 796.088 226.435 795.64 227.22C795.208 228.005 794.56 228.622 793.696 229.073C792.848 229.507 791.824 229.724 790.624 229.724C788.816 229.724 787.344 229.249 786.208 228.297C785.072 227.345 784.472 225.942 784.408 224.089H787.672C787.704 224.907 787.968 225.567 788.464 226.068C788.976 226.552 789.672 226.794 790.552 226.794C791.368 226.794 791.992 226.56 792.424 226.093C792.872 225.608 793.096 224.991 793.096 224.239C793.096 223.237 792.792 222.519 792.184 222.085C791.576 221.651 790.632 221.434 789.352 221.434H788.656V218.553H789.352C791.624 218.553 792.76 217.76 792.76 216.174C792.76 215.456 792.552 214.897 792.136 214.496C791.736 214.095 791.152 213.895 790.384 213.895C789.632 213.895 789.048 214.112 788.632 214.546C788.232 214.963 788 215.498 787.936 216.149H784.648Z" fill="#380E00"/>
<path d="M799.015 216.149C799.095 214.479 799.655 213.193 800.695 212.292C801.751 211.373 803.135 210.914 804.847 210.914C806.015 210.914 807.015 211.131 807.847 211.565C808.679 211.983 809.303 212.559 809.719 213.294C810.151 214.012 810.367 214.83 810.367 215.748C810.367 216.8 810.103 217.693 809.575 218.428C809.063 219.146 808.447 219.63 807.727 219.881V219.981C808.655 220.282 809.375 220.816 809.887 221.584C810.415 222.352 810.679 223.337 810.679 224.54C810.679 225.542 810.455 226.435 810.007 227.22C809.575 228.005 808.927 228.622 808.063 229.073C807.215 229.507 806.191 229.724 804.991 229.724C803.183 229.724 801.711 229.249 800.575 228.297C799.439 227.345 798.839 225.942 798.775 224.089H802.039C802.071 224.907 802.335 225.567 802.831 226.068C803.343 226.552 804.039 226.794 804.919 226.794C805.735 226.794 806.359 226.56 806.791 226.093C807.239 225.608 807.463 224.991 807.463 224.239C807.463 223.237 807.159 222.519 806.551 222.085C805.943 221.651 804.999 221.434 803.719 221.434H803.023V218.553H803.719C805.991 218.553 807.127 217.76 807.127 216.174C807.127 215.456 806.919 214.897 806.503 214.496C806.103 214.095 805.519 213.895 804.751 213.895C803.999 213.895 803.415 214.112 802.999 214.546C802.599 214.963 802.367 215.498 802.303 216.149H799.015Z" fill="#380E00"/>
<path d="M813.334 220.232C813.334 217.343 813.831 215.08 814.823 213.444C815.831 211.807 817.495 210.989 819.815 210.989C822.135 210.989 823.79 211.807 824.782 213.444C825.79 215.08 826.294 217.343 826.294 220.232C826.294 223.137 825.79 225.416 824.782 227.069C823.79 228.723 822.135 229.549 819.815 229.549C817.495 229.549 815.831 228.723 814.823 227.069C813.831 225.416 813.334 223.137 813.334 220.232ZM822.982 220.232C822.982 218.996 822.902 217.961 822.742 217.126C822.599 216.274 822.294 215.581 821.831 215.047C821.383 214.512 820.711 214.245 819.815 214.245C818.919 214.245 818.238 214.512 817.774 215.047C817.326 215.581 817.022 216.274 816.862 217.126C816.719 217.961 816.646 218.996 816.646 220.232C816.646 221.501 816.719 222.569 816.862 223.438C817.006 224.289 817.31 224.982 817.774 225.517C818.238 226.034 818.919 226.293 819.815 226.293C820.711 226.293 821.391 226.034 821.854 225.517C822.318 224.982 822.622 224.289 822.766 223.438C822.91 222.569 822.982 221.501 822.982 220.232Z" fill="#380E00"/>
<path d="M828.442 214.571V211.34H834.226V229.599H830.77V214.571H828.442Z" fill="#380E00"/>
</svg>
