<svg width="134" height="88" viewBox="0 0 134 88" fill="none" xmlns="http://www.w3.org/2000/svg">
<path d="M49.4461 3.8075L62.7461 21.2575C63.5361 22.2875 64.6061 23.0675 65.8261 23.4975L86.5361 30.7575C89.3861 31.7575 90.5061 35.1975 88.7861 37.6875L76.2961 55.7375C75.5561 56.8075 75.1461 58.0675 75.1161 59.3575L74.6061 81.2975C74.5361 84.3175 71.6061 86.4475 68.7061 85.5775L47.6861 79.2775C46.4461 78.9075 45.1161 78.9075 43.8761 79.2775L22.8561 85.5775C19.9561 86.4475 17.0261 84.3175 16.9561 81.2975L16.4461 59.3575C16.4161 58.0575 16.0061 56.7975 15.2661 55.7375L2.81606 37.6975C1.09606 35.2075 2.21606 31.7675 5.06606 30.7675L25.7761 23.5075C26.9961 23.0775 28.0761 22.2975 28.8561 21.2675L42.1661 3.8075C43.9961 1.3975 47.6161 1.3975 49.4561 3.8075H49.4461Z" fill="#0000AA" stroke="#F9F9F9" stroke-width="4" stroke-miterlimit="10"/>
<path d="M33.7761 38.8375C35.6484 38.8375 37.1661 37.3197 37.1661 35.4475C37.1661 33.5753 35.6484 32.0575 33.7761 32.0575C31.9039 32.0575 30.3861 33.5753 30.3861 35.4475C30.3861 37.3197 31.9039 38.8375 33.7761 38.8375Z" fill="#F9F9F9"/>
<path d="M57.826 38.8375C59.6983 38.8375 61.216 37.3197 61.216 35.4475C61.216 33.5753 59.6983 32.0575 57.826 32.0575C55.9538 32.0575 54.436 33.5753 54.436 35.4475C54.436 37.3197 55.9538 38.8375 57.826 38.8375Z" fill="#F9F9F9"/>
<path d="M40.326 43.4675C42.366 44.9875 44.956 45.2975 47.406 44.9175C48.266 44.7875 49.106 44.5575 49.916 44.2275C50.596 43.9475 51.266 43.6475 51.716 43.0375C52.096 42.5175 51.806 41.6975 51.286 41.3975C50.676 41.0475 50.026 41.2975 49.646 41.8275C49.886 41.4975 49.836 41.5875 49.756 41.6675C49.646 41.7775 50.036 41.4975 49.876 41.5775C49.786 41.6175 49.706 41.6875 49.626 41.7375C49.516 41.7975 49.406 41.8575 49.296 41.9075C49.226 41.9375 49.156 41.9675 49.086 42.0075C49.216 41.9475 49.246 41.9475 49.096 42.0075C48.346 42.2875 47.576 42.4875 46.786 42.6175C46.576 42.6475 46.816 42.6175 46.686 42.6275C46.556 42.6375 46.436 42.6575 46.316 42.6575C46.086 42.6775 45.846 42.6875 45.616 42.6875C45.196 42.6875 44.606 42.6475 44.356 42.5975C43.266 42.3975 42.446 42.0575 41.556 41.3975C41.036 41.0075 40.216 41.3175 39.916 41.8275C39.556 42.4375 39.826 43.0775 40.346 43.4675H40.326Z" fill="#F9F9F9"/>
<path d="M112.284 13.3175L120.434 23.3775C120.564 23.5375 120.714 23.6875 120.884 23.8275L130.944 31.9775C131.974 32.8175 131.974 34.3875 130.944 35.2275L120.884 43.3775C120.724 43.5075 120.574 43.6575 120.434 43.8275L112.284 53.8875C111.444 54.9175 109.874 54.9175 109.034 53.8875L100.884 43.8275C100.754 43.6675 100.604 43.5175 100.434 43.3775L90.3737 35.2275C89.3437 34.3875 89.3437 32.8175 90.3737 31.9775L100.434 23.8275C100.594 23.6975 100.744 23.5475 100.884 23.3775L109.034 13.3175C109.874 12.2875 111.444 12.2875 112.284 13.3175Z" fill="#0000AA" stroke="#F9F9F9" stroke-width="4" stroke-miterlimit="10"/>
<path d="M104.604 30.8275C105.548 30.8275 106.314 30.0619 106.314 29.1175C106.314 28.1731 105.548 27.4075 104.604 27.4075C103.659 27.4075 102.894 28.1731 102.894 29.1175C102.894 30.0619 103.659 30.8275 104.604 30.8275Z" fill="#F9F9F9"/>
<path d="M116.714 30.8275C117.658 30.8275 118.424 30.0619 118.424 29.1175C118.424 28.1731 117.658 27.4075 116.714 27.4075C115.769 27.4075 115.004 28.1731 115.004 29.1175C115.004 30.0619 115.769 30.8275 116.714 30.8275Z" fill="#F9F9F9"/>
<path d="M108.204 33.3775H113.104C113.494 33.3775 113.874 33.0375 113.854 32.6275C113.834 32.2175 113.524 31.8775 113.104 31.8775H108.204C107.814 31.8775 107.434 32.2175 107.454 32.6275C107.474 33.0375 107.784 33.3775 108.204 33.3775Z" fill="#F9F9F9"/>
</svg>
