<svg width="1164" height="500" viewBox="0 0 1164 500" fill="none" xmlns="http://www.w3.org/2000/svg">
<path d="M1164 0H0V500H1164V0Z" fill="#0000AA"/>
<path d="M77.66 35.12L90.96 52.57C91.75 53.6 92.82 54.38 94.04 54.81L114.75 62.07C117.6 63.07 118.72 66.51 117 69L104.51 87.05C103.77 88.12 103.36 89.38 103.33 90.67L102.82 112.61C102.75 115.63 99.82 117.76 96.92 116.89L75.9 110.59C74.66 110.22 73.33 110.22 72.09 110.59L51.07 116.89C48.17 117.76 45.24 115.63 45.17 112.61L44.66 90.67C44.63 89.37 44.22 88.11 43.48 87.05L30.99 69C29.27 66.51 30.39 63.07 33.24 62.07L53.95 54.81C55.17 54.38 56.25 53.6 57.03 52.57L70.33 35.12C72.16 32.71 75.78 32.71 77.62 35.12H77.66Z" fill="#0000AA" stroke="#F9F9F9" stroke-width="4" stroke-miterlimit="10"/>
<path d="M61.99 70.14C63.8622 70.14 65.38 68.6222 65.38 66.75C65.38 64.8778 63.8622 63.36 61.99 63.36C60.1177 63.36 58.6 64.8778 58.6 66.75C58.6 68.6222 60.1177 70.14 61.99 70.14Z" fill="#F9F9F9"/>
<path d="M86.0399 70.14C87.9121 70.14 89.4299 68.6222 89.4299 66.75C89.4299 64.8778 87.9121 63.36 86.0399 63.36C84.1677 63.36 82.6499 64.8778 82.6499 66.75C82.6499 68.6222 84.1677 70.14 86.0399 70.14Z" fill="#F9F9F9"/>
<path d="M68.5401 74.78C70.5801 76.3 73.1701 76.61 75.6201 76.23C76.4801 76.1 77.3201 75.87 78.1301 75.54C78.8101 75.26 79.4801 74.96 79.9301 74.35C80.3101 73.83 80.0201 73.01 79.5001 72.71C78.8901 72.36 78.2401 72.61 77.8601 73.14C78.1001 72.81 78.0501 72.9 77.9701 72.98C77.8601 73.09 78.2501 72.81 78.0901 72.89C78.0001 72.93 77.9201 73 77.8401 73.05C77.7301 73.11 77.6201 73.17 77.5101 73.22C77.4401 73.25 77.3701 73.28 77.3001 73.32C77.4301 73.26 77.4601 73.26 77.3101 73.32C76.5601 73.6 75.7901 73.8 75.0001 73.93C74.7901 73.96 75.0301 73.93 74.9001 73.94C74.7701 73.95 74.6501 73.97 74.5301 73.97C74.3001 73.99 74.0601 74 73.8301 74C73.4101 74 72.8201 73.96 72.5701 73.91C71.4801 73.71 70.6601 73.37 69.7701 72.71C69.2501 72.32 68.4301 72.63 68.1301 73.14C67.7701 73.75 68.0401 74.39 68.5601 74.78H68.5401Z" fill="#F9F9F9"/>
<path d="M140.65 44.63L148.8 54.69C148.93 54.85 149.08 55 149.25 55.14L159.31 63.29C160.34 64.13 160.34 65.7 159.31 66.54L149.25 74.69C149.09 74.82 148.94 74.97 148.8 75.14L140.65 85.2C139.81 86.23 138.24 86.23 137.4 85.2L129.25 75.14C129.12 74.98 128.97 74.83 128.8 74.69L118.74 66.54C117.71 65.7 117.71 64.13 118.74 63.29L128.8 55.14C128.96 55.01 129.11 54.86 129.25 54.69L137.4 44.63C138.24 43.6 139.81 43.6 140.65 44.63Z" fill="#0000AA" stroke="#F9F9F9" stroke-width="4" stroke-miterlimit="10"/>
<path d="M132.97 62.13C133.914 62.13 134.68 61.3644 134.68 60.42C134.68 59.4756 133.914 58.71 132.97 58.71C132.026 58.71 131.26 59.4756 131.26 60.42C131.26 61.3644 132.026 62.13 132.97 62.13Z" fill="#F9F9F9"/>
<path d="M145.07 62.13C146.015 62.13 146.78 61.3644 146.78 60.42C146.78 59.4756 146.015 58.71 145.07 58.71C144.126 58.71 143.36 59.4756 143.36 60.42C143.36 61.3644 144.126 62.13 145.07 62.13Z" fill="#F9F9F9"/>
<path d="M136.57 64.69H141.47C141.86 64.69 142.24 64.35 142.22 63.94C142.2 63.53 141.89 63.19 141.47 63.19H136.57C136.18 63.19 135.8 63.53 135.82 63.94C135.84 64.35 136.15 64.69 136.57 64.69Z" fill="#F9F9F9"/>
<path d="M125.21 344.45C136.27 411.67 336.55 465.22 582 465.22C827.45 465.22 1027.73 411.66 1038.79 344.45H125.21Z" stroke="#F9F9F9" stroke-width="5" stroke-miterlimit="10"/>
<path d="M1040.81 299.15H123.19C116.563 299.15 111.19 304.523 111.19 311.15V332.23C111.19 338.857 116.563 344.23 123.19 344.23H1040.81C1047.44 344.23 1052.81 338.857 1052.81 332.23V311.15C1052.81 304.523 1047.44 299.15 1040.81 299.15Z" stroke="#F9F9F9" stroke-width="5" stroke-miterlimit="10"/>
<path d="M12.98 321.11C57.34 294.62 108.04 322.49 108.04 322.49C156.98 350.62 203.24 320.57 203.24 320.57" stroke="#F9F9F9" stroke-width="5" stroke-miterlimit="10"/>
<path d="M203.25 320.58C247.61 294.09 298.31 321.96 298.31 321.96C347.25 350.09 393.51 320.04 393.51 320.04" stroke="#F9F9F9" stroke-width="5" stroke-miterlimit="10"/>
<path d="M391.75 321.1C436.11 294.61 486.81 322.48 486.81 322.48C535.75 350.61 582.01 320.56 582.01 320.56" stroke="#F9F9F9" stroke-width="5" stroke-miterlimit="10"/>
<path d="M582.02 320.43C626.38 293.94 677.08 321.81 677.08 321.81C726.02 349.94 772.28 319.89 772.28 319.89" stroke="#F9F9F9" stroke-width="5" stroke-miterlimit="10"/>
<path d="M772.28 319.89C816.64 293.4 867.34 321.27 867.34 321.27C916.28 349.4 962.54 319.35 962.54 319.35" stroke="#F9F9F9" stroke-width="5" stroke-miterlimit="10"/>
<path d="M960.78 320.41C1005.14 293.92 1055.84 321.79 1055.84 321.79C1104.78 349.92 1151.04 319.87 1151.04 319.87" stroke="#F9F9F9" stroke-width="5" stroke-miterlimit="10"/>
<path d="M551.43 380.01C555.39 380.01 558.6 376.8 558.6 372.84C558.6 368.88 555.39 365.67 551.43 365.67C547.47 365.67 544.26 368.88 544.26 372.84C544.26 376.8 547.47 380.01 551.43 380.01Z" fill="#F9F9F9"/>
<path d="M602.25 380.01C606.21 380.01 609.42 376.8 609.42 372.84C609.42 368.88 606.21 365.67 602.25 365.67C598.29 365.67 595.08 368.88 595.08 372.84C595.08 376.8 598.29 380.01 602.25 380.01Z" fill="#F9F9F9"/>
<path d="M565.27 389.79C569.62 392.81 574.7 393.68 579.9 392.91C582.71 392.49 586.89 391.66 588.93 389.39C591.11 386.97 587.53 383.37 585.34 385.8C584.08 387.2 580.93 387.64 579.2 387.9C575.08 388.53 571.26 387.79 567.82 385.4C565.13 383.53 562.6 387.93 565.26 389.78L565.27 389.79Z" fill="#F9F9F9"/>
<path d="M410.73 299.15H143.6C138.12 299.15 134.69 293.21 137.43 288.46L246.98 98.71C260.39 75.48 293.93 75.48 307.34 98.71L416.89 288.46C419.63 293.21 416.2 299.15 410.72 299.15H410.73Z" stroke="#F9F9F9" stroke-width="5" stroke-miterlimit="10"/>
<path d="M206.18 169.38C212.07 193.75 237.6 179.46 237.6 179.46C252.92 167.2 271.3 183.95 271.3 183.95C287.64 195.8 305 183.95 305 183.95C317.26 171.29 334.28 183.95 334.28 183.95C345.17 191.04 353.87 179.3 353.87 179.3" stroke="#F9F9F9" stroke-width="5" stroke-miterlimit="10"/>
<path d="M254.87 220.82C258.344 220.82 261.16 218.004 261.16 214.53C261.16 211.056 258.344 208.24 254.87 208.24C251.396 208.24 248.58 211.056 248.58 214.53C248.58 218.004 251.396 220.82 254.87 220.82Z" fill="#F9F9F9"/>
<path d="M299.45 220.82C302.924 220.82 305.74 218.004 305.74 214.53C305.74 211.056 302.924 208.24 299.45 208.24C295.976 208.24 293.16 211.056 293.16 214.53C293.16 218.004 295.976 220.82 299.45 220.82Z" fill="#F9F9F9"/>
<path d="M267.01 229.4C270.79 232.22 275.59 232.79 280.14 232.1C281.73 231.86 283.3 231.43 284.79 230.82C286.06 230.3 287.29 229.74 288.12 228.61C288.83 227.64 288.29 226.13 287.32 225.57C286.2 224.91 284.99 225.39 284.28 226.37C284.72 225.76 284.63 225.93 284.48 226.08C284.28 226.28 284.99 225.77 284.69 225.92C284.53 226 284.38 226.12 284.22 226.21C284.02 226.32 283.81 226.43 283.6 226.53C283.47 226.59 283.34 226.65 283.21 226.71C283.45 226.6 283.51 226.59 283.23 226.7C281.84 227.22 280.42 227.6 278.95 227.83C278.56 227.89 279 227.83 278.76 227.85C278.52 227.87 278.3 227.9 278.07 227.91C277.64 227.94 277.21 227.96 276.77 227.96C275.99 227.96 274.9 227.89 274.44 227.8C272.43 227.43 270.9 226.8 269.25 225.57C268.29 224.85 266.77 225.41 266.21 226.37C265.55 227.5 266.04 228.69 267.01 229.41V229.4Z" fill="#F9F9F9"/>
<path d="M785.43 226.02C785.31 257.72 742.67 299.14 742.67 299.14" stroke="#F9F9F9" stroke-width="5" stroke-miterlimit="10"/>
<path d="M902.08 226.53C905.89 248.16 932.36 299.15 932.36 299.15" stroke="#F9F9F9" stroke-width="5" stroke-miterlimit="10"/>
<path d="M825.63 265.98C828.458 265.98 830.75 263.688 830.75 260.86C830.75 258.032 828.458 255.74 825.63 255.74C822.802 255.74 820.51 258.032 820.51 260.86C820.51 263.688 822.802 265.98 825.63 265.98Z" fill="#F9F9F9"/>
<path d="M861.88 265.98C864.708 265.98 867 263.688 867 260.86C867 258.032 864.708 255.74 861.88 255.74C859.052 255.74 856.76 258.032 856.76 260.86C856.76 263.688 859.052 265.98 861.88 265.98Z" fill="#F9F9F9"/>
<path d="M835.5 272.94C838.57 275.23 842.47 275.69 846.17 275.13C847.46 274.93 848.74 274.59 849.95 274.09C850.98 273.67 851.98 273.21 852.66 272.29C853.23 271.5 852.79 270.27 852.01 269.82C851.1 269.29 850.11 269.68 849.54 270.47C849.9 269.98 849.83 270.12 849.71 270.23C849.54 270.39 850.13 269.98 849.88 270.1C849.75 270.17 849.63 270.26 849.5 270.34C849.34 270.43 849.17 270.52 849 270.6C848.89 270.65 848.79 270.7 848.68 270.75C848.88 270.66 848.93 270.65 848.7 270.74C847.57 271.16 846.42 271.47 845.22 271.66C844.9 271.71 845.26 271.66 845.06 271.68C844.86 271.7 844.69 271.72 844.5 271.73C844.15 271.76 843.8 271.77 843.45 271.77C842.82 271.77 841.93 271.71 841.55 271.64C839.91 271.34 838.67 270.82 837.33 269.83C836.55 269.25 835.31 269.7 834.86 270.48C834.32 271.4 834.72 272.37 835.51 272.95L835.5 272.94Z" fill="#F9F9F9"/>
<path d="M470.282 295.292C501.727 287.754 520.593 254.001 512.419 219.903C504.245 185.804 472.127 164.272 440.682 171.81C409.236 179.348 390.371 213.101 398.545 247.2C406.719 281.298 438.836 302.83 470.282 295.292Z" stroke="#F9F9F9" stroke-width="5" stroke-miterlimit="10"/>
<path d="M438.11 226.78C440.396 226.78 442.25 224.926 442.25 222.64C442.25 220.354 440.396 218.5 438.11 218.5C435.823 218.5 433.97 220.354 433.97 222.64C433.97 224.926 435.823 226.78 438.11 226.78Z" fill="#F9F9F9"/>
<path d="M467.11 222.39C469.396 222.39 471.25 220.536 471.25 218.25C471.25 215.964 469.396 214.11 467.11 214.11C464.823 214.11 462.97 215.964 462.97 218.25C462.97 220.536 464.823 222.39 467.11 222.39Z" fill="#F9F9F9"/>
<path d="M447.27 231.02C449.99 232.47 453.15 232.55 456.07 231.65C457.17 231.31 458.26 230.85 459.25 230.25C459.88 229.87 460.67 229.39 461.02 228.71C461.37 228.03 461.2 227.12 460.49 226.71C459.83 226.33 458.85 226.53 458.49 227.24C458.38 227.45 458.82 226.94 458.55 227.16C458.46 227.23 458.37 227.32 458.29 227.39C458.59 227.11 458.29 227.39 458.14 227.48C457.99 227.57 457.83 227.68 457.66 227.78C457.29 228 456.91 228.19 456.52 228.37C456.43 228.41 456.24 228.49 456.43 228.41C456.3 228.46 456.17 228.52 456.03 228.57C455.78 228.67 455.52 228.75 455.26 228.83C453.08 229.51 450.81 229.61 448.72 228.49C448.02 228.12 447.13 228.31 446.72 229.02C446.33 229.68 446.55 230.65 447.25 231.02H447.27Z" fill="#F9F9F9"/>
<path d="M326.77 132.36V99.86C326.77 95.27 330.49 91.55 335.08 91.55H686.43" stroke="#F9F9F9" stroke-width="5" stroke-miterlimit="10"/>
<path d="M505.99 272.48C526.48 284.93 558.6 271.39 558.6 271.39C589.72 257.73 616.92 273.58 616.92 273.58C648.54 281.99 686.43 271.39 686.43 271.39C729.42 255.75 761.51 277.75 761.51 277.75" stroke="#F9F9F9" stroke-width="5" stroke-miterlimit="10"/>
<path d="M552.04 195.69C557.513 195.69 561.95 191.253 561.95 185.78C561.95 180.307 557.513 175.87 552.04 175.87C546.567 175.87 542.13 180.307 542.13 185.78C542.13 191.253 546.567 195.69 552.04 195.69Z" fill="#F9F9F9"/>
<path d="M622.22 195.69C627.693 195.69 632.13 191.253 632.13 185.78C632.13 180.307 627.693 175.87 622.22 175.87C616.747 175.87 612.31 180.307 612.31 185.78C612.31 191.253 616.747 195.69 622.22 195.69Z" fill="#F9F9F9"/>
<path d="M571.15 209.19C577.1 213.38 584.23 214.55 591.35 213.5C595.23 212.93 601.07 211.81 603.82 208.65C606.76 205.26 601.83 200.29 598.87 203.7C597.27 205.54 592.71 206.26 590.4 206.61C584.73 207.46 579.4 206.48 574.68 203.15C570.99 200.55 567.48 206.62 571.15 209.2V209.19Z" fill="#F9F9F9"/>
<path d="M366.81 90.97H346.26C343.32 90.97 341.49 87.79 342.96 85.25L353.23 67.45C354.7 64.91 358.37 64.91 359.84 67.45L370.11 85.25C371.58 87.79 369.74 90.97 366.81 90.97Z" stroke="#F9F9F9" stroke-width="5" stroke-miterlimit="10"/>
<path d="M410.21 90.97H389.66C386.72 90.97 384.89 87.79 386.36 85.25L396.63 67.45C398.1 64.91 401.77 64.91 403.24 67.45L413.51 85.25C414.98 87.79 413.14 90.97 410.21 90.97Z" stroke="#F9F9F9" stroke-width="5" stroke-miterlimit="10"/>
<path d="M453.6 90.97H433.05C430.11 90.97 428.28 87.79 429.75 85.25L440.02 67.45C441.49 64.91 445.16 64.91 446.63 67.45L456.9 85.25C458.37 87.79 456.53 90.97 453.6 90.97Z" stroke="#F9F9F9" stroke-width="5" stroke-miterlimit="10"/>
<path d="M497 90.97H476.45C473.51 90.97 471.68 87.79 473.15 85.25L483.42 67.45C484.89 64.91 488.56 64.91 490.03 67.45L500.3 85.25C501.77 87.79 499.93 90.97 497 90.97Z" stroke="#F9F9F9" stroke-width="5" stroke-miterlimit="10"/>
<path d="M540.4 90.97H519.85C516.91 90.97 515.08 87.79 516.55 85.25L526.82 67.45C528.29 64.91 531.96 64.91 533.43 67.45L543.7 85.25C545.17 87.79 543.33 90.97 540.4 90.97Z" stroke="#F9F9F9" stroke-width="5" stroke-miterlimit="10"/>
<path d="M583.8 90.97H563.25C560.31 90.97 558.48 87.79 559.95 85.25L570.22 67.45C571.69 64.91 575.36 64.91 576.83 67.45L587.1 85.25C588.57 87.79 586.73 90.97 583.8 90.97Z" stroke="#F9F9F9" stroke-width="5" stroke-miterlimit="10"/>
<path d="M627.2 90.97H606.65C603.71 90.97 601.88 87.79 603.35 85.25L613.62 67.45C615.09 64.91 618.76 64.91 620.23 67.45L630.5 85.25C631.97 87.79 630.13 90.97 627.2 90.97Z" stroke="#F9F9F9" stroke-width="5" stroke-miterlimit="10"/>
<path d="M670.59 90.97H650.04C647.1 90.97 645.27 87.79 646.74 85.25L657.01 67.45C658.48 64.91 662.15 64.91 663.62 67.45L673.89 85.25C675.36 87.79 673.52 90.97 670.59 90.97Z" stroke="#F9F9F9" stroke-width="5" stroke-miterlimit="10"/>
<path d="M713.99 90.97H693.44C690.5 90.97 688.67 87.79 690.14 85.25L700.41 67.45C701.88 64.91 705.55 64.91 707.02 67.45L717.29 85.25C718.76 87.79 716.92 90.97 713.99 90.97Z" stroke="#F9F9F9" stroke-width="5" stroke-miterlimit="10"/>
<path d="M1150.55 16.84H13.45C13.2843 16.84 13.15 16.9743 13.15 17.14V482.85C13.15 483.016 13.2843 483.15 13.45 483.15H1150.55C1150.72 483.15 1150.85 483.016 1150.85 482.85V17.14C1150.85 16.9743 1150.72 16.84 1150.55 16.84Z" stroke="#F9F9F9" stroke-width="5" stroke-miterlimit="10"/>
<path d="M1150.62 432.55H1004.12C1003.99 432.55 1003.89 432.653 1003.89 432.78V482.93C1003.89 483.057 1003.99 483.16 1004.12 483.16H1150.62C1150.75 483.16 1150.85 483.057 1150.85 482.93V432.78C1150.85 432.653 1150.75 432.55 1150.62 432.55Z" stroke="#F9F9F9" stroke-width="5" stroke-miterlimit="10"/>
<path d="M737.91 241.9H623.44C622.766 241.9 622.22 242.446 622.22 243.12V297.11C622.22 297.784 622.766 298.33 623.44 298.33H737.91C738.584 298.33 739.13 297.784 739.13 297.11V243.12C739.13 242.446 738.584 241.9 737.91 241.9Z" fill="#0000AA" stroke="#F9F9F9" stroke-width="5.11" stroke-miterlimit="10"/>
<path d="M680.81 213.32L736.14 239.05C737.74 239.8 737.21 242.2 735.44 242.2H624.79C623.02 242.2 622.49 239.8 624.09 239.05L679.42 213.32C679.86 213.11 680.37 213.11 680.81 213.32Z" fill="#0000AA" stroke="#F9F9F9" stroke-width="5" stroke-miterlimit="10"/>
<path d="M666.01 265.92C668.297 265.92 670.15 264.066 670.15 261.78C670.15 259.494 668.297 257.64 666.01 257.64C663.724 257.64 661.87 259.494 661.87 261.78C661.87 264.066 663.724 265.92 666.01 265.92Z" fill="#F9F9F9"/>
<path d="M695.35 265.92C697.637 265.92 699.49 264.066 699.49 261.78C699.49 259.494 697.637 257.64 695.35 257.64C693.064 257.64 691.21 259.494 691.21 261.78C691.21 264.066 693.064 265.92 695.35 265.92Z" fill="#F9F9F9"/>
<path d="M674 271.57C676.49 273.42 679.64 273.8 682.64 273.34C683.69 273.18 684.72 272.9 685.7 272.5C686.53 272.16 687.35 271.79 687.89 271.04C688.36 270.4 688 269.41 687.36 269.04C686.62 268.61 685.82 268.92 685.36 269.57C685.65 269.17 685.59 269.28 685.49 269.38C685.36 269.51 685.83 269.17 685.63 269.27C685.52 269.32 685.43 269.4 685.32 269.46C685.19 269.53 685.05 269.6 684.91 269.67C684.82 269.71 684.74 269.75 684.65 269.79C684.81 269.72 684.85 269.71 684.66 269.79C683.75 270.13 682.81 270.38 681.85 270.53C681.59 270.57 681.88 270.53 681.72 270.55C681.56 270.57 681.42 270.58 681.27 270.59C680.99 270.61 680.7 270.62 680.42 270.63C679.91 270.63 679.19 270.58 678.89 270.53C677.57 270.29 676.56 269.87 675.48 269.06C674.85 268.59 673.85 268.96 673.48 269.59C673.04 270.34 673.37 271.12 674.01 271.59L674 271.57Z" fill="#F9F9F9"/>
<path d="M1057.82 459.27C1060.87 459.27 1063.34 456.799 1063.34 453.75C1063.34 450.701 1060.87 448.23 1057.82 448.23C1054.77 448.23 1052.3 450.701 1052.3 453.75C1052.3 456.799 1054.77 459.27 1057.82 459.27Z" fill="#F9F9F9"/>
<path d="M1096.92 459.27C1099.97 459.27 1102.44 456.799 1102.44 453.75C1102.44 450.701 1099.97 448.23 1096.92 448.23C1093.87 448.23 1091.4 450.701 1091.4 453.75C1091.4 456.799 1093.87 459.27 1096.92 459.27Z" fill="#F9F9F9"/>
<path d="M1068.46 466.8C1071.78 469.27 1075.98 469.77 1079.98 469.16C1081.38 468.95 1082.75 468.58 1084.06 468.04C1085.17 467.58 1086.25 467.09 1086.98 466.1C1087.6 465.25 1087.13 463.92 1086.28 463.43C1085.29 462.85 1084.23 463.28 1083.61 464.13C1084 463.6 1083.92 463.75 1083.79 463.88C1083.61 464.05 1084.24 463.61 1083.98 463.74C1083.84 463.81 1083.71 463.92 1083.57 464C1083.39 464.1 1083.21 464.19 1083.03 464.28C1082.92 464.33 1082.8 464.38 1082.68 464.44C1082.89 464.34 1082.95 464.33 1082.7 464.43C1081.48 464.89 1080.23 465.22 1078.95 465.42C1078.6 465.47 1078.99 465.42 1078.78 465.44C1078.57 465.46 1078.38 465.48 1078.18 465.5C1077.8 465.53 1077.42 465.55 1077.04 465.55C1076.36 465.55 1075.4 465.48 1074.99 465.41C1073.22 465.09 1071.88 464.53 1070.44 463.45C1069.59 462.82 1068.26 463.31 1067.77 464.15C1067.19 465.15 1067.62 466.19 1068.47 466.82L1068.46 466.8Z" fill="#F9F9F9"/>
<path d="M982.96 230.79H994.63C1021.95 230.79 1044.12 252.97 1044.12 280.28V285.22C1044.12 292.9 1037.88 299.14 1030.2 299.14H946.27C938.59 299.14 932.35 292.9 932.35 285.22V281.38C932.35 253.45 955.02 230.78 982.95 230.78L982.96 230.79Z" fill="#0000AA" stroke="#F9F9F9" stroke-width="5.8" stroke-miterlimit="10"/>
<path d="M757.39 91.05H736.84C733.9 91.05 732.07 87.87 733.54 85.33L743.81 67.53C745.28 64.99 748.95 64.99 750.42 67.53L760.69 85.33C762.16 87.87 760.32 91.05 757.39 91.05Z" stroke="#F9F9F9" stroke-width="5" stroke-miterlimit="10"/>
<path d="M1077.72 95.99C1077.72 78.63 1046.36 64.56 1007.68 64.56C989.93 64.56 973.74 67.53 961.4 72.41C928.89 61.94 888.88 55.77 845.6 55.77C736.77 55.77 648.54 94.81 648.54 142.98C648.54 191.15 736.77 230.19 845.6 230.19C954.43 230.19 1042.66 191.15 1042.66 142.98C1042.66 136.57 1041.08 130.33 1038.12 124.32C1061.55 119.24 1077.72 108.47 1077.72 96V95.99Z" fill="#0000AA" stroke="#F9F9F9" stroke-width="5" stroke-miterlimit="10"/>
<path d="M671.62 183.94C830.95 225.34 1019.58 183.94 1019.58 183.94" stroke="#F9F9F9" stroke-width="4" stroke-miterlimit="10"/>
<path d="M973.33 270.4C975.655 270.4 977.54 268.515 977.54 266.19C977.54 263.865 975.655 261.98 973.33 261.98C971.005 261.98 969.12 263.865 969.12 266.19C969.12 268.515 971.005 270.4 973.33 270.4Z" fill="#F9F9F9"/>
<path d="M1003.17 270.4C1005.5 270.4 1007.38 268.515 1007.38 266.19C1007.38 263.865 1005.5 261.98 1003.17 261.98C1000.85 261.98 998.96 263.865 998.96 266.19C998.96 268.515 1000.85 270.4 1003.17 270.4Z" fill="#F9F9F9"/>
<path d="M981.45 276.14C983.98 278.03 987.19 278.41 990.24 277.94C991.31 277.78 992.35 277.49 993.35 277.08C994.2 276.73 995.02 276.36 995.58 275.6C996.05 274.95 995.69 273.94 995.05 273.56C994.3 273.12 993.49 273.44 993.01 274.09C993.31 273.68 993.25 273.8 993.15 273.9C993.01 274.03 993.49 273.69 993.29 273.79C993.18 273.84 993.08 273.93 992.98 273.98C992.85 274.06 992.71 274.13 992.57 274.19C992.48 274.23 992.39 274.27 992.31 274.31C992.47 274.24 992.51 274.23 992.32 274.31C991.39 274.66 990.44 274.91 989.46 275.07C989.2 275.11 989.49 275.07 989.33 275.09C989.17 275.11 989.02 275.12 988.87 275.13C988.58 275.15 988.29 275.16 988 275.17C987.48 275.17 986.75 275.12 986.44 275.06C985.09 274.81 984.07 274.39 982.97 273.57C982.32 273.09 981.31 273.46 980.93 274.1C980.49 274.86 980.82 275.66 981.46 276.14H981.45Z" fill="#F9F9F9"/>
<path d="M545.78 241.69C552.78 241.19 557.37 245.19 561.93 249.96L562.07 250.1C564.08 248.44 565.69 246.36 567.78 244.78C582.48 233.68 602.57 253.71 588.53 269.32C580.84 277.87 571.43 285.57 563.6 294.11C562.69 294.8 561.84 294.99 560.81 294.42C552.64 285.35 541.89 277.15 534.07 267.93C525.82 258.2 533.26 242.59 545.77 241.69H545.78Z" fill="#0000AA" stroke="#F9F9F9" stroke-width="5" stroke-linecap="round" stroke-linejoin="round"/>
<path d="M550.8 266.68C552.54 266.68 553.95 265.27 553.95 263.53C553.95 261.79 552.54 260.38 550.8 260.38C549.06 260.38 547.65 261.79 547.65 263.53C547.65 265.27 549.06 266.68 550.8 266.68Z" fill="#F9F9F9"/>
<path d="M573.09 266.68C574.83 266.68 576.24 265.27 576.24 263.53C576.24 261.79 574.83 260.38 573.09 260.38C571.351 260.38 569.94 261.79 569.94 263.53C569.94 265.27 571.351 266.68 573.09 266.68Z" fill="#F9F9F9"/>
<path d="M556.87 270.96C558.76 272.37 561.16 272.65 563.43 272.31C564.23 272.19 565.01 271.98 565.75 271.67C566.38 271.41 567 271.13 567.41 270.56C567.76 270.07 567.49 269.32 567.01 269.04C566.45 268.71 565.84 268.95 565.49 269.44C565.71 269.14 565.67 269.22 565.59 269.29C565.49 269.39 565.85 269.13 565.7 269.21C565.62 269.25 565.55 269.31 565.47 269.36C565.37 269.42 565.27 269.47 565.16 269.52C565.09 269.55 565.03 269.58 564.96 269.61C565.08 269.56 565.11 269.55 564.97 269.61C564.28 269.87 563.56 270.06 562.83 270.17C562.63 270.2 562.85 270.17 562.73 270.18C562.61 270.19 562.5 270.2 562.39 270.21C562.17 270.23 561.96 270.24 561.74 270.24C561.35 270.24 560.8 270.2 560.57 270.16C559.56 269.98 558.8 269.66 557.98 269.04C557.5 268.68 556.74 268.96 556.46 269.44C556.13 270.01 556.38 270.6 556.86 270.96H556.87Z" fill="#F9F9F9"/>
</svg>
