<svg width="950" height="208" viewBox="0 0 950 208" fill="none" xmlns="http://www.w3.org/2000/svg">
<path d="M8.19138 54.872C8.28845 63.2506 11.2735 69.7647 16.6004 73.2154C18.4084 74.3899 20.3985 75.1527 22.5098 75.5522C19.7432 70.0068 18.3114 64.1466 18.3114 58.2138C18.3114 37.3035 35.9061 19.2265 61.3031 10.7994C60.4901 9.97608 59.6043 9.24961 58.6457 8.63211C47.2273 1.23421 28.5163 9.69761 16.9281 27.5083C11.1885 36.3107 8.09431 46.0333 8.19138 54.8599V54.872Z" fill="#7CBFFF"/>
<path d="M125.724 10.8842C151.012 19.3355 168.509 37.3762 168.509 58.2259C168.509 64.1587 167.077 70.0431 164.299 75.5885C166.544 75.2011 168.631 74.4262 170.487 73.2154C175.814 69.7647 178.799 63.2506 178.896 54.872C178.993 46.0333 175.899 36.3228 170.16 27.5204C161.411 14.0928 148.621 5.96839 137.955 5.96839C134.485 5.96839 131.245 6.82804 128.442 8.64422C127.447 9.28594 126.537 10.0487 125.724 10.8842Z" fill="#7CBFFF"/>
<path d="M175.389 93.0965L154.434 84.8026H100.339L100.193 86.7036C100.145 87.2726 99.8536 87.7933 99.3925 88.1202C98.9314 88.4592 98.349 88.5682 97.7908 88.435L94.648 87.6843C93.9078 87.5027 93.1313 87.5027 92.4032 87.6843L89.2604 88.435C89.1148 88.4713 88.9571 88.4834 88.8115 88.4834C88.3989 88.4834 87.9985 88.3502 87.6708 88.1081C87.2097 87.769 86.9185 87.2605 86.87 86.6914L86.7122 84.7905H32.3871L11.4312 93.0844C9.06505 94.0167 7.26918 95.9418 6.48045 98.3513C5.69172 100.761 6.01935 103.376 7.37838 105.507L25.5798 134.178C30.5184 141.952 33.4428 150.924 34.0252 160.113L36.1973 193.991C36.355 196.522 37.6291 198.822 39.6798 200.312C41.7305 201.801 44.3272 202.297 46.7784 201.668L79.735 193.253C84.2004 192.115 88.7993 191.545 93.3982 191.545C97.9971 191.545 102.596 192.115 107.061 193.253L140.018 201.668C142.481 202.297 145.066 201.801 147.117 200.312C149.167 198.822 150.441 196.522 150.599 193.991L152.771 160.113C153.354 150.924 156.278 141.952 161.217 134.178L179.418 105.507C180.777 103.364 181.105 100.761 180.316 98.3513C179.527 95.9418 177.731 94.0167 175.365 93.0844L175.389 93.0965ZM93.5438 184.099C68.7292 184.099 48.5378 163.952 48.5378 139.191C48.5378 114.431 68.7292 94.2831 93.5438 94.2831C118.358 94.2831 138.55 114.431 138.55 139.191C138.55 163.952 118.358 184.099 93.5438 184.099Z" fill="white"/>
<path d="M93.4103 11.8286C55.3451 11.8286 24.3785 32.642 24.3785 58.238C24.3785 64.0619 26.053 69.8615 29.2443 75.2737H86.4695L88.1441 74.5836C88.8479 74.293 89.4667 73.8329 89.9642 73.2638L92.0634 70.8181C92.4396 70.3822 92.9735 70.14 93.5438 70.14C94.1141 70.14 94.648 70.3822 95.0242 70.8181L97.1234 73.2638C97.6088 73.8329 98.2398 74.293 98.9436 74.5836L100.618 75.2737H157.576C160.768 69.8615 162.442 64.0619 162.442 58.238C162.442 32.6541 131.476 11.8286 93.4103 11.8286ZM64.64 56.1797C61.7763 56.1797 59.4465 53.8671 59.4465 50.9975C59.4465 48.1279 61.7642 45.8153 64.64 45.8153C67.5158 45.8153 69.8335 48.1279 69.8335 50.9975C69.8335 53.8671 67.5158 56.1797 64.64 56.1797ZM93.4103 63.1296C90.4981 63.1296 88.1319 61.5676 88.1319 59.6546C88.1319 57.7416 90.4981 56.1797 93.4103 56.1797C96.3226 56.1797 98.6888 57.7416 98.6888 59.6546C98.6888 61.5676 96.3226 63.1296 93.4103 63.1296ZM93.4103 39.713C92.6095 39.713 91.7965 39.5798 91.0078 39.2771C88.4474 38.26 86.7972 35.6205 86.0934 31.4312C86.057 31.1406 85.2561 25.1109 88.9449 22.314C91.4325 20.4252 95.1941 20.5583 100.133 22.7014L99.162 24.9172C95.1577 23.1736 92.1241 22.9436 90.4132 24.2391C87.8529 26.1643 88.4838 31.0195 88.4838 31.068C89.0299 34.325 90.1826 36.347 91.8936 37.025C94.8665 38.2116 98.8708 35.2452 98.9072 35.2089L100.375 37.134C100.206 37.2672 96.9172 39.713 93.4103 39.713ZM142.251 42.5462C142.639 43.2364 142.566 44.0839 142.069 44.7014C141.583 45.3068 140.77 45.5611 140.03 45.331C139.254 45.101 138.441 45.0283 137.615 45.1252C134.897 45.4521 132.713 47.6557 132.434 50.3558C132.252 52.063 132.786 53.6975 133.927 54.9568C135.346 56.5308 137.603 57.2451 139.654 56.7729C140.503 56.5792 141.377 56.9061 141.875 57.5963C142.372 58.2864 142.409 59.2066 141.972 59.9331C138.841 65.1395 133.114 68.3723 127.034 68.3723C122.205 68.3723 117.558 66.3503 114.269 62.8148C110.932 59.2308 109.306 54.5693 109.67 49.6656C110.289 41.2991 117.072 34.4218 125.445 33.6833C132.301 33.0779 138.902 36.5407 142.251 42.5341V42.5462Z" fill="white"/>
<path d="M186.116 96.4867C184.769 92.3579 181.675 89.0646 177.634 87.4663L163.364 81.812C167.15 81.473 170.681 80.3106 173.788 78.2886C180.874 73.6997 184.842 65.3937 184.963 54.9325C185.073 44.9193 181.626 34.0102 175.244 24.2149C161.835 3.61946 139.363 -5.65515 125.141 3.57103C122.884 5.03608 120.979 6.87647 119.402 9.01956C111.296 6.92491 102.547 5.77466 93.4103 5.77466C84.2732 5.77466 75.7065 6.90069 67.6736 8.94692C66.084 6.81594 64.1668 5.01187 61.9462 3.57103C47.737 -5.64305 25.2522 3.61946 11.8317 24.227C5.46117 34.0102 2.01504 44.9315 2.12425 54.9447C2.24559 65.4179 6.21349 73.7118 13.2999 78.3007C16.4063 80.3106 19.9131 81.4366 23.6262 81.7514L9.19853 87.4663C5.15781 89.0646 2.06358 92.3579 0.716671 96.4867C-0.630232 100.615 -0.0599217 105.083 2.26986 108.752L20.4713 137.423C24.8639 144.349 27.4606 152.328 27.9824 160.501L30.1544 194.379C30.4335 198.713 32.6055 202.66 36.1245 205.215C39.6434 207.77 44.0845 208.618 48.2951 207.54L81.2518 199.125C89.2119 197.091 97.6209 197.091 105.569 199.125L138.526 207.54C139.727 207.843 140.94 208 142.154 208C145.199 208 148.184 207.044 150.708 205.215C154.227 202.66 156.411 198.713 156.678 194.379L158.85 160.501C159.372 152.328 161.969 144.337 166.362 137.423L184.563 108.752C186.893 105.083 187.451 100.615 186.116 96.4867ZM179.442 105.519L161.241 134.191C156.302 141.964 153.378 150.936 152.795 160.126L150.623 194.003C150.466 196.534 149.192 198.834 147.141 200.324C145.09 201.813 142.493 202.309 140.042 201.68L107.086 193.265C102.62 192.127 98.0214 191.558 93.4225 191.558C88.8236 191.558 84.2247 192.127 79.7593 193.265L46.8026 201.68C44.3394 202.309 41.7548 201.813 39.7041 200.324C37.6534 198.834 36.3793 196.534 36.2215 194.003L34.0495 160.126C33.4671 150.936 30.5427 141.964 25.6041 134.191L7.40265 105.519C6.04362 103.376 5.71599 100.773 6.50472 98.3634C7.29344 95.9539 9.08932 94.0288 11.4555 93.0965L32.4114 84.8026H86.7608L86.9185 86.7036C86.967 87.2726 87.2583 87.7933 87.7194 88.1202C88.0591 88.3623 88.4596 88.4955 88.86 88.4955C89.0056 88.4955 89.1634 88.4834 89.309 88.4471L92.4517 87.6964C93.1919 87.5148 93.9685 87.5148 94.6966 87.6964L97.8393 88.4471C98.3975 88.5803 98.98 88.4592 99.4411 88.1323C99.9022 87.7933 100.193 87.2847 100.242 86.7157L100.388 84.8147H154.482L175.438 93.1086C177.792 94.0409 179.6 95.9661 180.389 98.3755C181.178 100.785 180.85 103.4 179.491 105.531L179.442 105.519ZM58.6457 8.64422C59.6164 9.27383 60.4901 10.0003 61.3031 10.8115C35.9182 19.2386 18.3114 37.3277 18.3114 58.2259C18.3114 64.1466 19.7432 70.0189 22.5098 75.5643C20.3985 75.1648 18.4084 74.3899 16.6004 73.2275C11.2735 69.7768 8.28845 63.2627 8.19138 54.8841C8.09431 46.0454 11.1885 36.3349 16.9281 27.5325C28.5163 9.70971 47.2395 1.24632 58.6457 8.64422ZM170.16 27.5204C175.899 36.3228 178.993 46.0454 178.896 54.872C178.799 63.2506 175.814 69.7647 170.487 73.2154C168.631 74.4141 166.556 75.2011 164.299 75.5885C167.065 70.0431 168.509 64.1587 168.509 58.2259C168.509 37.3762 151 19.3355 125.724 10.8842C126.549 10.0487 127.447 9.29805 128.442 8.64422C131.245 6.82804 134.485 5.96839 137.955 5.96839C148.609 5.96839 161.411 14.0806 170.16 27.5204ZM100.691 82.3811C100.812 82.0299 100.958 81.6909 101.164 81.364L102.851 78.6155C103.021 78.337 103.106 78.0101 103.13 77.6832H158.414V82.3689H100.703L100.691 82.3811ZM97.8272 85.9529L95.2305 85.3354C94.1263 85.069 92.9614 85.069 91.8572 85.3354L89.2604 85.9529L89.0541 83.3012C88.9692 82.1752 88.6052 81.0613 88.0106 80.0927L86.6152 77.8285L89.0784 76.8114C90.122 76.3755 91.0684 75.6975 91.8086 74.8257L93.5438 72.8037L95.279 74.8257C96.0192 75.6854 96.9657 76.3755 98.0092 76.8114L100.472 77.8285L99.077 80.0927C98.4825 81.0613 98.1184 82.1631 98.0335 83.3012L97.8272 85.9529ZM26.8175 77.6832H83.982C83.9942 78.0101 84.0791 78.3249 84.2611 78.6155L85.9478 81.364C86.1419 81.6788 86.2997 82.0178 86.421 82.3811H26.8175V77.6832ZM162.442 58.2259C162.442 64.0498 160.768 69.8494 157.576 75.2616H100.618L98.9436 74.5715C98.2398 74.2809 97.6209 73.8208 97.1234 73.2517L95.0242 70.8059C94.648 70.3701 94.1141 70.1279 93.5438 70.1279C92.9735 70.1279 92.4396 70.3701 92.0634 70.8059L89.9642 73.2517C89.4788 73.8208 88.8479 74.2809 88.1441 74.5715L86.4695 75.2616H29.2565C26.0652 69.8494 24.3906 64.0498 24.3906 58.2259C24.3906 32.642 55.3573 11.8165 93.4225 11.8165C131.488 11.8165 162.454 32.6299 162.454 58.2259H162.442Z" fill="#0831B4"/>
<path d="M91.8936 37.025C90.1826 36.347 89.0299 34.325 88.4838 31.068C88.4838 31.0195 87.8529 26.1764 90.4132 24.2391C92.1241 22.9436 95.1577 23.1858 99.162 24.9172L100.133 22.7014C95.1941 20.5583 91.4325 20.4252 88.9449 22.314C85.2561 25.1109 86.0448 31.1406 86.0934 31.4312C86.7972 35.6205 88.4596 38.26 91.0078 39.2771C91.7965 39.5919 92.6095 39.713 93.4103 39.713C96.9172 39.713 100.206 37.2672 100.375 37.134L98.9072 35.2089C98.9072 35.2089 94.8665 38.1995 91.8936 37.025Z" fill="#0831B4"/>
<path d="M64.64 45.8153C61.7763 45.8153 59.4465 48.1279 59.4465 50.9975C59.4465 53.8671 61.7642 56.1797 64.64 56.1797C67.5158 56.1797 69.8335 53.8671 69.8335 50.9975C69.8335 48.1279 67.5158 45.8153 64.64 45.8153Z" fill="#0831B4"/>
<path d="M112.085 49.8472C111.77 54.0608 113.177 58.0806 116.041 61.1681C118.868 64.2072 122.872 65.9507 127.034 65.9507C132.119 65.9507 136.742 63.4565 139.533 59.255C136.79 59.6546 133.975 58.6375 132.119 56.5792C130.541 54.8236 129.765 52.4625 130.019 50.1015C130.42 46.2754 133.49 43.1637 137.324 42.7157C138.064 42.631 138.805 42.6431 139.533 42.7399C136.754 38.5627 132.034 36.0443 126.998 36.0443C126.549 36.0443 126.1 36.0685 125.663 36.1048C118.468 36.7465 112.631 42.6552 112.097 49.8594L112.085 49.8472ZM127.374 50.9975C127.374 53.8549 125.057 56.1797 122.181 56.1797C119.305 56.1797 116.987 53.8671 116.987 50.9975C116.987 48.1279 119.305 45.8153 122.181 45.8153C125.057 45.8153 127.374 48.1279 127.374 50.9975Z" fill="#C4EFFD"/>
<path d="M109.67 49.6777C109.306 54.5693 110.944 59.2429 114.269 62.8269C117.558 66.3624 122.205 68.3844 127.034 68.3844C133.114 68.3844 138.841 65.1516 141.972 59.9452C142.409 59.2066 142.372 58.2864 141.875 57.6084C141.365 56.9182 140.491 56.5913 139.654 56.785C137.591 57.2573 135.346 56.555 133.927 54.9689C132.786 53.7097 132.252 52.0751 132.434 50.3679C132.713 47.6557 134.897 45.4521 137.615 45.1373C138.441 45.0404 139.254 45.1131 140.03 45.3431C140.783 45.5732 141.583 45.3189 142.069 44.7135C142.566 44.096 142.639 43.2485 142.251 42.5583C138.902 36.5649 132.301 33.1021 125.445 33.7075C117.072 34.4582 110.301 41.3233 109.67 49.6898V49.6777ZM139.533 42.7399C138.805 42.631 138.064 42.631 137.324 42.7157C133.49 43.1758 130.42 46.2754 130.019 50.1015C129.777 52.4625 130.541 54.8236 132.119 56.5792C133.975 58.6375 136.802 59.6546 139.533 59.255C136.742 63.4686 132.119 65.9507 127.034 65.9507C122.884 65.9507 118.88 64.2072 116.041 61.1681C113.177 58.0806 111.77 54.0608 112.085 49.8472C112.619 42.6431 118.455 36.7344 125.651 36.0927C126.1 36.0564 126.549 36.0322 126.986 36.0322C132.022 36.0322 136.742 38.5506 139.521 42.7278L139.533 42.7399Z" fill="#0831B4"/>
<path d="M122.193 56.1797C125.061 56.1797 127.386 53.8595 127.386 50.9975C127.386 48.1355 125.061 45.8153 122.193 45.8153C119.325 45.8153 116.999 48.1355 116.999 50.9975C116.999 53.8595 119.325 56.1797 122.193 56.1797Z" fill="#0831B4"/>
<path d="M93.4103 56.1797C90.4981 56.1797 88.1319 57.7416 88.1319 59.6546C88.1319 61.5676 90.4981 63.1296 93.4103 63.1296C96.3226 63.1296 98.6888 61.5676 98.6888 59.6546C98.6888 57.7416 96.3226 56.1797 93.4103 56.1797Z" fill="#0831B4"/>
<path d="M158.401 77.6832H103.118C103.106 78.0101 103.021 78.3249 102.839 78.6155L101.152 81.364C100.958 81.6788 100.8 82.0178 100.679 82.3811H158.389V77.6953L158.401 77.6832Z" fill="#7CBFFF"/>
<path d="M86.4089 82.3811C86.2875 82.0299 86.1419 81.6909 85.9356 81.364L84.249 78.6155C84.0791 78.337 83.9942 78.0101 83.9699 77.6832H26.8175V82.3689H86.4089V82.3811Z" fill="#7CBFFF"/>
<path d="M99.077 80.0927L100.472 77.8285L98.0092 76.8114C96.9657 76.3755 96.0192 75.6975 95.279 74.8257L93.5438 72.8037L91.8086 74.8257C91.0684 75.6854 90.122 76.3755 89.0784 76.8114L86.6152 77.8285L88.0106 80.0927C88.6052 81.0613 88.9692 82.1631 89.0541 83.3012L89.2604 85.9529L91.8572 85.3354C92.9614 85.069 94.1263 85.069 95.2305 85.3354L97.8272 85.9529L98.0335 83.3012C98.1184 82.1752 98.4825 81.0613 99.077 80.0927Z" fill="#C4EFFD"/>
<path d="M93.5438 96.7046C70.064 96.7046 50.9647 115.762 50.9647 139.191C50.9647 162.62 70.064 181.678 93.5438 181.678C117.024 181.678 136.123 162.62 136.123 139.191C136.123 115.762 117.024 96.7046 93.5438 96.7046ZM126.149 131.842C126.149 131.842 126.112 132.035 126.064 132.181C126.039 132.265 126.015 132.374 125.991 132.447C125.954 132.592 125.906 132.798 125.857 132.968L125.797 133.234C125.76 133.379 125.724 133.537 125.688 133.658C125.651 133.779 125.59 133.948 125.542 134.082L125.481 134.251C125.445 134.36 125.408 134.469 125.372 134.566L125.323 134.711C125.287 134.82 125.251 134.929 125.226 135.014C124.729 136.225 123.879 137.46 123.127 138.561L122.775 139.07C122.618 139.3 122.448 139.506 122.254 139.7L96.5046 165.392C95.6552 166.252 94.5267 166.676 93.3982 166.676C92.2697 166.676 91.1534 166.252 90.304 165.405L65.7321 141.007C63.7663 138.937 62.3709 136.842 61.4487 134.59C61.3759 134.396 61.3152 134.215 61.2788 134.082L61.2303 133.936C61.1939 133.815 61.1575 133.706 61.1332 133.634C61.1211 133.573 61.0847 133.488 61.0604 133.416C61.024 133.307 60.9997 133.222 60.9876 133.186L60.939 133.004C60.9026 132.859 60.8662 132.701 60.842 132.592L60.8056 132.399C60.7692 132.217 60.7206 132.011 60.6964 131.854L60.6478 131.551C60.6114 131.357 60.575 131.151 60.5508 130.982C60.4537 129.662 60.4537 127.798 60.5508 126.587C60.575 126.369 60.6114 126.139 60.6478 125.921L60.6964 125.655C60.7328 125.437 60.7934 125.122 60.842 124.892C60.8784 124.71 60.9512 124.456 60.9997 124.286C61.0119 124.226 61.0483 124.117 61.0968 123.996L61.1939 123.681C61.2303 123.536 61.2667 123.39 61.3031 123.269L61.4608 122.954C63.1596 118.475 66.6907 114.891 71.3988 112.857L71.5444 112.76L71.8963 112.639C72.0176 112.602 72.139 112.554 72.236 112.53L72.4423 112.457C72.5515 112.421 72.6607 112.384 72.6972 112.372L72.8428 112.336C73.0005 112.3 73.1704 112.251 73.3039 112.227C73.3767 112.215 73.4859 112.178 73.5708 112.154C73.7164 112.118 73.8378 112.082 73.8984 112.069C73.9834 112.057 74.0683 112.033 74.1654 112.021C74.3353 111.985 74.5052 111.948 74.6386 111.924L74.9905 111.876C75.2211 111.839 75.4638 111.803 75.6579 111.791C76.7379 111.694 78.291 111.73 79.2982 111.791H79.3589C79.6622 111.827 80.0869 111.888 80.4024 111.948C80.6208 111.985 80.9242 112.045 81.1547 112.094C81.3367 112.13 81.5794 112.203 81.7614 112.239L81.9435 112.287C82.0891 112.324 82.2347 112.36 82.356 112.396C82.4895 112.433 82.6715 112.505 82.8171 112.542L82.9627 112.59C83.0598 112.626 83.169 112.651 83.254 112.687C84.6494 113.208 86.7729 114.467 87.9257 115.351C88.5081 115.799 89.6366 116.961 91.2868 118.705C91.9664 119.431 92.8522 120.351 93.3739 120.86C93.9443 120.315 94.915 119.322 95.6795 118.535C97.3418 116.828 98.3975 115.75 98.9436 115.339C100.024 114.515 101.953 113.329 103.166 112.832C103.263 112.796 103.373 112.76 103.482 112.723L104.064 112.53C104.271 112.457 104.416 112.409 104.525 112.384C104.647 112.348 104.792 112.312 104.95 112.275L105.253 112.203C105.411 112.154 105.605 112.106 105.739 112.082C106.042 112.021 106.297 111.961 106.479 111.936C106.794 111.888 107.207 111.827 107.51 111.791C108.675 111.718 110.168 111.718 111.199 111.791C111.503 111.827 111.83 111.876 112.121 111.912L112.267 111.936C112.413 111.961 112.582 111.997 112.752 112.033L113.007 112.082C113.104 112.094 113.238 112.13 113.395 112.178L113.844 112.3C113.905 112.324 114.002 112.36 114.075 112.372C114.184 112.409 114.257 112.421 114.318 112.433C114.475 112.469 114.609 112.505 114.718 112.542L114.864 112.59C114.973 112.626 115.082 112.663 115.167 112.699C119.972 114.6 123.758 118.499 125.566 123.366L125.639 123.572C125.675 123.681 125.712 123.802 125.736 123.875C125.785 124.056 125.845 124.286 125.882 124.48L125.93 124.662C125.967 124.807 126.003 124.964 126.027 125.085C126.039 125.158 126.076 125.267 126.1 125.352C126.136 125.497 126.173 125.618 126.173 125.679C126.221 125.994 126.282 126.381 126.318 126.696C126.403 127.919 126.403 129.626 126.318 130.8C126.27 131.176 126.221 131.575 126.161 131.89L126.149 131.842Z" fill="#7CBFFF"/>
<path d="M93.5438 94.2831C68.7292 94.2831 48.5378 114.431 48.5378 139.191C48.5378 163.952 68.7292 184.099 93.5438 184.099C118.358 184.099 138.55 163.952 138.55 139.191C138.55 114.431 118.358 94.2831 93.5438 94.2831ZM93.5438 181.678C70.064 181.678 50.9647 162.62 50.9647 139.191C50.9647 115.762 70.064 96.7046 93.5438 96.7046C117.024 96.7046 136.123 115.762 136.123 139.191C136.123 162.62 117.024 181.678 93.5438 181.678Z" fill="#0831B4"/>
<path d="M123.758 126.018L123.734 125.945C123.697 125.8 123.649 125.63 123.625 125.509C123.613 125.437 123.588 125.34 123.564 125.243L123.503 125.001C123.467 124.843 123.418 124.637 123.382 124.492L123.261 124.117C121.744 120 118.371 116.537 114.269 114.915L113.796 114.77C113.662 114.745 113.529 114.709 113.395 114.673C113.298 114.648 113.129 114.588 113.019 114.552L112.777 114.491C112.692 114.467 112.619 114.443 112.558 114.443L112.255 114.382C112.134 114.358 112.012 114.334 111.903 114.309L111.757 114.285C111.503 114.249 111.223 114.2 110.993 114.176C110.107 114.116 108.724 114.116 107.729 114.176C107.51 114.2 107.146 114.261 106.879 114.297C106.722 114.322 106.503 114.37 106.321 114.406C106.127 114.443 105.994 114.479 105.86 114.515L105.496 114.6C105.399 114.624 105.302 114.648 105.229 114.673L104.453 114.927C104.38 114.951 104.283 114.987 104.198 115.012L104.076 115.048C103.118 115.435 101.346 116.525 100.4 117.24C99.9629 117.566 98.5431 119.019 97.4147 120.194C94.5752 123.112 94.3326 123.293 93.8351 123.415C93.5681 123.475 93.1677 123.475 92.9007 123.415C92.3789 123.306 92.0998 123.039 89.5274 120.339C88.3746 119.116 86.9428 117.603 86.4696 117.252C85.4624 116.489 83.5573 115.351 82.4167 114.927L82.0284 114.794C81.9071 114.757 81.7615 114.697 81.6522 114.673C81.5794 114.648 81.4945 114.636 81.3974 114.612L81.1426 114.552C80.9849 114.515 80.7786 114.455 80.633 114.431C80.4388 114.394 80.184 114.334 80.002 114.297C79.7472 114.249 79.3953 114.2 79.1283 114.176C78.1333 114.116 76.75 114.104 75.8642 114.176C75.7186 114.188 75.5366 114.225 75.3667 114.249L74.942 114.309C74.8692 114.309 74.7721 114.346 74.675 114.37C74.5416 114.394 74.4081 114.431 74.2989 114.443L74.1775 114.479C74.0441 114.515 73.8984 114.552 73.7892 114.576C73.6922 114.6 73.5587 114.636 73.4373 114.661L73.2796 114.697C73.1219 114.757 73.0005 114.794 72.9156 114.818L72.6729 114.903C72.5758 114.963 72.4545 115.024 72.2846 115.084C68.256 116.828 65.186 119.927 63.7299 123.778C63.6814 123.911 63.6329 124.02 63.5843 124.105C63.5843 124.141 63.5722 124.165 63.5601 124.202C63.5358 124.298 63.5115 124.407 63.4872 124.504L63.3416 124.928C63.3052 125.061 63.2567 125.267 63.2203 125.412C63.1839 125.594 63.1232 125.86 63.0989 126.042L63.0383 126.357C63.014 126.514 62.9776 126.684 62.9655 126.817C62.8927 127.858 62.8927 129.614 62.9655 130.74C62.9655 130.8 63.0019 130.958 63.0261 131.115L63.0868 131.466C63.1111 131.587 63.1354 131.745 63.1718 131.89L63.2203 132.108C63.2324 132.181 63.2688 132.29 63.2931 132.386L63.3538 132.617C63.4023 132.725 63.4508 132.871 63.4872 132.992L63.6086 133.367C63.645 133.488 63.6935 133.634 63.7299 133.743C64.5187 135.656 65.7564 137.496 67.4916 139.324L92.0392 163.685C92.8036 164.448 94.0535 164.448 94.8179 163.685L120.567 137.992C120.652 137.908 120.725 137.811 120.797 137.714L121.149 137.193C121.829 136.2 122.605 135.074 123.006 134.094C123.054 133.912 123.091 133.815 123.127 133.706L123.249 133.331C123.297 133.186 123.346 133.052 123.37 132.956C123.394 132.871 123.418 132.786 123.443 132.689L123.503 132.447C123.564 132.229 123.6 132.06 123.625 131.951C123.649 131.842 123.685 131.696 123.722 131.563L123.758 131.418C123.795 131.176 123.855 130.812 123.879 130.546C123.952 129.541 123.952 127.955 123.879 126.902C123.855 126.672 123.795 126.32 123.758 126.042V126.018Z" fill="#C4EFFD"/>
<path d="M126.294 126.659C126.258 126.345 126.197 125.957 126.149 125.642C126.149 125.594 126.112 125.461 126.076 125.315C126.052 125.231 126.027 125.122 126.003 125.049C125.979 124.928 125.942 124.783 125.906 124.625L125.857 124.444C125.809 124.262 125.76 124.02 125.712 123.838C125.687 123.754 125.651 123.645 125.615 123.536L125.542 123.33C123.746 118.462 119.96 114.576 115.143 112.663C115.046 112.626 114.949 112.59 114.839 112.554L114.694 112.505C114.585 112.469 114.451 112.433 114.293 112.396C114.233 112.384 114.16 112.372 114.051 112.336C113.978 112.312 113.881 112.275 113.82 112.263L113.371 112.142C113.226 112.106 113.08 112.07 112.983 112.045L112.728 111.997C112.558 111.961 112.388 111.924 112.243 111.9L112.097 111.876C111.806 111.827 111.478 111.779 111.175 111.755C110.144 111.682 108.651 111.682 107.486 111.755C107.183 111.791 106.77 111.852 106.455 111.9C106.261 111.936 106.006 111.985 105.715 112.045C105.581 112.07 105.387 112.118 105.229 112.166L104.926 112.239C104.78 112.275 104.622 112.312 104.501 112.348C104.392 112.384 104.246 112.433 104.04 112.493L103.458 112.687C103.348 112.723 103.227 112.76 103.142 112.796C101.929 113.292 99.9992 114.479 98.9193 115.302C98.3733 115.714 97.3297 116.779 95.6552 118.499C94.8907 119.286 93.92 120.279 93.3497 120.823C92.8279 120.303 91.9542 119.383 91.2626 118.668C89.6123 116.925 88.4838 115.762 87.9014 115.314C86.7486 114.443 84.6251 113.171 83.2297 112.651C83.1447 112.614 83.0355 112.59 82.9385 112.554L82.7929 112.505C82.6594 112.457 82.4774 112.396 82.3317 112.36C82.2104 112.324 82.0648 112.287 81.9192 112.251L81.7372 112.203C81.5552 112.154 81.3125 112.094 81.1305 112.057C80.912 112.009 80.5965 111.948 80.3781 111.912C80.0626 111.864 79.6379 111.803 79.3346 111.767H79.2739C78.2668 111.706 76.7136 111.67 75.6336 111.767C75.4395 111.779 75.1968 111.815 74.9663 111.852L74.6144 111.9C74.4809 111.912 74.311 111.948 74.1411 111.997C74.0562 112.021 73.9591 112.033 73.8742 112.045C73.8135 112.045 73.6922 112.082 73.5465 112.13C73.4616 112.154 73.3524 112.178 73.2796 112.203C73.1461 112.227 72.9762 112.275 72.8185 112.312L72.6729 112.348C72.6729 112.348 72.5394 112.384 72.4181 112.433L72.2118 112.505C72.1147 112.53 71.9934 112.578 71.872 112.614L71.5201 112.735L71.3745 112.832C66.6664 114.866 63.1353 118.45 61.4366 122.93L61.2788 123.245C61.2424 123.366 61.206 123.511 61.1696 123.657L61.0725 123.972C61.0361 124.093 60.9997 124.202 60.9754 124.262C60.9269 124.444 60.8662 124.698 60.8177 124.868C60.7692 125.085 60.6964 125.412 60.6721 125.63L60.6236 125.897C60.5872 126.115 60.5386 126.333 60.5265 126.563C60.4415 127.773 60.4415 129.638 60.5265 130.958C60.5507 131.127 60.5872 131.321 60.6236 131.527L60.6721 131.83C60.6964 131.987 60.7328 132.181 60.7813 132.374L60.8177 132.568C60.842 132.689 60.8784 132.834 60.9148 132.98L60.9633 133.161C60.9633 133.161 60.9997 133.282 61.0361 133.391C61.0604 133.452 61.0847 133.537 61.1089 133.609C61.1332 133.682 61.1696 133.791 61.206 133.912L61.2545 134.057C61.3031 134.191 61.3516 134.372 61.4244 134.566C62.3466 136.818 63.7421 138.901 65.7078 140.983L90.2797 165.38C91.1291 166.228 92.2576 166.652 93.3739 166.652C94.4903 166.652 95.6188 166.228 96.4803 165.368L122.229 139.675C122.423 139.482 122.593 139.264 122.751 139.046L123.103 138.537C123.855 137.448 124.705 136.2 125.202 134.99C125.239 134.905 125.275 134.808 125.299 134.687L125.348 134.542C125.384 134.445 125.421 134.336 125.457 134.227L125.518 134.057C125.566 133.924 125.627 133.755 125.663 133.634C125.7 133.513 125.736 133.355 125.772 133.21L125.833 132.943C125.882 132.774 125.93 132.568 125.967 132.423C125.979 132.35 126.015 132.241 126.039 132.156C126.076 132.011 126.112 131.878 126.124 131.817C126.173 131.503 126.234 131.103 126.282 130.728C126.367 129.553 126.367 127.846 126.282 126.623L126.294 126.659ZM123.879 130.534C123.843 130.812 123.795 131.164 123.758 131.406L123.722 131.551C123.685 131.684 123.649 131.83 123.625 131.938C123.6 132.06 123.552 132.217 123.503 132.435L123.443 132.677C123.418 132.762 123.406 132.859 123.37 132.943C123.346 133.04 123.297 133.173 123.249 133.319L123.127 133.694C123.091 133.803 123.054 133.9 123.006 134.082C122.605 135.062 121.829 136.188 121.149 137.181L120.797 137.702C120.725 137.799 120.652 137.896 120.567 137.98L94.8179 163.673C94.0535 164.436 92.8158 164.436 92.0392 163.673L67.4915 139.312C65.7563 137.484 64.5187 135.643 63.7299 133.73C63.6935 133.621 63.645 133.464 63.6086 133.355L63.4872 132.98C63.4508 132.859 63.4023 132.713 63.3538 132.604L63.2931 132.374C63.2688 132.278 63.2445 132.169 63.2203 132.096L63.1717 131.878C63.1353 131.733 63.1111 131.575 63.0868 131.454L63.0261 131.103C63.0019 130.946 62.9655 130.788 62.9655 130.728C62.8805 129.59 62.8805 127.846 62.9655 126.805C62.9776 126.672 63.014 126.514 63.0383 126.345L63.0989 126.03C63.1232 125.848 63.1839 125.582 63.2203 125.4C63.2567 125.255 63.3052 125.049 63.3416 124.916L63.4872 124.492C63.5115 124.395 63.5358 124.298 63.56 124.189C63.56 124.153 63.5722 124.129 63.5843 124.093C63.6329 124.008 63.6814 123.899 63.7299 123.766C65.186 119.915 68.256 116.816 72.2846 115.072C72.4545 115.012 72.5758 114.951 72.6729 114.891L72.9156 114.806C73.0126 114.782 73.134 114.733 73.2796 114.685L73.4373 114.648C73.5587 114.612 73.6922 114.576 73.7892 114.564C73.8984 114.54 74.0562 114.503 74.1775 114.467L74.2989 114.431C74.4081 114.406 74.5416 114.382 74.675 114.358C74.7721 114.334 74.8692 114.309 74.942 114.297L75.3667 114.237C75.5366 114.213 75.7186 114.176 75.8642 114.164C76.7379 114.092 78.1212 114.104 79.1283 114.164C79.3953 114.188 79.735 114.249 80.002 114.285C80.184 114.322 80.4509 114.37 80.633 114.418C80.7786 114.455 80.9849 114.503 81.1426 114.54L81.3974 114.6C81.4824 114.624 81.5794 114.636 81.6522 114.661C81.7614 114.697 81.9192 114.745 82.0284 114.782L82.4167 114.915C83.5573 115.339 85.4745 116.477 86.4695 117.24C86.9428 117.591 88.3746 119.104 89.5274 120.327C92.0877 123.027 92.3789 123.293 92.9007 123.402C93.1677 123.463 93.5802 123.463 93.835 123.402C94.3447 123.293 94.5752 123.1 97.4146 120.182C98.5553 119.019 99.9628 117.566 100.4 117.227C101.346 116.513 103.118 115.423 104.076 115.036L104.198 115C104.283 114.975 104.368 114.951 104.453 114.915L105.229 114.661C105.314 114.636 105.411 114.612 105.496 114.588L105.86 114.503C105.981 114.467 106.127 114.431 106.321 114.394C106.503 114.358 106.722 114.309 106.879 114.285C107.158 114.237 107.51 114.188 107.729 114.164C108.724 114.104 110.107 114.104 110.993 114.164C111.211 114.188 111.503 114.237 111.757 114.273L111.903 114.297C112 114.309 112.134 114.346 112.255 114.37L112.558 114.431C112.558 114.431 112.692 114.467 112.777 114.479L113.019 114.54C113.129 114.576 113.311 114.636 113.395 114.661C113.529 114.697 113.675 114.733 113.796 114.757L114.269 114.903C118.371 116.525 121.744 119.988 123.261 124.105L123.382 124.48C123.431 124.625 123.467 124.831 123.503 124.989L123.564 125.231C123.588 125.328 123.613 125.424 123.625 125.497C123.649 125.63 123.697 125.8 123.734 125.933L123.758 126.006C123.807 126.296 123.855 126.647 123.879 126.865C123.952 127.919 123.952 129.505 123.879 130.51V130.534Z" fill="#0831B4"/>
<path d="M943.322 70.87H927.648V170.439H943.322V70.87Z" fill="#D6EBFF"/>
<path d="M943.322 43.7392H734.586V64.1478H943.322V43.7392Z" fill="#C3E2FF"/>
<path d="M732.48 37.0169C729.961 37.0169 727.922 39.0739 727.922 41.6149V66.272C727.922 66.6619 727.989 67.0249 728.069 67.3879C727.975 67.7374 727.922 68.087 727.922 68.4634V175.468C727.922 177.847 729.841 179.797 732.214 179.797H752.633C754.992 179.797 756.925 177.861 756.925 175.468V70.87H920.997V172.846C920.997 175.226 922.917 177.175 925.289 177.175H945.708C948.067 177.175 950 175.239 950 172.846V41.6149C950 39.0874 947.961 37.0169 945.442 37.0169H732.48ZM927.648 70.87H943.322V170.439H927.648V70.87ZM750.26 173.074H734.586V70.87H750.26V173.074ZM734.586 64.1478V43.7392H943.322V64.1478H734.586Z" fill="#7CBFFF"/>
<path d="M750.26 70.87H734.586V173.074H750.26V70.87Z" fill="#D6EBFF"/>
<path d="M653.276 150.143H509.99V174.471H653.276V150.143Z" fill="#96CCFF"/>
<path d="M655.083 144.263H623.805C626.299 142.182 627.717 139.09 627.598 135.832L626.57 107.024C626.464 104.013 627.433 101.05 629.3 98.6749L647.155 75.9689C649.329 73.2057 649.979 69.5605 648.88 66.221C647.793 62.8815 645.11 60.3181 641.719 59.3539L613.868 51.4286C610.961 50.6055 608.42 48.7711 606.731 46.2665L590.554 22.3611C588.581 19.445 585.308 17.7165 581.774 17.7165C578.241 17.7165 574.968 19.4567 572.995 22.3611L556.818 46.2665C555.128 48.7711 552.588 50.5937 549.681 51.4286L521.83 59.3539C518.439 60.3181 515.768 62.8815 514.669 66.221C513.582 69.5605 514.22 73.2057 516.394 75.9689L534.249 98.6749C536.116 101.05 537.085 104.013 536.979 107.024L535.95 135.832C535.832 139.09 537.25 142.182 539.744 144.263H508.182C505.925 144.263 504.082 146.098 504.082 148.344V176.27C504.082 178.516 505.925 180.351 508.182 180.351H655.083C657.34 180.351 659.184 178.516 659.184 176.27V148.344C659.184 146.098 657.34 144.263 655.083 144.263ZM653.276 174.46H509.99V150.131H653.276V174.46ZM520.282 68.0436C520.766 66.5502 521.924 65.4449 523.449 65.0099L551.3 57.0845C555.542 55.8734 559.252 53.2041 561.71 49.559L577.887 25.6536C578.773 24.3484 580.179 23.5958 581.763 23.5958C583.346 23.5958 584.752 24.3484 585.638 25.6536L601.815 49.559C604.285 53.2041 607.983 55.8851 612.225 57.0845L640.077 65.0099C641.601 65.4449 642.747 66.5502 643.232 68.0436C643.716 69.5369 643.444 71.1126 642.464 72.3473L624.609 95.0533C621.891 98.5103 620.473 102.838 620.627 107.235L621.655 136.044C621.714 137.62 621.005 139.054 619.729 139.971C618.453 140.9 616.869 141.112 615.38 140.583L588.167 130.706C584.02 129.2 579.447 129.2 575.299 130.706L548.086 140.583C546.597 141.124 545.014 140.9 543.737 139.971C542.461 139.042 541.752 137.62 541.811 136.044L542.839 107.235C542.993 102.838 541.587 98.5103 538.857 95.0533L521.003 72.3473C520.034 71.1126 519.75 69.5369 520.235 68.0436H520.282ZM577.355 136.22C580.203 135.186 583.334 135.186 586.182 136.22L608.338 144.263H555.211L577.367 136.22H577.355Z" fill="#1863FF"/>
<path d="M542.875 107.223L541.847 136.032C541.788 137.608 542.497 139.042 543.773 139.96C545.049 140.889 546.633 141.112 548.121 140.571L575.335 130.694C579.482 129.189 584.055 129.189 588.203 130.694L615.416 140.571C616.905 141.112 618.488 140.889 619.764 139.96C621.04 139.031 621.749 137.608 621.69 136.032L620.662 107.223C620.509 102.826 621.915 98.4986 624.644 95.0415L642.499 72.3355C643.468 71.1008 643.751 69.5252 643.267 68.0318C642.783 66.5385 641.625 65.4332 640.112 64.9981L612.261 57.0727C608.019 55.8616 604.308 53.1924 601.851 49.5472L585.674 25.6418C584.788 24.3366 583.381 23.584 581.798 23.584C580.215 23.584 578.809 24.3366 577.922 25.6418L561.746 49.5472C559.276 53.1924 555.578 55.8734 551.335 57.0727L523.484 64.9981C521.96 65.4332 520.814 66.5385 520.317 68.0318C519.833 69.5252 520.105 71.1008 521.085 72.3355L538.94 95.0415C541.658 98.4986 543.076 102.826 542.922 107.223H542.875Z" fill="#96CCFF"/>
<path d="M306.526 41.7124C310.68 32.9877 317.652 25.8737 326.254 21.5516C323.663 17.9141 319.429 15.5249 314.633 15.5249C306.753 15.5249 300.328 21.9677 300.328 29.9005C300.328 34.7997 302.786 39.1218 306.512 41.7258L306.526 41.7124Z" fill="#5A75CD"/>
<path d="M384.745 42.303C388.993 39.8064 391.865 35.189 391.865 29.9005C391.865 21.9811 385.453 15.5249 377.559 15.5249C372.577 15.5249 368.182 18.102 365.618 21.9946C374.006 26.4509 380.751 33.6051 384.732 42.2896L384.745 42.303Z" fill="#5A75CD"/>
<path d="M287.919 126.731C287.919 113.939 292.674 102.195 300.608 92.9196C294.357 95.6578 287.238 100.369 280.292 107.121C272.759 114.45 267.029 122.651 264.143 130.221C261.619 136.852 261.632 142.181 264.183 144.838C268.004 148.798 278.182 147.214 289.642 139.912C288.507 135.697 287.906 131.281 287.906 126.731H287.919Z" fill="#5A75CD"/>
<path d="M390.409 92.9331C398.343 102.195 403.098 113.953 403.098 126.745C403.098 131.295 402.497 135.697 401.362 139.926C412.835 147.228 423 148.825 426.82 144.852C432.003 139.469 426.66 122.664 410.712 107.148C403.766 100.396 396.66 95.6847 390.395 92.9465L390.409 92.9331Z" fill="#5A75CD"/>
<path d="M415.36 102.315C404.153 91.4163 391.771 84.799 381.94 83.6178C386.201 76.893 388.686 68.92 388.686 60.3832C388.686 56.3296 388.111 52.3968 387.069 48.6653C393.868 45.1754 398.543 38.0883 398.543 29.9005C398.543 18.2765 389.126 8.81356 377.559 8.81356C369.825 8.81356 363.08 13.0417 359.447 19.3235C355.066 17.8201 350.377 16.9879 345.502 16.9879C340.987 16.9879 336.633 17.6859 332.545 18.9879C328.859 12.9075 322.22 8.82698 314.633 8.82698C303.066 8.82698 293.649 18.2899 293.649 29.9139C293.649 37.6722 297.857 44.4506 304.081 48.115C302.933 52.0075 302.305 56.1417 302.305 60.3967C302.305 68.9469 304.789 76.9065 309.05 83.6312C299.219 84.8124 286.837 91.4297 275.631 102.329C267.416 110.315 261.111 119.376 257.892 127.845C254.339 137.147 254.874 144.852 259.375 149.523C262.046 152.301 265.853 153.617 270.354 153.617C276.566 153.617 284.112 151.093 291.86 146.409C294.17 151.939 297.403 157.013 301.41 161.482C296.655 165.455 293.649 171.133 293.649 177.455C293.649 189.442 304.389 199.186 317.585 199.186C329.58 199.186 339.518 191.119 341.228 180.636C342.643 180.73 344.059 180.797 345.488 180.797C347.332 180.797 349.135 180.704 350.938 180.542C352.608 191.052 362.572 199.173 374.594 199.173C387.791 199.173 398.53 189.415 398.53 177.442C398.53 170.824 395.244 164.892 390.088 160.892C393.855 156.556 396.914 151.67 399.131 146.382C406.878 151.053 414.425 153.59 420.636 153.59C425.137 153.59 428.944 152.274 431.615 149.496C440.364 140.409 433.218 119.684 415.36 102.302V102.315ZM426.82 144.838C423 148.798 412.822 147.214 401.362 139.912C402.497 135.697 403.098 131.281 403.098 126.731C403.098 113.939 398.343 102.195 390.409 92.9196C396.66 95.6578 403.779 100.369 410.725 107.121C426.673 122.637 432.016 139.442 426.834 144.825L426.82 144.838ZM374.607 192.489C365.097 192.489 357.35 185.75 357.35 177.469C357.35 169.187 365.083 162.435 374.607 162.435C384.131 162.435 391.865 169.173 391.865 177.469C391.865 185.764 384.131 192.489 374.607 192.489ZM374.607 155.724C362.773 155.724 352.955 163.563 351.032 173.818C349.215 174.006 347.372 174.1 345.488 174.1C344.033 174.1 342.59 174.032 341.161 173.912C339.291 163.603 329.447 155.711 317.572 155.711C313.845 155.711 310.332 156.503 307.194 157.898C299.34 149.563 294.571 138.664 294.571 126.731C294.571 111.778 302.064 98.4363 313.739 89.7519C321.633 98.3692 332.946 103.779 345.488 103.779C358.031 103.779 369.344 98.3692 377.238 89.7519C388.913 98.4363 396.406 111.792 396.406 126.731C396.406 138.476 391.771 149.241 384.131 157.523C381.206 156.368 377.987 155.711 374.594 155.711L374.607 155.724ZM334.843 177.455C334.843 185.737 327.096 192.475 317.585 192.475C308.075 192.475 300.328 185.737 300.328 177.455C300.328 169.173 308.062 162.422 317.585 162.422C327.109 162.422 334.843 169.16 334.843 177.455ZM264.183 144.838C261.632 142.181 261.606 136.865 264.143 130.221C267.029 122.651 272.759 114.45 280.292 107.121C287.238 100.369 294.344 95.6578 300.608 92.9196C292.674 102.181 287.919 113.939 287.919 126.731C287.919 131.281 288.52 135.684 289.656 139.912C278.182 147.214 268.017 148.811 264.197 144.838H264.183ZM345.502 23.6992C365.631 23.6992 382.007 40.1553 382.007 60.3832C382.007 80.6111 365.631 97.0672 345.502 97.0672C325.373 97.0672 308.997 80.6111 308.997 60.3832C308.997 40.1553 325.373 23.6992 345.502 23.6992ZM314.633 15.5249C319.415 15.5249 323.65 17.9141 326.254 21.5516C317.652 25.8737 310.68 32.9877 306.526 41.7124C302.799 39.1218 300.341 34.7863 300.341 29.8871C300.341 21.9677 306.753 15.5114 314.647 15.5114L314.633 15.5249ZM377.572 15.5249C385.453 15.5249 391.878 21.9677 391.878 29.9005C391.878 35.189 389.006 39.8064 384.759 42.303C380.778 33.6185 374.033 26.4643 365.645 22.008C368.209 18.1154 372.59 15.5383 377.586 15.5383L377.572 15.5249Z" fill="#0831B4"/>
<path d="M396.419 126.731C396.419 111.778 388.926 98.4363 377.252 89.7519C369.358 98.3692 358.044 103.779 345.502 103.779C332.96 103.779 321.646 98.3692 313.752 89.7519C302.078 98.4363 294.584 111.792 294.584 126.731C294.584 138.65 299.353 149.563 307.207 157.898C310.346 156.516 313.859 155.711 317.585 155.711C329.46 155.711 339.304 163.603 341.174 173.912C342.603 174.019 344.046 174.1 345.502 174.1C347.372 174.1 349.215 173.992 351.045 173.818C352.955 163.563 362.786 155.724 374.62 155.724C378.013 155.724 381.232 156.382 384.158 157.536C391.798 149.254 396.433 138.489 396.433 126.745L396.419 126.731Z" fill="#5A75CD"/>
<path d="M345.502 97.0672C365.631 97.0672 382.007 80.6111 382.007 60.3832C382.007 40.1553 365.631 23.6992 345.502 23.6992C325.373 23.6992 308.997 40.1553 308.997 60.3832C308.997 80.6111 325.373 97.0672 345.502 97.0672ZM324.184 47.6183C324.184 44.719 326.521 42.3701 329.406 42.3701C332.292 42.3701 334.629 44.719 334.629 47.6183C334.629 50.5176 332.292 52.8666 329.406 52.8666C326.521 52.8666 324.184 50.5176 324.184 47.6183ZM361.597 42.3701C364.482 42.3701 366.82 44.719 366.82 47.6183C366.82 50.5176 364.482 52.8666 361.597 52.8666C358.712 52.8666 356.375 50.5176 356.375 47.6183C356.375 44.719 358.712 42.3701 361.597 42.3701ZM345.502 56.7188C348.387 56.7188 350.725 58.3564 350.725 60.3698C350.725 62.3832 348.387 64.0208 345.502 64.0208C342.617 64.0208 340.279 62.3832 340.279 60.3698C340.279 58.3564 342.617 56.7188 345.502 56.7188Z" fill="#5A75CD"/>
<path d="M374.607 162.435C365.097 162.435 357.35 169.173 357.35 177.469C357.35 185.764 365.083 192.489 374.607 192.489C384.131 192.489 391.865 185.75 391.865 177.469C391.865 169.187 384.131 162.435 374.607 162.435Z" fill="#5A75CD"/>
<path d="M317.599 162.435C308.088 162.435 300.341 169.173 300.341 177.469C300.341 185.764 308.075 192.489 317.599 192.489C327.122 192.489 334.856 185.75 334.856 177.469C334.856 169.187 327.109 162.435 317.599 162.435Z" fill="#5A75CD"/>
<path d="M329.406 52.8666C332.292 52.8666 334.629 50.5176 334.629 47.6183C334.629 44.719 332.292 42.3701 329.406 42.3701C326.521 42.3701 324.184 44.719 324.184 47.6183C324.184 50.5176 326.521 52.8666 329.406 52.8666Z" fill="#0831B4"/>
<path d="M361.597 52.8666C364.482 52.8666 366.82 50.5176 366.82 47.6183C366.82 44.719 364.482 42.3701 361.597 42.3701C358.712 42.3701 356.375 44.719 356.375 47.6183C356.375 50.5176 358.712 52.8666 361.597 52.8666Z" fill="#0831B4"/>
<path d="M345.502 64.0342C348.387 64.0342 350.725 62.3966 350.725 60.3832C350.725 58.3698 348.387 56.7323 345.502 56.7323C342.617 56.7323 340.279 58.3698 340.279 60.3832C340.279 62.3966 342.617 64.0342 345.502 64.0342Z" fill="#0831B4"/>
</svg>
