<svg width="960" height="410" viewBox="0 0 960 410" fill="none" xmlns="http://www.w3.org/2000/svg">
<path d="M276.207 2.86713H0V88.8811H276.207V2.86713Z" fill="#0831B4"/>
<path d="M276.207 109.907H0V195.921H276.207V109.907Z" fill="#1863FF"/>
<path d="M276.207 216.946H0V302.96H276.207V216.946Z" fill="#7CBFFF"/>
<path d="M276.207 323.986H0V410H276.207V323.986Z" fill="#C4EFFD"/>
<path d="M294.237 11.6138C295.94 11.6138 297.428 11.9502 298.702 12.623C299.976 13.2959 300.958 14.2439 301.648 15.4672C302.354 16.6752 302.707 18.0744 302.707 19.6647C302.707 21.2397 302.354 22.6389 301.648 23.8622C300.958 25.0855 299.968 26.0336 298.679 26.7064C297.405 27.3792 295.925 27.7156 294.237 27.7156H288.183V11.6138H294.237ZM293.984 24.3209C295.472 24.3209 296.63 23.9157 297.459 23.1053C298.288 22.2948 298.702 21.148 298.702 19.6647C298.702 18.1814 298.288 17.0269 297.459 16.2012C296.63 15.3755 295.472 14.9626 293.984 14.9626H292.119V24.3209H293.984ZM308.843 17.0499C309.303 16.3465 309.879 15.796 310.569 15.3984C311.26 14.9855 312.027 14.7791 312.871 14.7791V18.9307H311.789C310.807 18.9307 310.071 19.1448 309.58 19.573C309.089 19.9858 308.843 20.7198 308.843 21.7749V27.7156H304.907V14.9167H308.843V17.0499ZM326.859 21.1097C326.859 21.4767 326.836 21.859 326.79 22.2566H317.882C317.943 23.0517 318.197 23.6634 318.642 24.0916C319.102 24.5044 319.662 24.7109 320.322 24.7109C321.304 24.7109 321.987 24.298 322.37 23.4723H326.56C326.345 24.3133 325.953 25.0702 325.386 25.743C324.833 26.4159 324.135 26.9434 323.291 27.3257C322.447 27.708 321.503 27.8991 320.46 27.8991C319.202 27.8991 318.082 27.6315 317.1 27.0963C316.117 26.5611 315.35 25.7965 314.798 24.8026C314.245 23.8087 313.969 22.6465 313.969 21.3162C313.969 19.9858 314.238 18.8237 314.775 17.8297C315.327 16.8358 316.094 16.0712 317.076 15.536C318.059 15.0008 319.186 14.7332 320.46 14.7332C321.703 14.7332 322.808 14.9932 323.775 15.5131C324.741 16.033 325.493 16.7746 326.03 17.738C326.583 18.7014 326.859 19.8253 326.859 21.1097ZM322.831 20.0776C322.831 19.4048 322.601 18.8696 322.14 18.472C321.68 18.0744 321.104 17.8756 320.414 17.8756C319.754 17.8756 319.194 18.0668 318.734 18.449C318.289 18.8313 318.013 19.3742 317.905 20.0776H322.831ZM328.153 21.2932C328.153 19.9782 328.398 18.8237 328.889 17.8297C329.396 16.8358 330.078 16.0712 330.938 15.536C331.797 15.0008 332.756 14.7332 333.815 14.7332C334.72 14.7332 335.51 14.9167 336.186 15.2837C336.876 15.6507 337.405 16.1324 337.774 16.7288V14.9167H341.71V27.7156H337.774V25.9036C337.39 26.5 336.853 26.9816 336.163 27.3486C335.487 27.7156 334.697 27.8991 333.792 27.8991C332.748 27.8991 331.797 27.6315 330.938 27.0963C330.078 26.5458 329.396 25.7736 328.889 24.7797C328.398 23.7704 328.153 22.6083 328.153 21.2932ZM337.774 21.3162C337.774 20.3375 337.498 19.5653 336.945 18.9995C336.408 18.4338 335.748 18.1509 334.966 18.1509C334.183 18.1509 333.516 18.4338 332.963 18.9995C332.426 19.55 332.158 20.3146 332.158 21.2932C332.158 22.2719 332.426 23.0517 332.963 23.6328C333.516 24.1986 334.183 24.4815 334.966 24.4815C335.748 24.4815 336.408 24.1986 336.945 23.6328C337.498 23.067 337.774 22.2948 337.774 21.3162ZM360.945 14.7791C362.541 14.7791 363.807 15.2608 364.743 16.2241C365.695 17.1875 366.17 18.5255 366.17 20.2381V27.7156H362.257V20.7657C362.257 19.94 362.035 19.3054 361.59 18.8619C361.16 18.4032 360.562 18.1738 359.795 18.1738C359.027 18.1738 358.421 18.4032 357.976 18.8619C357.547 19.3054 357.332 19.94 357.332 20.7657V27.7156H353.419V20.7657C353.419 19.94 353.196 19.3054 352.751 18.8619C352.322 18.4032 351.723 18.1738 350.956 18.1738C350.189 18.1738 349.583 18.4032 349.138 18.8619C348.708 19.3054 348.493 19.94 348.493 20.7657V27.7156H344.557V14.9167H348.493V16.5223C348.892 15.9871 349.414 15.5666 350.058 15.2608C350.703 14.9397 351.432 14.7791 352.245 14.7791C353.212 14.7791 354.071 14.9855 354.823 15.3984C355.59 15.8113 356.189 16.4 356.618 17.1646C357.063 16.4612 357.669 15.8877 358.436 15.4443C359.204 15.0008 360.04 14.7791 360.945 14.7791ZM383.583 19.4583C384.519 19.6571 385.271 20.1234 385.839 20.8574C386.406 21.5761 386.69 22.4019 386.69 23.3346C386.69 24.6803 386.214 25.7507 385.263 26.5458C384.327 27.3257 383.015 27.7156 381.327 27.7156H373.8V11.6138H381.074C382.716 11.6138 383.997 11.9884 384.918 12.7377C385.854 13.487 386.322 14.5039 386.322 15.7883C386.322 16.7364 386.069 17.5239 385.562 18.1509C385.071 18.7778 384.411 19.2136 383.583 19.4583ZM377.736 18.1279H380.314C380.959 18.1279 381.45 17.9903 381.787 17.7151C382.14 17.4245 382.317 17.004 382.317 16.4535C382.317 15.903 382.14 15.4825 381.787 15.192C381.45 14.9014 380.959 14.7562 380.314 14.7562H377.736V18.1279ZM380.637 24.5503C381.296 24.5503 381.803 24.405 382.156 24.1145C382.524 23.8087 382.708 23.3729 382.708 22.8071C382.708 22.2413 382.516 21.7979 382.133 21.4767C381.764 21.1556 381.25 20.9951 380.591 20.9951H377.736V24.5503H380.637ZM392.91 10.7422V27.7156H388.974V10.7422H392.91ZM408.444 14.9167V27.7156H404.508V25.9724C404.109 26.5382 403.565 26.9969 402.874 27.3486C402.199 27.685 401.447 27.8532 400.618 27.8532C399.636 27.8532 398.769 27.6392 398.017 27.211C397.266 26.7676 396.682 26.133 396.268 25.3072C395.854 24.4815 395.647 23.5105 395.647 22.3942V14.9167H399.56V21.8667C399.56 22.723 399.782 23.3882 400.227 23.8622C400.672 24.3362 401.271 24.5732 402.022 24.5732C402.79 24.5732 403.396 24.3362 403.841 23.8622C404.286 23.3882 404.508 22.723 404.508 21.8667V14.9167H408.444ZM423.379 21.1097C423.379 21.4767 423.356 21.859 423.31 22.2566H414.402C414.463 23.0517 414.716 23.6634 415.161 24.0916C415.622 24.5044 416.182 24.7109 416.842 24.7109C417.824 24.7109 418.507 24.298 418.89 23.4723H423.079C422.865 24.3133 422.473 25.0702 421.906 25.743C421.353 26.4159 420.655 26.9434 419.811 27.3257C418.967 27.708 418.023 27.8991 416.98 27.8991C415.722 27.8991 414.601 27.6315 413.619 27.0963C412.637 26.5611 411.87 25.7965 411.318 24.8026C410.765 23.8087 410.489 22.6465 410.489 21.3162C410.489 19.9858 410.758 18.8237 411.295 17.8297C411.847 16.8358 412.614 16.0712 413.596 15.536C414.578 15.0008 415.706 14.7332 416.98 14.7332C418.223 14.7332 419.328 14.9932 420.294 15.5131C421.261 16.033 422.013 16.7746 422.55 17.738C423.102 18.7014 423.379 19.8253 423.379 21.1097ZM419.351 20.0776C419.351 19.4048 419.12 18.8696 418.66 18.472C418.2 18.0744 417.624 17.8756 416.934 17.8756C416.274 17.8756 415.714 18.0668 415.254 18.449C414.809 18.8313 414.532 19.3742 414.425 20.0776H419.351ZM296.853 43.6492L296.285 46.2946H298.311V47.8238H295.963L295.349 50.6527H293.677L294.29 47.8238H291.283L290.669 50.6527H288.996L289.61 47.8238H287.232V46.2946H289.932L290.5 43.6492H288.137V42.1201H290.822L291.421 39.3371H293.094L292.495 42.1201H295.503L296.101 39.3371H297.774L297.175 42.1201H299.216V43.6492H296.853ZM295.18 43.6492H292.173L291.605 46.2946H294.613L295.18 43.6492ZM301.058 44.9337C301.058 43.1701 301.355 41.7939 301.948 40.805C302.552 39.806 303.586 39.3065 305.048 39.3065C306.511 39.3065 307.539 39.806 308.132 40.805C308.736 41.7939 309.038 43.1701 309.038 44.9337C309.038 46.7177 308.736 48.1143 308.132 49.1235C307.539 50.1225 306.511 50.6221 305.048 50.6221C303.586 50.6221 302.552 50.1225 301.948 49.1235C301.355 48.1143 301.058 46.7177 301.058 44.9337ZM307.319 44.9337C307.319 44.108 307.263 43.4096 307.15 42.8388C307.048 42.2679 306.833 41.804 306.506 41.4473C306.179 41.0803 305.693 40.8968 305.048 40.8968C304.404 40.8968 303.917 41.0803 303.59 41.4473C303.263 41.804 303.043 42.2679 302.93 42.8388C302.828 43.4096 302.777 44.108 302.777 44.9337C302.777 45.79 302.828 46.5087 302.93 47.0898C303.033 47.6709 303.248 48.1398 303.575 48.4966C303.913 48.8534 304.404 49.0318 305.048 49.0318C305.693 49.0318 306.179 48.8534 306.506 48.4966C306.843 48.1398 307.063 47.6709 307.166 47.0898C307.268 46.5087 307.319 45.79 307.319 44.9337ZM312.776 44.8267C311.713 44.2965 311.18 43.4607 311.18 42.3189C311.18 41.7684 311.318 41.2638 311.595 40.805C311.871 40.3463 312.285 39.9844 312.837 39.7193C313.39 39.4441 314.065 39.3065 314.863 39.3065C315.65 39.3065 316.321 39.4441 316.873 39.7193C317.436 39.9844 317.855 40.3463 318.131 40.805C318.408 41.2638 318.546 41.7684 318.546 42.3189C318.546 42.8897 318.397 43.3943 318.101 43.8327C317.814 44.2609 317.43 44.5922 316.95 44.8267C317.533 45.0407 317.993 45.3924 318.331 45.8818C318.669 46.3609 318.837 46.9266 318.837 47.5791C318.837 48.2417 318.669 48.8279 318.331 49.3376C317.993 49.8473 317.522 50.2398 316.919 50.5151C316.316 50.7903 315.63 50.9279 314.863 50.9279C314.096 50.9279 313.41 50.7903 312.807 50.5151C312.213 50.2398 311.748 49.8473 311.41 49.3376C311.073 48.8279 310.904 48.2417 310.904 47.5791C310.904 46.9165 311.073 46.3456 311.41 45.8665C311.748 45.3874 312.204 45.0407 312.776 44.8267ZM316.873 42.533C316.873 41.9621 316.694 41.5237 316.336 41.2179C315.978 40.9121 315.487 40.7592 314.863 40.7592C314.249 40.7592 313.763 40.9121 313.405 41.2179C313.048 41.5237 312.868 41.9672 312.868 42.5482C312.868 43.0579 313.052 43.476 313.421 43.8021C313.799 44.1182 314.28 44.2762 314.863 44.2762C315.446 44.2762 315.927 44.113 316.305 43.7869C316.684 43.4607 316.873 43.0426 316.873 42.533ZM314.863 45.5912C314.188 45.5912 313.635 45.7594 313.206 46.0958C312.787 46.422 312.577 46.8961 312.577 47.5179C312.577 48.099 312.781 48.5731 313.19 48.94C313.6 49.2968 314.157 49.4752 314.863 49.4752C315.558 49.4752 316.106 49.2917 316.505 48.9248C316.914 48.5578 317.119 48.0888 317.119 47.5179C317.119 46.9063 316.909 46.4323 316.49 46.0958C316.08 45.7594 315.538 45.5912 314.863 45.5912ZM320.643 42.2577C320.705 41.3096 321.068 40.5706 321.733 40.0405C322.408 39.5103 323.267 39.2453 324.311 39.2453C325.027 39.2453 325.646 39.3727 326.167 39.6276C326.689 39.8825 327.083 40.229 327.349 40.6674C327.615 41.1058 327.748 41.6002 327.748 42.1507C327.748 42.7827 327.579 43.323 327.241 43.7716C326.904 44.2201 326.5 44.5208 326.029 44.6737V44.7349C326.633 44.9184 327.103 45.2548 327.441 45.7441C327.779 46.2232 327.947 46.8401 327.947 47.5944C327.947 48.1958 327.809 48.731 327.533 49.2C327.257 49.669 326.848 50.041 326.305 50.3163C325.764 50.5813 325.114 50.7138 324.357 50.7138C323.252 50.7138 322.342 50.4335 321.625 49.8728C320.919 49.302 320.542 48.4864 320.49 47.4262H322.178C322.219 47.9665 322.429 48.4099 322.807 48.7565C323.186 49.093 323.697 49.2612 324.341 49.2612C324.966 49.2612 325.446 49.093 325.784 48.7565C326.121 48.4099 326.29 47.9665 326.29 47.4262C326.29 46.7126 326.06 46.208 325.6 45.9124C325.15 45.6065 324.454 45.4536 323.513 45.4536H323.114V44.0162H323.528C324.357 44.006 324.986 43.8684 325.415 43.6034C325.856 43.3383 326.075 42.9203 326.075 42.3495C326.075 41.8601 325.917 41.4728 325.6 41.1873C325.283 40.8917 324.832 40.7439 324.249 40.7439C323.677 40.7439 323.232 40.8917 322.914 41.1873C322.598 41.4728 322.408 41.8296 322.346 42.2577H320.643ZM329.555 41.0956V39.5053H332.746V50.6527H330.982V41.0956H329.555ZM341.088 45.1937C341.661 45.2956 342.147 45.5963 342.546 46.0958C342.945 46.5954 343.144 47.1612 343.144 47.7932C343.144 48.3335 343.002 48.8228 342.715 49.2612C342.439 49.6893 342.035 50.0308 341.503 50.2857C340.97 50.5303 340.352 50.6527 339.646 50.6527H335.38V40.0252H339.446C340.172 40.0252 340.797 40.1475 341.318 40.3922C341.84 40.6368 342.234 40.9682 342.5 41.3861C342.766 41.7939 342.899 42.2526 342.899 42.7623C342.899 43.374 342.735 43.8837 342.408 44.2915C342.081 44.6993 341.641 44.9999 341.088 45.1937ZM337.129 44.4902H339.293C339.865 44.4902 340.31 44.3629 340.628 44.108C340.955 43.843 341.119 43.4657 341.119 42.9764C341.119 42.4973 340.955 42.1252 340.628 41.8601C340.31 41.5849 339.865 41.4473 339.293 41.4473H337.129V44.4902ZM339.492 49.2306C340.086 49.2306 340.551 49.0879 340.889 48.8024C341.226 48.5169 341.395 48.1194 341.395 47.6097C341.395 47.0898 341.216 46.6769 340.858 46.3711C340.5 46.0653 340.025 45.9124 339.431 45.9124H337.129V49.2306H339.492ZM344.6 48.3284V47.0133L349.756 39.6429H351.874V46.8145H353.301V48.3284H351.874V50.6527H350.155V48.3284H344.6ZM350.232 41.4167L346.61 46.8145H350.232V41.4167Z" fill="#03154C"/>
<path d="M302.638 134.755H298.702L292.119 124.823V134.755H288.183V118.653H292.119L298.702 128.631V118.653H302.638V134.755ZM317.598 128.149C317.598 128.516 317.575 128.899 317.529 129.296H308.622C308.683 130.091 308.936 130.703 309.381 131.131C309.841 131.544 310.401 131.75 311.061 131.75C312.043 131.75 312.726 131.338 313.11 130.512H317.299C317.084 131.353 316.693 132.11 316.125 132.783C315.573 133.455 314.875 133.983 314.031 134.365C313.187 134.748 312.243 134.939 311.199 134.939C309.941 134.939 308.821 134.671 307.839 134.136C306.857 133.601 306.09 132.836 305.537 131.842C304.985 130.848 304.709 129.686 304.709 128.356C304.709 127.025 304.977 125.863 305.514 124.869C306.067 123.875 306.834 123.111 307.816 122.576C308.798 122.04 309.926 121.773 311.199 121.773C312.442 121.773 313.547 122.033 314.514 122.553C315.481 123.073 316.233 123.814 316.77 124.778C317.322 125.741 317.598 126.865 317.598 128.149ZM313.57 127.117C313.57 126.444 313.34 125.909 312.88 125.512C312.419 125.114 311.844 124.915 311.153 124.915C310.494 124.915 309.934 125.106 309.473 125.489C309.028 125.871 308.752 126.414 308.645 127.117H313.57ZM323.611 123.768C323.994 123.172 324.524 122.69 325.199 122.323C325.874 121.956 326.664 121.773 327.569 121.773C328.628 121.773 329.587 122.04 330.447 122.576C331.306 123.111 331.981 123.875 332.472 124.869C332.979 125.863 333.232 127.018 333.232 128.333C333.232 129.648 332.979 130.81 332.472 131.819C331.981 132.813 331.306 133.585 330.447 134.136C329.587 134.671 328.628 134.939 327.569 134.939C326.679 134.939 325.889 134.755 325.199 134.388C324.524 134.021 323.994 133.547 323.611 132.966V140.857H319.675V121.956H323.611V123.768ZM329.227 128.333C329.227 127.354 328.951 126.59 328.398 126.039C327.861 125.473 327.194 125.19 326.396 125.19C325.613 125.19 324.945 125.473 324.393 126.039C323.856 126.605 323.587 127.377 323.587 128.356C323.587 129.334 323.856 130.107 324.393 130.672C324.945 131.238 325.613 131.521 326.396 131.521C327.178 131.521 327.846 131.238 328.398 130.672C328.951 130.091 329.227 129.312 329.227 128.333ZM342.455 131.429V134.755H340.452C339.025 134.755 337.913 134.411 337.115 133.723C336.317 133.02 335.918 131.88 335.918 130.305V125.213H334.353V121.956H335.918V118.837H339.854V121.956H342.432V125.213H339.854V130.351C339.854 130.734 339.946 131.009 340.13 131.177C340.314 131.345 340.621 131.429 341.051 131.429H342.455ZM357.33 121.956V134.755H353.394V133.012C352.995 133.578 352.45 134.037 351.76 134.388C351.084 134.725 350.333 134.893 349.504 134.893C348.522 134.893 347.655 134.679 346.903 134.251C346.151 133.807 345.568 133.173 345.154 132.347C344.739 131.521 344.532 130.55 344.532 129.434V121.956H348.445V128.906C348.445 129.763 348.668 130.428 349.113 130.902C349.558 131.376 350.156 131.613 350.908 131.613C351.675 131.613 352.281 131.376 352.726 130.902C353.171 130.428 353.394 129.763 353.394 128.906V121.956H357.33ZM367.983 121.819C369.487 121.819 370.684 122.308 371.574 123.287C372.479 124.25 372.932 125.58 372.932 127.278V134.755H369.019V127.805C369.019 126.949 368.796 126.284 368.351 125.81C367.906 125.336 367.308 125.099 366.556 125.099C365.804 125.099 365.205 125.336 364.76 125.81C364.315 126.284 364.093 126.949 364.093 127.805V134.755H360.157V121.956H364.093V123.654C364.492 123.088 365.029 122.644 365.704 122.323C366.379 121.987 367.139 121.819 367.983 121.819ZM387.774 128.149C387.774 128.516 387.751 128.899 387.705 129.296H378.797C378.859 130.091 379.112 130.703 379.557 131.131C380.017 131.544 380.577 131.75 381.237 131.75C382.219 131.75 382.902 131.338 383.285 130.512H387.475C387.26 131.353 386.869 132.11 386.301 132.783C385.748 133.455 385.05 133.983 384.206 134.365C383.362 134.748 382.419 134.939 381.375 134.939C380.117 134.939 378.997 134.671 378.015 134.136C377.033 133.601 376.265 132.836 375.713 131.842C375.16 130.848 374.884 129.686 374.884 128.356C374.884 127.025 375.153 125.863 375.69 124.869C376.242 123.875 377.009 123.111 377.992 122.576C378.974 122.04 380.101 121.773 381.375 121.773C382.618 121.773 383.723 122.033 384.69 122.553C385.656 123.073 386.408 123.814 386.945 124.778C387.498 125.741 387.774 126.865 387.774 128.149ZM383.746 127.117C383.746 126.444 383.516 125.909 383.055 125.512C382.595 125.114 382.02 124.915 381.329 124.915C380.669 124.915 380.109 125.106 379.649 125.489C379.204 125.871 378.928 126.414 378.82 127.117H383.746ZM404.51 126.498C405.446 126.697 406.198 127.163 406.766 127.897C407.334 128.616 407.618 129.441 407.618 130.374C407.618 131.72 407.142 132.79 406.191 133.585C405.254 134.365 403.942 134.755 402.255 134.755H394.728V118.653H402.001C403.643 118.653 404.925 119.028 405.845 119.777C406.781 120.527 407.249 121.544 407.249 122.828C407.249 123.776 406.996 124.564 406.49 125.19C405.999 125.817 405.339 126.253 404.51 126.498ZM398.664 125.168H401.242C401.886 125.168 402.377 125.03 402.715 124.755C403.068 124.464 403.244 124.044 403.244 123.493C403.244 122.943 403.068 122.522 402.715 122.232C402.377 121.941 401.886 121.796 401.242 121.796H398.664V125.168ZM401.564 131.59C402.224 131.59 402.73 131.445 403.083 131.154C403.451 130.848 403.636 130.412 403.636 129.847C403.636 129.281 403.444 128.837 403.06 128.516C402.692 128.195 402.178 128.035 401.518 128.035H398.664V131.59H401.564ZM413.836 117.782V134.755H409.9V117.782H413.836ZM429.371 121.956V134.755H425.435V133.012C425.036 133.578 424.491 134.037 423.801 134.388C423.125 134.725 422.374 134.893 421.545 134.893C420.563 134.893 419.696 134.679 418.944 134.251C418.192 133.807 417.609 133.173 417.195 132.347C416.78 131.521 416.573 130.55 416.573 129.434V121.956H420.486V128.906C420.486 129.763 420.709 130.428 421.154 130.902C421.599 131.376 422.197 131.613 422.949 131.613C423.716 131.613 424.322 131.376 424.767 130.902C425.212 130.428 425.435 129.763 425.435 128.906V121.956H429.371ZM444.305 128.149C444.305 128.516 444.282 128.899 444.236 129.296H435.328C435.39 130.091 435.643 130.703 436.088 131.131C436.548 131.544 437.108 131.75 437.768 131.75C438.75 131.75 439.433 131.338 439.817 130.512H444.006C443.791 131.353 443.4 132.11 442.832 132.783C442.28 133.455 441.581 133.983 440.737 134.365C439.893 134.748 438.95 134.939 437.906 134.939C436.648 134.939 435.528 134.671 434.546 134.136C433.564 133.601 432.797 132.836 432.244 131.842C431.692 130.848 431.415 129.686 431.415 128.356C431.415 127.025 431.684 125.863 432.221 124.869C432.773 123.875 433.541 123.111 434.523 122.576C435.505 122.04 436.633 121.773 437.906 121.773C439.149 121.773 440.254 122.033 441.221 122.553C442.188 123.073 442.939 123.814 443.476 124.778C444.029 125.741 444.305 126.865 444.305 128.149ZM440.277 127.117C440.277 126.444 440.047 125.909 439.587 125.512C439.126 125.114 438.551 124.915 437.86 124.915C437.2 124.915 436.64 125.106 436.18 125.489C435.735 125.871 435.459 126.414 435.351 127.117H440.277ZM296.853 150.689L296.285 153.334H298.311V154.863H295.963L295.349 157.692H293.677L294.29 154.863H291.283L290.669 157.692H288.996L289.61 154.863H287.232V153.334H289.932L290.5 150.689H288.137V149.16H290.822L291.421 146.377H293.094L292.495 149.16H295.503L296.101 146.377H297.774L297.175 149.16H299.216V150.689H296.853ZM295.18 150.689H292.173L291.605 153.334H294.613L295.18 150.689ZM300.828 148.135V146.545H304.02V157.692H302.255V148.135H300.828ZM308.311 151.866C307.247 151.336 306.715 150.501 306.715 149.359C306.715 148.808 306.853 148.303 307.129 147.845C307.405 147.386 307.82 147.024 308.372 146.759C308.925 146.484 309.6 146.346 310.398 146.346C311.185 146.346 311.855 146.484 312.408 146.759C312.971 147.024 313.39 147.386 313.666 147.845C313.942 148.303 314.08 148.808 314.08 149.359C314.08 149.929 313.932 150.434 313.635 150.872C313.349 151.301 312.965 151.632 312.485 151.866C313.068 152.08 313.528 152.432 313.866 152.921C314.203 153.4 314.372 153.966 314.372 154.619C314.372 155.281 314.203 155.868 313.866 156.377C313.528 156.887 313.057 157.279 312.454 157.555C311.851 157.83 311.165 157.968 310.398 157.968C309.63 157.968 308.945 157.83 308.341 157.555C307.748 157.279 307.283 156.887 306.945 156.377C306.607 155.868 306.439 155.281 306.439 154.619C306.439 153.956 306.607 153.385 306.945 152.906C307.283 152.427 307.738 152.08 308.311 151.866ZM312.408 149.573C312.408 149.002 312.229 148.563 311.871 148.258C311.513 147.952 311.022 147.799 310.398 147.799C309.784 147.799 309.298 147.952 308.94 148.258C308.582 148.563 308.403 149.007 308.403 149.588C308.403 150.097 308.587 150.516 308.955 150.842C309.334 151.158 309.815 151.316 310.398 151.316C310.981 151.316 311.461 151.152 311.84 150.826C312.219 150.501 312.408 150.082 312.408 149.573ZM310.398 152.631C309.723 152.631 309.17 152.799 308.74 153.135C308.321 153.461 308.111 153.935 308.111 154.558C308.111 155.139 308.316 155.613 308.725 155.98C309.135 156.336 309.692 156.515 310.398 156.515C311.093 156.515 311.641 156.331 312.04 155.964C312.449 155.597 312.653 155.128 312.653 154.558C312.653 153.946 312.443 153.472 312.024 153.135C311.615 152.799 311.073 152.631 310.398 152.631ZM322.224 149.129C322.112 148.66 321.906 148.308 321.61 148.074C321.314 147.84 320.899 147.722 320.367 147.722C319.559 147.722 318.955 148.033 318.556 148.655C318.157 149.267 317.947 150.286 317.927 151.713C318.193 151.265 318.582 150.918 319.093 150.674C319.605 150.429 320.157 150.307 320.751 150.307C321.426 150.307 322.019 150.455 322.531 150.75C323.052 151.036 323.456 151.453 323.743 152.004C324.039 152.554 324.188 153.212 324.188 153.977C324.188 154.69 324.045 155.327 323.758 155.888C323.482 156.449 323.068 156.892 322.515 157.218C321.963 157.535 321.298 157.692 320.52 157.692C319.466 157.692 318.638 157.463 318.035 157.004C317.441 156.535 317.022 155.877 316.776 155.032C316.541 154.186 316.423 153.131 316.423 151.866C316.423 148.135 317.743 146.27 320.382 146.27C321.406 146.27 322.208 146.545 322.791 147.095C323.385 147.646 323.732 148.323 323.835 149.129H322.224ZM320.367 151.775C319.743 151.775 319.211 151.963 318.771 152.34C318.341 152.707 318.127 153.243 318.127 153.946C318.127 154.649 318.326 155.21 318.725 155.628C319.135 156.036 319.702 156.24 320.428 156.24C321.073 156.24 321.579 156.041 321.948 155.643C322.326 155.246 322.515 154.715 322.515 154.053C322.515 153.36 322.331 152.81 321.963 152.401C321.605 151.984 321.073 151.775 320.367 151.775ZM326.023 149.297C326.085 148.349 326.447 147.611 327.113 147.08C327.788 146.55 328.647 146.285 329.691 146.285C330.406 146.285 331.026 146.412 331.548 146.667C332.069 146.922 332.463 147.268 332.729 147.707C332.995 148.146 333.128 148.64 333.128 149.19C333.128 149.822 332.959 150.363 332.622 150.811C332.284 151.259 331.879 151.56 331.41 151.713V151.775C332.013 151.958 332.484 152.294 332.821 152.784C333.159 153.263 333.328 153.88 333.328 154.634C333.328 155.235 333.189 155.77 332.913 156.24C332.637 156.709 332.228 157.081 331.686 157.356C331.143 157.621 330.494 157.753 329.737 157.753C328.632 157.753 327.721 157.473 327.006 156.912C326.3 156.342 325.921 155.526 325.87 154.466H327.558C327.598 155.006 327.808 155.449 328.187 155.796C328.565 156.133 329.077 156.301 329.722 156.301C330.345 156.301 330.826 156.133 331.164 155.796C331.502 155.449 331.67 155.006 331.67 154.466C331.67 153.752 331.44 153.247 330.98 152.952C330.529 152.646 329.834 152.493 328.893 152.493H328.494V151.056H328.908C329.737 151.045 330.366 150.908 330.796 150.643C331.235 150.378 331.456 149.96 331.456 149.389C331.456 148.9 331.296 148.513 330.98 148.227C330.662 147.932 330.213 147.783 329.63 147.783C329.056 147.783 328.611 147.932 328.295 148.227C327.977 148.513 327.788 148.869 327.727 149.297H326.023ZM338.94 150.689H337.375V157.692H335.61V150.689H334.613V149.267H335.61V148.67C335.61 147.702 335.865 146.999 336.377 146.56C336.899 146.112 337.712 145.887 338.817 145.887V147.34C338.285 147.34 337.912 147.442 337.697 147.646C337.482 147.84 337.375 148.181 337.375 148.67V149.267H338.94V150.689ZM344.034 150.689H342.469V157.692H340.705V150.689H339.707V149.267H340.705V148.67C340.705 147.702 340.961 146.999 341.472 146.56C341.994 146.112 342.807 145.887 343.912 145.887V147.34C343.379 147.34 343.006 147.442 342.792 147.646C342.577 147.84 342.469 148.181 342.469 148.67V149.267H344.034V150.689Z" fill="#03154C"/>
<path d="M306.482 225.693V241.795H302.546V232.138L298.932 241.795H295.756L292.119 232.115V241.795H288.183V225.693H292.833L297.367 236.84L301.855 225.693H306.482ZM315.158 241.978C313.9 241.978 312.765 241.711 311.752 241.176C310.754 240.64 309.964 239.876 309.381 238.882C308.813 237.888 308.529 236.726 308.529 235.395C308.529 234.08 308.821 232.926 309.404 231.932C309.987 230.923 310.785 230.15 311.798 229.615C312.811 229.08 313.946 228.812 315.204 228.812C316.463 228.812 317.598 229.08 318.611 229.615C319.624 230.15 320.422 230.923 321.005 231.932C321.588 232.926 321.879 234.08 321.879 235.395C321.879 236.71 321.58 237.873 320.982 238.882C320.399 239.876 319.593 240.64 318.565 241.176C317.552 241.711 316.417 241.978 315.158 241.978ZM315.158 238.584C315.91 238.584 316.547 238.308 317.069 237.758C317.606 237.207 317.874 236.42 317.874 235.395C317.874 234.371 317.614 233.583 317.092 233.033C316.585 232.482 315.956 232.207 315.204 232.207C314.437 232.207 313.8 232.482 313.294 233.033C312.788 233.568 312.534 234.356 312.534 235.395C312.534 236.42 312.78 237.207 313.271 237.758C313.777 238.308 314.406 238.584 315.158 238.584ZM329.815 241.978C328.556 241.978 327.421 241.711 326.408 241.176C325.411 240.64 324.62 239.876 324.037 238.882C323.47 237.888 323.186 236.726 323.186 235.395C323.186 234.08 323.477 232.926 324.059 231.932C324.643 230.923 325.441 230.15 326.454 229.615C327.467 229.08 328.602 228.812 329.861 228.812C331.119 228.812 332.254 229.08 333.267 229.615C334.28 230.15 335.078 230.923 335.661 231.932C336.244 232.926 336.536 234.08 336.536 235.395C336.536 236.71 336.236 237.873 335.638 238.882C335.055 239.876 334.249 240.64 333.221 241.176C332.208 241.711 331.073 241.978 329.815 241.978ZM329.815 238.584C330.566 238.584 331.203 238.308 331.725 237.758C332.262 237.207 332.531 236.42 332.531 235.395C332.531 234.371 332.27 233.583 331.748 233.033C331.242 232.482 330.613 232.207 329.861 232.207C329.093 232.207 328.457 232.482 327.95 233.033C327.444 233.568 327.191 234.356 327.191 235.395C327.191 236.42 327.436 237.207 327.927 237.758C328.434 238.308 329.063 238.584 329.815 238.584ZM346.449 228.858C347.953 228.858 349.15 229.348 350.04 230.326C350.945 231.29 351.398 232.62 351.398 234.317V241.795H347.485V234.845C347.485 233.989 347.263 233.323 346.818 232.849C346.373 232.375 345.774 232.138 345.022 232.138C344.27 232.138 343.672 232.375 343.227 232.849C342.782 233.323 342.559 233.989 342.559 234.845V241.795H338.623V228.996H342.559V230.693C342.958 230.128 343.495 229.684 344.171 229.363C344.846 229.027 345.605 228.858 346.449 228.858ZM358.069 224.821V241.795H354.133V224.821H358.069ZM362.901 227.666C362.21 227.666 361.643 227.467 361.198 227.069C360.768 226.656 360.553 226.152 360.553 225.555C360.553 224.944 360.768 224.439 361.198 224.042C361.643 223.629 362.21 223.422 362.901 223.422C363.576 223.422 364.128 223.629 364.558 224.042C365.003 224.439 365.226 224.944 365.226 225.555C365.226 226.152 365.003 226.656 364.558 227.069C364.128 227.467 363.576 227.666 362.901 227.666ZM364.857 228.996V241.795H360.921V228.996H364.857ZM372.589 228.812C373.495 228.812 374.285 228.996 374.96 229.363C375.651 229.73 376.18 230.212 376.548 230.808V228.996H380.484V241.772C380.484 242.949 380.246 244.012 379.771 244.96C379.31 245.924 378.597 246.688 377.63 247.254C376.679 247.82 375.489 248.103 374.062 248.103C372.16 248.103 370.617 247.651 369.436 246.749C368.254 245.862 367.579 244.654 367.41 243.125H371.3C371.423 243.615 371.715 243.997 372.175 244.272C372.635 244.563 373.203 244.708 373.878 244.708C374.691 244.708 375.336 244.471 375.812 243.997C376.303 243.538 376.548 242.796 376.548 241.772V239.96C376.165 240.556 375.635 241.046 374.96 241.428C374.285 241.795 373.495 241.978 372.589 241.978C371.53 241.978 370.571 241.711 369.712 241.176C368.853 240.625 368.17 239.853 367.664 238.859C367.172 237.85 366.927 236.688 366.927 235.372C366.927 234.057 367.172 232.903 367.664 231.909C368.17 230.915 368.853 230.15 369.712 229.615C370.571 229.08 371.53 228.812 372.589 228.812ZM376.548 235.395C376.548 234.417 376.272 233.645 375.72 233.079C375.182 232.513 374.523 232.23 373.74 232.23C372.957 232.23 372.29 232.513 371.738 233.079C371.201 233.629 370.932 234.394 370.932 235.372C370.932 236.351 371.201 237.131 371.738 237.712C372.29 238.278 372.957 238.561 373.74 238.561C374.523 238.561 375.182 238.278 375.72 237.712C376.272 237.146 376.548 236.374 376.548 235.395ZM391.226 228.858C392.7 228.858 393.881 229.348 394.771 230.326C395.661 231.29 396.106 232.62 396.106 234.317V241.795H392.193V234.845C392.193 233.989 391.971 233.323 391.526 232.849C391.081 232.375 390.482 232.138 389.73 232.138C388.978 232.138 388.38 232.375 387.935 232.849C387.49 233.323 387.267 233.989 387.267 234.845V241.795H383.332V224.821H387.267V230.716C387.666 230.15 388.211 229.699 388.902 229.363C389.592 229.027 390.367 228.858 391.226 228.858ZM406 238.469V241.795H403.997C402.57 241.795 401.458 241.451 400.66 240.763C399.862 240.059 399.463 238.92 399.463 237.345V232.253H397.898V228.996H399.463V225.877H403.399V228.996H405.977V232.253H403.399V237.391C403.399 237.773 403.491 238.048 403.675 238.217C403.859 238.385 404.166 238.469 404.596 238.469H406ZM422.852 233.538C423.788 233.736 424.54 234.203 425.108 234.937C425.676 235.655 425.959 236.481 425.959 237.414C425.959 238.76 425.484 239.83 424.532 240.625C423.596 241.405 422.284 241.795 420.596 241.795H413.07V225.693H420.343C421.985 225.693 423.266 226.068 424.187 226.817C425.123 227.566 425.591 228.583 425.591 229.868C425.591 230.816 425.338 231.603 424.832 232.23C424.341 232.857 423.681 233.293 422.852 233.538ZM417.006 232.207H419.584C420.228 232.207 420.719 232.07 421.057 231.794C421.41 231.504 421.586 231.083 421.586 230.533C421.586 229.982 421.41 229.562 421.057 229.271C420.719 228.981 420.228 228.835 419.584 228.835H417.006V232.207ZM419.906 238.63C420.566 238.63 421.072 238.484 421.425 238.194C421.793 237.888 421.977 237.452 421.977 236.886C421.977 236.321 421.786 235.877 421.402 235.556C421.034 235.235 420.52 235.074 419.86 235.074H417.006V238.63H419.906ZM432.178 224.821V241.795H428.242V224.821H432.178ZM447.713 228.996V241.795H443.777V240.052C443.378 240.617 442.833 241.076 442.142 241.428C441.467 241.764 440.715 241.932 439.887 241.932C438.905 241.932 438.038 241.718 437.286 241.29C436.534 240.847 435.951 240.212 435.536 239.386C435.122 238.561 434.915 237.59 434.915 236.473V228.996H438.828V235.946C438.828 236.802 439.05 237.467 439.495 237.941C439.94 238.415 440.539 238.652 441.291 238.652C442.058 238.652 442.664 238.415 443.109 237.941C443.554 237.467 443.777 236.802 443.777 235.946V228.996H447.713ZM462.647 235.189C462.647 235.556 462.624 235.938 462.578 236.336H453.67C453.732 237.131 453.985 237.743 454.43 238.171C454.89 238.584 455.45 238.79 456.11 238.79C457.092 238.79 457.775 238.377 458.159 237.552H462.348C462.133 238.393 461.742 239.149 461.174 239.822C460.621 240.495 459.923 241.023 459.079 241.405C458.235 241.787 457.292 241.978 456.248 241.978C454.99 241.978 453.87 241.711 452.888 241.176C451.906 240.64 451.138 239.876 450.586 238.882C450.034 237.888 449.757 236.726 449.757 235.395C449.757 234.065 450.026 232.903 450.563 231.909C451.115 230.915 451.883 230.15 452.865 229.615C453.847 229.08 454.975 228.812 456.248 228.812C457.491 228.812 458.596 229.072 459.563 229.592C460.529 230.112 461.281 230.854 461.818 231.817C462.371 232.781 462.647 233.905 462.647 235.189ZM458.619 234.157C458.619 233.484 458.389 232.949 457.928 232.551C457.468 232.154 456.893 231.955 456.202 231.955C455.542 231.955 454.982 232.146 454.522 232.528C454.077 232.911 453.801 233.453 453.693 234.157H458.619ZM296.853 257.728L296.285 260.374H298.311V261.903H295.963L295.349 264.732H293.677L294.29 261.903H291.283L290.669 264.732H288.996L289.61 261.903H287.232V260.374H289.932L290.5 257.728H288.137V256.199H290.822L291.421 253.416H293.094L292.495 256.199H295.503L296.101 253.416H297.774L297.175 256.199H299.216V257.728H296.853ZM295.18 257.728H292.173L291.605 260.374H294.613L295.18 257.728ZM308.148 254.93L303.882 264.732H302.117L306.429 255.114H300.752V253.63H308.148V254.93ZM309.292 259.395C309.292 258.355 309.533 257.423 310.013 256.597C310.504 255.771 311.164 255.129 311.993 254.67C312.832 254.201 313.748 253.967 314.739 253.967C315.875 253.967 316.883 254.247 317.762 254.808C318.652 255.358 319.297 256.143 319.696 257.163H317.593C317.317 256.602 316.934 256.184 316.443 255.909C315.952 255.634 315.384 255.496 314.739 255.496C314.033 255.496 313.404 255.654 312.852 255.97C312.299 256.286 311.865 256.739 311.548 257.331C311.241 257.923 311.087 258.611 311.087 259.395C311.087 260.18 311.241 260.868 311.548 261.46C311.865 262.051 312.299 262.51 312.852 262.836C313.404 263.152 314.033 263.31 314.739 263.31C315.384 263.31 315.952 263.172 316.443 262.897C316.934 262.622 317.317 262.204 317.593 261.643H319.696C319.297 262.663 318.652 263.447 317.762 263.998C316.883 264.548 315.875 264.824 314.739 264.824C313.737 264.824 312.821 264.594 311.993 264.136C311.164 263.666 310.504 263.019 310.013 262.194C309.533 261.368 309.292 260.435 309.292 259.395ZM327.452 259.273C328.025 259.375 328.51 259.675 328.909 260.175C329.308 260.675 329.508 261.241 329.508 261.872C329.508 262.412 329.365 262.902 329.078 263.34C328.802 263.769 328.398 264.11 327.866 264.365C327.335 264.61 326.715 264.732 326.009 264.732H321.743V254.104H325.81C326.537 254.104 327.16 254.227 327.682 254.471C328.203 254.716 328.598 255.048 328.863 255.465C329.13 255.873 329.262 256.332 329.262 256.842C329.262 257.453 329.099 257.963 328.771 258.371C328.444 258.779 328.004 259.079 327.452 259.273ZM323.493 258.57H325.656C326.23 258.57 326.675 258.442 326.991 258.187C327.319 257.922 327.482 257.545 327.482 257.056C327.482 256.577 327.319 256.204 326.991 255.939C326.675 255.664 326.23 255.527 325.656 255.527H323.493V258.57ZM325.856 263.31C326.449 263.31 326.914 263.167 327.252 262.882C327.59 262.596 327.758 262.198 327.758 261.689C327.758 261.169 327.58 260.756 327.221 260.45C326.864 260.145 326.388 259.992 325.794 259.992H323.493V263.31H325.856ZM337.685 254.104V255.527H333.158V258.661H336.687V260.083H333.158V264.732H331.409V254.104H337.685ZM345.582 254.104V255.527H341.056V258.661H344.585V260.083H341.056V264.732H339.306V254.104H345.582ZM353.479 254.104V255.527H348.952V258.661H352.482V260.083H348.952V264.732H347.203V254.104H353.479Z" fill="#03154C"/>
<path d="M300.497 337.916C300.497 338.849 300.283 339.706 299.853 340.485C299.423 341.25 298.763 341.869 297.873 342.343C296.983 342.817 295.879 343.054 294.559 343.054H292.119V348.835H288.183V332.733H294.559C295.848 332.733 296.937 332.954 297.827 333.398C298.717 333.841 299.385 334.453 299.83 335.233C300.275 336.013 300.497 336.907 300.497 337.916ZM294.26 339.935C295.012 339.935 295.572 339.759 295.94 339.407C296.308 339.056 296.492 338.559 296.492 337.916C296.492 337.274 296.308 336.777 295.94 336.426C295.572 336.074 295.012 335.898 294.26 335.898H292.119V339.935H294.26ZM308.393 349.018C307.135 349.018 305.999 348.75 304.987 348.215C303.989 347.68 303.199 346.915 302.616 345.921C302.048 344.928 301.764 343.765 301.764 342.435C301.764 341.12 302.056 339.965 302.639 338.972C303.222 337.962 304.02 337.19 305.033 336.655C306.046 336.12 307.181 335.852 308.439 335.852C309.698 335.852 310.833 336.12 311.846 336.655C312.859 337.19 313.657 337.962 314.24 338.972C314.823 339.965 315.114 341.12 315.114 342.435C315.114 343.75 314.815 344.912 314.217 345.921C313.633 346.915 312.828 347.68 311.8 348.215C310.787 348.75 309.652 349.018 308.393 349.018ZM308.393 345.623C309.145 345.623 309.782 345.348 310.304 344.798C310.841 344.247 311.109 343.46 311.109 342.435C311.109 341.411 310.848 340.623 310.327 340.073C309.82 339.522 309.191 339.247 308.439 339.247C307.672 339.247 307.035 339.522 306.529 340.073C306.022 340.608 305.769 341.395 305.769 342.435C305.769 343.46 306.015 344.247 306.506 344.798C307.012 345.348 307.641 345.623 308.393 345.623ZM321.138 331.861V348.835H317.202V331.861H321.138ZM323.208 342.412C323.208 341.097 323.453 339.943 323.944 338.949C324.451 337.955 325.133 337.19 325.993 336.655C326.852 336.12 327.811 335.852 328.87 335.852C329.775 335.852 330.566 336.036 331.241 336.403C331.931 336.77 332.461 337.251 332.829 337.848V336.036H336.765V348.835H332.829V347.022C332.445 347.619 331.908 348.1 331.218 348.467C330.543 348.835 329.752 349.018 328.847 349.018C327.803 349.018 326.852 348.75 325.993 348.215C325.133 347.665 324.451 346.892 323.944 345.899C323.453 344.889 323.208 343.727 323.208 342.412ZM332.829 342.435C332.829 341.456 332.553 340.684 332 340.118C331.463 339.553 330.803 339.27 330.021 339.27C329.238 339.27 328.571 339.553 328.018 340.118C327.481 340.669 327.213 341.433 327.213 342.412C327.213 343.391 327.481 344.171 328.018 344.752C328.571 345.317 329.238 345.6 330.021 345.6C330.803 345.6 331.463 345.317 332 344.752C332.553 344.186 332.829 343.414 332.829 342.435ZM343.548 338.169C344.009 337.465 344.584 336.915 345.275 336.517C345.965 336.104 346.732 335.898 347.576 335.898V340.05H346.494C345.512 340.05 344.776 340.264 344.285 340.692C343.794 341.105 343.548 341.839 343.548 342.894V348.835H339.612V336.036H343.548V338.169ZM351.437 334.705C350.747 334.705 350.179 334.507 349.734 334.109C349.304 333.696 349.09 333.191 349.09 332.595C349.09 331.983 349.304 331.479 349.734 331.081C350.179 330.668 350.747 330.462 351.437 330.462C352.113 330.462 352.665 330.668 353.095 331.081C353.54 331.479 353.762 331.983 353.762 332.595C353.762 333.191 353.54 333.696 353.095 334.109C352.665 334.507 352.113 334.705 351.437 334.705ZM353.394 336.036V348.835H349.458V336.036H353.394ZM361.471 349.018C360.351 349.018 359.353 348.827 358.479 348.445C357.604 348.062 356.914 347.542 356.407 346.885C355.901 346.212 355.617 345.463 355.556 344.637H359.445C359.491 345.08 359.699 345.44 360.067 345.715C360.435 345.99 360.888 346.128 361.425 346.128C361.916 346.128 362.292 346.036 362.553 345.853C362.829 345.654 362.967 345.402 362.967 345.096C362.967 344.729 362.775 344.461 362.392 344.293C362.008 344.109 361.387 343.911 360.527 343.697C359.607 343.483 358.839 343.261 358.226 343.031C357.612 342.787 357.082 342.412 356.637 341.908C356.192 341.388 355.97 340.692 355.97 339.82C355.97 339.086 356.169 338.421 356.568 337.825C356.983 337.213 357.581 336.731 358.364 336.38C359.162 336.028 360.105 335.852 361.195 335.852C362.806 335.852 364.072 336.25 364.993 337.045C365.929 337.84 366.466 338.895 366.604 340.21H362.967C362.906 339.767 362.706 339.415 362.369 339.155C362.046 338.895 361.617 338.765 361.08 338.765C360.619 338.765 360.266 338.857 360.021 339.04C359.775 339.209 359.653 339.446 359.653 339.751C359.653 340.118 359.844 340.394 360.228 340.577C360.627 340.761 361.241 340.944 362.069 341.128C363.021 341.372 363.796 341.617 364.394 341.862C364.993 342.091 365.514 342.473 365.959 343.008C366.42 343.528 366.658 344.232 366.673 345.119C366.673 345.868 366.458 346.541 366.028 347.137C365.614 347.718 365.008 348.177 364.21 348.513C363.427 348.85 362.514 349.018 361.471 349.018ZM383.741 340.577C384.677 340.776 385.429 341.242 385.997 341.976C386.564 342.695 386.848 343.521 386.848 344.453C386.848 345.799 386.373 346.87 385.421 347.665C384.485 348.445 383.173 348.835 381.485 348.835H373.959V332.733H381.232C382.874 332.733 384.155 333.107 385.076 333.857C386.012 334.606 386.48 335.623 386.48 336.907C386.48 337.855 386.227 338.643 385.721 339.27C385.229 339.897 384.57 340.332 383.741 340.577ZM377.895 339.247H380.473C381.117 339.247 381.608 339.109 381.946 338.834C382.299 338.543 382.475 338.123 382.475 337.572C382.475 337.022 382.299 336.601 381.946 336.311C381.608 336.02 381.117 335.875 380.473 335.875H377.895V339.247ZM380.795 345.669C381.455 345.669 381.961 345.524 382.314 345.233C382.682 344.928 382.866 344.492 382.866 343.926C382.866 343.36 382.675 342.917 382.291 342.596C381.923 342.274 381.409 342.114 380.749 342.114H377.895V345.669H380.795ZM393.067 331.861V348.835H389.131V331.861H393.067ZM408.602 336.036V348.835H404.666V347.091C404.267 347.657 403.722 348.116 403.031 348.467C402.356 348.804 401.604 348.972 400.776 348.972C399.794 348.972 398.927 348.758 398.175 348.33C397.423 347.886 396.84 347.252 396.425 346.426C396.011 345.6 395.804 344.629 395.804 343.513V336.036H399.717V342.986C399.717 343.842 399.939 344.507 400.384 344.981C400.829 345.455 401.428 345.692 402.18 345.692C402.947 345.692 403.553 345.455 403.998 344.981C404.443 344.507 404.666 343.842 404.666 342.986V336.036H408.602ZM423.536 342.229C423.536 342.596 423.513 342.978 423.467 343.375H414.559C414.621 344.171 414.874 344.782 415.319 345.21C415.779 345.623 416.339 345.83 416.999 345.83C417.981 345.83 418.664 345.417 419.048 344.591H423.237C423.022 345.432 422.631 346.189 422.063 346.862C421.51 347.535 420.812 348.062 419.968 348.445C419.124 348.827 418.181 349.018 417.137 349.018C415.879 349.018 414.759 348.75 413.777 348.215C412.795 347.68 412.027 346.915 411.475 345.921C410.922 344.928 410.646 343.765 410.646 342.435C410.646 341.105 410.915 339.943 411.452 338.949C412.004 337.955 412.772 337.19 413.754 336.655C414.736 336.12 415.863 335.852 417.137 335.852C418.38 335.852 419.485 336.112 420.452 336.632C421.418 337.152 422.17 337.894 422.707 338.857C423.26 339.82 423.536 340.944 423.536 342.229ZM419.508 341.196C419.508 340.524 419.278 339.988 418.817 339.591C418.357 339.193 417.782 338.995 417.091 338.995C416.431 338.995 415.871 339.186 415.411 339.568C414.966 339.95 414.69 340.493 414.582 341.196H419.508ZM296.853 364.768L296.285 367.414H298.311V368.943H295.963L295.349 371.772H293.677L294.29 368.943H291.283L290.669 371.772H288.996L289.61 368.943H287.232V367.414H289.932L290.5 364.768H288.137V363.239H290.822L291.421 360.456H293.094L292.495 363.239H295.503L296.101 360.456H297.774L297.175 363.239H299.216V364.768H296.853ZM295.18 364.768H292.173L291.605 367.414H294.613L295.18 364.768ZM300.706 366.435C300.706 365.395 300.946 364.462 301.427 363.637C301.918 362.811 302.578 362.169 303.406 361.71C304.245 361.241 305.16 361.006 306.153 361.006C307.288 361.006 308.296 361.286 309.176 361.847C310.066 362.398 310.71 363.183 311.109 364.202H309.007C308.731 363.641 308.347 363.224 307.856 362.948C307.365 362.673 306.797 362.536 306.153 362.536C305.447 362.536 304.818 362.693 304.265 363.01C303.713 363.326 303.279 363.779 302.961 364.371C302.654 364.962 302.501 365.65 302.501 366.435C302.501 367.219 302.654 367.908 302.961 368.499C303.279 369.091 303.713 369.55 304.265 369.875C304.818 370.192 305.447 370.349 306.153 370.349C306.797 370.349 307.365 370.212 307.856 369.937C308.347 369.661 308.731 369.244 309.007 368.683H311.109C310.71 369.702 310.066 370.487 309.176 371.038C308.296 371.588 307.288 371.863 306.153 371.863C305.151 371.863 304.235 371.634 303.406 371.175C302.578 370.706 301.918 370.059 301.427 369.233C300.946 368.407 300.706 367.475 300.706 366.435ZM312.712 369.447V368.132L317.868 360.762H319.985V367.933H321.412V369.447H319.985V371.772H318.267V369.447H312.712ZM318.343 362.536L314.722 367.933H318.343V362.536ZM324.842 362.551V365.67H328.525V367.092H324.842V370.349H328.985V371.772H323.093V361.129H328.985V362.551H324.842ZM337.415 361.144V362.566H332.888V365.701H336.418V367.123H332.888V371.772H331.139V361.144H337.415ZM345.313 361.144V362.566H340.786V365.701H344.315V367.123H340.786V371.772H339.037V361.144H345.313ZM350.417 361.144C351.552 361.144 352.545 361.363 353.394 361.802C354.253 362.23 354.913 362.852 355.373 363.667C355.844 364.473 356.079 365.415 356.079 366.496C356.079 367.577 355.844 368.514 355.373 369.31C354.913 370.105 354.253 370.716 353.394 371.145C352.545 371.562 351.552 371.772 350.417 371.772H346.934V361.144H350.417ZM350.417 370.349C351.665 370.349 352.622 370.013 353.286 369.34C353.951 368.667 354.284 367.719 354.284 366.496C354.284 365.262 353.951 364.299 353.286 363.606C352.622 362.913 351.665 362.566 350.417 362.566H348.683V370.349H350.417Z" fill="#03154C"/>
<path d="M784.503 216.946H508.297V302.96H784.503V216.946Z" fill="#00020A"/>
<path d="M804.244 241.955C803.063 241.955 802.004 241.764 801.068 241.382C800.132 241 799.38 240.434 798.812 239.685C798.26 238.935 797.968 238.033 797.938 236.978H802.127C802.188 237.574 802.395 238.033 802.748 238.354C803.101 238.66 803.562 238.813 804.129 238.813C804.712 238.813 805.173 238.683 805.51 238.423C805.848 238.148 806.017 237.773 806.017 237.299C806.017 236.902 805.879 236.573 805.602 236.313C805.342 236.053 805.012 235.839 804.613 235.671C804.229 235.502 803.677 235.311 802.955 235.097C801.912 234.776 801.06 234.455 800.401 234.134C799.741 233.813 799.173 233.339 798.697 232.712C798.222 232.085 797.984 231.267 797.984 230.258C797.984 228.759 798.529 227.589 799.618 226.748C800.707 225.892 802.127 225.464 803.876 225.464C805.656 225.464 807.091 225.892 808.18 226.748C809.27 227.589 809.853 228.767 809.93 230.28H805.672C805.641 229.761 805.449 229.355 805.096 229.065C804.743 228.759 804.291 228.606 803.738 228.606C803.262 228.606 802.879 228.736 802.587 228.996C802.296 229.241 802.15 229.6 802.15 230.074C802.15 230.594 802.395 230.999 802.886 231.29C803.378 231.58 804.145 231.894 805.188 232.23C806.232 232.582 807.076 232.918 807.72 233.239C808.38 233.56 808.948 234.027 809.423 234.639C809.899 235.25 810.137 236.038 810.137 237.001C810.137 237.919 809.899 238.752 809.423 239.501C808.963 240.25 808.288 240.847 807.398 241.29C806.508 241.734 805.457 241.955 804.244 241.955ZM816.495 230.808C816.879 230.212 817.408 229.73 818.083 229.363C818.759 228.996 819.549 228.812 820.454 228.812C821.513 228.812 822.472 229.08 823.331 229.615C824.191 230.15 824.866 230.915 825.357 231.909C825.863 232.903 826.117 234.057 826.117 235.372C826.117 236.688 825.863 237.85 825.357 238.859C824.866 239.853 824.191 240.625 823.331 241.176C822.472 241.711 821.513 241.978 820.454 241.978C819.564 241.978 818.774 241.795 818.083 241.428C817.408 241.061 816.879 240.587 816.495 240.006V247.896H812.559V228.996H816.495V230.808ZM822.112 235.372C822.112 234.394 821.835 233.629 821.283 233.079C820.746 232.513 820.078 232.23 819.28 232.23C818.498 232.23 817.83 232.513 817.278 233.079C816.741 233.645 816.472 234.417 816.472 235.395C816.472 236.374 816.741 237.146 817.278 237.712C817.83 238.278 818.498 238.561 819.28 238.561C820.063 238.561 820.73 238.278 821.283 237.712C821.835 237.131 822.112 236.351 822.112 235.372ZM827.399 235.372C827.399 234.057 827.644 232.903 828.135 231.909C828.642 230.915 829.325 230.15 830.184 229.615C831.043 229.08 832.002 228.812 833.061 228.812C833.966 228.812 834.757 228.996 835.432 229.363C836.122 229.73 836.652 230.212 837.02 230.808V228.996H840.956V241.795H837.02V239.983C836.636 240.579 836.099 241.061 835.409 241.428C834.734 241.795 833.943 241.978 833.038 241.978C831.995 241.978 831.043 241.711 830.184 241.176C829.325 240.625 828.642 239.853 828.135 238.859C827.644 237.85 827.399 236.688 827.399 235.372ZM837.02 235.395C837.02 234.417 836.744 233.645 836.191 233.079C835.654 232.513 834.994 232.23 834.212 232.23C833.429 232.23 832.762 232.513 832.209 233.079C831.672 233.629 831.404 234.394 831.404 235.372C831.404 236.351 831.672 237.131 832.209 237.712C832.762 238.278 833.429 238.561 834.212 238.561C834.994 238.561 835.654 238.278 836.191 237.712C836.744 237.146 837.02 236.374 837.02 235.395ZM843.021 235.395C843.021 234.065 843.289 232.903 843.826 231.909C844.379 230.915 845.138 230.15 846.105 229.615C847.087 229.08 848.207 228.812 849.466 228.812C851.077 228.812 852.419 229.233 853.494 230.074C854.583 230.915 855.297 232.1 855.634 233.629H851.445C851.092 232.651 850.409 232.161 849.397 232.161C848.675 232.161 848.1 232.444 847.67 233.01C847.241 233.56 847.026 234.356 847.026 235.395C847.026 236.435 847.241 237.238 847.67 237.804C848.1 238.354 848.675 238.63 849.397 238.63C850.409 238.63 851.092 238.14 851.445 237.162H855.634C855.297 238.66 854.583 239.838 853.494 240.694C852.404 241.55 851.061 241.978 849.466 241.978C848.207 241.978 847.087 241.711 846.105 241.176C845.138 240.64 844.379 239.876 843.826 238.882C843.289 237.888 843.021 236.726 843.021 235.395ZM869.846 235.189C869.846 235.556 869.823 235.938 869.777 236.336H860.87C860.931 237.131 861.184 237.743 861.629 238.171C862.09 238.584 862.65 238.79 863.31 238.79C864.292 238.79 864.974 238.377 865.358 237.552H869.547C869.332 238.393 868.941 239.149 868.373 239.822C867.821 240.495 867.123 241.023 866.279 241.405C865.435 241.787 864.491 241.978 863.448 241.978C862.189 241.978 861.069 241.711 860.087 241.176C859.105 240.64 858.338 239.876 857.785 238.882C857.233 237.888 856.957 236.726 856.957 235.395C856.957 234.065 857.225 232.903 857.762 231.909C858.315 230.915 859.082 230.15 860.064 229.615C861.046 229.08 862.174 228.812 863.448 228.812C864.69 228.812 865.795 229.072 866.762 229.592C867.729 230.112 868.481 230.854 869.018 231.817C869.57 232.781 869.846 233.905 869.846 235.189ZM865.818 234.157C865.818 233.484 865.588 232.949 865.128 232.551C864.668 232.154 864.092 231.955 863.402 231.955C862.742 231.955 862.182 232.146 861.721 232.528C861.276 232.911 861 233.453 860.893 234.157H865.818ZM886.583 233.538C887.519 233.736 888.271 234.203 888.838 234.937C889.406 235.655 889.69 236.481 889.69 237.414C889.69 238.76 889.214 239.83 888.263 240.625C887.327 241.405 886.015 241.795 884.327 241.795H876.8V225.693H884.074C885.716 225.693 886.997 226.068 887.918 226.817C888.854 227.566 889.322 228.583 889.322 229.868C889.322 230.816 889.069 231.603 888.562 232.23C888.071 232.857 887.411 233.293 886.583 233.538ZM880.736 232.207H883.314C883.959 232.207 884.45 232.07 884.787 231.794C885.14 231.504 885.317 231.083 885.317 230.533C885.317 229.982 885.14 229.562 884.787 229.271C884.45 228.981 883.959 228.835 883.314 228.835H880.736V232.207ZM883.637 238.63C884.296 238.63 884.803 238.484 885.156 238.194C885.524 237.888 885.708 237.452 885.708 236.886C885.708 236.321 885.516 235.877 885.133 235.556C884.764 235.235 884.25 235.074 883.591 235.074H880.736V238.63H883.637ZM895.909 224.821V241.795H891.973V224.821H895.909ZM897.978 235.372C897.978 234.057 898.224 232.903 898.715 231.909C899.221 230.915 899.904 230.15 900.763 229.615C901.623 229.08 902.582 228.812 903.64 228.812C904.546 228.812 905.336 228.996 906.011 229.363C906.702 229.73 907.231 230.212 907.599 230.808V228.996H911.535V241.795H907.599V239.983C907.216 240.579 906.679 241.061 905.988 241.428C905.313 241.795 904.523 241.978 903.617 241.978C902.574 241.978 901.623 241.711 900.763 241.176C899.904 240.625 899.221 239.853 898.715 238.859C898.224 237.85 897.978 236.688 897.978 235.372ZM907.599 235.395C907.599 234.417 907.323 233.645 906.771 233.079C906.234 232.513 905.574 232.23 904.791 232.23C904.009 232.23 903.341 232.513 902.789 233.079C902.252 233.629 901.983 234.394 901.983 235.372C901.983 236.351 902.252 237.131 902.789 237.712C903.341 238.278 904.009 238.561 904.791 238.561C905.574 238.561 906.234 238.278 906.771 237.712C907.323 237.146 907.599 236.374 907.599 235.395ZM913.601 235.395C913.601 234.065 913.87 232.903 914.407 231.909C914.959 230.915 915.719 230.15 916.685 229.615C917.667 229.08 918.788 228.812 920.046 228.812C921.657 228.812 923 229.233 924.074 230.074C925.163 230.915 925.877 232.1 926.215 233.629H922.025C921.672 232.651 920.99 232.161 919.977 232.161C919.256 232.161 918.68 232.444 918.251 233.01C917.821 233.56 917.606 234.356 917.606 235.395C917.606 236.435 917.821 237.238 918.251 237.804C918.68 238.354 919.256 238.63 919.977 238.63C920.99 238.63 921.672 238.14 922.025 237.162H926.215C925.877 238.66 925.163 239.838 924.074 240.694C922.984 241.55 921.642 241.978 920.046 241.978C918.788 241.978 917.667 241.711 916.685 241.176C915.719 240.64 914.959 239.876 914.407 238.882C913.87 237.888 913.601 236.726 913.601 235.395ZM936.169 241.795L932.256 236.428V241.795H928.32V224.821H932.256V234.203L936.146 228.996H941.002L935.662 235.418L941.048 241.795H936.169ZM807.068 257.728L806.5 260.374H808.526V261.903H806.178L805.564 264.732H803.891L804.505 261.903H801.498L800.884 264.732H799.211L799.825 261.903H797.447V260.374H800.147L800.715 257.728H798.352V256.199H801.037L801.636 253.416H803.308L802.71 256.199H805.718L806.316 253.416H807.989L807.39 256.199H809.431V257.728H807.068ZM805.395 257.728H802.388L801.82 260.374H804.828L805.395 257.728ZM811.273 259.013C811.273 257.25 811.57 255.873 812.163 254.884C812.767 253.886 813.8 253.386 815.263 253.386C816.726 253.386 817.754 253.886 818.347 254.884C818.951 255.873 819.253 257.25 819.253 259.013C819.253 260.797 818.951 262.194 818.347 263.203C817.754 264.202 816.726 264.701 815.263 264.701C813.8 264.701 812.767 264.202 812.163 263.203C811.57 262.194 811.273 260.797 811.273 259.013ZM817.534 259.013C817.534 258.187 817.477 257.489 817.365 256.918C817.263 256.347 817.048 255.883 816.721 255.527C816.394 255.16 815.907 254.976 815.263 254.976C814.618 254.976 814.132 255.16 813.805 255.527C813.478 255.883 813.258 256.347 813.145 256.918C813.043 257.489 812.992 258.187 812.992 259.013C812.992 259.869 813.043 260.588 813.145 261.169C813.248 261.75 813.463 262.219 813.79 262.576C814.127 262.932 814.618 263.111 815.263 263.111C815.907 263.111 816.394 262.932 816.721 262.576C817.058 262.219 817.278 261.75 817.381 261.169C817.483 260.588 817.534 259.869 817.534 259.013ZM821.104 259.013C821.104 257.25 821.4 255.873 821.994 254.884C822.597 253.886 823.631 253.386 825.093 253.386C826.556 253.386 827.584 253.886 828.178 254.884C828.781 255.873 829.083 257.25 829.083 259.013C829.083 260.797 828.781 262.194 828.178 263.203C827.584 264.202 826.556 264.701 825.093 264.701C823.631 264.701 822.597 264.202 821.994 263.203C821.4 262.194 821.104 260.797 821.104 259.013ZM827.364 259.013C827.364 258.187 827.308 257.489 827.195 256.918C827.093 256.347 826.878 255.883 826.551 255.527C826.224 255.16 825.738 254.976 825.093 254.976C824.449 254.976 823.962 255.16 823.635 255.527C823.308 255.883 823.088 256.347 822.976 256.918C822.873 257.489 822.822 258.187 822.822 259.013C822.822 259.869 822.873 260.588 822.976 261.169C823.078 261.75 823.293 262.219 823.62 262.576C823.958 262.932 824.449 263.111 825.093 263.111C825.738 263.111 826.224 262.932 826.551 262.576C826.889 262.219 827.108 261.75 827.211 261.169C827.313 260.588 827.364 259.869 827.364 259.013ZM830.934 259.013C830.934 257.25 831.23 255.873 831.824 254.884C832.427 253.886 833.461 253.386 834.924 253.386C836.386 253.386 837.414 253.886 838.008 254.884C838.611 255.873 838.913 257.25 838.913 259.013C838.913 260.797 838.611 262.194 838.008 263.203C837.414 264.202 836.386 264.701 834.924 264.701C833.461 264.701 832.427 264.202 831.824 263.203C831.23 262.194 830.934 260.797 830.934 259.013ZM837.195 259.013C837.195 258.187 837.138 257.489 837.026 256.918C836.923 256.347 836.708 255.883 836.381 255.527C836.054 255.16 835.568 254.976 834.924 254.976C834.279 254.976 833.793 255.16 833.466 255.527C833.139 255.883 832.918 256.347 832.806 256.918C832.703 257.489 832.652 258.187 832.652 259.013C832.652 259.869 832.703 260.588 832.806 261.169C832.909 261.75 833.123 262.219 833.45 262.576C833.788 262.932 834.279 263.111 834.924 263.111C835.568 263.111 836.054 262.932 836.381 262.576C836.719 262.219 836.938 261.75 837.041 261.169C837.144 260.588 837.195 259.869 837.195 259.013ZM841.731 262.362C842.713 261.516 843.485 260.822 844.048 260.282C844.62 259.732 845.096 259.161 845.475 258.57C845.854 257.978 846.043 257.387 846.043 256.796C846.043 256.184 845.894 255.705 845.598 255.358C845.311 255.011 844.856 254.838 844.232 254.838C843.629 254.838 843.158 255.032 842.82 255.419C842.493 255.797 842.319 256.306 842.299 256.949H840.611C840.641 255.786 840.99 254.9 841.654 254.288C842.329 253.666 843.184 253.355 844.217 253.355C845.332 253.355 846.201 253.661 846.825 254.273C847.459 254.884 847.777 255.7 847.777 256.719C847.777 257.453 847.588 258.161 847.209 258.845C846.841 259.518 846.396 260.124 845.874 260.664C845.363 261.195 844.708 261.811 843.91 262.515L843.219 263.126H848.084V264.579H840.626V263.31L841.731 262.362ZM849.621 259.013C849.621 257.25 849.917 255.873 850.511 254.884C851.114 253.886 852.147 253.386 853.611 253.386C855.073 253.386 856.101 253.886 856.695 254.884C857.298 255.873 857.6 257.25 857.6 259.013C857.6 260.797 857.298 262.194 856.695 263.203C856.101 264.202 855.073 264.701 853.611 264.701C852.147 264.701 851.114 264.202 850.511 263.203C849.917 262.194 849.621 260.797 849.621 259.013ZM855.882 259.013C855.882 258.187 855.825 257.489 855.713 256.918C855.61 256.347 855.395 255.883 855.068 255.527C854.74 255.16 854.255 254.976 853.611 254.976C852.966 254.976 852.48 255.16 852.153 255.527C851.825 255.883 851.605 256.347 851.493 256.918C851.39 257.489 851.34 258.187 851.34 259.013C851.34 259.869 851.39 260.588 851.493 261.169C851.595 261.75 851.81 262.219 852.137 262.576C852.475 262.932 852.966 263.111 853.611 263.111C854.255 263.111 854.74 262.932 855.068 262.576C855.406 262.219 855.626 261.75 855.728 261.169C855.83 260.588 855.882 259.869 855.882 259.013ZM866.111 262.561H861.646L860.878 264.732H859.052L862.873 254.089H864.899L868.719 264.732H866.878L866.111 262.561ZM865.62 261.138L863.886 256.199L862.137 261.138H865.62Z" fill="#03154C"/>
<path d="M784.503 109.907H508.297V195.921H784.503V109.907Z" fill="#C5C5C5"/>
<path d="M797.731 126.681C797.731 125.091 798.076 123.677 798.766 122.438C799.457 121.184 800.416 120.213 801.643 119.525C802.886 118.822 804.29 118.47 805.856 118.47C807.774 118.47 809.416 118.975 810.781 119.984C812.147 120.993 813.06 122.369 813.52 124.112H809.193C808.871 123.44 808.411 122.927 807.812 122.576C807.229 122.224 806.562 122.048 805.81 122.048C804.597 122.048 803.615 122.469 802.863 123.31C802.112 124.151 801.736 125.275 801.736 126.681C801.736 128.088 802.112 129.212 802.863 130.053C803.615 130.894 804.597 131.315 805.81 131.315C806.562 131.315 807.229 131.139 807.812 130.787C808.411 130.435 808.871 129.923 809.193 129.25H813.52C813.06 130.994 812.147 132.37 810.781 133.379C809.416 134.373 807.774 134.87 805.856 134.87C804.29 134.87 802.886 134.526 801.643 133.838C800.416 133.134 799.457 132.163 798.766 130.925C798.076 129.686 797.731 128.272 797.731 126.681ZM821.777 134.939C820.519 134.939 819.383 134.671 818.37 134.136C817.373 133.601 816.583 132.836 816 131.842C815.432 130.848 815.148 129.686 815.148 128.356C815.148 127.041 815.439 125.886 816.023 124.892C816.606 123.883 817.404 123.111 818.416 122.576C819.429 122.04 820.565 121.773 821.823 121.773C823.081 121.773 824.217 122.04 825.229 122.576C826.242 123.111 827.04 123.883 827.623 124.892C828.206 125.886 828.498 127.041 828.498 128.356C828.498 129.671 828.199 130.833 827.6 131.842C827.017 132.836 826.211 133.601 825.183 134.136C824.171 134.671 823.035 134.939 821.777 134.939ZM821.777 131.544C822.529 131.544 823.166 131.269 823.687 130.718C824.224 130.168 824.493 129.38 824.493 128.356C824.493 127.331 824.232 126.544 823.71 125.993C823.204 125.443 822.575 125.168 821.823 125.168C821.056 125.168 820.419 125.443 819.912 125.993C819.406 126.528 819.153 127.316 819.153 128.356C819.153 129.38 819.398 130.168 819.889 130.718C820.396 131.269 821.025 131.544 821.777 131.544ZM846.975 121.819C848.571 121.819 849.837 122.3 850.773 123.264C851.724 124.227 852.2 125.565 852.2 127.278V134.755H848.287V127.805C848.287 126.98 848.064 126.345 847.619 125.902C847.19 125.443 846.591 125.213 845.824 125.213C845.057 125.213 844.451 125.443 844.006 125.902C843.576 126.345 843.361 126.98 843.361 127.805V134.755H839.448V127.805C839.448 126.98 839.226 126.345 838.781 125.902C838.351 125.443 837.753 125.213 836.985 125.213C836.218 125.213 835.612 125.443 835.167 125.902C834.737 126.345 834.523 126.98 834.523 127.805V134.755H830.587V121.956H834.523V123.562C834.922 123.027 835.443 122.606 836.088 122.3C836.732 121.979 837.461 121.819 838.274 121.819C839.241 121.819 840.1 122.025 840.852 122.438C841.62 122.851 842.218 123.44 842.648 124.204C843.093 123.501 843.699 122.927 844.466 122.484C845.233 122.04 846.07 121.819 846.975 121.819ZM867.059 128.149C867.059 128.516 867.036 128.899 866.99 129.296H858.083C858.144 130.091 858.397 130.703 858.842 131.131C859.303 131.544 859.863 131.75 860.523 131.75C861.505 131.75 862.187 131.338 862.571 130.512H866.76C866.545 131.353 866.154 132.11 865.586 132.783C865.034 133.455 864.336 133.983 863.492 134.365C862.648 134.748 861.704 134.939 860.661 134.939C859.402 134.939 858.282 134.671 857.3 134.136C856.318 133.601 855.551 132.836 854.998 131.842C854.446 130.848 854.17 129.686 854.17 128.356C854.17 127.025 854.438 125.863 854.975 124.869C855.528 123.875 856.295 123.111 857.277 122.576C858.259 122.04 859.387 121.773 860.661 121.773C861.904 121.773 863.008 122.033 863.975 122.553C864.942 123.073 865.694 123.814 866.231 124.778C866.783 125.741 867.059 126.865 867.059 128.149ZM863.031 127.117C863.031 126.444 862.801 125.909 862.341 125.512C861.88 125.114 861.305 124.915 860.615 124.915C859.955 124.915 859.395 125.106 858.934 125.489C858.489 125.871 858.213 126.414 858.106 127.117H863.031ZM876.294 131.429V134.755H874.292C872.865 134.755 871.752 134.411 870.954 133.723C870.156 133.02 869.757 131.88 869.757 130.305V125.213H868.192V121.956H869.757V118.837H873.693V121.956H876.271V125.213H873.693V130.351C873.693 130.734 873.785 131.009 873.969 131.177C874.154 131.345 874.46 131.429 874.89 131.429H876.294ZM894.09 123.745C893.799 123.21 893.377 122.805 892.824 122.53C892.287 122.239 891.65 122.094 890.914 122.094C889.64 122.094 888.62 122.515 887.853 123.356C887.085 124.181 886.702 125.29 886.702 126.681C886.702 128.165 887.101 129.327 887.899 130.168C888.712 130.994 889.824 131.406 891.236 131.406C892.203 131.406 893.016 131.162 893.676 130.672C894.351 130.183 894.842 129.48 895.149 128.562H890.154V125.672H898.717V129.319C898.425 130.298 897.926 131.208 897.221 132.049C896.53 132.89 895.648 133.57 894.574 134.09C893.499 134.61 892.287 134.87 890.937 134.87C889.341 134.87 887.914 134.526 886.656 133.838C885.413 133.134 884.438 132.163 883.732 130.925C883.042 129.686 882.697 128.272 882.697 126.681C882.697 125.091 883.042 123.677 883.732 122.438C884.438 121.184 885.413 120.213 886.656 119.525C887.899 118.822 889.318 118.47 890.914 118.47C892.847 118.47 894.474 118.936 895.793 119.869C897.128 120.802 898.011 122.094 898.44 123.745H894.09ZM904.833 124.09C905.293 123.386 905.868 122.836 906.559 122.438C907.249 122.025 908.017 121.819 908.861 121.819V125.97H907.779C906.797 125.97 906.06 126.184 905.569 126.613C905.078 127.025 904.833 127.759 904.833 128.815V134.755H900.897V121.956H904.833V124.09ZM922.849 128.149C922.849 128.516 922.826 128.899 922.78 129.296H913.873C913.934 130.091 914.187 130.703 914.632 131.131C915.092 131.544 915.653 131.75 916.312 131.75C917.294 131.75 917.977 131.338 918.361 130.512H922.55C922.335 131.353 921.944 132.11 921.376 132.783C920.824 133.455 920.126 133.983 919.282 134.365C918.438 134.748 917.494 134.939 916.45 134.939C915.192 134.939 914.072 134.671 913.09 134.136C912.108 133.601 911.341 132.836 910.788 131.842C910.236 130.848 909.96 129.686 909.96 128.356C909.96 127.025 910.228 125.863 910.765 124.869C911.318 123.875 912.085 123.111 913.067 122.576C914.049 122.04 915.177 121.773 916.45 121.773C917.693 121.773 918.798 122.033 919.765 122.553C920.732 123.073 921.484 123.814 922.021 124.778C922.573 125.741 922.849 126.865 922.849 128.149ZM918.821 127.117C918.821 126.444 918.591 125.909 918.131 125.512C917.67 125.114 917.095 124.915 916.404 124.915C915.745 124.915 915.185 125.106 914.724 125.489C914.279 125.871 914.003 126.414 913.896 127.117H918.821ZM938.045 121.956L929.989 140.834H925.754L928.7 134.319L923.476 121.956H927.872L930.841 129.961L933.787 121.956H938.045ZM807.068 150.689L806.5 153.334H808.526V154.863H806.178L805.564 157.692H803.891L804.505 154.863H801.498L800.884 157.692H799.211L799.825 154.863H797.447V153.334H800.147L800.715 150.689H798.352V149.16H801.037L801.636 146.377H803.308L802.71 149.16H805.718L806.316 146.377H807.989L807.39 149.16H809.431V150.689H807.068ZM805.395 150.689H802.388L801.82 153.334H804.828L805.395 150.689ZM810.92 152.356C810.92 151.316 811.161 150.383 811.642 149.557C812.133 148.732 812.792 148.089 813.621 147.631C814.46 147.161 815.375 146.927 816.368 146.927C817.503 146.927 818.511 147.207 819.391 147.768C820.281 148.319 820.925 149.103 821.324 150.123H819.222C818.946 149.562 818.562 149.144 818.071 148.869C817.58 148.594 817.012 148.456 816.368 148.456C815.662 148.456 815.033 148.614 814.48 148.93C813.928 149.247 813.493 149.7 813.176 150.291C812.869 150.883 812.716 151.571 812.716 152.356C812.716 153.14 812.869 153.828 813.176 154.42C813.493 155.012 813.928 155.47 814.48 155.796C815.033 156.113 815.662 156.27 816.368 156.27C817.012 156.27 817.58 156.133 818.071 155.857C818.562 155.582 818.946 155.164 819.222 154.603H821.324C820.925 155.623 820.281 156.408 819.391 156.958C818.511 157.509 817.503 157.784 816.368 157.784C815.366 157.784 814.45 157.555 813.621 157.096C812.792 156.627 812.133 155.98 811.642 155.154C811.161 154.328 810.92 153.395 810.92 152.356ZM830.354 148.043H825.213V151.086C825.428 150.801 825.745 150.562 826.164 150.368C826.594 150.174 827.05 150.077 827.53 150.077C828.39 150.077 829.085 150.261 829.617 150.628C830.159 150.995 830.543 151.458 830.768 152.019C831.003 152.58 831.121 153.171 831.121 153.793C831.121 154.547 830.972 155.22 830.676 155.811C830.389 156.393 829.955 156.851 829.372 157.188C828.799 157.524 828.093 157.692 827.254 157.692C826.139 157.692 825.244 157.417 824.569 156.867C823.893 156.316 823.49 155.587 823.356 154.68H825.06C825.172 155.159 825.423 155.541 825.812 155.827C826.2 156.102 826.686 156.24 827.269 156.24C827.995 156.24 828.538 156.021 828.896 155.582C829.264 155.143 829.448 154.562 829.448 153.839C829.448 153.105 829.264 152.544 828.896 152.157C828.528 151.759 827.986 151.56 827.269 151.56C826.768 151.56 826.344 151.688 825.996 151.943C825.658 152.187 825.413 152.524 825.259 152.952H823.602V146.514H830.354V148.043ZM832.589 152.356C832.589 151.316 832.83 150.383 833.31 149.557C833.801 148.732 834.461 148.089 835.29 147.631C836.129 147.161 837.044 146.927 838.037 146.927C839.172 146.927 840.18 147.207 841.06 147.768C841.95 148.319 842.594 149.103 842.993 150.123H840.891C840.615 149.562 840.231 149.144 839.74 148.869C839.249 148.594 838.681 148.456 838.037 148.456C837.331 148.456 836.702 148.614 836.149 148.93C835.597 149.247 835.162 149.7 834.845 150.291C834.538 150.883 834.385 151.571 834.385 152.356C834.385 153.14 834.538 153.828 834.845 154.42C835.162 155.012 835.597 155.47 836.149 155.796C836.702 156.113 837.331 156.27 838.037 156.27C838.681 156.27 839.249 156.133 839.74 155.857C840.231 155.582 840.615 155.164 840.891 154.603H842.993C842.594 155.623 841.95 156.408 841.06 156.958C840.18 157.509 839.172 157.784 838.037 157.784C837.034 157.784 836.118 157.555 835.29 157.096C834.461 156.627 833.801 155.98 833.31 155.154C832.83 154.328 832.589 153.395 832.589 152.356ZM852.022 148.043H846.882V151.086C847.097 150.801 847.414 150.562 847.833 150.368C848.263 150.174 848.719 150.077 849.199 150.077C850.058 150.077 850.754 150.261 851.286 150.628C851.828 150.995 852.211 151.458 852.437 152.019C852.672 152.58 852.79 153.171 852.79 153.793C852.79 154.547 852.641 155.22 852.345 155.811C852.058 156.393 851.623 156.851 851.04 157.188C850.468 157.524 849.762 157.692 848.923 157.692C847.807 157.692 846.913 157.417 846.237 156.867C845.562 156.316 845.159 155.587 845.025 154.68H846.728C846.841 155.159 847.092 155.541 847.48 155.827C847.869 156.102 848.355 156.24 848.938 156.24C849.664 156.24 850.207 156.021 850.565 155.582C850.933 155.143 851.117 154.562 851.117 153.839C851.117 153.105 850.933 152.544 850.565 152.157C850.196 151.759 849.654 151.56 848.938 151.56C848.437 151.56 848.013 151.688 847.664 151.943C847.327 152.187 847.081 152.524 846.928 152.952H845.271V146.514H852.022V148.043ZM854.258 152.356C854.258 151.316 854.498 150.383 854.979 149.557C855.47 148.732 856.13 148.089 856.959 147.631C857.797 147.161 858.713 146.927 859.705 146.927C860.841 146.927 861.848 147.207 862.728 147.768C863.618 148.319 864.263 149.103 864.662 150.123H862.56C862.283 149.562 861.9 149.144 861.409 148.869C860.918 148.594 860.35 148.456 859.705 148.456C859 148.456 858.37 148.614 857.818 148.93C857.266 149.247 856.83 149.7 856.514 150.291C856.207 150.883 856.053 151.571 856.053 152.356C856.053 153.14 856.207 153.828 856.514 154.42C856.83 155.012 857.266 155.47 857.818 155.796C858.37 156.113 859 156.27 859.705 156.27C860.35 156.27 860.918 156.133 861.409 155.857C861.9 155.582 862.283 155.164 862.56 154.603H864.662C864.263 155.623 863.618 156.408 862.728 156.958C861.848 157.509 860.841 157.784 859.705 157.784C858.702 157.784 857.787 157.555 856.959 157.096C856.13 156.627 855.47 155.98 854.979 155.154C854.498 154.328 854.258 153.395 854.258 152.356ZM873.691 148.043H868.551V151.086C868.766 150.801 869.082 150.562 869.502 150.368C869.932 150.174 870.386 150.077 870.868 150.077C871.727 150.077 872.422 150.261 872.955 150.628C873.497 150.995 873.88 151.458 874.105 152.019C874.34 152.58 874.458 153.171 874.458 153.793C874.458 154.547 874.31 155.22 874.013 155.811C873.727 156.393 873.292 156.851 872.709 157.188C872.136 157.524 871.43 157.692 870.592 157.692C869.476 157.692 868.581 157.417 867.906 156.867C867.231 156.316 866.826 155.587 866.694 154.68H868.397C868.509 155.159 868.76 155.541 869.149 155.827C869.538 156.102 870.024 156.24 870.607 156.24C871.333 156.24 871.875 156.021 872.233 155.582C872.602 155.143 872.786 154.562 872.786 153.839C872.786 153.105 872.602 152.544 872.233 152.157C871.865 151.759 871.322 151.56 870.607 151.56C870.105 151.56 869.68 151.688 869.333 151.943C868.996 152.187 868.75 152.524 868.597 152.952H866.939V146.514H873.691V148.043Z" fill="#03154C"/>
<path d="M784.503 0H508.297V86.014H784.503V0Z" fill="white"/>
<path d="M816.697 8.74667V24.8485H812.761V15.192L809.147 24.8485H805.971L802.334 15.169V24.8485H798.398V8.74667H803.048L807.582 19.8941L812.07 8.74667H816.697ZM818.744 18.4261C818.744 17.111 818.99 15.9565 819.481 14.9626C819.987 13.9687 820.67 13.2041 821.529 12.6689C822.389 12.1337 823.348 11.8661 824.407 11.8661C825.312 11.8661 826.102 12.0496 826.777 12.4166C827.468 12.7836 827.997 13.2653 828.365 13.8616V12.0496H832.301V24.8485H828.365V23.0365C827.982 23.6328 827.445 24.1145 826.754 24.4815C826.079 24.8485 825.289 25.032 824.384 25.032C823.34 25.032 822.389 24.7644 821.529 24.2292C820.67 23.6787 819.987 22.9065 819.481 21.9125C818.99 20.9033 818.744 19.7412 818.744 18.4261ZM828.365 18.449C828.365 17.4704 828.089 16.6982 827.537 16.1324C827 15.5666 826.34 15.2837 825.557 15.2837C824.775 15.2837 824.107 15.5666 823.555 16.1324C823.018 16.6829 822.749 17.4475 822.749 18.4261C822.749 19.4048 823.018 20.1846 823.555 20.7657C824.107 21.3315 824.775 21.6144 825.557 21.6144C826.34 21.6144 827 21.3315 827.537 20.7657C828.089 20.1999 828.365 19.4277 828.365 18.449ZM839.085 14.1828C839.545 13.4793 840.121 12.9289 840.811 12.5313C841.502 12.1184 842.269 11.912 843.113 11.912V16.0636H842.031C841.049 16.0636 840.312 16.2777 839.821 16.7058C839.33 17.1187 839.085 17.8527 839.085 18.9078V24.8485H835.149V12.0496H839.085V14.1828ZM850.219 25.032C849.099 25.032 848.102 24.8408 847.227 24.4586C846.352 24.0763 845.662 23.5564 845.156 22.8988C844.649 22.226 844.365 21.4767 844.304 20.651H848.194C848.24 21.0945 848.447 21.4538 848.815 21.729C849.184 22.0043 849.636 22.1419 850.173 22.1419C850.664 22.1419 851.04 22.0502 851.301 21.8667C851.577 21.6679 851.716 21.4156 851.716 21.1097C851.716 20.7428 851.524 20.4752 851.14 20.3069C850.756 20.1234 850.135 19.9247 849.276 19.7106C848.355 19.4965 847.588 19.2748 846.974 19.0454C846.36 18.8007 845.831 18.4261 845.386 17.9215C844.941 17.4016 844.718 16.7058 844.718 15.8342C844.718 15.1002 844.918 14.4351 845.317 13.8387C845.731 13.227 846.329 12.7454 847.112 12.3937C847.91 12.042 848.854 11.8661 849.943 11.8661C851.554 11.8661 852.82 12.2637 853.741 13.0588C854.677 13.854 855.214 14.9091 855.352 16.2241H851.716C851.654 15.7807 851.455 15.429 851.117 15.169C850.795 14.9091 850.365 14.7791 849.828 14.7791C849.368 14.7791 849.015 14.8709 848.769 15.0544C848.524 15.2226 848.401 15.4596 848.401 15.7654C848.401 16.1324 848.593 16.4076 848.977 16.5911C849.375 16.7746 849.989 16.9581 850.818 17.1416C851.769 17.3863 852.544 17.631 853.143 17.8756C853.741 18.105 854.263 18.4873 854.708 19.0225C855.168 19.5424 855.406 20.2458 855.421 21.1327C855.421 21.882 855.206 22.5548 854.777 23.1511C854.362 23.7322 853.756 24.191 852.958 24.5274C852.176 24.8638 851.263 25.032 850.219 25.032ZM865.724 11.912C867.198 11.912 868.379 12.4013 869.269 13.38C870.159 14.3433 870.604 15.6737 870.604 17.371V24.8485H866.691V17.8986C866.691 17.0422 866.469 16.3771 866.024 15.903C865.579 15.429 864.98 15.192 864.228 15.192C863.476 15.192 862.878 15.429 862.433 15.903C861.988 16.3771 861.765 17.0422 861.765 17.8986V24.8485H857.829V7.87506H861.765V13.7699C862.164 13.2041 862.709 12.753 863.4 12.4166C864.09 12.0802 864.865 11.912 865.724 11.912ZM889.727 11.912C891.323 11.912 892.589 12.3937 893.525 13.357C894.477 14.3204 894.952 15.6584 894.952 17.371V24.8485H891.039V17.8986C891.039 17.0728 890.817 16.4382 890.372 15.9948C889.942 15.536 889.344 15.3067 888.577 15.3067C887.809 15.3067 887.203 15.536 886.758 15.9948C886.329 16.4382 886.114 17.0728 886.114 17.8986V24.8485H882.201V17.8986C882.201 17.0728 881.978 16.4382 881.533 15.9948C881.104 15.536 880.505 15.3067 879.738 15.3067C878.971 15.3067 878.365 15.536 877.92 15.9948C877.49 16.4382 877.275 17.0728 877.275 17.8986V24.8485H873.339V12.0496H877.275V13.6552C877.674 13.12 878.196 12.6995 878.84 12.3937C879.485 12.0725 880.214 11.912 881.027 11.912C881.994 11.912 882.853 12.1184 883.605 12.5313C884.372 12.9441 884.971 13.5329 885.4 14.2974C885.845 13.594 886.451 13.0206 887.219 12.5772C887.986 12.1337 888.822 11.912 889.727 11.912ZM896.922 18.4261C896.922 17.111 897.168 15.9565 897.659 14.9626C898.165 13.9687 898.848 13.2041 899.707 12.6689C900.567 12.1337 901.526 11.8661 902.585 11.8661C903.49 11.8661 904.28 12.0496 904.955 12.4166C905.646 12.7836 906.175 13.2653 906.543 13.8616V12.0496H910.479V24.8485H906.543V23.0365C906.16 23.6328 905.623 24.1145 904.932 24.4815C904.257 24.8485 903.467 25.032 902.562 25.032C901.518 25.032 900.567 24.7644 899.707 24.2292C898.848 23.6787 898.165 22.9065 897.659 21.9125C897.168 20.9033 896.922 19.7412 896.922 18.4261ZM906.543 18.449C906.543 17.4704 906.267 16.6982 905.715 16.1324C905.178 15.5666 904.518 15.2837 903.735 15.2837C902.953 15.2837 902.285 15.5666 901.733 16.1324C901.196 16.6829 900.927 17.4475 900.927 18.4261C900.927 19.4048 901.196 20.1846 901.733 20.7657C902.285 21.3315 902.953 21.6144 903.735 21.6144C904.518 21.6144 905.178 21.3315 905.715 20.7657C906.267 20.1999 906.543 19.4277 906.543 18.449ZM917.263 7.87506V24.8485H913.327V7.87506H917.263ZM924.051 7.87506V24.8485H920.115V7.87506H924.051ZM932.75 25.032C931.491 25.032 930.356 24.7644 929.343 24.2292C928.346 23.694 927.555 22.9294 926.972 21.9355C926.404 20.9415 926.121 19.7794 926.121 18.449C926.121 17.134 926.412 15.9795 926.995 14.9855C927.578 13.9763 928.376 13.2041 929.389 12.6689C930.402 12.1337 931.537 11.8661 932.796 11.8661C934.054 11.8661 935.189 12.1337 936.202 12.6689C937.215 13.2041 938.013 13.9763 938.596 14.9855C939.179 15.9795 939.471 17.134 939.471 18.449C939.471 19.7641 939.171 20.9262 938.573 21.9355C937.99 22.9294 937.184 23.694 936.156 24.2292C935.143 24.7644 934.008 25.032 932.75 25.032ZM932.75 21.6373C933.501 21.6373 934.138 21.3621 934.66 20.8116C935.197 20.2611 935.466 19.4736 935.466 18.449C935.466 17.4245 935.205 16.637 934.683 16.0865C934.177 15.536 933.547 15.2608 932.796 15.2608C932.028 15.2608 931.392 15.536 930.885 16.0865C930.379 16.6217 930.126 17.4092 930.126 18.449C930.126 19.4736 930.371 20.2611 930.862 20.8116C931.368 21.3621 931.998 21.6373 932.75 21.6373ZM960 12.0496L956.52 24.8485H952.169L950.144 16.5453L948.049 24.8485H943.722L940.223 12.0496H944.159L945.978 21.2015L948.141 12.0496H952.307L954.494 21.1556L956.289 12.0496H960ZM820.633 43.1523L816.421 59.2541H811.656L809.078 48.6572L806.408 59.2541H801.643L797.546 43.1523H801.759L804.083 54.8731L806.961 43.1523H811.288L814.05 54.8731L816.398 43.1523H820.633ZM830.501 46.3176C831.974 46.3176 833.156 46.8069 834.046 47.7855C834.936 48.7489 835.381 50.0793 835.381 51.7766V59.2541H831.468V52.3041C831.468 51.4478 831.246 50.7827 830.801 50.3086C830.356 49.8346 829.757 49.5976 829.005 49.5976C828.253 49.5976 827.655 49.8346 827.21 50.3086C826.765 50.7827 826.542 51.4478 826.542 52.3041V59.2541H822.606V42.2807H826.542V48.1755C826.941 47.6097 827.486 47.1586 828.177 46.8222C828.867 46.4858 829.642 46.3176 830.501 46.3176ZM840.096 45.1248C839.405 45.1248 838.837 44.9261 838.392 44.5285C837.963 44.1156 837.748 43.611 837.748 43.0146C837.748 42.403 837.963 41.8984 838.392 41.5008C838.837 41.0879 839.405 40.8815 840.096 40.8815C840.771 40.8815 841.323 41.0879 841.753 41.5008C842.198 41.8984 842.42 42.403 842.42 43.0146C842.42 43.611 842.198 44.1156 841.753 44.5285C841.323 44.9261 840.771 45.1248 840.096 45.1248ZM842.052 46.4552V59.2541H838.116V46.4552H842.052ZM852.063 55.9282V59.2541H850.06C848.633 59.2541 847.521 58.91 846.723 58.2219C845.925 57.5185 845.526 56.3793 845.526 54.8043V49.7123H843.961V46.4552H845.526V43.3358H849.462V46.4552H852.04V49.7123H849.462V54.8502C849.462 55.2324 849.554 55.5077 849.738 55.6759C849.922 55.8441 850.229 55.9282 850.659 55.9282H852.063ZM866.362 52.6482C866.362 53.0152 866.339 53.3975 866.293 53.7951H857.385C857.447 54.5902 857.7 55.2019 858.145 55.63C858.605 56.0429 859.165 56.2493 859.825 56.2493C860.807 56.2493 861.49 55.8365 861.874 55.0107H866.063C865.848 55.8517 865.457 56.6087 864.889 57.2815C864.337 57.9543 863.638 58.4819 862.794 58.8641C861.951 59.2464 861.007 59.4376 859.963 59.4376C858.705 59.4376 857.585 59.17 856.603 58.6348C855.621 58.0996 854.854 57.335 854.301 56.3411C853.749 55.3471 853.472 54.185 853.472 52.8546C853.472 51.5243 853.741 50.3621 854.278 49.3682C854.831 48.3743 855.598 47.6097 856.58 47.0745C857.562 46.5393 858.69 46.2717 859.963 46.2717C861.206 46.2717 862.311 46.5317 863.278 47.0516C864.245 47.5715 864.996 48.3131 865.534 49.2765C866.086 50.2398 866.362 51.3637 866.362 52.6482ZM862.334 51.616C862.334 50.9432 862.104 50.408 861.644 50.0104C861.183 49.6129 860.608 49.4141 859.917 49.4141C859.257 49.4141 858.697 49.6052 858.237 49.9875C857.792 50.3698 857.516 50.9126 857.408 51.616H862.334ZM807.068 75.1877L806.5 77.8331H808.526V79.3622H806.178L805.564 82.1911H803.891L804.505 79.3622H801.498L800.884 82.1911H799.211L799.825 79.3622H797.447V77.8331H800.147L800.715 75.1877H798.352V73.6586H801.037L801.636 70.8755H803.308L802.71 73.6586H805.718L806.316 70.8755H807.989L807.39 73.6586H809.431V75.1877H807.068ZM805.395 75.1877H802.388L801.82 77.8331H804.828L805.395 75.1877ZM817.78 71.5636V72.9857H813.253V76.1205H816.782V77.5426H813.253V82.1911H811.503V71.5636H817.78ZM825.677 71.5636V72.9857H821.151V76.1205H824.68V77.5426H821.151V82.1911H819.401V71.5636H825.677ZM833.574 71.5636V72.9857H829.047V76.1205H832.577V77.5426H829.047V82.1911H827.298V71.5636H833.574ZM841.471 71.5636V72.9857H836.944V76.1205H840.474V77.5426H836.944V82.1911H835.195V71.5636H841.471ZM849.369 71.5636V72.9857H844.842V76.1205H848.371V77.5426H844.842V82.1911H843.093V71.5636H849.369ZM857.266 71.5636V72.9857H852.739V76.1205H856.268V77.5426H852.739V82.1911H850.99V71.5636H857.266Z" fill="#03154C"/>
</svg>
