<svg width="950" height="201" viewBox="0 0 950 201" fill="none" xmlns="http://www.w3.org/2000/svg">
<path d="M0 0H142.75V142.696H0V0Z" fill="#60369E"/>
<path d="M1.39324 167.43V151.448H8.26809C9.33396 151.448 10.3085 151.692 11.1916 152.179C12.09 152.666 12.8056 153.343 13.3386 154.211C13.8715 155.063 14.138 156.053 14.138 157.179C14.138 158.305 13.8715 159.31 13.3386 160.193C12.8056 161.06 12.0976 161.738 11.2145 162.225C10.3313 162.712 9.34919 162.955 8.26809 162.955H5.23037V167.43H1.39324ZM5.23037 159.736H7.83413C8.29093 159.736 8.70205 159.637 9.06749 159.439C9.43293 159.241 9.72985 158.952 9.95825 158.572C10.1867 158.191 10.3009 157.735 10.3009 157.202C10.3009 156.669 10.1867 156.212 9.95825 155.832C9.72985 155.451 9.42532 155.162 9.04465 154.964C8.67921 154.751 8.27571 154.645 7.83413 154.645H5.23037V159.736Z" fill="#101720"/>
<path d="M20.2825 167.704C19.2471 167.704 18.3335 167.438 17.5417 166.905C16.7499 166.372 16.1332 165.657 15.6916 164.759C15.2501 163.846 15.0293 162.818 15.0293 161.677C15.0293 160.49 15.2881 159.432 15.8058 158.503C16.3235 157.559 17.0544 156.814 17.9985 156.266C18.9578 155.718 20.0845 155.444 21.3788 155.444C22.6883 155.444 23.7999 155.718 24.7135 156.266C25.6423 156.798 26.3503 157.537 26.8376 158.48C27.3401 159.409 27.5913 160.451 27.5913 161.608V167.43H24.1196V165.558H24.0283C23.8151 165.969 23.541 166.342 23.206 166.677C22.871 166.996 22.4599 167.248 21.9726 167.43C21.5006 167.613 20.9372 167.704 20.2825 167.704ZM21.3331 164.645C21.8661 164.645 22.3305 164.515 22.7264 164.257C23.1375 163.983 23.4496 163.61 23.6628 163.138C23.876 162.666 23.9826 162.141 23.9826 161.563C23.9826 160.999 23.876 160.49 23.6628 160.033C23.4496 159.576 23.1375 159.219 22.7264 158.96C22.3305 158.686 21.8661 158.549 21.3331 158.549C20.785 158.549 20.3053 158.686 19.8942 158.96C19.4831 159.219 19.1709 159.576 18.9578 160.033C18.7446 160.49 18.638 160.999 18.638 161.563C18.638 162.141 18.7446 162.666 18.9578 163.138C19.1709 163.61 19.4831 163.983 19.8942 164.257C20.3053 164.515 20.785 164.645 21.3331 164.645Z" fill="#101720"/>
<path d="M30.2093 167.43V160.695C30.2093 159.721 30.4453 158.838 30.9174 158.047C31.3894 157.255 32.0594 156.623 32.9273 156.152C33.8104 155.68 34.8535 155.444 36.0564 155.444C37.2745 155.444 38.3099 155.68 39.1626 156.152C40.0305 156.623 40.6929 157.255 41.1497 158.047C41.6065 158.838 41.8349 159.721 41.8349 160.695V167.43H38.2947V160.786C38.2947 160.375 38.1957 160.002 37.9978 159.668C37.7998 159.317 37.5258 159.044 37.1755 158.846C36.8406 158.633 36.4599 158.526 36.0335 158.526C35.592 158.526 35.1961 158.633 34.8459 158.846C34.5109 159.044 34.2444 159.317 34.0465 159.668C33.8485 160.002 33.7495 160.375 33.7495 160.786V167.43H30.2093Z" fill="#101720"/>
<path d="M48.7783 167.43C47.6972 167.43 46.8521 167.126 46.243 166.517C45.634 165.893 45.3294 165.056 45.3294 164.006V152.864H48.8925V163.8C48.8925 163.983 48.9534 164.143 49.0752 164.28C49.2122 164.401 49.3721 164.462 49.5548 164.462H52.1129V167.43H48.7783ZM43.4109 158.617V155.718H52.1129V158.617H43.4109Z" fill="#101720"/>
<path d="M59.676 167.704C58.4731 167.704 57.392 167.438 56.4327 166.905C55.4734 166.372 54.7121 165.642 54.1487 164.713C53.6006 163.785 53.3265 162.742 53.3265 161.585C53.3265 160.413 53.6006 159.371 54.1487 158.457C54.7121 157.529 55.4734 156.798 56.4327 156.266C57.392 155.718 58.4731 155.444 59.676 155.444C60.8789 155.444 61.9524 155.718 62.8965 156.266C63.8557 156.798 64.6095 157.529 65.1576 158.457C65.721 159.371 66.0027 160.413 66.0027 161.585C66.0027 162.742 65.721 163.785 65.1576 164.713C64.6095 165.642 63.8557 166.372 62.8965 166.905C61.9372 167.438 60.8637 167.704 59.676 167.704ZM59.676 164.622C60.2394 164.622 60.7267 164.485 61.1378 164.211C61.5489 163.937 61.8686 163.572 62.097 163.115C62.3255 162.658 62.4397 162.141 62.4397 161.563C62.4397 160.999 62.3255 160.49 62.097 160.033C61.8686 159.576 61.5489 159.211 61.1378 158.937C60.7267 158.663 60.2394 158.526 59.676 158.526C59.1126 158.526 58.6178 158.663 58.1914 158.937C57.7803 159.211 57.4605 159.576 57.2321 160.033C57.0037 160.49 56.8895 160.999 56.8895 161.563C56.8895 162.141 57.0037 162.658 57.2321 163.115C57.4605 163.572 57.7803 163.937 58.1914 164.211C58.6178 164.485 59.1126 164.622 59.676 164.622Z" fill="#101720"/>
<path d="M68.105 167.43V160.695C68.105 159.721 68.3411 158.838 68.8131 158.047C69.2851 157.255 69.9551 156.623 70.823 156.152C71.7062 155.68 72.7492 155.444 73.9521 155.444C75.1702 155.444 76.2057 155.68 77.0583 156.152C77.9263 156.623 78.5886 157.255 79.0454 158.047C79.5022 158.838 79.7306 159.721 79.7306 160.695V167.43H76.1904V160.786C76.1904 160.375 76.0915 160.002 75.8935 159.668C75.6956 159.317 75.4215 159.044 75.0713 158.846C74.7363 158.633 74.3556 158.526 73.9293 158.526C73.4877 158.526 73.0918 158.633 72.7416 158.846C72.4066 159.044 72.1401 159.317 71.9422 159.668C71.7442 160.002 71.6453 160.375 71.6453 160.786V167.43H68.105Z" fill="#101720"/>
<path d="M88.5012 167.43C87.1765 167.43 86.0116 167.187 85.0067 166.7C84.0017 166.197 83.2175 165.512 82.6542 164.645C82.106 163.762 81.8319 162.742 81.8319 161.585C81.8319 160.307 82.0984 159.211 82.6313 158.298C83.1642 157.384 83.8723 156.684 84.7554 156.197C85.6538 155.695 86.6435 155.444 87.7246 155.444C88.958 155.444 89.9858 155.703 90.808 156.22C91.6455 156.738 92.2774 157.445 92.7038 158.343C93.1301 159.226 93.3433 160.238 93.3433 161.38C93.3433 161.578 93.3281 161.814 93.2976 162.088C93.2824 162.346 93.2595 162.552 93.2291 162.704H85.5548C85.6462 163.1 85.8213 163.435 86.0802 163.709C86.339 163.983 86.6664 164.188 87.0623 164.325C87.4582 164.447 87.8997 164.508 88.387 164.508H91.9729V167.43H88.5012ZM85.4635 160.489H89.9173C89.8868 160.246 89.8411 160.01 89.7802 159.782C89.7193 159.553 89.6204 159.356 89.4833 159.188C89.3615 159.005 89.2169 158.853 89.0494 158.731C88.8819 158.594 88.6839 158.488 88.4555 158.412C88.2423 158.336 87.9987 158.298 87.7246 158.298C87.3744 158.298 87.0623 158.359 86.7882 158.48C86.5141 158.602 86.2857 158.77 86.103 158.983C85.9203 159.18 85.7756 159.416 85.669 159.69C85.5777 159.949 85.5092 160.216 85.4635 160.489Z" fill="#101720"/>
<path d="M104.283 167.43C103.628 167.43 103.049 167.293 102.547 167.019C102.044 166.73 101.656 166.35 101.382 165.878C101.108 165.391 100.971 164.858 100.971 164.28C100.971 163.762 101.1 163.26 101.359 162.773C101.633 162.286 101.991 161.882 102.433 161.563L107.229 158.138C107.534 157.925 107.762 157.674 107.914 157.384C108.082 157.08 108.166 156.768 108.166 156.448C108.166 156.083 108.082 155.779 107.914 155.535C107.762 155.276 107.541 155.078 107.252 154.941C106.978 154.789 106.643 154.713 106.247 154.713H101.748V151.448H106.612C107.663 151.448 108.577 151.677 109.353 152.133C110.145 152.575 110.754 153.176 111.18 153.937C111.622 154.683 111.843 155.52 111.843 156.448C111.843 157.362 111.652 158.176 111.272 158.891C110.906 159.591 110.305 160.216 109.467 160.763L105.174 163.64C105.143 163.655 105.105 163.694 105.059 163.754C105.029 163.8 105.014 163.853 105.014 163.914C105.014 164.006 105.036 164.074 105.082 164.12C105.143 164.15 105.227 164.165 105.333 164.165H112.231V167.43H104.283Z" fill="#101720"/>
<path d="M120.279 167.704C118.985 167.704 117.866 167.461 116.922 166.974C115.993 166.471 115.277 165.809 114.775 164.987C114.287 164.15 114.044 163.222 114.044 162.202C114.044 161.182 114.234 160.208 114.615 159.279C114.995 158.351 115.498 157.422 116.122 156.494L119.502 151.448H123.842L120.233 156.905C120.416 156.875 120.599 156.859 120.781 156.859C120.979 156.844 121.177 156.844 121.375 156.859C122.396 156.92 123.294 157.194 124.07 157.681C124.847 158.153 125.448 158.785 125.875 159.576C126.316 160.353 126.537 161.228 126.537 162.202C126.537 163.206 126.286 164.127 125.783 164.964C125.281 165.802 124.565 166.471 123.636 166.974C122.708 167.461 121.589 167.704 120.279 167.704ZM120.279 164.439C120.842 164.439 121.314 164.34 121.695 164.143C122.076 163.929 122.357 163.648 122.54 163.298C122.738 162.948 122.837 162.567 122.837 162.156C122.837 161.745 122.738 161.372 122.54 161.037C122.357 160.687 122.076 160.406 121.695 160.193C121.314 159.98 120.842 159.873 120.279 159.873C119.731 159.873 119.266 159.98 118.886 160.193C118.505 160.406 118.216 160.687 118.018 161.037C117.835 161.372 117.744 161.745 117.744 162.156C117.744 162.567 117.835 162.948 118.018 163.298C118.216 163.648 118.505 163.929 118.886 164.143C119.266 164.34 119.731 164.439 120.279 164.439Z" fill="#101720"/>
<path d="M128.682 167.43L135.191 155.352C135.268 155.215 135.306 155.101 135.306 155.01C135.306 154.934 135.275 154.865 135.214 154.804C135.153 154.744 135.07 154.713 134.963 154.713H128.042V151.448H135.785C136.41 151.448 136.973 151.593 137.475 151.882C137.978 152.171 138.381 152.552 138.686 153.024C138.99 153.495 139.143 154.021 139.143 154.599C139.143 154.919 139.105 155.238 139.029 155.558C138.952 155.862 138.846 156.144 138.709 156.403L132.862 167.43H128.682Z" fill="#101720"/>
<path d="M155.009 167.43C153.7 167.43 152.52 167.232 151.469 166.837C150.419 166.426 149.528 165.855 148.797 165.124C148.066 164.394 147.503 163.549 147.107 162.59C146.711 161.616 146.513 160.566 146.513 159.439C146.513 158.313 146.711 157.27 147.107 156.311C147.503 155.337 148.066 154.485 148.797 153.754C149.543 153.024 150.434 152.46 151.469 152.065C152.52 151.654 153.7 151.448 155.009 151.448H157.476V154.645H155.101C154.385 154.645 153.73 154.766 153.137 155.01C152.558 155.253 152.055 155.596 151.629 156.037C151.218 156.464 150.898 156.966 150.67 157.544C150.457 158.123 150.35 158.754 150.35 159.439C150.35 160.124 150.457 160.756 150.67 161.334C150.898 161.913 151.218 162.423 151.629 162.864C152.055 163.29 152.558 163.625 153.137 163.869C153.73 164.112 154.385 164.234 155.101 164.234H157.476V167.43H155.009Z" fill="#101720"/>
<path d="M2.94636 200.726L3.38032 197.119H0.456801V194.516H3.67725L4.13405 190.931H1.23336V188.329H4.43097L4.86493 184.744H7.60573L7.17177 188.329H10.3694L10.8033 184.744H13.5441L13.1102 188.329H16.0565V190.931H12.8133L12.3793 194.516H15.28V197.119H12.0824L11.6484 200.726H8.88477L9.31873 197.119H6.12113L5.68717 200.726H2.94636ZM6.41805 194.516H9.61565L10.0725 190.931H6.87485L6.41805 194.516Z" fill="#101720"/>
<path d="M23.6773 201C22.383 201 21.2638 200.756 20.3198 200.269C19.3909 199.767 18.6753 199.105 18.1728 198.283C17.6856 197.446 17.4419 196.517 17.4419 195.498C17.4419 194.478 17.6323 193.504 18.0129 192.575C18.3936 191.647 18.8961 190.718 19.5204 189.79L22.9007 184.744H27.2403L23.6316 190.201C23.8143 190.17 23.997 190.155 24.1797 190.155C24.3777 190.14 24.5756 190.14 24.7736 190.155C25.7938 190.216 26.6921 190.49 27.4687 190.977C28.2453 191.449 28.8467 192.081 29.2731 192.872C29.7146 193.648 29.9354 194.523 29.9354 195.498C29.9354 196.502 29.6842 197.423 29.1817 198.26C28.6792 199.097 27.9636 199.767 27.0347 200.269C26.1059 200.756 24.9868 201 23.6773 201ZM23.6773 197.735C24.2406 197.735 24.7127 197.636 25.0933 197.438C25.474 197.225 25.7557 196.944 25.9384 196.594C26.1364 196.243 26.2353 195.863 26.2353 195.452C26.2353 195.041 26.1364 194.668 25.9384 194.333C25.7557 193.983 25.474 193.702 25.0933 193.488C24.7127 193.275 24.2406 193.169 23.6773 193.169C23.1291 193.169 22.6647 193.275 22.284 193.488C21.9034 193.702 21.614 193.983 21.4161 194.333C21.2334 194.668 21.142 195.041 21.142 195.452C21.142 195.863 21.2334 196.243 21.4161 196.594C21.614 196.944 21.9034 197.225 22.284 197.438C22.6647 197.636 23.1291 197.735 23.6773 197.735Z" fill="#101720"/>
<path d="M38.3613 201C37.1431 201 36.062 200.749 35.118 200.247C34.1739 199.729 33.4354 199.037 32.9025 198.169C32.3696 197.286 32.1031 196.297 32.1031 195.201V190.246C32.1031 189.151 32.3696 188.169 32.9025 187.301C33.4354 186.418 34.1739 185.726 35.118 185.224C36.062 184.721 37.1431 184.47 38.3613 184.47C39.5489 184.47 40.6072 184.721 41.536 185.224C42.4801 185.726 43.2186 186.418 43.7515 187.301C44.2844 188.169 44.5509 189.151 44.5509 190.246V195.201C44.5509 196.297 44.2768 197.286 43.7287 198.169C43.1957 199.037 42.4572 199.729 41.5132 200.247C40.5844 200.749 39.5337 201 38.3613 201ZM38.3613 197.712C38.8181 197.712 39.2292 197.613 39.5946 197.415C39.9753 197.202 40.2798 196.913 40.5082 196.548C40.7366 196.183 40.8508 195.772 40.8508 195.315V190.132C40.8508 189.676 40.7366 189.272 40.5082 188.922C40.2798 188.557 39.9753 188.268 39.5946 188.055C39.2292 187.842 38.8181 187.735 38.3613 187.735C37.8892 187.735 37.4553 187.842 37.0594 188.055C36.6787 188.252 36.3742 188.534 36.1458 188.899C35.9174 189.265 35.8032 189.676 35.8032 190.132V195.315C35.8032 195.772 35.9174 196.183 36.1458 196.548C36.3742 196.913 36.6787 197.202 37.0594 197.415C37.4553 197.613 37.8892 197.712 38.3613 197.712Z" fill="#101720"/>
<path d="M46.8194 200.726V197.461H52.301C52.6208 197.461 52.9101 197.393 53.1689 197.256C53.4278 197.119 53.6257 196.928 53.7628 196.685C53.915 196.441 53.9912 196.16 53.9912 195.84C53.9912 195.536 53.915 195.262 53.7628 195.018C53.6257 194.759 53.4278 194.562 53.1689 194.425C52.9101 194.272 52.6208 194.196 52.301 194.196H47.596V191.068H52.4152C52.7197 191.068 52.9862 191 53.2146 190.863C53.443 190.726 53.6257 190.543 53.7628 190.315C53.915 190.087 53.9912 189.828 53.9912 189.539C53.9912 189.249 53.915 188.991 53.7628 188.762C53.6257 188.534 53.443 188.351 53.2146 188.214C52.9862 188.077 52.7197 188.009 52.4152 188.009H46.8194V184.744H53.009C53.9074 184.744 54.7068 184.95 55.4072 185.36C56.1229 185.771 56.6863 186.319 57.0974 187.004C57.5238 187.689 57.7369 188.45 57.7369 189.287C57.7369 189.912 57.5923 190.513 57.303 191.091C57.0289 191.67 56.6406 192.172 56.1381 192.598C56.4883 192.872 56.7853 193.192 57.0289 193.557C57.2725 193.907 57.4552 194.288 57.577 194.699C57.7141 195.094 57.7826 195.513 57.7826 195.954C57.7826 196.852 57.5618 197.667 57.1202 198.397C56.6939 199.113 56.1153 199.683 55.3844 200.11C54.6535 200.521 53.8313 200.726 52.9177 200.726H46.8194Z" fill="#101720"/>
<path d="M66.0339 201C64.7397 201 63.6205 200.756 62.6764 200.269C61.7476 199.767 61.032 199.105 60.5295 198.283C60.0422 197.446 59.7986 196.517 59.7986 195.498C59.7986 194.478 59.9889 193.504 60.3696 192.575C60.7503 191.647 61.2527 190.718 61.877 189.79L65.2574 184.744H69.597L65.9882 190.201C66.171 190.17 66.3537 190.155 66.5364 190.155C66.7344 190.14 66.9323 190.14 67.1302 190.155C68.1504 190.216 69.0488 190.49 69.8254 190.977C70.6019 191.449 71.2034 192.081 71.6297 192.872C72.0713 193.648 72.2921 194.523 72.2921 195.498C72.2921 196.502 72.0409 197.423 71.5384 198.26C71.0359 199.097 70.3202 199.767 69.3914 200.269C68.4626 200.756 67.3434 201 66.0339 201ZM66.0339 197.735C66.5973 197.735 67.0693 197.636 67.45 197.438C67.8307 197.225 68.1124 196.944 68.2951 196.594C68.493 196.243 68.592 195.863 68.592 195.452C68.592 195.041 68.493 194.668 68.2951 194.333C68.1124 193.983 67.8307 193.702 67.45 193.488C67.0693 193.275 66.5973 193.169 66.0339 193.169C65.4858 193.169 65.0213 193.275 64.6407 193.488C64.26 193.702 63.9707 193.983 63.7728 194.333C63.59 194.668 63.4987 195.041 63.4987 195.452C63.4987 195.863 63.59 196.243 63.7728 196.594C63.9707 196.944 64.26 197.225 64.6407 197.438C65.0213 197.636 65.4858 197.735 66.0339 197.735Z" fill="#101720"/>
<path d="M76.858 200.726L80.4667 195.269C80.2687 195.3 80.0784 195.323 79.8957 195.338C79.713 195.338 79.5226 195.33 79.3247 195.315C78.2893 195.254 77.3833 194.988 76.6067 194.516C75.8302 194.029 75.2287 193.397 74.8024 192.621C74.376 191.829 74.1628 190.947 74.1628 189.972C74.1628 188.953 74.4065 188.032 74.8937 187.21C75.3962 186.373 76.1119 185.711 77.0407 185.224C77.9847 184.721 79.1039 184.47 80.3982 184.47C81.7077 184.47 82.8268 184.714 83.7557 185.201C84.6845 185.688 85.4001 186.35 85.9026 187.187C86.4051 188.024 86.6563 188.953 86.6563 189.972C86.6563 190.642 86.565 191.297 86.3822 191.936C86.2148 192.575 85.9711 193.207 85.6514 193.831C85.3468 194.44 84.989 195.056 84.5779 195.68L81.1976 200.726H76.858ZM80.3982 192.278C80.9616 192.278 81.4336 192.179 81.8142 191.982C82.1949 191.769 82.4766 191.487 82.6593 191.137C82.8573 190.787 82.9562 190.414 82.9562 190.018C82.9562 189.592 82.8573 189.211 82.6593 188.877C82.4766 188.526 82.1949 188.252 81.8142 188.055C81.4336 187.842 80.9616 187.735 80.3982 187.735C79.85 187.735 79.3856 187.842 79.0049 188.055C78.6243 188.252 78.3349 188.526 78.137 188.877C77.9543 189.211 77.8629 189.592 77.8629 190.018C77.8629 190.414 77.9543 190.787 78.137 191.137C78.3349 191.487 78.6243 191.769 79.0049 191.982C79.3856 192.179 79.85 192.278 80.3982 192.278Z" fill="#101720"/>
<path d="M93.255 200.726C92.3566 200.726 91.542 200.521 90.8111 200.11C90.0802 199.683 89.494 199.12 89.0524 198.42C88.6261 197.705 88.4129 196.898 88.4129 196C88.4129 195.33 88.5575 194.706 88.8468 194.128C89.1514 193.534 89.5549 193.024 90.0574 192.598C89.5701 192.187 89.1818 191.7 88.8925 191.137C88.6184 190.574 88.4814 189.98 88.4814 189.356C88.4814 188.473 88.6946 187.689 89.1209 187.004C89.5473 186.304 90.1183 185.756 90.8339 185.36C91.5496 184.95 92.3414 184.744 93.2093 184.744H99.9471V187.94H93.8031C93.5138 187.94 93.2474 188.009 93.0037 188.146C92.7601 188.283 92.5621 188.466 92.4099 188.694C92.2728 188.922 92.2043 189.189 92.2043 189.493C92.2043 189.782 92.2728 190.049 92.4099 190.292C92.5621 190.52 92.7601 190.703 93.0037 190.84C93.2474 190.962 93.5138 191.023 93.8031 191.023H99.1705V194.219H93.9173C93.5976 194.219 93.3083 194.295 93.0494 194.447C92.7906 194.6 92.585 194.797 92.4327 195.041C92.2804 195.285 92.2043 195.566 92.2043 195.886C92.2043 196.19 92.2804 196.472 92.4327 196.731C92.585 196.974 92.7906 197.164 93.0494 197.301C93.3083 197.438 93.5976 197.507 93.9173 197.507H99.9471V200.726H93.255Z" fill="#101720"/>
<path d="M259.805 0H402.556V142.696H259.805V0Z" fill="#773DBD"/>
<path d="M261.199 167.43V151.448H268.073C269.139 151.448 270.114 151.692 270.997 152.179C271.895 152.666 272.611 153.343 273.144 154.211C273.677 155.063 273.943 156.053 273.943 157.179C273.943 158.305 273.677 159.31 273.144 160.193C272.611 161.06 271.903 161.738 271.02 162.225C270.137 162.712 269.155 162.955 268.073 162.955H265.036V167.43H261.199ZM265.036 159.736H267.639C268.096 159.736 268.507 159.637 268.873 159.439C269.238 159.241 269.535 158.952 269.764 158.572C269.992 158.191 270.106 157.735 270.106 157.202C270.106 156.669 269.992 156.212 269.764 155.832C269.535 155.451 269.231 155.162 268.85 154.964C268.485 154.751 268.081 154.645 267.639 154.645H265.036V159.736Z" fill="#101720"/>
<path d="M280.088 167.704C279.052 167.704 278.139 167.438 277.347 166.905C276.555 166.372 275.939 165.657 275.497 164.759C275.055 163.846 274.835 162.818 274.835 161.677C274.835 160.49 275.094 159.432 275.611 158.503C276.129 157.559 276.86 156.814 277.804 156.266C278.763 155.718 279.89 155.444 281.184 155.444C282.494 155.444 283.605 155.718 284.519 156.266C285.448 156.798 286.156 157.537 286.643 158.48C287.145 159.409 287.397 160.451 287.397 161.608V167.43H283.925V165.558H283.834C283.62 165.969 283.346 166.342 283.011 166.677C282.676 166.996 282.265 167.248 281.778 167.43C281.306 167.613 280.743 167.704 280.088 167.704ZM281.138 164.645C281.671 164.645 282.136 164.515 282.532 164.257C282.943 163.983 283.255 163.61 283.468 163.138C283.681 162.666 283.788 162.141 283.788 161.563C283.788 160.999 283.681 160.49 283.468 160.033C283.255 159.576 282.943 159.219 282.532 158.96C282.136 158.686 281.671 158.549 281.138 158.549C280.59 158.549 280.111 158.686 279.7 158.96C279.288 159.219 278.976 159.576 278.763 160.033C278.55 160.49 278.443 160.999 278.443 161.563C278.443 162.141 278.55 162.666 278.763 163.138C278.976 163.61 279.288 163.983 279.7 164.257C280.111 164.515 280.59 164.645 281.138 164.645Z" fill="#101720"/>
<path d="M290.015 167.43V160.695C290.015 159.721 290.251 158.838 290.723 158.047C291.195 157.255 291.865 156.623 292.733 156.152C293.616 155.68 294.659 155.444 295.862 155.444C297.08 155.444 298.115 155.68 298.968 156.152C299.836 156.623 300.498 157.255 300.955 158.047C301.412 158.838 301.64 159.721 301.64 160.695V167.43H298.1V160.786C298.1 160.375 298.001 160.002 297.803 159.668C297.605 159.317 297.331 159.044 296.981 158.846C296.646 158.633 296.265 158.526 295.839 158.526C295.397 158.526 295.001 158.633 294.651 158.846C294.316 159.044 294.05 159.317 293.852 159.668C293.654 160.002 293.555 160.375 293.555 160.786V167.43H290.015Z" fill="#101720"/>
<path d="M308.584 167.43C307.503 167.43 306.657 167.126 306.048 166.517C305.439 165.893 305.135 165.056 305.135 164.006V152.864H308.698V163.8C308.698 163.983 308.759 164.143 308.881 164.28C309.018 164.401 309.177 164.462 309.36 164.462H311.918V167.43H308.584ZM303.216 158.617V155.718H311.918V158.617H303.216Z" fill="#101720"/>
<path d="M319.481 167.704C318.278 167.704 317.197 167.438 316.238 166.905C315.279 166.372 314.517 165.642 313.954 164.713C313.406 163.785 313.132 162.742 313.132 161.585C313.132 160.413 313.406 159.371 313.954 158.457C314.517 157.529 315.279 156.798 316.238 156.266C317.197 155.718 318.278 155.444 319.481 155.444C320.684 155.444 321.758 155.718 322.702 156.266C323.661 156.798 324.415 157.529 324.963 158.457C325.526 159.371 325.808 160.413 325.808 161.585C325.808 162.742 325.526 163.785 324.963 164.713C324.415 165.642 323.661 166.372 322.702 166.905C321.743 167.438 320.669 167.704 319.481 167.704ZM319.481 164.622C320.045 164.622 320.532 164.485 320.943 164.211C321.354 163.937 321.674 163.572 321.902 163.115C322.131 162.658 322.245 162.141 322.245 161.563C322.245 160.999 322.131 160.49 321.902 160.033C321.674 159.576 321.354 159.211 320.943 158.937C320.532 158.663 320.045 158.526 319.481 158.526C318.918 158.526 318.423 158.663 317.997 158.937C317.586 159.211 317.266 159.576 317.038 160.033C316.809 160.49 316.695 160.999 316.695 161.563C316.695 162.141 316.809 162.658 317.038 163.115C317.266 163.572 317.586 163.937 317.997 164.211C318.423 164.485 318.918 164.622 319.481 164.622Z" fill="#101720"/>
<path d="M327.91 167.43V160.695C327.91 159.721 328.146 158.838 328.618 158.047C329.09 157.255 329.76 156.623 330.628 156.152C331.512 155.68 332.555 155.444 333.757 155.444C334.976 155.444 336.011 155.68 336.864 156.152C337.732 156.623 338.394 157.255 338.851 158.047C339.308 158.838 339.536 159.721 339.536 160.695V167.43H335.996V160.786C335.996 160.375 335.897 160.002 335.699 159.668C335.501 159.317 335.227 159.044 334.877 158.846C334.542 158.633 334.161 158.526 333.735 158.526C333.293 158.526 332.897 158.633 332.547 158.846C332.212 159.044 331.945 159.317 331.748 159.668C331.55 160.002 331.451 160.375 331.451 160.786V167.43H327.91Z" fill="#101720"/>
<path d="M348.307 167.43C346.982 167.43 345.817 167.187 344.812 166.7C343.807 166.197 343.023 165.512 342.46 164.645C341.911 163.762 341.637 162.742 341.637 161.585C341.637 160.307 341.904 159.211 342.437 158.298C342.97 157.384 343.678 156.684 344.561 156.197C345.459 155.695 346.449 155.444 347.53 155.444C348.763 155.444 349.791 155.703 350.613 156.22C351.451 156.738 352.083 157.445 352.509 158.343C352.935 159.226 353.149 160.238 353.149 161.38C353.149 161.578 353.133 161.814 353.103 162.088C353.088 162.346 353.065 162.552 353.034 162.704H345.36C345.452 163.1 345.627 163.435 345.886 163.709C346.144 163.983 346.472 164.188 346.868 164.325C347.264 164.447 347.705 164.508 348.192 164.508H351.778V167.43H348.307ZM345.269 160.489H349.723C349.692 160.246 349.647 160.01 349.586 159.782C349.525 159.553 349.426 159.356 349.289 159.188C349.167 159.005 349.022 158.853 348.855 158.731C348.687 158.594 348.489 158.488 348.261 158.412C348.048 158.336 347.804 158.298 347.53 158.298C347.18 158.298 346.868 158.359 346.594 158.48C346.319 158.602 346.091 158.77 345.908 158.983C345.726 159.18 345.581 159.416 345.474 159.69C345.383 159.949 345.315 160.216 345.269 160.489Z" fill="#101720"/>
<path d="M364.088 167.43C363.433 167.43 362.855 167.293 362.352 167.019C361.85 166.73 361.462 166.35 361.187 165.878C360.913 165.391 360.776 164.858 360.776 164.28C360.776 163.762 360.906 163.26 361.165 162.773C361.439 162.286 361.797 161.882 362.238 161.563L367.034 158.138C367.339 157.925 367.567 157.674 367.72 157.384C367.887 157.08 367.971 156.768 367.971 156.448C367.971 156.083 367.887 155.779 367.72 155.535C367.567 155.276 367.347 155.078 367.057 154.941C366.783 154.789 366.448 154.713 366.052 154.713H361.553V151.448H366.418C367.468 151.448 368.382 151.677 369.159 152.133C369.95 152.575 370.559 153.176 370.986 153.937C371.427 154.683 371.648 155.52 371.648 156.448C371.648 157.362 371.458 158.176 371.077 158.891C370.712 159.591 370.11 160.216 369.273 160.763L364.979 163.64C364.948 163.655 364.91 163.694 364.865 163.754C364.834 163.8 364.819 163.853 364.819 163.914C364.819 164.006 364.842 164.074 364.888 164.12C364.948 164.15 365.032 164.165 365.139 164.165H372.036V167.43H364.088Z" fill="#101720"/>
<path d="M380.084 167.704C378.79 167.704 377.671 167.461 376.727 166.974C375.798 166.471 375.082 165.809 374.58 164.987C374.093 164.15 373.849 163.222 373.849 162.202C373.849 161.182 374.039 160.208 374.42 159.279C374.801 158.351 375.303 157.422 375.927 156.494L379.308 151.448H383.647L380.039 156.905C380.221 156.875 380.404 156.859 380.587 156.859C380.785 156.844 380.983 156.844 381.181 156.859C382.201 156.92 383.099 157.194 383.876 157.681C384.652 158.153 385.254 158.785 385.68 159.576C386.122 160.353 386.343 161.228 386.343 162.202C386.343 163.206 386.091 164.127 385.589 164.964C385.086 165.802 384.371 166.471 383.442 166.974C382.513 167.461 381.394 167.704 380.084 167.704ZM380.084 164.439C380.648 164.439 381.12 164.34 381.5 164.143C381.881 163.929 382.163 163.648 382.346 163.298C382.543 162.948 382.642 162.567 382.642 162.156C382.642 161.745 382.543 161.372 382.346 161.037C382.163 160.687 381.881 160.406 381.5 160.193C381.12 159.98 380.648 159.873 380.084 159.873C379.536 159.873 379.072 159.98 378.691 160.193C378.31 160.406 378.021 160.687 377.823 161.037C377.641 161.372 377.549 161.745 377.549 162.156C377.549 162.567 377.641 162.948 377.823 163.298C378.021 163.648 378.31 163.929 378.691 164.143C379.072 164.34 379.536 164.439 380.084 164.439Z" fill="#101720"/>
<path d="M394.449 167.704C393.154 167.704 392.035 167.461 391.091 166.974C390.162 166.471 389.447 165.809 388.944 164.987C388.457 164.15 388.213 163.222 388.213 162.202C388.213 161.182 388.404 160.208 388.784 159.279C389.165 158.351 389.667 157.422 390.292 156.494L393.672 151.448H398.012L394.403 156.905C394.586 156.875 394.768 156.859 394.951 156.859C395.149 156.844 395.347 156.844 395.545 156.859C396.565 156.92 397.464 157.194 398.24 157.681C399.017 158.153 399.618 158.785 400.044 159.576C400.486 160.353 400.707 161.228 400.707 162.202C400.707 163.206 400.456 164.127 399.953 164.964C399.451 165.802 398.735 166.471 397.806 166.974C396.877 167.461 395.758 167.704 394.449 167.704ZM394.449 164.439C395.012 164.439 395.484 164.34 395.865 164.143C396.245 163.929 396.527 163.648 396.71 163.298C396.908 162.948 397.007 162.567 397.007 162.156C397.007 161.745 396.908 161.372 396.71 161.037C396.527 160.687 396.245 160.406 395.865 160.193C395.484 159.98 395.012 159.873 394.449 159.873C393.9 159.873 393.436 159.98 393.055 160.193C392.675 160.406 392.385 160.687 392.187 161.037C392.005 161.372 391.913 161.745 391.913 162.156C391.913 162.567 392.005 162.948 392.187 163.298C392.385 163.648 392.675 163.929 393.055 164.143C393.436 164.34 393.9 164.439 394.449 164.439Z" fill="#101720"/>
<path d="M416.845 167.43C415.535 167.43 414.355 167.232 413.304 166.837C412.254 166.426 411.363 165.855 410.632 165.124C409.901 164.394 409.338 163.549 408.942 162.59C408.546 161.616 408.348 160.566 408.348 159.439C408.348 158.313 408.546 157.27 408.942 156.311C409.338 155.337 409.901 154.485 410.632 153.754C411.378 153.024 412.269 152.46 413.304 152.065C414.355 151.654 415.535 151.448 416.845 151.448H419.311V154.645H416.936C416.22 154.645 415.565 154.766 414.972 155.01C414.393 155.253 413.891 155.596 413.464 156.037C413.053 156.464 412.733 156.966 412.505 157.544C412.292 158.123 412.185 158.754 412.185 159.439C412.185 160.124 412.292 160.756 412.505 161.334C412.733 161.913 413.053 162.423 413.464 162.864C413.891 163.29 414.393 163.625 414.972 163.869C415.565 164.112 416.22 164.234 416.936 164.234H419.311V167.43H416.845Z" fill="#101720"/>
<path d="M262.752 200.726L263.186 197.119H260.262V194.516H263.483L263.939 190.931H261.039V188.329H264.236L264.67 184.744H267.411L266.977 188.329H270.175L270.609 184.744H273.35L272.916 188.329H275.862V190.931H272.619L272.185 194.516H275.085V197.119H271.888L271.454 200.726H268.69L269.124 197.119H265.927L265.493 200.726H262.752ZM266.223 194.516H269.421L269.878 190.931H266.68L266.223 194.516Z" fill="#101720"/>
<path d="M277.521 200.726L284.031 188.648C284.107 188.511 284.145 188.397 284.145 188.306C284.145 188.23 284.115 188.161 284.054 188.1C283.993 188.039 283.909 188.009 283.802 188.009H276.882V184.744H284.625C285.249 184.744 285.812 184.889 286.315 185.178C286.817 185.467 287.221 185.848 287.525 186.319C287.83 186.791 287.982 187.316 287.982 187.895C287.982 188.214 287.944 188.534 287.868 188.854C287.792 189.158 287.685 189.44 287.548 189.698L281.701 200.726H277.521Z" fill="#101720"/>
<path d="M289.856 200.726L296.365 188.648C296.441 188.511 296.479 188.397 296.479 188.306C296.479 188.23 296.449 188.161 296.388 188.1C296.327 188.039 296.243 188.009 296.137 188.009H289.216V184.744H296.959C297.583 184.744 298.147 184.889 298.649 185.178C299.152 185.467 299.555 185.848 299.86 186.319C300.164 186.791 300.317 187.316 300.317 187.895C300.317 188.214 300.279 188.534 300.202 188.854C300.126 189.158 300.02 189.44 299.883 189.698L294.036 200.726H289.856Z" fill="#101720"/>
<path d="M302.008 200.726V197.461H307.489C307.809 197.461 308.098 197.393 308.357 197.256C308.616 197.119 308.814 196.928 308.951 196.685C309.103 196.441 309.179 196.16 309.179 195.84C309.179 195.536 309.103 195.262 308.951 195.018C308.814 194.759 308.616 194.562 308.357 194.425C308.098 194.272 307.809 194.196 307.489 194.196H302.784V191.068H307.603C307.908 191.068 308.174 191 308.403 190.863C308.631 190.726 308.814 190.543 308.951 190.315C309.103 190.087 309.179 189.828 309.179 189.539C309.179 189.249 309.103 188.991 308.951 188.762C308.814 188.534 308.631 188.351 308.403 188.214C308.174 188.077 307.908 188.009 307.603 188.009H302.008V184.744H308.197C309.096 184.744 309.895 184.95 310.596 185.36C311.311 185.771 311.875 186.319 312.286 187.004C312.712 187.689 312.925 188.45 312.925 189.287C312.925 189.912 312.781 190.513 312.491 191.091C312.217 191.67 311.829 192.172 311.326 192.598C311.677 192.872 311.974 193.192 312.217 193.557C312.461 193.907 312.644 194.288 312.765 194.699C312.902 195.094 312.971 195.513 312.971 195.954C312.971 196.852 312.75 197.667 312.309 198.397C311.882 199.113 311.304 199.683 310.573 200.11C309.842 200.521 309.02 200.726 308.106 200.726H302.008Z" fill="#101720"/>
<path d="M315.444 200.726V184.744H321.314C323.004 184.744 324.465 185.087 325.699 185.771C326.947 186.456 327.914 187.4 328.6 188.603C329.3 189.805 329.65 191.183 329.65 192.735C329.65 194.288 329.3 195.665 328.6 196.868C327.914 198.07 326.947 199.014 325.699 199.699C324.465 200.384 323.004 200.726 321.314 200.726H315.444ZM319.281 197.53H321.222C322.105 197.53 322.89 197.339 323.575 196.959C324.275 196.563 324.823 196.008 325.219 195.292C325.615 194.577 325.813 193.724 325.813 192.735C325.813 191.746 325.615 190.893 325.219 190.178C324.823 189.463 324.275 188.915 323.575 188.534C322.89 188.138 322.105 187.94 321.222 187.94H319.281V197.53Z" fill="#101720"/>
<path d="M331.682 200.726V184.744H340.955C341.746 184.744 342.462 184.919 343.102 185.269C343.756 185.619 344.274 186.106 344.655 186.73C345.051 187.354 345.249 188.093 345.249 188.945C345.249 189.447 345.15 189.927 344.952 190.383C344.769 190.84 344.502 191.243 344.152 191.593C343.817 191.944 343.429 192.225 342.987 192.438C343.505 192.651 343.962 192.956 344.358 193.351C344.769 193.747 345.089 194.204 345.317 194.721C345.561 195.239 345.682 195.794 345.682 196.388C345.682 197.256 345.477 198.017 345.066 198.671C344.67 199.326 344.137 199.836 343.467 200.201C342.797 200.551 342.051 200.726 341.229 200.726H331.682ZM335.519 197.552H340.224C340.543 197.552 340.825 197.476 341.069 197.324C341.328 197.172 341.533 196.966 341.685 196.708C341.838 196.449 341.914 196.167 341.914 195.863C341.914 195.543 341.838 195.262 341.685 195.018C341.533 194.759 341.328 194.554 341.069 194.402C340.825 194.25 340.543 194.173 340.224 194.173H335.519V197.552ZM335.519 191.114H339.835C340.14 191.114 340.406 191.046 340.635 190.909C340.878 190.756 341.069 190.566 341.206 190.338C341.343 190.094 341.411 189.828 341.411 189.539C341.411 189.234 341.343 188.968 341.206 188.74C341.069 188.496 340.878 188.306 340.635 188.169C340.406 188.017 340.14 187.94 339.835 187.94H335.519V191.114Z" fill="#101720"/>
<path d="M347.897 200.726V184.744H353.767C355.457 184.744 356.919 185.087 358.152 185.771C359.401 186.456 360.368 187.4 361.053 188.603C361.753 189.805 362.104 191.183 362.104 192.735C362.104 194.288 361.753 195.665 361.053 196.868C360.368 198.07 359.401 199.014 358.152 199.699C356.919 200.384 355.457 200.726 353.767 200.726H347.897ZM351.734 197.53H353.676C354.559 197.53 355.343 197.339 356.028 196.959C356.729 196.563 357.277 196.008 357.673 195.292C358.068 194.577 358.266 193.724 358.266 192.735C358.266 191.746 358.068 190.893 357.673 190.178C357.277 189.463 356.729 188.915 356.028 188.534C355.343 188.138 354.559 187.94 353.676 187.94H351.734V197.53Z" fill="#101720"/>
<path d="M521.514 0H664.264V142.696H521.514V0Z" fill="#A87BC9"/>
<path d="M522.907 167.43V151.448H529.782C530.848 151.448 531.823 151.692 532.706 152.179C533.604 152.666 534.32 153.343 534.853 154.211C535.386 155.063 535.652 156.053 535.652 157.179C535.652 158.305 535.386 159.31 534.853 160.193C534.32 161.06 533.612 161.738 532.729 162.225C531.845 162.712 530.863 162.955 529.782 162.955H526.744V167.43H522.907ZM526.744 159.736H529.348C529.805 159.736 530.216 159.637 530.582 159.439C530.947 159.241 531.244 158.952 531.472 158.572C531.701 158.191 531.815 157.735 531.815 157.202C531.815 156.669 531.701 156.212 531.472 155.832C531.244 155.451 530.939 155.162 530.559 154.964C530.193 154.751 529.79 154.645 529.348 154.645H526.744V159.736Z" fill="#101720"/>
<path d="M541.797 167.704C540.761 167.704 539.848 167.438 539.056 166.905C538.264 166.372 537.647 165.657 537.206 164.759C536.764 163.846 536.543 162.818 536.543 161.677C536.543 160.49 536.802 159.432 537.32 158.503C537.838 157.559 538.568 156.814 539.513 156.266C540.472 155.718 541.599 155.444 542.893 155.444C544.202 155.444 545.314 155.718 546.228 156.266C547.156 156.798 547.864 157.537 548.352 158.48C548.854 159.409 549.105 160.451 549.105 161.608V167.43H545.634V165.558H545.542C545.329 165.969 545.055 166.342 544.72 166.677C544.385 166.996 543.974 167.248 543.487 167.43C543.015 167.613 542.451 167.704 541.797 167.704ZM542.847 164.645C543.38 164.645 543.845 164.515 544.24 164.257C544.652 163.983 544.964 163.61 545.177 163.138C545.39 162.666 545.497 162.141 545.497 161.563C545.497 160.999 545.39 160.49 545.177 160.033C544.964 159.576 544.652 159.219 544.24 158.96C543.845 158.686 543.38 158.549 542.847 158.549C542.299 158.549 541.819 158.686 541.408 158.96C540.997 159.219 540.685 159.576 540.472 160.033C540.259 160.49 540.152 160.999 540.152 161.563C540.152 162.141 540.259 162.666 540.472 163.138C540.685 163.61 540.997 163.983 541.408 164.257C541.819 164.515 542.299 164.645 542.847 164.645Z" fill="#101720"/>
<path d="M551.723 167.43V160.695C551.723 159.721 551.959 158.838 552.431 158.047C552.904 157.255 553.573 156.623 554.441 156.152C555.324 155.68 556.368 155.444 557.57 155.444C558.789 155.444 559.824 155.68 560.677 156.152C561.545 156.623 562.207 157.255 562.664 158.047C563.121 158.838 563.349 159.721 563.349 160.695V167.43H559.809V160.786C559.809 160.375 559.71 160.002 559.512 159.668C559.314 159.317 559.04 159.044 558.69 158.846C558.355 158.633 557.974 158.526 557.548 158.526C557.106 158.526 556.71 158.633 556.36 158.846C556.025 159.044 555.758 159.317 555.561 159.668C555.363 160.002 555.264 160.375 555.264 160.786V167.43H551.723Z" fill="#101720"/>
<path d="M570.292 167.43C569.211 167.43 568.366 167.126 567.757 166.517C567.148 165.893 566.844 165.056 566.844 164.006V152.864H570.407V163.8C570.407 163.983 570.467 164.143 570.589 164.28C570.726 164.401 570.886 164.462 571.069 164.462H573.627V167.43H570.292ZM564.925 158.617V155.718H573.627V158.617H564.925Z" fill="#101720"/>
<path d="M581.19 167.704C579.987 167.704 578.906 167.438 577.947 166.905C576.988 166.372 576.226 165.642 575.663 164.713C575.115 163.785 574.841 162.742 574.841 161.585C574.841 160.413 575.115 159.371 575.663 158.457C576.226 157.529 576.988 156.798 577.947 156.266C578.906 155.718 579.987 155.444 581.19 155.444C582.393 155.444 583.466 155.718 584.411 156.266C585.37 156.798 586.124 157.529 586.672 158.457C587.235 159.371 587.517 160.413 587.517 161.585C587.517 162.742 587.235 163.785 586.672 164.713C586.124 165.642 585.37 166.372 584.411 166.905C583.451 167.438 582.378 167.704 581.19 167.704ZM581.19 164.622C581.753 164.622 582.241 164.485 582.652 164.211C583.063 163.937 583.383 163.572 583.611 163.115C583.839 162.658 583.954 162.141 583.954 161.563C583.954 160.999 583.839 160.49 583.611 160.033C583.383 159.576 583.063 159.211 582.652 158.937C582.241 158.663 581.753 158.526 581.19 158.526C580.627 158.526 580.132 158.663 579.705 158.937C579.294 159.211 578.975 159.576 578.746 160.033C578.518 160.49 578.404 160.999 578.404 161.563C578.404 162.141 578.518 162.658 578.746 163.115C578.975 163.572 579.294 163.937 579.705 164.211C580.132 164.485 580.627 164.622 581.19 164.622Z" fill="#101720"/>
<path d="M589.619 167.43V160.695C589.619 159.721 589.855 158.838 590.327 158.047C590.799 157.255 591.469 156.623 592.337 156.152C593.22 155.68 594.263 155.444 595.466 155.444C596.684 155.444 597.72 155.68 598.572 156.152C599.44 156.623 600.103 157.255 600.56 158.047C601.016 158.838 601.245 159.721 601.245 160.695V167.43H597.705V160.786C597.705 160.375 597.606 160.002 597.408 159.668C597.21 159.317 596.936 159.044 596.585 158.846C596.25 158.633 595.87 158.526 595.443 158.526C595.002 158.526 594.606 158.633 594.256 158.846C593.921 159.044 593.654 159.317 593.456 159.668C593.258 160.002 593.159 160.375 593.159 160.786V167.43H589.619Z" fill="#101720"/>
<path d="M610.015 167.43C608.691 167.43 607.526 167.187 606.521 166.7C605.516 166.197 604.732 165.512 604.168 164.645C603.62 163.762 603.346 162.742 603.346 161.585C603.346 160.307 603.612 159.211 604.145 158.298C604.678 157.384 605.386 156.684 606.27 156.197C607.168 155.695 608.158 155.444 609.239 155.444C610.472 155.444 611.5 155.703 612.322 156.22C613.16 156.738 613.792 157.445 614.218 158.343C614.644 159.226 614.857 160.238 614.857 161.38C614.857 161.578 614.842 161.814 614.812 162.088C614.797 162.346 614.774 162.552 614.743 162.704H607.069C607.16 163.1 607.335 163.435 607.594 163.709C607.853 163.983 608.18 164.188 608.576 164.325C608.972 164.447 609.414 164.508 609.901 164.508H613.487V167.43H610.015ZM606.978 160.489H611.431C611.401 160.246 611.355 160.01 611.294 159.782C611.233 159.553 611.134 159.356 610.997 159.188C610.876 159.005 610.731 158.853 610.563 158.731C610.396 158.594 610.198 158.488 609.97 158.412C609.756 158.336 609.513 158.298 609.239 158.298C608.888 158.298 608.576 158.359 608.302 158.48C608.028 158.602 607.8 158.77 607.617 158.983C607.434 159.18 607.29 159.416 607.183 159.69C607.092 159.949 607.023 160.216 606.978 160.489Z" fill="#101720"/>
<path d="M625.797 167.43C625.142 167.43 624.564 167.293 624.061 167.019C623.559 166.73 623.17 166.35 622.896 165.878C622.622 165.391 622.485 164.858 622.485 164.28C622.485 163.762 622.615 163.26 622.873 162.773C623.147 162.286 623.505 161.882 623.947 161.563L628.743 158.138C629.048 157.925 629.276 157.674 629.428 157.384C629.596 157.08 629.68 156.768 629.68 156.448C629.68 156.083 629.596 155.779 629.428 155.535C629.276 155.276 629.055 155.078 628.766 154.941C628.492 154.789 628.157 154.713 627.761 154.713H623.262V151.448H628.127C629.177 151.448 630.091 151.677 630.867 152.133C631.659 152.575 632.268 153.176 632.695 153.937C633.136 154.683 633.357 155.52 633.357 156.448C633.357 157.362 633.167 158.176 632.786 158.891C632.42 159.591 631.819 160.216 630.982 160.763L626.688 163.64C626.657 163.655 626.619 163.694 626.573 163.754C626.543 163.8 626.528 163.853 626.528 163.914C626.528 164.006 626.551 164.074 626.596 164.12C626.657 164.15 626.741 164.165 626.847 164.165H633.745V167.43H625.797Z" fill="#101720"/>
<path d="M635.375 167.43V164.165H640.834C641.214 164.165 641.557 164.074 641.862 163.891C642.181 163.709 642.425 163.465 642.592 163.161C642.775 162.856 642.867 162.521 642.867 162.156C642.867 161.791 642.775 161.464 642.592 161.174C642.425 160.87 642.181 160.626 641.862 160.444C641.557 160.261 641.214 160.17 640.834 160.17H635.9V151.448H645.562V154.713H639.486V157.042H641.268C642.273 157.042 643.171 157.27 643.963 157.727C644.77 158.184 645.402 158.808 645.859 159.599C646.331 160.375 646.567 161.243 646.567 162.202C646.567 163.146 646.331 164.021 645.859 164.827C645.402 165.619 644.77 166.251 643.963 166.722C643.171 167.194 642.273 167.43 641.268 167.43H635.375Z" fill="#101720"/>
<path d="M648.635 167.43L655.144 155.352C655.22 155.215 655.258 155.101 655.258 155.01C655.258 154.934 655.228 154.865 655.167 154.804C655.106 154.744 655.022 154.713 654.916 154.713H647.995V151.448H655.738C656.362 151.448 656.926 151.593 657.428 151.882C657.931 152.171 658.334 152.552 658.639 153.024C658.943 153.495 659.095 154.021 659.095 154.599C659.095 154.919 659.057 155.238 658.981 155.558C658.905 155.862 658.799 156.144 658.661 156.403L652.814 167.43H648.635Z" fill="#101720"/>
<path d="M660.969 167.43L667.479 155.352C667.555 155.215 667.593 155.101 667.593 155.01C667.593 154.934 667.562 154.865 667.501 154.804C667.441 154.744 667.357 154.713 667.25 154.713H660.33V151.448H668.073C668.697 151.448 669.26 151.593 669.763 151.882C670.265 152.171 670.669 152.552 670.973 153.024C671.278 153.495 671.43 154.021 671.43 154.599C671.43 154.919 671.392 155.238 671.316 155.558C671.24 155.862 671.133 156.144 670.996 156.403L665.149 167.43H660.969Z" fill="#101720"/>
<path d="M687.297 167.43C685.987 167.43 684.807 167.232 683.756 166.837C682.706 166.426 681.815 165.855 681.084 165.124C680.353 164.394 679.79 163.549 679.394 162.59C678.998 161.616 678.8 160.566 678.8 159.439C678.8 158.313 678.998 157.27 679.394 156.311C679.79 155.337 680.353 154.485 681.084 153.754C681.83 153.024 682.721 152.46 683.756 152.065C684.807 151.654 685.987 151.448 687.297 151.448H689.763V154.645H687.388C686.672 154.645 686.018 154.766 685.424 155.01C684.845 155.253 684.343 155.596 683.916 156.037C683.505 156.464 683.185 156.966 682.957 157.544C682.744 158.123 682.637 158.754 682.637 159.439C682.637 160.124 682.744 160.756 682.957 161.334C683.185 161.913 683.505 162.423 683.916 162.864C684.343 163.29 684.845 163.625 685.424 163.869C686.018 164.112 686.672 164.234 687.388 164.234H689.763V167.43H687.297Z" fill="#101720"/>
<path d="M524.46 200.726L524.894 197.119H521.971V194.516H525.191L525.648 190.931H522.747V188.329H525.945L526.379 184.744H529.12L528.686 188.329H531.883L532.317 184.744H535.058L534.624 188.329H537.571V190.931H534.327L533.893 194.516H536.794V197.119H533.596L533.162 200.726H530.399L530.833 197.119H527.635L527.201 200.726H524.46ZM527.932 194.516H531.13L531.586 190.931H528.389L527.932 194.516Z" fill="#101720"/>
<path d="M538.02 200.726L543.204 186.593C543.463 185.893 543.889 185.368 544.483 185.018C545.077 184.653 545.747 184.47 546.493 184.47C547.239 184.47 547.909 184.645 548.503 184.995C549.097 185.33 549.523 185.855 549.782 186.571L554.99 200.726H550.856L549.851 197.644H543.067L542.017 200.726H538.02ZM544.049 194.47H548.869L546.836 188.1C546.805 188.009 546.76 187.948 546.699 187.918C546.653 187.872 546.592 187.849 546.516 187.849C546.44 187.849 546.371 187.872 546.31 187.918C546.265 187.963 546.234 188.024 546.219 188.1L544.049 194.47Z" fill="#101720"/>
<path d="M562.416 201C561.183 201 560.087 200.779 559.128 200.338C558.168 199.896 557.422 199.295 556.889 198.534C556.356 197.773 556.09 196.921 556.09 195.977C556.09 195.49 556.174 195.026 556.341 194.584C556.524 194.128 556.775 193.717 557.095 193.351C557.414 192.986 557.78 192.667 558.191 192.393C557.643 192.012 557.209 191.548 556.889 191C556.585 190.452 556.432 189.843 556.432 189.173C556.432 188.306 556.684 187.514 557.186 186.799C557.704 186.083 558.412 185.52 559.31 185.109C560.209 184.683 561.244 184.47 562.416 184.47C563.604 184.47 564.647 184.683 565.546 185.109C566.444 185.52 567.144 186.083 567.647 186.799C568.149 187.514 568.401 188.306 568.401 189.173C568.401 189.843 568.241 190.452 567.921 191C567.616 191.548 567.198 192.012 566.665 192.393C567.076 192.667 567.441 192.986 567.761 193.351C568.081 193.717 568.324 194.128 568.492 194.584C568.675 195.026 568.766 195.49 568.766 195.977C568.766 196.921 568.492 197.773 567.944 198.534C567.411 199.295 566.665 199.896 565.705 200.338C564.761 200.779 563.665 201 562.416 201ZM562.416 197.758C562.934 197.758 563.383 197.674 563.764 197.507C564.16 197.324 564.464 197.088 564.678 196.799C564.906 196.51 565.02 196.183 565.02 195.817C565.02 195.269 564.777 194.813 564.289 194.447C563.817 194.067 563.193 193.877 562.416 193.877C561.655 193.877 561.031 194.067 560.544 194.447C560.072 194.813 559.836 195.269 559.836 195.817C559.836 196.183 559.942 196.51 560.155 196.799C560.369 197.088 560.673 197.324 561.069 197.507C561.465 197.674 561.914 197.758 562.416 197.758ZM562.416 190.954C563.102 190.954 563.65 190.794 564.061 190.475C564.472 190.14 564.678 189.744 564.678 189.287C564.678 188.983 564.579 188.709 564.381 188.466C564.198 188.222 563.939 188.024 563.604 187.872C563.269 187.72 562.873 187.644 562.416 187.644C561.975 187.644 561.579 187.72 561.229 187.872C560.894 188.024 560.635 188.222 560.452 188.466C560.27 188.709 560.178 188.983 560.178 189.287C560.178 189.744 560.384 190.14 560.795 190.475C561.206 190.794 561.746 190.954 562.416 190.954Z" fill="#101720"/>
<path d="M571.081 200.726L577.591 188.648C577.667 188.511 577.705 188.397 577.705 188.306C577.705 188.23 577.674 188.161 577.613 188.1C577.553 188.039 577.469 188.009 577.362 188.009H570.442V184.744H578.185C578.809 184.744 579.372 184.889 579.875 185.178C580.377 185.467 580.781 185.848 581.085 186.319C581.39 186.791 581.542 187.316 581.542 187.895C581.542 188.214 581.504 188.534 581.428 188.854C581.352 189.158 581.245 189.44 581.108 189.698L575.261 200.726H571.081Z" fill="#101720"/>
<path d="M583.598 200.726V184.744H592.872C593.663 184.744 594.379 184.919 595.018 185.269C595.673 185.619 596.191 186.106 596.572 186.73C596.967 187.354 597.165 188.093 597.165 188.945C597.165 189.447 597.066 189.927 596.869 190.383C596.686 190.84 596.419 191.243 596.069 191.593C595.734 191.944 595.346 192.225 594.904 192.438C595.422 192.651 595.879 192.956 596.275 193.351C596.686 193.747 597.006 194.204 597.234 194.721C597.478 195.239 597.599 195.794 597.599 196.388C597.599 197.256 597.394 198.017 596.983 198.671C596.587 199.326 596.054 199.836 595.384 200.201C594.714 200.551 593.968 200.726 593.146 200.726H583.598ZM587.436 197.552H592.141C592.46 197.552 592.742 197.476 592.986 197.324C593.245 197.172 593.45 196.966 593.602 196.708C593.755 196.449 593.831 196.167 593.831 195.863C593.831 195.543 593.755 195.262 593.602 195.018C593.45 194.759 593.245 194.554 592.986 194.402C592.742 194.25 592.46 194.173 592.141 194.173H587.436V197.552ZM587.436 191.114H591.752C592.057 191.114 592.323 191.046 592.552 190.909C592.795 190.756 592.986 190.566 593.123 190.338C593.26 190.094 593.328 189.828 593.328 189.539C593.328 189.234 593.26 188.968 593.123 188.74C592.986 188.496 592.795 188.306 592.552 188.169C592.323 188.017 592.057 187.94 591.752 187.94H587.436V191.114Z" fill="#101720"/>
<path d="M607.58 200.726C606.27 200.726 605.09 200.528 604.039 200.132C602.989 199.721 602.098 199.151 601.367 198.42C600.636 197.689 600.073 196.845 599.677 195.886C599.281 194.912 599.083 193.861 599.083 192.735C599.083 191.609 599.281 190.566 599.677 189.607C600.073 188.633 600.636 187.781 601.367 187.05C602.113 186.319 603.004 185.756 604.039 185.36C605.09 184.95 606.27 184.744 607.58 184.744H610.046V187.94H607.671C606.955 187.94 606.301 188.062 605.707 188.306C605.128 188.549 604.626 188.892 604.199 189.333C603.788 189.759 603.468 190.262 603.24 190.84C603.027 191.418 602.92 192.05 602.92 192.735C602.92 193.42 603.027 194.052 603.24 194.63C603.468 195.208 603.788 195.718 604.199 196.16C604.626 196.586 605.128 196.921 605.707 197.164C606.301 197.408 606.955 197.53 607.671 197.53H610.046V200.726H607.58Z" fill="#101720"/>
<path d="M614.454 200.726L618.062 195.269C617.865 195.3 617.674 195.323 617.491 195.338C617.309 195.338 617.118 195.33 616.92 195.315C615.885 195.254 614.979 194.988 614.203 194.516C613.426 194.029 612.824 193.397 612.398 192.621C611.972 191.829 611.759 190.947 611.759 189.972C611.759 188.953 612.002 188.032 612.49 187.21C612.992 186.373 613.708 185.711 614.636 185.224C615.581 184.721 616.7 184.47 617.994 184.47C619.303 184.47 620.423 184.714 621.351 185.201C622.28 185.688 622.996 186.35 623.498 187.187C624.001 188.024 624.252 188.953 624.252 189.972C624.252 190.642 624.161 191.297 623.978 191.936C623.811 192.575 623.567 193.207 623.247 193.831C622.943 194.44 622.585 195.056 622.174 195.68L618.793 200.726H614.454ZM617.994 192.278C618.557 192.278 619.029 192.179 619.41 191.982C619.791 191.769 620.072 191.487 620.255 191.137C620.453 190.787 620.552 190.414 620.552 190.018C620.552 189.592 620.453 189.211 620.255 188.877C620.072 188.526 619.791 188.252 619.41 188.055C619.029 187.842 618.557 187.735 617.994 187.735C617.446 187.735 616.981 187.842 616.601 188.055C616.22 188.252 615.931 188.526 615.733 188.877C615.55 189.211 615.459 189.592 615.459 190.018C615.459 190.414 615.55 190.787 615.733 191.137C615.931 191.487 616.22 191.769 616.601 191.982C616.981 192.179 617.446 192.278 617.994 192.278Z" fill="#101720"/>
<path d="M791.788 0H934.538V142.696H791.788V0Z" fill="#D8C4E5"/>
<path d="M793.181 167.43V151.448H800.056C801.122 151.448 802.096 151.692 802.979 152.179C803.878 152.666 804.593 153.343 805.126 154.211C805.659 155.063 805.926 156.053 805.926 157.179C805.926 158.305 805.659 159.31 805.126 160.193C804.593 161.06 803.885 161.738 803.002 162.225C802.119 162.712 801.137 162.955 800.056 162.955H797.018V167.43H793.181ZM797.018 159.736H799.622C800.079 159.736 800.49 159.637 800.855 159.439C801.221 159.241 801.518 158.952 801.746 158.572C801.974 158.191 802.089 157.735 802.089 157.202C802.089 156.669 801.974 156.212 801.746 155.832C801.518 155.451 801.213 155.162 800.832 154.964C800.467 154.751 800.064 154.645 799.622 154.645H797.018V159.736Z" fill="#101720"/>
<path d="M812.07 167.704C811.035 167.704 810.121 167.438 809.329 166.905C808.538 166.372 807.921 165.657 807.479 164.759C807.038 163.846 806.817 162.818 806.817 161.677C806.817 160.49 807.076 159.432 807.594 158.503C808.111 157.559 808.842 156.814 809.786 156.266C810.746 155.718 811.872 155.444 813.167 155.444C814.476 155.444 815.588 155.718 816.501 156.266C817.43 156.798 818.138 157.537 818.625 158.48C819.128 159.409 819.379 160.451 819.379 161.608V167.43H815.907V165.558H815.816C815.603 165.969 815.329 166.342 814.994 166.677C814.659 166.996 814.248 167.248 813.76 167.43C813.288 167.613 812.725 167.704 812.07 167.704ZM813.121 164.645C813.654 164.645 814.118 164.515 814.514 164.257C814.925 163.983 815.237 163.61 815.451 163.138C815.664 162.666 815.77 162.141 815.77 161.563C815.77 160.999 815.664 160.49 815.451 160.033C815.237 159.576 814.925 159.219 814.514 158.96C814.118 158.686 813.654 158.549 813.121 158.549C812.573 158.549 812.093 158.686 811.682 158.96C811.271 159.219 810.959 159.576 810.746 160.033C810.532 160.49 810.426 160.999 810.426 161.563C810.426 162.141 810.532 162.666 810.746 163.138C810.959 163.61 811.271 163.983 811.682 164.257C812.093 164.515 812.573 164.645 813.121 164.645Z" fill="#101720"/>
<path d="M821.997 167.43V160.695C821.997 159.721 822.233 158.838 822.705 158.047C823.177 157.255 823.847 156.623 824.715 156.152C825.598 155.68 826.641 155.444 827.844 155.444C829.062 155.444 830.098 155.68 830.95 156.152C831.818 156.623 832.481 157.255 832.938 158.047C833.394 158.838 833.623 159.721 833.623 160.695V167.43H830.083V160.786C830.083 160.375 829.984 160.002 829.786 159.668C829.588 159.317 829.314 159.044 828.963 158.846C828.628 158.633 828.248 158.526 827.821 158.526C827.38 158.526 826.984 158.633 826.634 158.846C826.299 159.044 826.032 159.317 825.834 159.668C825.636 160.002 825.537 160.375 825.537 160.786V167.43H821.997Z" fill="#101720"/>
<path d="M840.566 167.43C839.485 167.43 838.64 167.126 838.031 166.517C837.422 165.893 837.117 165.056 837.117 164.006V152.864H840.68V163.8C840.68 163.983 840.741 164.143 840.863 164.28C841 164.401 841.16 164.462 841.343 164.462H843.901V167.43H840.566ZM835.199 158.617V155.718H843.901V158.617H835.199Z" fill="#101720"/>
<path d="M851.464 167.704C850.261 167.704 849.18 167.438 848.221 166.905C847.261 166.372 846.5 165.642 845.937 164.713C845.388 163.785 845.114 162.742 845.114 161.585C845.114 160.413 845.388 159.371 845.937 158.457C846.5 157.529 847.261 156.798 848.221 156.266C849.18 155.718 850.261 155.444 851.464 155.444C852.667 155.444 853.74 155.718 854.684 156.266C855.644 156.798 856.397 157.529 856.945 158.457C857.509 159.371 857.79 160.413 857.79 161.585C857.79 162.742 857.509 163.785 856.945 164.713C856.397 165.642 855.644 166.372 854.684 166.905C853.725 167.438 852.651 167.704 851.464 167.704ZM851.464 164.622C852.027 164.622 852.514 164.485 852.926 164.211C853.337 163.937 853.656 163.572 853.885 163.115C854.113 162.658 854.227 162.141 854.227 161.563C854.227 160.999 854.113 160.49 853.885 160.033C853.656 159.576 853.337 159.211 852.926 158.937C852.514 158.663 852.027 158.526 851.464 158.526C850.9 158.526 850.406 158.663 849.979 158.937C849.568 159.211 849.248 159.576 849.02 160.033C848.792 160.49 848.677 160.999 848.677 161.563C848.677 162.141 848.792 162.658 849.02 163.115C849.248 163.572 849.568 163.937 849.979 164.211C850.406 164.485 850.9 164.622 851.464 164.622Z" fill="#101720"/>
<path d="M859.893 167.43V160.695C859.893 159.721 860.129 158.838 860.601 158.047C861.073 157.255 861.743 156.623 862.611 156.152C863.494 155.68 864.537 155.444 865.74 155.444C866.958 155.444 867.993 155.68 868.846 156.152C869.714 156.623 870.376 157.255 870.833 158.047C871.29 158.838 871.518 159.721 871.518 160.695V167.43H867.978V160.786C867.978 160.375 867.879 160.002 867.681 159.668C867.483 159.317 867.209 159.044 866.859 158.846C866.524 158.633 866.143 158.526 865.717 158.526C865.276 158.526 864.88 158.633 864.529 158.846C864.194 159.044 863.928 159.317 863.73 159.668C863.532 160.002 863.433 160.375 863.433 160.786V167.43H859.893Z" fill="#101720"/>
<path d="M880.289 167.43C878.964 167.43 877.799 167.187 876.794 166.7C875.789 166.197 875.005 165.512 874.442 164.645C873.894 163.762 873.62 162.742 873.62 161.585C873.62 160.307 873.886 159.211 874.419 158.298C874.952 157.384 875.66 156.684 876.543 156.197C877.442 155.695 878.431 155.444 879.512 155.444C880.746 155.444 881.774 155.703 882.596 156.22C883.433 156.738 884.065 157.445 884.492 158.343C884.918 159.226 885.131 160.238 885.131 161.38C885.131 161.578 885.116 161.814 885.085 162.088C885.07 162.346 885.047 162.552 885.017 162.704H877.343C877.434 163.1 877.609 163.435 877.868 163.709C878.127 163.983 878.454 164.188 878.85 164.325C879.246 164.447 879.688 164.508 880.175 164.508H883.761V167.43H880.289ZM877.251 160.489H881.705C881.675 160.246 881.629 160.01 881.568 159.782C881.507 159.553 881.408 159.356 881.271 159.188C881.149 159.005 881.005 158.853 880.837 158.731C880.67 158.594 880.472 158.488 880.243 158.412C880.03 158.336 879.787 158.298 879.512 158.298C879.162 158.298 878.85 158.359 878.576 158.48C878.302 158.602 878.074 158.77 877.891 158.983C877.708 159.18 877.563 159.416 877.457 159.69C877.365 159.949 877.297 160.216 877.251 160.489Z" fill="#101720"/>
<path d="M896.071 167.43C895.416 167.43 894.837 167.293 894.335 167.019C893.832 166.73 893.444 166.35 893.17 165.878C892.896 165.391 892.759 164.858 892.759 164.28C892.759 163.762 892.888 163.26 893.147 162.773C893.421 162.286 893.779 161.882 894.221 161.563L899.017 158.138C899.321 157.925 899.55 157.674 899.702 157.384C899.87 157.08 899.953 156.768 899.953 156.448C899.953 156.083 899.87 155.779 899.702 155.535C899.55 155.276 899.329 155.078 899.04 154.941C898.766 154.789 898.431 154.713 898.035 154.713H893.535V151.448H898.4C899.451 151.448 900.365 151.677 901.141 152.133C901.933 152.575 902.542 153.176 902.968 153.937C903.41 154.683 903.631 155.52 903.631 156.448C903.631 157.362 903.44 158.176 903.06 158.891C902.694 159.591 902.093 160.216 901.255 160.763L896.961 163.64C896.931 163.655 896.893 163.694 896.847 163.754C896.817 163.8 896.801 163.853 896.801 163.914C896.801 164.006 896.824 164.074 896.87 164.12C896.931 164.15 897.015 164.165 897.121 164.165H904.019V167.43H896.071Z" fill="#101720"/>
<path d="M912.067 167.704C910.773 167.704 909.653 167.461 908.709 166.974C907.78 166.471 907.065 165.809 906.562 164.987C906.075 164.15 905.831 163.222 905.831 162.202C905.831 161.182 906.022 160.208 906.402 159.279C906.783 158.351 907.286 157.422 907.91 156.494L911.29 151.448H915.63L912.021 156.905C912.204 156.875 912.387 156.859 912.569 156.859C912.767 156.844 912.965 156.844 913.163 156.859C914.183 156.92 915.082 157.194 915.858 157.681C916.635 158.153 917.236 158.785 917.663 159.576C918.104 160.353 918.325 161.228 918.325 162.202C918.325 163.206 918.074 164.127 917.571 164.964C917.069 165.802 916.353 166.471 915.424 166.974C914.495 167.461 913.376 167.704 912.067 167.704ZM912.067 164.439C912.63 164.439 913.102 164.34 913.483 164.143C913.864 163.929 914.145 163.648 914.328 163.298C914.526 162.948 914.625 162.567 914.625 162.156C914.625 161.745 914.526 161.372 914.328 161.037C914.145 160.687 913.864 160.406 913.483 160.193C913.102 159.98 912.63 159.873 912.067 159.873C911.519 159.873 911.054 159.98 910.674 160.193C910.293 160.406 910.004 160.687 909.806 161.037C909.623 161.372 909.532 161.745 909.532 162.156C909.532 162.567 909.623 162.948 909.806 163.298C910.004 163.648 910.293 163.929 910.674 164.143C911.054 164.34 911.519 164.439 912.067 164.439Z" fill="#101720"/>
<path d="M920.287 167.43V164.165H925.769C926.088 164.165 926.378 164.097 926.637 163.96C926.895 163.823 927.093 163.633 927.23 163.389C927.383 163.146 927.459 162.864 927.459 162.544C927.459 162.24 927.383 161.966 927.23 161.722C927.093 161.464 926.895 161.266 926.637 161.129C926.378 160.977 926.088 160.9 925.769 160.9H921.064V157.773H925.883C926.187 157.773 926.454 157.704 926.682 157.567C926.911 157.43 927.093 157.247 927.23 157.019C927.383 156.791 927.459 156.532 927.459 156.243C927.459 155.954 927.383 155.695 927.23 155.467C927.093 155.238 926.911 155.056 926.682 154.919C926.454 154.782 926.187 154.713 925.883 154.713H920.287V151.448H926.477C927.375 151.448 928.174 151.654 928.875 152.065C929.591 152.476 930.154 153.024 930.565 153.709C930.991 154.394 931.205 155.155 931.205 155.992C931.205 156.616 931.06 157.217 930.771 157.795C930.497 158.374 930.108 158.876 929.606 159.302C929.956 159.576 930.253 159.896 930.497 160.261C930.74 160.611 930.923 160.992 931.045 161.403C931.182 161.798 931.25 162.217 931.25 162.658C931.25 163.557 931.029 164.371 930.588 165.101C930.162 165.817 929.583 166.388 928.852 166.814C928.121 167.225 927.299 167.43 926.385 167.43H920.287Z" fill="#101720"/>
<path d="M947.533 167.43C946.224 167.43 945.044 167.232 943.993 166.837C942.942 166.426 942.052 165.855 941.321 165.124C940.59 164.394 940.026 163.549 939.631 162.59C939.235 161.616 939.037 160.566 939.037 159.439C939.037 158.313 939.235 157.27 939.631 156.311C940.026 155.337 940.59 154.485 941.321 153.754C942.067 153.024 942.958 152.46 943.993 152.065C945.044 151.654 946.224 151.448 947.533 151.448H950V154.645H947.625C946.909 154.645 946.254 154.766 945.66 155.01C945.082 155.253 944.579 155.596 944.153 156.037C943.742 156.464 943.422 156.966 943.194 157.544C942.98 158.123 942.874 158.754 942.874 159.439C942.874 160.124 942.98 160.756 943.194 161.334C943.422 161.913 943.742 162.423 944.153 162.864C944.579 163.29 945.082 163.625 945.66 163.869C946.254 164.112 946.909 164.234 947.625 164.234H950V167.43H947.533Z" fill="#101720"/>
<path d="M794.734 200.726L795.168 197.119H792.245V194.516H795.465L795.922 190.931H793.021V188.329H796.219L796.653 184.744H799.394L798.96 188.329H802.157L802.591 184.744H805.332L804.898 188.329H807.844V190.931H804.601L804.167 194.516H807.068V197.119H803.87L803.436 200.726H800.673L801.107 197.119H797.909L797.475 200.726H794.734ZM798.206 194.516H801.403L801.86 190.931H798.663L798.206 194.516Z" fill="#101720"/>
<path d="M809.687 200.726V184.744H815.556C817.247 184.744 818.708 185.087 819.942 185.771C821.19 186.456 822.157 187.4 822.842 188.603C823.543 189.805 823.893 191.183 823.893 192.735C823.893 194.288 823.543 195.665 822.842 196.868C822.157 198.07 821.19 199.014 819.942 199.699C818.708 200.384 817.247 200.726 815.556 200.726H809.687ZM813.524 197.53H815.465C816.348 197.53 817.132 197.339 817.818 196.959C818.518 196.563 819.066 196.008 819.462 195.292C819.858 194.577 820.056 193.724 820.056 192.735C820.056 191.746 819.858 190.893 819.462 190.178C819.066 189.463 818.518 188.915 817.818 188.534C817.132 188.138 816.348 187.94 815.465 187.94H813.524V197.53Z" fill="#101720"/>
<path d="M831.954 201C830.721 201 829.624 200.779 828.665 200.338C827.706 199.896 826.96 199.295 826.427 198.534C825.894 197.773 825.627 196.921 825.627 195.977C825.627 195.49 825.711 195.026 825.879 194.584C826.061 194.128 826.313 193.717 826.632 193.351C826.952 192.986 827.318 192.667 827.729 192.393C827.181 192.012 826.747 191.548 826.427 191C826.122 190.452 825.97 189.843 825.97 189.173C825.97 188.306 826.221 187.514 826.724 186.799C827.241 186.083 827.95 185.52 828.848 185.109C829.746 184.683 830.782 184.47 831.954 184.47C833.142 184.47 834.185 184.683 835.083 185.109C835.982 185.52 836.682 186.083 837.185 186.799C837.687 187.514 837.938 188.306 837.938 189.173C837.938 189.843 837.778 190.452 837.459 191C837.154 191.548 836.735 192.012 836.202 192.393C836.613 192.667 836.979 192.986 837.299 193.351C837.618 193.717 837.862 194.128 838.03 194.584C838.212 195.026 838.304 195.49 838.304 195.977C838.304 196.921 838.03 197.773 837.481 198.534C836.948 199.295 836.202 199.896 835.243 200.338C834.299 200.779 833.203 201 831.954 201ZM831.954 197.758C832.472 197.758 832.921 197.674 833.302 197.507C833.698 197.324 834.002 197.088 834.215 196.799C834.444 196.51 834.558 196.183 834.558 195.817C834.558 195.269 834.314 194.813 833.827 194.447C833.355 194.067 832.731 193.877 831.954 193.877C831.193 193.877 830.568 194.067 830.081 194.447C829.609 194.813 829.373 195.269 829.373 195.817C829.373 196.183 829.48 196.51 829.693 196.799C829.906 197.088 830.211 197.324 830.607 197.507C831.002 197.674 831.452 197.758 831.954 197.758ZM831.954 190.954C832.639 190.954 833.188 190.794 833.599 190.475C834.01 190.14 834.215 189.744 834.215 189.287C834.215 188.983 834.116 188.709 833.918 188.466C833.736 188.222 833.477 188.024 833.142 187.872C832.807 187.72 832.411 187.644 831.954 187.644C831.513 187.644 831.117 187.72 830.766 187.872C830.432 188.024 830.173 188.222 829.99 188.466C829.807 188.709 829.716 188.983 829.716 189.287C829.716 189.744 829.921 190.14 830.333 190.475C830.744 190.794 831.284 190.954 831.954 190.954Z" fill="#101720"/>
<path d="M848.567 200.726C847.258 200.726 846.078 200.528 845.027 200.132C843.976 199.721 843.086 199.151 842.355 198.42C841.624 197.689 841.06 196.845 840.665 195.886C840.269 194.912 840.071 193.861 840.071 192.735C840.071 191.609 840.269 190.566 840.665 189.607C841.06 188.633 841.624 187.781 842.355 187.05C843.101 186.319 843.992 185.756 845.027 185.36C846.078 184.95 847.258 184.744 848.567 184.744H851.034V187.94H848.659C847.943 187.94 847.288 188.062 846.694 188.306C846.116 188.549 845.613 188.892 845.187 189.333C844.776 189.759 844.456 190.262 844.228 190.84C844.014 191.418 843.908 192.05 843.908 192.735C843.908 193.42 844.014 194.052 844.228 194.63C844.456 195.208 844.776 195.718 845.187 196.16C845.613 196.586 846.116 196.921 846.694 197.164C847.288 197.408 847.943 197.53 848.659 197.53H851.034V200.726H848.567Z" fill="#101720"/>
<path d="M860.238 200.726V197.393H855.898C855.274 197.393 854.703 197.248 854.185 196.959C853.683 196.67 853.279 196.289 852.975 195.817C852.685 195.33 852.541 194.797 852.541 194.219C852.541 193.915 852.579 193.61 852.655 193.306C852.731 193.001 852.83 192.72 852.952 192.461L856.949 184.744H861.083L856.469 193.511C856.424 193.587 856.393 193.648 856.378 193.694C856.363 193.74 856.355 193.801 856.355 193.877C856.355 193.968 856.385 194.044 856.446 194.105C856.522 194.166 856.614 194.196 856.72 194.196H860.238V189.173H863.938V194.196H865.971V197.393H863.938V200.726H860.238Z" fill="#101720"/>
<path d="M872.418 200.726C871.52 200.726 870.705 200.521 869.974 200.11C869.243 199.683 868.657 199.12 868.216 198.42C867.789 197.705 867.576 196.898 867.576 196C867.576 195.33 867.721 194.706 868.01 194.128C868.315 193.534 868.718 193.024 869.221 192.598C868.733 192.187 868.345 191.7 868.056 191.137C867.782 190.574 867.645 189.98 867.645 189.356C867.645 188.473 867.858 187.689 868.284 187.004C868.711 186.304 869.282 185.756 869.997 185.36C870.713 184.95 871.505 184.744 872.373 184.744H879.11V187.94H872.966C872.677 187.94 872.411 188.009 872.167 188.146C871.923 188.283 871.726 188.466 871.573 188.694C871.436 188.922 871.368 189.189 871.368 189.493C871.368 189.782 871.436 190.049 871.573 190.292C871.726 190.52 871.923 190.703 872.167 190.84C872.411 190.962 872.677 191.023 872.966 191.023H878.334V194.219H873.081C872.761 194.219 872.472 194.295 872.213 194.447C871.954 194.6 871.748 194.797 871.596 195.041C871.444 195.285 871.368 195.566 871.368 195.886C871.368 196.19 871.444 196.472 871.596 196.731C871.748 196.974 871.954 197.164 872.213 197.301C872.472 197.438 872.761 197.507 873.081 197.507H879.11V200.726H872.418Z" fill="#101720"/>
<path d="M880.757 200.726V197.461H886.215C886.596 197.461 886.939 197.37 887.243 197.187C887.563 197.005 887.807 196.761 887.974 196.457C888.157 196.152 888.248 195.817 888.248 195.452C888.248 195.087 888.157 194.759 887.974 194.47C887.807 194.166 887.563 193.922 887.243 193.74C886.939 193.557 886.596 193.466 886.215 193.466H881.282V184.744H890.943V188.009H884.868V190.338H886.649C887.654 190.338 888.553 190.566 889.345 191.023C890.152 191.479 890.783 192.103 891.24 192.895C891.712 193.671 891.948 194.539 891.948 195.498C891.948 196.441 891.712 197.317 891.24 198.123C890.783 198.915 890.152 199.546 889.345 200.018C888.553 200.49 887.654 200.726 886.649 200.726H880.757Z" fill="#101720"/>
</svg>
