<svg width="900" height="334" viewBox="0 0 900 334" fill="none" xmlns="http://www.w3.org/2000/svg">
<path d="M0 302.949H4.14356L7.17327 312.596L8.2203 316.276H8.35396L9.37871 312.596L12.453 302.949H16.5965V326.596H13.3218V315.939C13.3218 313.539 13.7005 309.052 13.8787 306.898H13.7673L12.3193 311.946L9.35643 320.314H7.10644L4.18812 311.946L2.7401 306.898H2.65099C2.87376 309.052 3.20792 313.539 3.20792 315.939V326.596H0V302.949Z" fill="black"/>
<path d="M30.0074 311.834H22.1658V308.962H33.5718V326.596H30.0074V311.834ZM28.849 302.949C28.849 301.423 29.9629 300.391 31.5 300.391C33.0371 300.391 34.151 301.446 34.151 302.949C34.151 304.452 33.0371 305.507 31.5 305.507C29.9629 305.507 28.849 304.497 28.849 302.949Z" fill="black"/>
<path d="M48.9876 320.426V303.869H42.9728V300.997H52.552V320.628C52.552 323.074 53.9332 324.061 55.849 324.061C56.8069 324.061 57.8317 323.837 58.9901 323.321L59.8589 325.99C58.1881 326.664 57.0074 327.022 55.0247 327.022C51.104 327.022 48.9876 324.667 48.9876 320.404V320.426Z" fill="black"/>
<path d="M69.104 300.997V317.644H69.2376L77.8589 308.962H81.8688L69.0817 321.907V326.596H65.5173V300.997H69.104ZM72.4233 317.6L74.5396 315.311L82.7376 326.619H78.8168L72.4455 317.622L72.4233 317.6Z" fill="black"/>
<path d="M85.9455 333.641L86.6361 330.837C87.104 330.971 87.6386 331.083 88.151 331.083C90.4901 331.083 91.8713 329.692 92.651 327.718L93.1188 326.506L85.1213 308.962H88.7079L92.6064 318.116C93.2747 319.708 93.9876 321.526 94.6559 323.276H94.7896C95.3688 321.571 96.0371 319.731 96.5941 318.116L100.047 308.962H103.455L95.9257 327.718C94.5223 331.442 92.4059 334 88.2847 334C87.4158 334 86.5247 333.865 85.8787 333.641H85.9455Z" fill="black"/>
<path d="M130.767 302.927L132.215 317.196C132.394 319.192 132.505 320.494 132.594 322.782H132.705C133.106 320.494 133.418 319.17 133.842 317.218L135.958 308.984H138.965L140.993 317.218C141.46 319.17 141.728 320.494 142.129 322.782H142.262C142.374 320.494 142.441 319.17 142.619 317.218L144.022 302.927H147.743L144.446 326.596H140.213L138.163 317.644C137.829 316.186 137.54 314.75 137.361 313.314H137.25C137.027 314.75 136.827 316.186 136.47 317.644L134.421 326.596H130.277L126.824 302.927H130.767Z" fill="black"/>
<path d="M150.75 321.93C150.75 317.981 154.314 316.029 163.158 315.356C163.025 313.18 161.866 311.43 158.748 311.43C156.631 311.43 154.537 312.417 152.822 313.426L151.463 311.026C153.423 309.814 156.342 308.535 159.371 308.535C164.205 308.535 166.7 311.318 166.7 315.984V326.596H163.76L163.47 324.308H163.359C161.488 325.789 159.059 327.022 156.653 327.022C153.312 327.022 150.728 325.048 150.728 321.93H150.75ZM163.136 321.795V317.667C156.252 318.16 154.225 319.551 154.225 321.66C154.225 323.433 155.807 324.173 157.678 324.173C159.549 324.173 161.332 323.298 163.136 321.795Z" fill="black"/>
<path d="M171.958 333.641L172.648 330.837C173.116 330.971 173.651 331.083 174.163 331.083C176.502 331.083 177.884 329.692 178.663 327.718L179.131 326.506L171.134 308.962H174.72L178.619 318.116C179.287 319.708 180 321.526 180.668 323.276H180.802C181.381 321.571 182.049 319.731 182.606 318.116L186.059 308.962H189.468L181.938 327.718C180.535 331.442 178.418 334 174.297 334C173.428 334 172.537 333.865 171.891 333.641H171.958Z" fill="black"/>
<path d="M22.9901 163.377L42.9728 234.924H135.446L155.428 163.377H22.9901ZM89.2871 228.418C89.2871 228.418 89.1757 228.418 89.1089 228.418C89.0644 228.418 89.0198 228.418 88.9752 228.418C88.7525 228.418 88.5297 228.418 88.3069 228.395C88.0842 228.395 87.8391 228.395 87.6163 228.373C76.8342 227.857 67.1658 221.418 62.4876 211.568C55.5148 210.088 47.5842 207.395 47.5842 202.751C47.5842 199.319 51.8391 196.537 60.2153 194.472C62.3094 180.226 74.5396 169.255 89.2648 169.255C103.99 169.255 116.287 180.293 118.337 194.607C126.312 196.649 130.366 199.386 130.366 202.729C130.366 207.283 122.703 209.976 115.819 211.456C111.097 221.463 100.983 228.395 89.2648 228.395L89.2871 228.418Z" fill="white"/>
<path d="M22.0545 160.034H156.342L157.946 154.313H20.4728L22.0545 160.034Z" fill="white"/>
<path d="M43.9084 238.245L55.604 280.132H122.814L134.51 238.245H43.9084Z" fill="white"/>
<path d="M162.936 131.832H15.0371C11.8259 131.832 9.22277 134.454 9.22277 137.688V145.114C9.22277 148.348 11.8259 150.97 15.0371 150.97H162.936C166.147 150.97 168.75 148.348 168.75 145.114V137.688C168.75 134.454 166.147 131.832 162.936 131.832Z" fill="white"/>
<path d="M13.9455 109.598C15.2599 106.435 17.5767 103.855 20.5173 102.217C22.8564 90.0344 28.1807 78.5473 36.0223 69.057V37.49C36.0223 36.4804 36.5569 35.5606 37.4035 35.067C38.25 34.5734 39.2747 34.5958 40.1213 35.0894L63.1337 48.8649C71.4431 45.4098 80.198 43.6598 89.2203 43.6598C95.3688 43.6598 101.406 44.49 107.265 46.1053L116.777 17.5447C108.111 14.6281 98.7549 13.0351 88.9975 13.0351C45 13.08 9.22277 45.4098 9.22277 85.1659C9.22277 93.5792 10.8267 101.791 13.9455 109.621V109.598Z" fill="white"/>
<path d="M128.295 22.4806L120.52 45.7688L130.567 39.7336C130.121 39.1278 129.698 38.5221 129.364 37.9387C127.114 34.1247 128.005 31.9708 128.74 31.051C129.475 30.1087 131.324 28.7401 135.535 30.0189C138.163 30.8042 141.126 32.4644 143.933 34.6631C146.74 36.8618 149.035 39.3746 150.416 41.7528C152.666 45.5669 151.775 47.7207 151.04 48.6406C150.527 49.3136 149.436 50.1886 147.342 50.1886C146.495 50.1886 145.47 50.0316 144.245 49.6726C143.644 49.4931 143.02 49.2463 142.374 48.9771V69.0795C150.282 78.6371 155.606 90.1914 157.923 102.441C160.641 104.034 162.824 106.48 164.116 109.396C167.191 101.634 168.75 93.5119 168.75 85.1658C168.75 58.3328 152.421 34.8875 128.295 22.4806Z" fill="white"/>
<path d="M128.517 12.3172L130.656 5.85571L124.53 3.79163L122.458 10.0287L128.517 12.3172Z" fill="white"/>
<path d="M110.116 47.0028C111.854 47.5636 113.569 48.1918 115.285 48.8873L116.554 48.1245L125.733 20.596L119.673 18.3075L110.094 47.0028H110.116Z" fill="white"/>
<path d="M89.198 47.0252C80.354 47.0252 71.7549 48.7976 63.646 52.2976L62.8663 52.6341L39.3193 38.5221V70.291L38.9183 70.7621C31.6559 79.3774 26.6213 89.7427 24.1708 100.804C25.3069 100.534 26.4653 100.377 27.6906 100.377H75.7203C81.5569 100.377 86.6361 103.743 89.0866 108.746C91.5371 103.743 96.6163 100.377 102.453 100.377H150.483C151.775 100.377 153.022 100.557 154.248 100.893C151.797 89.81 146.74 79.4223 139.478 70.7621L139.077 70.291V47.2495C138.007 46.5989 136.916 45.8361 135.869 45.006C134.755 44.131 133.73 43.2111 132.817 42.2688L115.552 52.6117L114.772 52.2751C106.663 48.7752 98.0643 47.0028 89.2203 47.0028L89.198 47.0252ZM44.2203 61.5635C43.8416 61.5635 43.4851 61.4738 43.1287 61.2718C42.4604 60.868 42.0371 60.1725 42.0371 59.3872V48.3938C42.0371 47.6085 42.4381 46.8906 43.1287 46.5092C43.797 46.1053 44.6213 46.1053 45.2896 46.5092L54.7574 52.0059C55.4257 52.4098 55.849 53.1053 55.849 53.8905C55.849 54.6758 55.448 55.3937 54.7574 55.7751L45.2896 61.2718C44.9554 61.4738 44.5767 61.5635 44.198 61.5635H44.2203ZM55.6708 77.5602C53.198 77.5602 51.1708 75.5185 51.1708 73.0281C51.1708 70.5378 53.198 68.4961 55.6708 68.4961C58.1436 68.4961 60.1708 70.5378 60.1708 73.0281C60.1708 75.5185 58.1436 77.5602 55.6708 77.5602ZM93.5421 76.4384L90.1782 82.2941C89.9332 82.7428 89.4653 82.9896 88.9752 82.9896C88.4851 82.9896 88.0173 82.7204 87.7723 82.2941L84.4084 76.4384C84.1634 75.9897 84.1634 75.4736 84.4084 75.0474C84.6535 74.5986 85.1213 74.3518 85.6114 74.3518H92.3391C92.8515 74.3518 93.297 74.6211 93.5421 75.0474C93.7871 75.4961 93.7871 76.0121 93.5421 76.4384ZM123.149 52.0059L132.683 46.4643C133.351 46.0829 134.153 46.0829 134.822 46.4643C135.49 46.8457 135.891 47.5636 135.891 48.3265V59.4097C135.891 60.1949 135.49 60.8904 134.822 61.2718C134.488 61.4738 134.109 61.5635 133.752 61.5635C133.396 61.5635 133.017 61.4738 132.683 61.2718L123.149 55.7302C122.48 55.3488 122.079 54.6309 122.079 53.8681C122.079 53.1053 122.48 52.3873 123.149 52.0059ZM122.302 68.4961C124.775 68.4961 126.802 70.5378 126.802 73.0281C126.802 75.5185 124.775 77.5602 122.302 77.5602C119.829 77.5602 117.802 75.5185 117.802 73.0281C117.802 70.5378 119.829 68.4961 122.302 68.4961Z" fill="white"/>
<path d="M16.552 112.291H86.9257C85.5668 107.287 81.0445 103.72 75.7648 103.72H27.7129C22.5 103.72 17.9332 107.355 16.552 112.291Z" fill="white"/>
<path d="M150.483 103.72H102.453C97.151 103.72 92.651 107.287 91.2921 112.291H161.644C160.262 107.355 155.696 103.72 150.483 103.72Z" fill="white"/>
<path d="M95.1683 128.467C94.6337 128.175 94.1436 127.839 93.6535 127.48C93.5198 127.367 93.3639 127.278 93.2302 127.165C93.0297 127.008 92.8515 126.851 92.6733 126.694C92.5396 126.582 92.4059 126.448 92.2723 126.335C92.094 126.156 91.9158 125.999 91.7376 125.819C91.6262 125.707 91.5148 125.573 91.4035 125.438C91.0916 125.101 90.802 124.742 90.5346 124.361C90.4455 124.226 90.3342 124.092 90.245 123.957C90.1114 123.755 89.9777 123.553 89.8441 123.329C89.755 123.172 89.6436 123.015 89.5545 122.858C89.4431 122.656 89.3094 122.432 89.198 122.207C89.1757 122.14 89.1312 122.095 89.1089 122.028C89.0866 122.095 89.0421 122.14 89.0198 122.207C88.9084 122.432 88.797 122.633 88.6634 122.858C88.5742 123.015 88.4851 123.172 88.3738 123.329C88.2401 123.531 88.1064 123.755 87.9728 123.957C87.8837 124.092 87.7723 124.226 87.6832 124.361C87.4158 124.742 87.104 125.101 86.8144 125.438C86.703 125.573 86.5916 125.685 86.4802 125.819C86.302 125.999 86.1238 126.178 85.9455 126.335C85.8119 126.448 85.6782 126.582 85.5446 126.694C85.3663 126.851 85.1658 127.008 84.9876 127.165C84.854 127.278 84.698 127.39 84.5643 127.48C84.0742 127.839 83.5842 128.175 83.0495 128.467L83.0049 128.489H95.2351L95.1906 128.467H95.1683Z" fill="white"/>
<path d="M9.22277 122.073C9.22277 125.617 12.0965 128.512 15.6163 128.512H20.4728C20.1609 128.332 19.8713 128.153 19.5817 127.973C19.4257 127.861 19.2698 127.749 19.0916 127.637C18.9134 127.502 18.7129 127.367 18.5347 127.233C18.3342 127.076 18.1114 126.896 17.9109 126.717C17.7104 126.56 17.5322 126.38 17.354 126.201C17.2203 126.066 17.0644 125.931 16.9307 125.774C16.7748 125.595 16.5965 125.415 16.4406 125.236C16.2624 125.034 16.0842 124.81 15.9059 124.585C15.7723 124.406 15.6163 124.226 15.5049 124.024C15.3936 123.867 15.2822 123.71 15.1708 123.531C15.0149 123.284 14.8589 123.015 14.703 122.768C14.5916 122.566 14.4802 122.364 14.3911 122.162C14.2797 121.96 14.1906 121.758 14.1015 121.534C14.0124 121.355 13.9455 121.175 13.8787 120.996C13.745 120.659 13.6337 120.345 13.5223 120.008C13.4554 119.829 13.4109 119.649 13.3663 119.47C13.2995 119.246 13.2327 119.021 13.1881 118.774C13.1436 118.595 13.099 118.416 13.0545 118.214C12.9876 117.855 12.9431 117.496 12.8985 117.137C12.8762 116.935 12.854 116.755 12.854 116.553C12.854 116.464 12.854 116.374 12.8317 116.262C10.6931 117.316 9.22277 119.537 9.22277 122.05V122.073Z" fill="white"/>
<path d="M168.75 122.073C168.75 119.672 167.391 117.518 165.364 116.419C165.364 116.464 165.364 116.508 165.364 116.553C165.275 117.787 165.03 118.976 164.651 120.121C164.651 120.188 164.606 120.255 164.584 120.3C164.406 120.794 164.228 121.265 164.005 121.736C163.96 121.848 163.916 121.938 163.849 122.05C163.626 122.521 163.381 122.97 163.092 123.396C163.047 123.441 163.025 123.508 162.98 123.576C162.334 124.563 161.599 125.46 160.752 126.29C160.686 126.358 160.619 126.425 160.53 126.492C160.173 126.829 159.795 127.143 159.416 127.435C159.327 127.502 159.238 127.569 159.171 127.637C158.703 127.973 158.235 128.287 157.745 128.556H162.379C165.898 128.556 168.772 125.662 168.772 122.117L168.75 122.073Z" fill="white"/>
<path d="M172.069 122.073C172.069 118.079 169.686 114.601 166.166 113.098C170.064 104.214 172.069 94.8356 172.069 85.1658C172.069 58.9834 157.277 35.8747 134.911 22.3459C135.757 21.8524 136.426 21.0895 136.804 20.1248C137.651 17.8812 136.515 15.346 134.265 14.5159L131.347 13.4165L134.488 3.99355L122.658 0L119.651 8.99671L117.022 8.00954C114.795 7.15698 112.277 8.3012 111.453 10.5672C111.208 11.2178 111.141 11.8909 111.208 12.5415C104.146 10.7691 96.7054 9.78196 88.9975 9.78196C43.1733 9.73709 5.90347 43.5701 5.90347 85.1658C5.90347 94.8356 7.90842 104.214 11.8069 113.098C8.30941 114.601 5.90347 118.101 5.90347 122.073C5.90347 125.371 7.5297 128.265 10.0025 130.037C7.5297 131.675 5.90347 134.502 5.90347 137.71V145.136C5.90347 150.207 10.0025 154.335 15.0371 154.335H17.0198L53.0866 283.475H125.332L161.398 154.335H162.936C167.97 154.335 172.069 150.207 172.069 145.136V137.71C172.069 134.502 170.443 131.697 167.97 130.037C170.443 128.265 172.069 125.348 172.069 122.073ZM162.936 131.832C166.144 131.832 168.75 134.457 168.75 137.688V145.114C168.75 148.345 166.144 150.97 162.936 150.97H15.0371C11.8292 150.97 9.22277 148.345 9.22277 145.114V137.688C9.22277 134.457 11.8292 131.832 15.0371 131.832H162.936ZM55.604 280.132L43.9084 238.267H134.51L122.814 280.132H55.604ZM135.446 234.924H42.9728L22.9901 163.377H155.406L135.423 234.924H135.446ZM156.342 160.034H22.0545L20.4505 154.313H157.946L156.342 160.034ZM88.9752 13.08C98.7327 13.08 108.089 14.6729 116.755 17.5896L107.243 46.1502C101.384 44.5348 95.3465 43.7047 89.198 43.7047C80.198 43.7047 71.4208 45.4547 63.1114 48.9098L40.099 35.1343C39.2525 34.6183 38.25 34.6183 37.3812 35.1118C36.5347 35.6054 36 36.5253 36 37.5349V69.1019C28.1361 78.6146 22.8119 90.0793 20.495 102.262C17.5545 103.877 15.2153 106.457 13.9233 109.643C10.8045 101.813 9.20049 93.6241 9.20049 85.1883C9.22277 45.4098 45 13.08 88.9752 13.08ZM114.527 11.689C114.728 11.173 115.329 10.8813 115.842 11.0832L133.084 17.612C133.597 17.8139 133.886 18.4197 133.686 18.9357C133.485 19.4517 132.884 19.7434 132.371 19.5415L115.129 13.0127C114.616 12.8108 114.327 12.205 114.527 11.689ZM130.656 5.85571L128.495 12.3172L122.436 10.0287L124.507 3.79163L130.634 5.85571H130.656ZM150.483 127.053H102.453C96.1485 127.053 91.0025 121.96 90.8688 115.634H162.067C161.933 121.96 156.787 127.053 150.483 127.053ZM16.1287 115.634H87.3267C87.1931 121.96 82.047 127.053 75.7426 127.053H27.7129C21.4084 127.053 16.2624 121.96 16.1287 115.634ZM125.755 20.596L116.577 48.1245L115.307 48.8873C113.614 48.1694 111.876 47.5636 110.139 47.0028L119.718 18.3075L125.777 20.596H125.755ZM114.772 52.2976L115.552 52.6341L132.817 42.2913C133.752 43.2336 134.777 44.1534 135.869 45.0284C136.916 45.8585 138.007 46.6213 139.077 47.272V70.3134L139.478 70.7846C146.74 79.4223 151.797 89.8325 154.248 100.916C153.045 100.602 151.775 100.4 150.483 100.4H102.453C96.6163 100.4 91.5371 103.765 89.0866 108.768C86.6361 103.765 81.5569 100.4 75.7203 100.4H27.7129C26.5099 100.4 25.3292 100.557 24.1931 100.826C26.6436 89.7652 31.7005 79.3999 38.9406 70.7846L39.3416 70.3134V38.5445L62.8886 52.6565L63.6683 52.32C71.7995 48.82 80.3985 47.0476 89.2203 47.0476C98.0421 47.0476 106.663 48.82 114.772 52.32V52.2976ZM132.215 36.2336C131.168 34.4612 131.124 33.3619 131.347 33.0926C131.458 32.958 131.814 32.8234 132.416 32.8234C132.95 32.8234 133.663 32.9131 134.577 33.2048C136.782 33.8779 139.433 35.3586 141.884 37.2881C144.312 39.2176 146.384 41.4611 147.564 43.4579C148.611 45.2303 148.656 46.3297 148.433 46.5989C148.21 46.8681 147.163 47.0925 145.203 46.4867C142.998 45.8137 140.347 44.3329 137.896 42.4034C135.446 40.474 133.396 38.2304 132.215 36.2336ZM91.2921 112.291C92.651 107.287 97.1733 103.72 102.453 103.72H150.483C155.696 103.72 160.262 107.355 161.644 112.291H91.2921ZM27.7129 103.72H75.7426C81.0445 103.72 85.5445 107.287 86.9035 112.291H16.552C17.9332 107.355 22.5 103.72 27.7129 103.72ZM83.0272 128.467C83.5619 128.175 84.052 127.839 84.5421 127.48C84.6757 127.367 84.8317 127.278 84.9653 127.165C85.1658 127.008 85.3441 126.851 85.5223 126.694C85.6559 126.582 85.7896 126.448 85.9233 126.335C86.1015 126.156 86.2797 125.999 86.4579 125.819C86.5693 125.707 86.6807 125.573 86.7921 125.438C87.104 125.101 87.3936 124.742 87.6609 124.361C87.75 124.226 87.8614 124.092 87.9505 123.957C88.0842 123.755 88.2178 123.553 88.3515 123.329C88.4406 123.172 88.552 123.015 88.6411 122.858C88.7525 122.656 88.8861 122.432 88.9975 122.207C89.0198 122.14 89.0644 122.095 89.0866 122.028C89.1089 122.095 89.1535 122.14 89.1757 122.207C89.2871 122.432 89.3985 122.633 89.5322 122.858C89.6213 123.015 89.7104 123.172 89.8218 123.329C89.9554 123.531 90.0891 123.755 90.2228 123.957C90.3119 124.092 90.4233 124.226 90.5124 124.361C90.7797 124.742 91.0916 125.101 91.3812 125.438C91.4926 125.573 91.604 125.685 91.7153 125.819C91.8936 125.999 92.0718 126.178 92.25 126.335C92.3837 126.448 92.5173 126.582 92.651 126.694C92.8292 126.851 93.0297 127.008 93.2079 127.165C93.3416 127.278 93.4975 127.39 93.6312 127.48C94.1213 127.839 94.6114 128.175 95.146 128.467L95.1906 128.489H82.9604L83.0049 128.467H83.0272ZM164.116 109.396C162.824 106.48 160.641 104.034 157.923 102.441C155.606 90.1914 150.282 78.6371 142.374 69.0795V48.9771C143.02 49.2463 143.644 49.4707 144.245 49.6726C145.47 50.054 146.495 50.1886 147.342 50.1886C149.436 50.1886 150.527 49.2912 151.04 48.6406C151.775 47.6983 152.644 45.5669 150.416 41.7528C149.012 39.3746 146.718 36.8618 143.933 34.6631C141.149 32.4644 138.163 30.8042 135.535 30.0189C131.324 28.7401 129.475 30.1087 128.74 31.051C128.005 31.9933 127.136 34.1247 129.364 37.9387C129.72 38.5221 130.121 39.1278 130.567 39.7336L120.52 45.7688L128.295 22.4806C152.421 34.8875 168.75 58.3328 168.75 85.1658C168.75 93.5119 167.191 101.634 164.116 109.396ZM12.8317 116.284C12.8317 116.284 12.8317 116.486 12.854 116.576C12.854 116.778 12.8762 116.957 12.8985 117.159C12.9431 117.518 12.9876 117.877 13.0545 118.236C13.099 118.416 13.1436 118.595 13.1881 118.797C13.2327 119.021 13.2995 119.268 13.3663 119.492C13.4109 119.672 13.4777 119.851 13.5223 120.031C13.6337 120.367 13.745 120.704 13.8787 121.018C13.9455 121.198 14.0347 121.377 14.1015 121.557C14.1906 121.758 14.302 121.96 14.3911 122.185C14.5025 122.387 14.5916 122.589 14.703 122.79C14.8589 123.06 15.0149 123.307 15.1708 123.553C15.2822 123.71 15.3936 123.89 15.5049 124.047C15.6386 124.226 15.7723 124.428 15.9059 124.608C16.0842 124.832 16.2401 125.034 16.4406 125.258C16.5965 125.438 16.7525 125.617 16.9307 125.797C17.0644 125.931 17.198 126.089 17.354 126.223C17.5322 126.403 17.7327 126.56 17.9109 126.739C18.1114 126.919 18.3119 127.076 18.5347 127.255C18.7129 127.39 18.8911 127.524 19.0916 127.659C19.2475 127.771 19.4035 127.883 19.5817 127.996C19.8713 128.175 20.1609 128.377 20.4728 128.534H15.6163C12.0965 128.534 9.22277 125.64 9.22277 122.095C9.22277 119.582 10.6931 117.361 12.8317 116.307V116.284ZM162.356 128.512H157.723C158.213 128.242 158.703 127.928 159.149 127.592C159.238 127.524 159.327 127.457 159.394 127.39C159.795 127.098 160.151 126.784 160.507 126.448C160.574 126.38 160.641 126.313 160.73 126.246C161.577 125.438 162.334 124.54 162.958 123.531C163.002 123.486 163.025 123.419 163.069 123.351C163.337 122.925 163.582 122.476 163.827 122.005C163.871 121.915 163.916 121.803 163.983 121.691C164.205 121.22 164.406 120.749 164.562 120.255C164.562 120.188 164.606 120.121 164.629 120.076C165.007 118.932 165.23 117.742 165.342 116.508C165.342 116.464 165.342 116.419 165.342 116.374C167.369 117.473 168.728 119.649 168.728 122.028C168.728 125.573 165.854 128.467 162.334 128.467L162.356 128.512Z" fill="black"/>
<path d="M27.7129 127.053H75.7426C82.047 127.053 87.1931 121.96 87.3267 115.634H16.1287C16.2624 121.96 21.4084 127.053 27.7129 127.053Z" fill="white"/>
<path d="M90.8688 115.634C91.0025 121.96 96.1485 127.053 102.453 127.053H150.483C156.787 127.053 161.933 121.96 162.067 115.634H90.8688Z" fill="white"/>
<path d="M44.2649 48.4386V59.3648L53.6658 53.8456L44.2649 48.4386Z" fill="white"/>
<path d="M55.8713 53.8681C55.8713 53.0828 55.4703 52.3649 54.7797 51.9835L45.3119 46.4867C44.6436 46.0829 43.8193 46.0829 43.151 46.4867C42.4827 46.8906 42.0594 47.5861 42.0594 48.3713V59.3648C42.0594 60.1501 42.4604 60.868 43.151 61.2494C43.4851 61.4513 43.8639 61.5411 44.2426 61.5411C44.6213 61.5411 44.9777 61.4513 45.3342 61.2494L54.802 55.7527C55.4703 55.3488 55.8936 54.6533 55.8936 53.8681H55.8713ZM44.2649 48.4386L53.6658 53.8456L44.2649 59.3872V48.4386Z" fill="black"/>
<path d="M133.797 59.3648L133.708 48.4162L124.262 53.9354L133.797 59.3648Z" fill="white"/>
<path d="M123.149 55.7527L132.683 61.2943C133.017 61.4962 133.396 61.5859 133.752 61.5859C134.109 61.5859 134.488 61.4962 134.822 61.2943C135.49 60.9129 135.891 60.1949 135.891 59.4321V48.3489C135.891 47.5636 135.49 46.8681 134.822 46.4867C134.153 46.1053 133.351 46.1053 132.683 46.4867L123.149 52.0283C122.48 52.4097 122.079 53.1277 122.079 53.8905C122.079 54.6533 122.48 55.3713 123.149 55.7527ZM133.708 48.4162L133.797 59.3648L124.262 53.9354L133.708 48.4162Z" fill="black"/>
<path d="M55.6708 68.4961C53.198 68.4961 51.1708 70.5378 51.1708 73.0281C51.1708 75.5185 53.198 77.5602 55.6708 77.5602C58.1436 77.5602 60.1708 75.5185 60.1708 73.0281C60.1708 70.5378 58.1436 68.4961 55.6708 68.4961Z" fill="black"/>
<path d="M122.302 77.5602C124.775 77.5602 126.802 75.5185 126.802 73.0281C126.802 70.5378 124.775 68.4961 122.302 68.4961C119.829 68.4961 117.802 70.5378 117.802 73.0281C117.802 75.5185 119.829 77.5602 122.302 77.5602Z" fill="black"/>
<path d="M92.3391 74.3518H85.6114C85.099 74.3518 84.6535 74.6211 84.4084 75.0474C84.1634 75.4961 84.1634 76.0121 84.4084 76.4384L87.7723 82.2941C88.0173 82.7428 88.4851 82.9896 88.9752 82.9896C89.4653 82.9896 89.9332 82.7204 90.1782 82.2941L93.5421 76.4384C93.7871 75.9897 93.7871 75.4736 93.5421 75.0474C93.297 74.5986 92.8292 74.3518 92.3391 74.3518Z" fill="black"/>
<path d="M62.9109 198.825C62.9109 202.392 63.6238 205.825 64.8936 208.944C71.7549 210.245 80.2426 210.94 88.9752 210.94C97.7079 210.94 106.441 210.2 113.369 208.876C114.661 205.668 115.329 202.303 115.329 198.825C115.329 197.883 115.285 196.896 115.173 195.908L114.95 193.777L115.173 193.822C112.856 181.55 102.119 172.261 89.2871 172.261C74.7401 172.261 62.9332 184.175 62.9332 198.803L62.9109 198.825Z" fill="white"/>
<path d="M111.72 212.264C105.037 213.363 97.1064 213.969 88.9752 213.969C80.8441 213.969 72.9134 213.363 66.2302 212.264C70.9307 220.318 79.552 225.389 88.9752 225.389C98.3985 225.389 107.02 220.318 111.72 212.264Z" fill="white"/>
<path d="M61.1064 208.136C60.1262 205.152 59.6139 202.033 59.6139 198.825C59.6139 198.466 59.6139 198.107 59.6139 197.726C52.552 199.655 50.5916 201.742 50.5916 202.729C50.5916 203.716 52.8639 206.117 61.0842 208.113L61.1064 208.136Z" fill="white"/>
<path d="M127.359 202.751C127.359 201.764 125.399 199.655 118.337 197.748C118.337 198.107 118.337 198.488 118.337 198.847C118.337 202.033 117.847 205.152 116.844 208.158C125.064 206.161 127.337 203.806 127.337 202.774L127.359 202.751Z" fill="white"/>
<path d="M130.366 202.751C130.366 199.408 126.312 196.671 118.337 194.63C116.287 180.316 104.035 169.277 89.2648 169.277C74.495 169.277 62.3317 180.248 60.2153 194.495C51.8391 196.559 47.5842 199.341 47.5842 202.774C47.5842 207.395 55.5148 210.11 62.4876 211.591C67.1658 221.44 76.8342 227.902 87.6163 228.395C87.8391 228.395 88.0842 228.395 88.3069 228.418C88.5297 228.418 88.7525 228.44 88.9752 228.44C89.0198 228.44 89.0644 228.44 89.1089 228.44C89.1757 228.44 89.2203 228.44 89.2871 228.44C100.983 228.44 111.119 221.507 115.842 211.501C122.725 209.998 130.389 207.328 130.389 202.774L130.366 202.751ZM115.173 193.844L114.95 193.799L115.173 195.931C115.285 196.918 115.329 197.905 115.329 198.847C115.329 202.325 114.661 205.69 113.369 208.899C106.441 210.222 97.8416 210.963 88.9752 210.963C80.1089 210.963 71.7549 210.245 64.8936 208.966C63.6238 205.847 62.9109 202.437 62.9109 198.847C62.9109 184.197 74.7401 172.306 89.2648 172.306C102.119 172.306 112.834 181.617 115.151 193.867L115.173 193.844ZM66.2525 212.264C72.9356 213.363 80.8663 213.969 88.9975 213.969C97.1287 213.969 105.059 213.363 111.743 212.264C107.042 220.318 98.4208 225.389 88.9975 225.389C79.5743 225.389 70.953 220.318 66.2525 212.264ZM59.6361 197.726C59.6361 198.085 59.6361 198.466 59.6361 198.825C59.6361 202.011 60.1262 205.129 61.1287 208.136C52.9084 206.139 50.6361 203.783 50.6361 202.751C50.6361 201.719 52.5965 199.655 59.6584 197.748L59.6361 197.726ZM116.866 208.136C117.847 205.152 118.359 202.033 118.359 198.825C118.359 198.466 118.359 198.107 118.359 197.726C125.421 199.655 127.381 201.742 127.381 202.729C127.381 203.716 125.109 206.117 116.889 208.113L116.866 208.136Z" fill="black"/>
<path d="M137.896 42.381C140.324 44.3105 142.998 45.7912 145.203 46.4643C147.163 47.0476 148.233 46.8457 148.433 46.5765C148.656 46.3072 148.589 45.2079 147.564 43.4355C146.384 41.4387 144.312 39.1951 141.884 37.2657C139.455 35.3362 136.782 33.8554 134.577 33.1824C133.663 32.9131 132.928 32.801 132.416 32.801C131.814 32.801 131.458 32.9356 131.347 33.0702C131.124 33.3394 131.191 34.4388 132.215 36.2112C133.396 38.208 135.468 40.4515 137.896 42.381Z" fill="white"/>
<path d="M115.129 13.0127L132.371 19.5415C132.884 19.7434 133.485 19.4517 133.686 18.9357C133.886 18.4197 133.597 17.8139 133.084 17.612L115.842 11.0832C115.329 10.8813 114.728 11.173 114.527 11.689C114.327 12.205 114.616 12.8108 115.129 13.0127Z" fill="white"/>
<path d="M468.245 245.424C465.015 245.424 462.119 244.661 459.557 243.158C456.995 241.655 454.968 239.591 453.52 236.988C452.05 234.363 451.337 231.312 451.337 227.834V196.447C451.337 194.831 450.958 193.351 450.178 192.027C449.399 190.703 448.352 189.649 447.037 188.864C445.723 188.078 444.297 187.697 442.738 187.697C441.178 187.697 439.775 188.078 438.483 188.864C437.191 189.649 436.188 190.703 435.431 192.027C434.673 193.351 434.317 194.831 434.317 196.447V244.347H425.718V197.636C425.718 194.338 426.431 191.354 427.856 188.707C429.282 186.059 431.287 183.973 433.849 182.447C436.411 180.921 439.374 180.159 442.715 180.159C446.057 180.159 449.109 180.921 451.671 182.447C454.233 183.973 456.238 186.082 457.663 188.707C459.089 191.354 459.824 194.338 459.824 197.636V229.023C459.824 230.706 460.203 232.187 460.983 233.488C461.762 234.789 462.787 235.821 464.079 236.607C465.371 237.392 466.753 237.773 468.245 237.773C469.738 237.773 471.119 237.392 472.366 236.607C473.614 235.821 474.616 234.789 475.374 233.488C476.131 232.187 476.488 230.706 476.488 229.023V197.636C476.488 194.338 477.223 191.354 478.671 188.707C480.141 186.059 482.146 183.973 484.708 182.447C487.27 180.921 490.255 180.159 493.663 180.159C497.072 180.159 499.968 180.921 502.53 182.447C505.092 183.973 507.097 186.082 508.522 188.707C509.948 191.354 510.683 194.338 510.683 197.636V244.347H502.084V196.447C502.084 194.831 501.706 193.351 500.97 192.027C500.213 190.703 499.21 189.649 497.918 188.864C496.626 188.078 495.223 187.697 493.663 187.697C492.104 187.697 490.611 188.078 489.319 188.864C488.027 189.649 487.003 190.703 486.223 192.027C485.443 193.351 485.064 194.831 485.064 196.447V227.834C485.064 231.312 484.329 234.363 482.881 236.988C481.411 239.613 479.428 241.655 476.889 243.158C474.349 244.661 471.475 245.424 468.245 245.424Z" fill="#60369E"/>
<path d="M527.703 191.04C526.21 191.04 524.918 190.479 523.805 189.38C522.691 188.258 522.156 186.957 522.156 185.453C522.156 183.95 522.713 182.649 523.805 181.527C524.918 180.405 526.21 179.867 527.703 179.867C529.196 179.867 530.488 180.428 531.602 181.527C532.715 182.626 533.25 183.95 533.25 185.453C533.25 186.957 532.693 188.258 531.602 189.38C530.488 190.501 529.196 191.04 527.703 191.04ZM523.493 244.325V198.331H531.824V244.325H523.493Z" fill="#60369E"/>
<path d="M544.812 244.325V178.498H553.055V244.325H544.812Z" fill="#60369E"/>
<path d="M566.131 178.498H574.374V217.649H586.916L598.923 198.354H608.057L595.069 218.927C599.369 220.184 602.733 222.562 605.139 226.017C607.545 229.472 608.77 233.488 608.77 238.065V244.369H600.438V238.065C600.438 235.53 599.881 233.286 598.79 231.312C597.676 229.338 596.139 227.745 594.178 226.578C592.218 225.411 589.946 224.828 587.361 224.828H574.374V244.392H566.131V178.498Z" fill="#60369E"/>
<path d="M637.753 262.632V245.043C634.411 244.571 631.448 243.427 628.842 241.655C626.235 239.882 624.208 237.571 622.715 234.7C621.223 231.85 620.465 228.575 620.465 224.918V198.309H628.797V224.828C628.797 227.588 629.399 229.988 630.579 232.007C631.782 234.027 633.364 235.575 635.369 236.652C637.374 237.729 639.512 238.267 641.762 238.267C644.012 238.267 646.262 237.729 648.245 236.652C650.25 235.575 651.854 234.027 653.079 232.007C654.305 229.988 654.906 227.61 654.906 224.828V198.309H663.149V224.918C663.149 228.575 662.413 231.828 660.943 234.655C659.473 237.482 657.446 239.77 654.861 241.543C652.255 243.315 649.292 244.482 645.951 245.02V262.61H637.708L637.753 262.632Z" fill="#60369E"/>
<path d="M723.631 245.424C718.975 245.424 714.832 244.437 711.223 242.485C707.614 240.533 704.785 237.729 702.758 234.094C700.73 230.459 699.706 226.152 699.706 221.149V181.191H708.305V221.687C708.305 224.626 708.906 227.318 710.131 229.764C711.357 232.209 713.116 234.161 715.411 235.62C717.706 237.1 720.446 237.818 723.609 237.818C726.772 237.818 729.423 237.078 731.718 235.62C734.012 234.139 735.795 232.187 737.042 229.764C738.29 227.341 738.913 224.648 738.913 221.687V181.191H747.512V221.687C747.512 224.626 748.114 227.318 749.339 229.764C750.564 232.209 752.324 234.161 754.619 235.62C756.913 237.078 759.654 237.818 762.817 237.818C765.98 237.818 768.631 237.078 770.926 235.62C773.22 234.139 774.98 232.187 776.206 229.764C777.431 227.318 778.032 224.648 778.032 221.687V181.191H786.631V221.149C786.631 226.129 785.607 230.459 783.579 234.094C781.552 237.729 778.745 240.533 775.159 242.485C771.572 244.437 767.451 245.424 762.795 245.424C759.988 245.424 757.314 245.02 754.775 244.212C752.235 243.405 749.985 242.148 748.025 240.421C746.064 238.716 744.438 236.584 743.191 234.071C741.988 236.607 740.384 238.693 738.357 240.376C736.329 242.059 734.035 243.315 731.517 244.168C728.978 244.998 726.327 245.424 723.587 245.424H723.631Z" fill="#60369E"/>
<path d="M818.465 245.424C814.055 245.424 810.223 244.347 807.015 242.216C803.785 240.084 801.312 237.19 799.574 233.511C797.837 229.854 796.968 225.793 796.968 221.328C796.968 216.863 797.926 212.758 799.842 209.101C801.757 205.466 804.498 202.572 808.084 200.44C811.671 198.309 815.97 197.232 820.983 197.232C825.995 197.232 829.96 198.287 833.436 200.396C836.889 202.504 839.562 205.354 841.456 208.966C843.349 212.578 844.285 216.594 844.285 221.059V244.325H835.953V234.946H835.775C834.884 236.696 833.681 238.357 832.144 239.95C830.629 241.543 828.735 242.844 826.463 243.876C824.191 244.908 821.54 245.402 818.488 245.402L818.465 245.424ZM820.626 238.289C823.611 238.289 826.262 237.549 828.557 236.091C830.852 234.61 832.656 232.568 833.926 229.966C835.218 227.341 835.842 224.424 835.842 221.171C835.842 217.918 835.218 215.136 834.015 212.601C832.79 210.065 831.052 208.069 828.78 206.61C826.508 205.129 823.857 204.412 820.805 204.412C817.574 204.412 814.812 205.174 812.517 206.655C810.223 208.158 808.463 210.2 807.238 212.735C806.012 215.293 805.411 218.187 805.411 221.44C805.411 224.693 806.012 227.408 807.193 229.966C808.396 232.523 810.111 234.543 812.384 236.046C814.656 237.549 817.396 238.312 820.626 238.312V238.289Z" fill="#60369E"/>
<path d="M874.604 262.632V245.043C871.262 244.571 868.3 243.427 865.693 241.655C863.087 239.882 861.06 237.571 859.567 234.7C858.074 231.85 857.317 228.575 857.317 224.918V198.309H865.649V224.828C865.649 227.588 866.25 229.988 867.431 232.007C868.634 234.027 870.215 235.575 872.22 236.652C874.225 237.729 876.364 238.267 878.614 238.267C880.864 238.267 883.114 237.729 885.097 236.652C887.102 235.575 888.706 234.027 889.931 232.007C891.156 229.988 891.758 227.61 891.758 224.828V198.309H900V224.918C900 228.575 899.265 231.828 897.795 234.655C896.324 237.482 894.297 239.77 891.713 241.543C889.107 243.315 886.144 244.482 882.802 245.02V262.61H874.559L874.604 262.632Z" fill="#60369E"/>
<path d="M288.713 229.091L299.384 267.388H360.847L371.54 229.091H288.713Z" fill="#D8C4E5"/>
<path d="M402.839 122.858C402.839 120.659 401.592 118.685 399.743 117.675C399.743 117.72 399.743 117.742 399.743 117.787C399.654 118.909 399.431 120.008 399.097 121.041C399.097 121.108 399.052 121.153 399.03 121.22C398.874 121.669 398.696 122.117 398.495 122.544C398.451 122.633 398.406 122.723 398.361 122.813C398.161 123.239 397.916 123.643 397.671 124.047C397.649 124.092 397.604 124.159 397.582 124.204C397.003 125.101 396.312 125.931 395.532 126.672C395.465 126.739 395.399 126.784 395.332 126.851C394.998 127.165 394.663 127.435 394.307 127.704C394.24 127.771 394.151 127.816 394.084 127.883C393.661 128.197 393.238 128.467 392.77 128.736H397.003C400.233 128.736 402.839 126.089 402.839 122.858Z" fill="#D8C4E5"/>
<path d="M306.089 193.059C306.089 196.335 306.735 199.453 307.916 202.303C314.198 203.492 321.951 204.142 329.926 204.142C337.901 204.142 345.899 203.469 352.225 202.258C353.406 199.341 354.03 196.245 354.03 193.059C354.03 192.207 353.985 191.309 353.874 190.389L353.673 188.437L353.874 188.482C351.757 177.264 341.956 168.761 330.193 168.761C316.894 168.761 306.089 179.643 306.089 193.037V193.059Z" fill="#D8C4E5"/>
<path d="M350.71 205.331C344.606 206.341 337.344 206.902 329.926 206.902C322.507 206.902 315.245 206.341 309.141 205.331C313.441 212.69 321.327 217.334 329.926 217.334C338.525 217.334 346.433 212.713 350.71 205.331Z" fill="#D8C4E5"/>
<path d="M304.418 201.562C303.505 198.825 303.059 195.976 303.059 193.059C303.059 192.723 303.059 192.386 303.059 192.049C296.599 193.799 294.795 195.729 294.795 196.626C294.795 197.524 296.866 199.722 304.396 201.562H304.418Z" fill="#A87BC9"/>
<path d="M365.012 196.626C365.012 195.706 363.23 193.799 356.748 192.049C356.748 192.386 356.748 192.723 356.748 193.059C356.748 195.976 356.28 198.825 355.389 201.562C362.918 199.722 364.99 197.591 364.99 196.626H365.012Z" fill="#A87BC9"/>
<path d="M367.753 196.626C367.753 193.575 364.055 191.062 356.77 189.2C354.899 176.098 343.693 166.002 330.193 166.002C316.693 166.002 305.555 176.03 303.639 189.043C295.975 190.928 292.077 193.485 292.077 196.626C292.077 200.867 299.317 203.335 305.688 204.681C309.965 213.677 318.809 219.578 328.656 220.049C328.879 220.049 329.079 220.049 329.302 220.072C329.503 220.072 329.703 220.094 329.904 220.094C329.948 220.094 329.97 220.094 330.015 220.094C330.059 220.094 330.126 220.094 330.171 220.094C340.864 220.094 350.131 213.745 354.431 204.613C360.713 203.245 367.73 200.799 367.73 196.626H367.753ZM353.874 188.482L353.673 188.437L353.874 190.389C353.963 191.287 354.03 192.184 354.03 193.059C354.03 196.245 353.428 199.319 352.225 202.258C345.899 203.469 338.035 204.142 329.926 204.142C321.817 204.142 314.198 203.492 307.916 202.303C306.735 199.453 306.089 196.335 306.089 193.059C306.089 179.665 316.894 168.784 330.193 168.784C341.933 168.784 351.735 177.287 353.874 188.505V188.482ZM309.119 205.331C315.223 206.341 322.485 206.902 329.904 206.902C337.322 206.902 344.584 206.341 350.688 205.331C346.389 212.69 338.503 217.334 329.904 217.334C321.305 217.334 313.396 212.713 309.119 205.331ZM303.082 192.049C303.082 192.386 303.082 192.723 303.082 193.059C303.082 195.976 303.55 198.825 304.441 201.562C296.911 199.722 294.839 197.591 294.839 196.626C294.839 195.662 296.621 193.799 303.104 192.049H303.082ZM355.411 201.562C356.324 198.825 356.77 195.976 356.77 193.059C356.77 192.723 356.77 192.386 356.77 192.049C363.23 193.799 365.035 195.729 365.035 196.626C365.035 197.524 362.963 199.722 355.433 201.562H355.411Z" fill="#773DBD"/>
<path d="M374.636 50.0091C376.864 51.7591 379.292 53.1277 381.319 53.7335C383.102 54.2719 384.082 54.07 384.282 53.8232C384.483 53.5764 384.438 52.5668 383.48 50.9514C382.411 49.1341 380.517 47.0701 378.29 45.3201C376.062 43.5701 373.634 42.2015 371.606 41.5958C370.76 41.349 370.114 41.2592 369.624 41.2592C369.067 41.2592 368.755 41.3714 368.644 41.506C368.443 41.7528 368.488 42.7624 369.446 44.3778C370.515 46.1951 372.408 48.2592 374.636 50.0091Z" fill="#D8C4E5"/>
<path d="M269.577 160.639L287.844 226.04H372.386L390.654 160.639H269.577ZM330.193 220.094C330.193 220.094 330.082 220.094 330.037 220.094C329.993 220.094 329.97 220.094 329.926 220.094C329.725 220.094 329.525 220.094 329.324 220.072C329.102 220.072 328.901 220.072 328.678 220.049C318.809 219.578 309.965 213.677 305.71 204.681C299.339 203.335 292.099 200.867 292.099 196.626C292.099 193.485 295.998 190.95 303.661 189.043C305.577 176.03 316.76 166.002 330.215 166.002C343.671 166.002 354.921 176.098 356.792 189.2C364.077 191.085 367.775 193.575 367.775 196.626C367.775 200.799 360.757 203.245 354.475 204.613C350.154 213.767 340.908 220.094 330.215 220.094H330.193Z" fill="#A87BC9"/>
<path d="M268.73 157.588H391.522L392.97 152.361H267.26L268.73 157.588Z" fill="#D8C4E5"/>
<path d="M397.515 131.81H262.314C259.374 131.81 256.99 134.21 256.99 137.172V143.947C256.99 146.909 259.374 149.309 262.314 149.309H397.515C400.455 149.309 402.839 146.909 402.839 143.947V137.172C402.839 134.21 400.455 131.81 397.515 131.81Z" fill="#D8C4E5"/>
<path d="M261.312 111.483C262.493 108.589 264.631 106.233 267.327 104.73C269.465 93.5792 274.322 83.1018 281.517 74.4192V45.5444C281.517 44.6246 282.007 43.772 282.787 43.3233C283.567 42.8746 284.503 42.8746 285.26 43.3457L306.29 55.9546C313.886 52.7912 321.906 51.1982 330.126 51.1982C335.74 51.1982 341.265 51.961 346.611 53.4418L355.322 27.3267C347.413 24.6568 338.859 23.1985 329.926 23.1985C289.715 23.1985 256.99 52.7687 256.99 89.1145C256.99 96.81 258.438 104.326 261.312 111.46V111.483Z" fill="#D8C4E5"/>
<path d="M365.859 31.8138L358.753 53.1053L367.953 47.5861C367.53 47.0252 367.173 46.4867 366.839 45.9483C364.79 42.4483 365.592 40.4964 366.26 39.6438C366.928 38.7913 368.621 37.5349 372.475 38.7015C374.881 39.4195 377.599 40.9451 380.139 42.9419C382.678 44.9611 384.795 47.2495 386.064 49.4258C388.114 52.9258 387.312 54.8777 386.644 55.7302C386.176 56.336 385.173 57.1437 383.257 57.1437C382.478 57.1437 381.542 57.0091 380.428 56.6725C379.871 56.5155 379.314 56.2911 378.713 56.0443V74.4192C385.931 83.1466 390.809 93.7138 392.926 104.932C395.399 106.39 397.404 108.611 398.584 111.281C401.391 104.191 402.817 96.7651 402.817 89.137C402.817 64.5923 387.891 43.1663 365.837 31.8138H365.859Z" fill="#D8C4E5"/>
<path d="M366.059 22.5254L368.02 16.6248L362.428 14.7178L360.535 20.4165L366.059 22.5254Z" fill="#D8C4E5"/>
<path d="M349.24 54.227C350.822 54.7431 352.404 55.304 353.963 55.9546L355.144 55.2591L363.542 30.0862L358.017 27.9997L349.262 54.2495L349.24 54.227Z" fill="#D8C4E5"/>
<path d="M330.126 54.2495C322.04 54.2495 314.176 55.8648 306.757 59.0731L306.045 59.3872L284.525 46.4867V75.5409L284.168 75.9672C277.53 83.8421 272.918 93.3324 270.668 103.428C271.693 103.182 272.785 103.025 273.876 103.025H317.785C323.109 103.025 327.765 106.098 329.993 110.675C332.22 106.121 336.876 103.025 342.201 103.025H386.109C387.29 103.025 388.448 103.204 389.54 103.496C387.312 93.3549 382.678 83.8646 376.04 75.9448L375.683 75.5185V54.4514C374.703 53.8456 373.701 53.1726 372.743 52.4098C371.74 51.6021 370.805 50.7719 369.958 49.897L354.163 59.3648L353.451 59.0507C346.032 55.8424 338.168 54.227 330.082 54.227L330.126 54.2495ZM289.003 67.5538C288.668 67.5538 288.312 67.4641 288 67.2846C287.376 66.9256 287.02 66.275 287.02 65.5571V55.5059C287.02 54.7879 287.399 54.1373 288 53.7783C288.624 53.4194 289.359 53.4194 289.983 53.7783L298.626 58.8039C299.25 59.1629 299.629 59.8135 299.629 60.5315C299.629 61.2494 299.25 61.9 298.626 62.259L289.983 67.2846C289.671 67.4641 289.337 67.5538 288.98 67.5538H289.003ZM299.451 82.1595C297.178 82.1595 295.329 80.2973 295.329 78.0089C295.329 75.7204 297.178 73.8583 299.451 73.8583C301.723 73.8583 303.572 75.7204 303.572 78.0089C303.572 80.2973 301.723 82.1595 299.451 82.1595ZM334.092 81.1499L331.017 86.512C330.795 86.9158 330.371 87.1626 329.926 87.1626C329.48 87.1626 329.057 86.9158 328.834 86.512L325.76 81.1499C325.537 80.746 325.537 80.2749 325.76 79.871C325.983 79.4672 326.406 79.2204 326.852 79.2204H333C333.468 79.2204 333.869 79.4672 334.092 79.871C334.314 80.2749 334.314 80.746 334.092 81.1499ZM361.158 58.8039L369.869 53.7335C370.493 53.3745 371.228 53.3745 371.829 53.7335C372.453 54.0924 372.809 54.7206 372.809 55.4386V65.5571C372.809 66.275 372.453 66.9032 371.829 67.2622C371.517 67.4417 371.183 67.5314 370.849 67.5314C370.515 67.5314 370.181 67.4417 369.869 67.2622L361.158 62.1917C360.535 61.8327 360.178 61.2045 360.178 60.4866C360.178 59.7687 360.535 59.1405 361.158 58.7815V58.8039ZM360.379 73.8807C362.651 73.8807 364.5 75.7429 364.5 78.0313C364.5 80.3197 362.651 82.1819 360.379 82.1819C358.106 82.1819 356.257 80.3197 356.257 78.0313C356.257 75.7429 358.106 73.8807 360.379 73.8807Z" fill="#A87BC9"/>
<path d="M263.673 113.928H328.01C326.762 109.352 322.641 106.098 317.807 106.098H273.899C269.131 106.098 264.943 109.419 263.696 113.928H263.673Z" fill="#A87BC9"/>
<path d="M342.245 106.098C337.411 106.098 333.267 109.374 332.042 113.928H396.379C395.131 109.419 390.943 106.098 386.176 106.098H342.245Z" fill="#A87BC9"/>
<path d="M335.562 128.714C335.072 128.444 334.626 128.13 334.181 127.816C334.047 127.726 333.913 127.614 333.78 127.524C333.602 127.39 333.423 127.233 333.267 127.098C333.156 126.986 333.022 126.874 332.911 126.762C332.755 126.605 332.577 126.448 332.421 126.29C332.309 126.178 332.22 126.066 332.109 125.954C331.819 125.64 331.552 125.303 331.307 124.967C331.218 124.855 331.129 124.72 331.04 124.608C330.906 124.428 330.795 124.226 330.683 124.047C330.594 123.912 330.505 123.755 330.416 123.621C330.305 123.419 330.193 123.239 330.104 123.037C330.082 122.992 330.037 122.925 330.015 122.88C329.993 122.925 329.948 122.992 329.926 123.037C329.814 123.239 329.725 123.441 329.614 123.621C329.525 123.778 329.436 123.912 329.347 124.047C329.235 124.249 329.102 124.428 328.99 124.608C328.901 124.742 328.812 124.855 328.723 124.967C328.478 125.303 328.21 125.64 327.921 125.954C327.809 126.066 327.72 126.178 327.609 126.29C327.453 126.448 327.297 126.605 327.119 126.762C327.007 126.874 326.874 126.986 326.762 127.098C326.584 127.255 326.428 127.39 326.25 127.524C326.116 127.637 325.983 127.726 325.849 127.816C325.404 128.153 324.958 128.444 324.468 128.714C324.468 128.714 324.446 128.714 324.423 128.736H335.606C335.606 128.736 335.584 128.736 335.562 128.714Z" fill="#A87BC9"/>
<path d="M256.99 122.858C256.99 126.111 259.619 128.736 262.827 128.736H267.26C266.993 128.579 266.725 128.422 266.458 128.242C266.302 128.153 266.168 128.04 266.012 127.928C265.834 127.816 265.678 127.681 265.5 127.547C265.3 127.39 265.121 127.233 264.943 127.076C264.765 126.919 264.609 126.762 264.431 126.605C264.297 126.47 264.163 126.358 264.052 126.223C263.896 126.066 263.762 125.887 263.606 125.73C263.451 125.55 263.272 125.348 263.139 125.146C263.005 124.989 262.894 124.81 262.76 124.63C262.649 124.473 262.559 124.339 262.448 124.182C262.292 123.957 262.158 123.71 262.025 123.486C261.913 123.307 261.824 123.127 261.735 122.925C261.646 122.746 261.557 122.544 261.468 122.364C261.401 122.207 261.312 122.05 261.245 121.871C261.134 121.579 261.022 121.265 260.911 120.973C260.866 120.816 260.822 120.637 260.755 120.48C260.688 120.278 260.644 120.053 260.599 119.851C260.555 119.694 260.51 119.515 260.488 119.358C260.421 119.021 260.376 118.707 260.332 118.371C260.332 118.191 260.287 118.012 260.287 117.832C260.287 117.742 260.287 117.653 260.265 117.563C258.305 118.528 256.968 120.569 256.968 122.858H256.99Z" fill="#D8C4E5"/>
<path d="M405.869 122.858C405.869 119.201 403.686 116.015 400.456 114.646C404.02 106.525 405.869 97.9542 405.869 89.1145C405.869 65.1757 392.347 44.0412 371.874 31.6792C372.631 31.2305 373.277 30.535 373.611 29.6375C374.369 27.5734 373.344 25.2626 371.295 24.4998L368.621 23.4902L371.495 14.8749L360.691 11.2178L357.951 19.4517L355.545 18.5319C353.495 17.7691 351.201 18.8011 350.443 20.8652C350.22 21.4709 350.176 22.0767 350.22 22.66C343.76 21.0222 336.943 20.1472 329.926 20.1472C288.045 20.1472 253.96 51.086 253.96 89.1145C253.96 97.9542 255.787 106.525 259.374 114.646C256.166 116.037 253.96 119.246 253.96 122.858C253.96 125.864 255.453 128.512 257.703 130.149C255.453 131.653 253.96 134.233 253.96 137.172V143.947C253.96 148.592 257.703 152.361 262.314 152.361H264.119L297.089 270.44H363.141L396.111 152.361H397.515C402.126 152.361 405.869 148.592 405.869 143.947V137.172C405.869 134.255 404.376 131.675 402.126 130.149C404.399 128.534 405.869 125.864 405.869 122.858ZM397.515 131.81C400.455 131.81 402.839 134.21 402.839 137.172V143.947C402.839 146.909 400.455 149.309 397.515 149.309H262.314C259.374 149.309 256.99 146.909 256.99 143.947V137.172C256.99 134.21 259.374 131.81 262.314 131.81H397.537H397.515ZM299.384 267.388L288.691 229.113H371.54L360.847 267.388H299.384ZM372.386 226.04H287.844L269.577 160.639H390.654L372.386 226.04ZM391.522 157.588H268.73L267.26 152.361H392.97L391.5 157.588H391.522ZM329.926 23.1985C338.859 23.1985 347.413 24.6568 355.322 27.3267L346.611 53.4418C341.265 51.961 335.74 51.1982 330.126 51.1982C321.884 51.1982 313.864 52.7912 306.29 55.9546L285.26 43.3457C284.48 42.8746 283.567 42.8746 282.787 43.3233C282.007 43.772 281.517 44.6246 281.517 45.5444V74.4192C274.344 83.1018 269.465 93.6017 267.327 104.73C264.654 106.211 262.515 108.566 261.312 111.483C258.46 104.326 256.99 96.8324 256.99 89.137C256.99 52.7687 289.715 23.1985 329.926 23.1985ZM353.272 21.9421C353.451 21.4709 354.007 21.2017 354.475 21.3812L370.248 27.3491C370.715 27.5286 370.983 28.0895 370.805 28.5606C370.626 29.0318 370.069 29.301 369.602 29.1215L353.829 23.1536C353.361 22.9741 353.094 22.4132 353.272 21.9421ZM368.02 16.6248L366.059 22.5254L360.535 20.4389L362.428 14.7402L368.02 16.6248ZM342.245 127.435C336.475 127.435 331.775 122.768 331.663 117.002H396.757C396.646 122.768 391.923 127.435 386.176 127.435H342.245ZM263.295 116.98H328.389C328.277 122.746 323.555 127.412 317.807 127.412H273.899C268.129 127.412 263.428 122.746 263.317 116.98H263.295ZM363.542 30.0862L355.144 55.2591L353.963 55.9546C352.404 55.304 350.822 54.7431 349.24 54.227L357.995 27.9773L363.52 30.0638L363.542 30.0862ZM353.495 59.0731L354.208 59.3872L370.003 49.9194C370.849 50.7719 371.785 51.6245 372.787 52.4322C373.745 53.195 374.748 53.8681 375.728 54.4738V75.5409L376.084 75.9672C382.723 83.8646 387.356 93.3773 389.584 103.518C388.47 103.227 387.334 103.047 386.154 103.047H342.245C336.921 103.047 332.265 106.121 330.037 110.698C327.809 106.143 323.154 103.047 317.829 103.047H273.899C272.785 103.047 271.715 103.204 270.691 103.451C272.941 93.3324 277.552 83.8646 284.191 75.9897L284.547 75.5634V46.5092L306.067 59.4097L306.78 59.0956C314.198 55.8873 322.062 54.2719 330.149 54.2719C338.235 54.2719 346.099 55.8873 353.517 59.0956L353.495 59.0731ZM369.446 44.3778C368.488 42.7624 368.443 41.7528 368.644 41.506C368.755 41.3714 369.067 41.2592 369.624 41.2592C370.114 41.2592 370.76 41.349 371.606 41.5958C373.611 42.2015 376.062 43.5701 378.29 45.3201C380.517 47.0701 382.411 49.1341 383.48 50.9514C384.438 52.5668 384.483 53.5764 384.282 53.8232C384.082 54.07 383.102 54.2719 381.319 53.7335C379.314 53.1277 376.864 51.7591 374.636 50.0091C372.408 48.2592 370.515 46.1951 369.446 44.3778ZM332.02 113.928C333.267 109.352 337.389 106.098 342.223 106.098H386.131C390.899 106.098 395.087 109.419 396.334 113.928H331.998H332.02ZM273.899 106.098H317.807C322.641 106.098 326.785 109.374 328.01 113.928H263.673C264.921 109.419 269.109 106.098 273.876 106.098H273.899ZM324.468 128.714C324.958 128.444 325.404 128.13 325.849 127.816C325.983 127.726 326.116 127.614 326.25 127.524C326.428 127.39 326.606 127.233 326.762 127.098C326.874 126.986 327.007 126.874 327.119 126.762C327.275 126.605 327.453 126.448 327.609 126.29C327.72 126.178 327.809 126.066 327.921 125.954C328.21 125.64 328.478 125.303 328.723 124.967C328.812 124.855 328.901 124.72 328.99 124.608C329.124 124.428 329.235 124.226 329.347 124.047C329.436 123.912 329.525 123.755 329.614 123.621C329.725 123.419 329.837 123.239 329.926 123.037C329.948 122.992 329.993 122.925 330.015 122.88C330.037 122.925 330.082 122.992 330.104 123.037C330.215 123.239 330.305 123.441 330.416 123.621C330.505 123.778 330.594 123.912 330.683 124.047C330.795 124.249 330.928 124.428 331.04 124.608C331.129 124.742 331.218 124.855 331.307 124.967C331.552 125.303 331.819 125.64 332.109 125.954C332.22 126.066 332.309 126.178 332.421 126.29C332.577 126.448 332.733 126.605 332.911 126.762C333.022 126.874 333.156 126.986 333.267 127.098C333.446 127.255 333.602 127.39 333.78 127.524C333.913 127.637 334.047 127.726 334.181 127.816C334.626 128.153 335.072 128.444 335.562 128.714C335.562 128.714 335.584 128.714 335.606 128.736H324.423C324.423 128.736 324.446 128.736 324.468 128.714ZM398.606 111.281C397.426 108.611 395.421 106.39 392.948 104.932C390.832 93.7138 385.953 83.1691 378.735 74.4192V56.0443C379.314 56.2911 379.894 56.5155 380.451 56.6725C381.564 57.0091 382.5 57.1437 383.28 57.1437C385.196 57.1437 386.176 56.336 386.666 55.7302C387.334 54.8777 388.136 52.9258 386.087 49.4258C384.817 47.2495 382.701 44.9611 380.161 42.9419C377.621 40.9227 374.881 39.4195 372.498 38.7015C368.644 37.5349 366.951 38.7913 366.282 39.6438C365.614 40.4964 364.812 42.4483 366.861 45.9483C367.173 46.4867 367.552 47.0476 367.975 47.5861L358.775 53.1053L365.881 31.8138C387.936 43.1663 402.861 64.5923 402.861 89.137C402.861 96.7651 401.436 104.191 398.629 111.281H398.606ZM260.287 117.585C260.287 117.585 260.287 117.765 260.309 117.855C260.309 118.034 260.332 118.214 260.354 118.393C260.399 118.73 260.443 119.066 260.51 119.38C260.532 119.56 260.577 119.717 260.621 119.874C260.666 120.076 260.733 120.3 260.777 120.502C260.822 120.659 260.866 120.839 260.933 120.996C261.022 121.31 261.134 121.601 261.267 121.893C261.334 122.05 261.401 122.23 261.49 122.387C261.579 122.566 261.668 122.768 261.757 122.948C261.847 123.127 261.958 123.329 262.047 123.508C262.181 123.755 262.314 123.98 262.47 124.204C262.559 124.361 262.671 124.496 262.782 124.653C262.894 124.832 263.027 124.989 263.161 125.169C263.317 125.371 263.473 125.573 263.629 125.752C263.785 125.909 263.918 126.089 264.074 126.246C264.208 126.38 264.319 126.515 264.453 126.627C264.609 126.784 264.787 126.941 264.965 127.098C265.144 127.255 265.344 127.412 265.522 127.569C265.678 127.704 265.856 127.816 266.035 127.951C266.191 128.063 266.324 128.153 266.48 128.265C266.748 128.444 267.015 128.601 267.282 128.758H262.849C259.619 128.758 257.012 126.111 257.012 122.88C257.012 120.592 258.349 118.55 260.309 117.585H260.287ZM397.003 128.758H392.77C393.215 128.512 393.661 128.22 394.084 127.906C394.173 127.839 394.24 127.794 394.307 127.726C394.663 127.457 394.998 127.165 395.332 126.874C395.399 126.806 395.465 126.762 395.532 126.694C396.312 125.954 397.003 125.124 397.582 124.226C397.604 124.182 397.649 124.114 397.671 124.069C397.916 123.665 398.139 123.262 398.361 122.835C398.406 122.746 398.451 122.656 398.495 122.566C398.696 122.14 398.874 121.691 399.03 121.242C399.03 121.175 399.074 121.13 399.097 121.063C399.431 120.031 399.654 118.932 399.743 117.81C399.743 117.765 399.743 117.742 399.743 117.698C401.592 118.707 402.839 120.682 402.839 122.88C402.839 126.133 400.21 128.758 397.003 128.758Z" fill="#773DBD"/>
<path d="M317.807 127.435C323.577 127.435 328.277 122.768 328.389 117.002H263.295C263.406 122.768 268.129 127.435 273.876 127.435H317.807Z" fill="#A87BC9"/>
<path d="M331.641 116.98C331.753 122.746 336.475 127.412 342.223 127.412H386.131C391.901 127.412 396.602 122.746 396.713 116.98H331.619H331.641Z" fill="#A87BC9"/>
<path d="M289.047 55.5507V65.5346L297.624 60.4866L289.047 55.5507Z" fill="#D8C4E5"/>
<path d="M299.629 60.509C299.629 59.7911 299.25 59.1405 298.626 58.7815L289.983 53.7559C289.359 53.3969 288.624 53.3969 288 53.7559C287.376 54.1149 287.02 54.7655 287.02 55.4834V65.5346C287.02 66.2526 287.399 66.9032 288 67.2622C288.312 67.4417 288.646 67.5314 289.003 67.5314C289.359 67.5314 289.693 67.4417 290.005 67.2622L298.649 62.2366C299.272 61.8776 299.651 61.227 299.651 60.509H299.629ZM289.047 55.5507L297.646 60.4866L289.047 65.5571V55.5507Z" fill="#773DBD"/>
<path d="M370.894 65.5346L370.805 55.5059L362.183 60.5539L370.894 65.5346Z" fill="#D8C4E5"/>
<path d="M361.158 62.2366L369.869 67.307C370.181 67.4865 370.515 67.5763 370.849 67.5763C371.183 67.5763 371.517 67.4865 371.829 67.307C372.453 66.9481 372.809 66.3199 372.809 65.6019V55.4834C372.809 54.7655 372.453 54.1373 371.829 53.7783C371.206 53.4194 370.47 53.4194 369.869 53.7783L361.158 58.8488C360.535 59.2078 360.178 59.836 360.178 60.5539C360.178 61.2718 360.535 61.9 361.158 62.259V62.2366ZM370.805 55.5059L370.894 65.5122L362.183 60.5539L370.805 55.5059Z" fill="#773DBD"/>
<path d="M299.451 73.8807C297.178 73.8807 295.329 75.7429 295.329 78.0313C295.329 80.3197 297.178 82.1819 299.451 82.1819C301.723 82.1819 303.572 80.3197 303.572 78.0313C303.572 75.7429 301.723 73.8807 299.451 73.8807Z" fill="#773DBD"/>
<path d="M360.379 82.1595C362.651 82.1595 364.5 80.2973 364.5 78.0089C364.5 75.7204 362.651 73.8583 360.379 73.8583C358.106 73.8583 356.257 75.7204 356.257 78.0089C356.257 80.2973 358.106 82.1595 360.379 82.1595Z" fill="#773DBD"/>
<path d="M333 79.2428H326.852C326.384 79.2428 325.983 79.4896 325.76 79.8935C325.537 80.2973 325.537 80.7685 325.76 81.1723L328.834 86.5344C329.057 86.9383 329.48 87.1851 329.926 87.1851C330.371 87.1851 330.795 86.9383 331.017 86.5344L334.092 81.1723C334.314 80.7685 334.314 80.2973 334.092 79.8935C333.869 79.4896 333.446 79.2428 333 79.2428Z" fill="#773DBD"/>
<path d="M353.807 23.1536L369.579 29.1215C370.047 29.301 370.604 29.0542 370.782 28.5606C370.96 28.0895 370.715 27.5286 370.225 27.3491L354.453 21.3812C353.985 21.2017 353.428 21.4485 353.25 21.9421C353.072 22.4132 353.317 22.9741 353.807 23.1536Z" fill="#D8C4E5"/>
</svg>
