<svg width="950" height="123" viewBox="0 0 950 123" fill="none" xmlns="http://www.w3.org/2000/svg">
<path d="M25.6447 37.6203C23.7522 37.6203 22.0286 37.1972 20.4741 36.3511C18.9533 35.471 17.7536 34.2695 16.8749 32.7464C16.0301 31.1895 15.6076 29.4125 15.6076 27.4156V10.4078C15.6076 9.6293 15.4218 8.93545 15.05 8.32622C14.6783 7.68314 14.1713 7.17544 13.5292 6.80313C12.9209 6.43082 12.245 6.24466 11.5016 6.24466C10.7581 6.24466 10.0822 6.43082 9.47388 6.80313C8.86557 7.17544 8.37555 7.68314 8.00381 8.32622C7.63207 8.93545 7.44619 9.6293 7.44619 10.4078V37.0618H1.41383V11.1693C1.41383 9.24007 1.83627 7.5139 2.68114 5.99081C3.52601 4.43388 4.70882 3.19848 6.22958 2.28463C7.75035 1.37078 9.50767 0.913854 11.5016 0.913854C13.5292 0.913854 15.3035 1.37078 16.8242 2.28463C18.345 3.19848 19.5278 4.43388 20.3727 5.99081C21.2175 7.5139 21.64 9.24007 21.64 11.1693V28.1771C21.64 28.9218 21.8259 29.6156 22.1976 30.2587C22.5693 30.8679 23.0594 31.3587 23.6677 31.731C24.276 32.1033 24.935 32.2895 25.6447 32.2895C26.3881 32.2895 27.064 32.1033 27.6723 31.731C28.2806 31.3587 28.7707 30.8679 29.1424 30.2587C29.5142 29.6156 29.7 28.9218 29.7 28.1771V11.1693C29.7 9.24007 30.1225 7.5139 30.9673 5.99081C31.8122 4.43388 32.995 3.19848 34.5158 2.28463C36.0703 1.37078 37.8446 0.913854 39.8384 0.913854C41.8661 0.913854 43.6235 1.37078 45.1104 2.28463C46.6312 3.19848 47.814 4.43388 48.6589 5.99081C49.5037 7.5139 49.9262 9.24007 49.9262 11.1693V37.0618H43.8431V10.4078C43.8431 9.6293 43.6572 8.93545 43.2855 8.32622C42.9476 7.68314 42.4744 7.17544 41.8661 6.80313C41.2578 6.43082 40.5819 6.24466 39.8384 6.24466C39.095 6.24466 38.4022 6.43082 37.7601 6.80313C37.1518 7.17544 36.6617 7.68314 36.29 8.32622C35.9183 8.93545 35.7324 9.6293 35.7324 10.4078V27.4156C35.7324 29.4125 35.2931 31.1895 34.4144 32.7464C33.5357 34.2695 32.336 35.471 30.8153 36.3511C29.3283 37.1972 27.6048 37.6203 25.6447 37.6203Z" fill="black"/>
<path d="M69.0834 37.6711C66.5826 37.6711 64.4029 37.1803 62.5441 36.1987C60.6854 35.1833 59.2492 33.7956 58.2353 32.0356C57.2215 30.2756 56.7146 28.2956 56.7146 26.0956V11.1693H62.5441V26.0448C62.5441 27.3648 62.8314 28.5325 63.4059 29.5479C64.0142 30.5295 64.8084 31.3079 65.7884 31.8833C66.8023 32.4249 67.9006 32.6956 69.0834 32.6956C70.2662 32.6956 71.3477 32.4249 72.3277 31.8833C73.3416 31.3079 74.1357 30.5295 74.7103 29.5479C75.3186 28.5325 75.6227 27.3648 75.6227 26.0448V11.1693H81.4523V26.0956C81.4523 28.2956 80.9454 30.2756 79.9315 32.0356C78.9177 33.7956 77.4814 35.1833 75.6227 36.1987C73.764 37.1803 71.5842 37.6711 69.0834 37.6711Z" fill="black"/>
<path d="M88.3452 37.0618V32.0864H100.815C101.424 32.0864 101.948 31.951 102.387 31.6802C102.86 31.4095 103.215 31.0541 103.451 30.6141C103.722 30.1741 103.857 29.7172 103.857 29.2433C103.857 28.7018 103.739 28.2279 103.502 27.8218C103.266 27.4156 102.928 27.0941 102.488 26.8571C102.049 26.5864 101.542 26.451 100.968 26.451H95.8984C94.2424 26.451 92.7723 26.1802 91.4881 25.6387C90.2039 25.0971 89.1901 24.2679 88.4466 23.1509C87.7031 22.0002 87.3314 20.5617 87.3314 18.8355C87.3314 17.4478 87.6693 16.1786 88.3452 15.0278C89.0549 13.877 90.0012 12.9463 91.184 12.2355C92.3668 11.5247 93.7017 11.1693 95.1887 11.1693H107.203V16.1447H95.7463C94.969 16.1447 94.3269 16.3986 93.82 16.9063C93.3131 17.3801 93.0596 17.9724 93.0596 18.6832C93.0596 19.3601 93.3131 19.9525 93.82 20.4602C94.3269 20.9679 95.0028 21.2217 95.8477 21.2217H100.765C102.624 21.2217 104.212 21.5094 105.53 22.0848C106.848 22.6602 107.845 23.5233 108.521 24.674C109.23 25.8248 109.585 27.2802 109.585 29.0402C109.585 30.4618 109.23 31.7987 108.521 33.051C107.811 34.2695 106.831 35.251 105.581 35.9957C104.364 36.7064 102.978 37.0618 101.424 37.0618H88.3452Z" fill="black"/>
<path d="M128.455 37.0618C125.549 37.0618 122.998 36.5203 120.801 35.4372C118.638 34.3203 116.948 32.7972 115.732 30.8679C114.515 28.9048 113.907 26.6541 113.907 24.1156C113.907 21.4417 114.447 19.0894 115.529 17.0586C116.61 15.0278 118.097 13.437 119.99 12.2862C121.882 11.1355 124.062 10.5601 126.529 10.5601C129.3 10.5601 131.581 11.1524 133.372 12.337C135.164 13.5216 136.482 15.1124 137.326 17.1094C138.205 19.1063 138.644 21.3402 138.644 23.811C138.644 24.1494 138.628 24.5387 138.594 24.9787C138.56 25.4187 138.509 25.7571 138.442 25.994H120.091C120.294 27.3479 120.784 28.4818 121.561 29.3956C122.339 30.2756 123.319 30.9525 124.501 31.4264C125.684 31.8664 127.002 32.0864 128.455 32.0864H135.4V37.0618H128.455ZM120.04 22.034H132.815C132.781 21.3909 132.68 20.7479 132.511 20.1048C132.376 19.4617 132.139 18.8525 131.801 18.2771C131.497 17.7017 131.091 17.2109 130.584 16.8047C130.111 16.3647 129.537 16.0263 128.861 15.7894C128.185 15.5186 127.408 15.3832 126.529 15.3832C125.515 15.3832 124.62 15.5863 123.842 15.9924C123.065 16.3647 122.406 16.8724 121.865 17.5155C121.325 18.1248 120.902 18.8355 120.598 19.6478C120.328 20.4263 120.142 21.2217 120.04 22.034Z" fill="black"/>
<path d="M156.407 37.6711C153.738 37.6711 151.372 37.0788 149.31 35.8941C147.249 34.6757 145.61 33.051 144.393 31.0202C143.21 28.9556 142.619 26.6541 142.619 24.1156C142.619 21.5771 143.21 19.2925 144.393 17.2617C145.61 15.197 147.249 13.5724 149.31 12.3878C151.372 11.1693 153.738 10.5601 156.407 10.5601C159.043 10.5601 161.392 11.1693 163.453 12.3878C165.515 13.5724 167.137 15.1801 168.32 17.2109C169.537 19.2417 170.145 21.5432 170.145 24.1156C170.145 26.6541 169.537 28.9556 168.32 31.0202C167.137 33.051 165.515 34.6757 163.453 35.8941C161.392 37.0788 159.043 37.6711 156.407 37.6711ZM156.407 32.6956C157.996 32.6956 159.381 32.3233 160.564 31.5787C161.747 30.8002 162.659 29.7679 163.301 28.4818C163.944 27.1956 164.265 25.7402 164.265 24.1156C164.265 22.5248 163.944 21.0863 163.301 19.8002C162.659 18.4801 161.747 17.4478 160.564 16.7032C159.381 15.9247 157.996 15.5355 156.407 15.5355C154.785 15.5355 153.383 15.9247 152.2 16.7032C151.051 17.4478 150.138 18.4632 149.462 19.7494C148.82 21.0355 148.499 22.4909 148.499 24.1156C148.499 25.7064 148.82 27.1617 149.462 28.4818C150.138 29.7679 151.051 30.8002 152.2 31.5787C153.383 32.3233 154.785 32.6956 156.407 32.6956Z" fill="black"/>
<path d="M199.701 37.6203C197.808 37.6203 196.085 37.1972 194.53 36.3511C193.009 35.471 191.81 34.2695 190.931 32.7464C190.086 31.1895 189.664 29.4125 189.664 27.4156V10.4078C189.664 9.6293 189.478 8.93545 189.106 8.32622C188.734 7.68314 188.227 7.17544 187.585 6.80313C186.977 6.43082 186.301 6.24466 185.558 6.24466C184.814 6.24466 184.138 6.43082 183.53 6.80313C182.922 7.17544 182.432 7.68314 182.06 8.32622C181.688 8.93545 181.502 9.6293 181.502 10.4078V37.0618H175.47V11.1693C175.47 9.24007 175.892 7.5139 176.737 5.99081C177.582 4.43388 178.765 3.19848 180.286 2.28463C181.806 1.37078 183.564 0.913854 185.558 0.913854C187.585 0.913854 189.36 1.37078 190.88 2.28463C192.401 3.19848 193.584 4.43388 194.429 5.99081C195.274 7.5139 195.696 9.24007 195.696 11.1693V28.1771C195.696 28.9218 195.882 29.6156 196.254 30.2587C196.625 30.8679 197.115 31.3587 197.724 31.731C198.332 32.1033 198.991 32.2895 199.701 32.2895C200.444 32.2895 201.12 32.1033 201.728 31.731C202.337 31.3587 202.827 30.8679 203.198 30.2587C203.57 29.6156 203.756 28.9218 203.756 28.1771V11.1693C203.756 9.24007 204.179 7.5139 205.023 5.99081C205.868 4.43388 207.051 3.19848 208.572 2.28463C210.126 1.37078 211.901 0.913854 213.895 0.913854C215.922 0.913854 217.68 1.37078 219.166 2.28463C220.687 3.19848 221.87 4.43388 222.715 5.99081C223.56 7.5139 223.982 9.24007 223.982 11.1693V37.0618H217.899V10.4078C217.899 9.6293 217.713 8.93545 217.342 8.32622C217.004 7.68314 216.531 7.17544 215.922 6.80313C215.314 6.43082 214.638 6.24466 213.895 6.24466C213.151 6.24466 212.458 6.43082 211.816 6.80313C211.208 7.17544 210.718 7.68314 210.346 8.32622C209.974 8.93545 209.788 9.6293 209.788 10.4078V27.4156C209.788 29.4125 209.349 31.1895 208.47 32.7464C207.592 34.2695 206.392 35.471 204.871 36.3511C203.384 37.1972 201.661 37.6203 199.701 37.6203Z" fill="black"/>
<path d="M243.089 37.6711C240.419 37.6711 238.053 37.0788 235.992 35.8941C233.93 34.6757 232.291 33.051 231.075 31.0202C229.892 28.9556 229.301 26.6541 229.301 24.1156C229.301 21.5771 229.892 19.2925 231.075 17.2617C232.291 15.197 233.93 13.5724 235.992 12.3878C238.053 11.1693 240.419 10.5601 243.089 10.5601C245.725 10.5601 248.074 11.1693 250.135 12.3878C252.196 13.5724 253.819 15.1801 255.001 17.2109C256.218 19.2417 256.826 21.5432 256.826 24.1156C256.826 26.6541 256.218 28.9556 255.001 31.0202C253.819 33.051 252.196 34.6757 250.135 35.8941C248.074 37.0788 245.725 37.6711 243.089 37.6711ZM243.089 32.6956C244.677 32.6956 246.063 32.3233 247.246 31.5787C248.428 30.8002 249.341 29.7679 249.983 28.4818C250.625 27.1956 250.946 25.7402 250.946 24.1156C250.946 22.5248 250.625 21.0863 249.983 19.8002C249.341 18.4801 248.428 17.4478 247.246 16.7032C246.063 15.9247 244.677 15.5355 243.089 15.5355C241.467 15.5355 240.064 15.9247 238.881 16.7032C237.732 17.4478 236.82 18.4632 236.144 19.7494C235.502 21.0355 235.181 22.4909 235.181 24.1156C235.181 25.7064 235.502 27.1617 236.144 28.4818C236.82 29.7679 237.732 30.8002 238.881 31.5787C240.064 32.3233 241.467 32.6956 243.089 32.6956Z" fill="black"/>
<path d="M274.368 37.6711C272.307 37.6711 270.431 37.3495 268.741 36.7064C267.085 36.0295 265.666 35.0649 264.483 33.8126C263.334 32.5603 262.439 31.0879 261.797 29.3956C261.188 27.6694 260.884 25.774 260.884 23.7094C260.884 21.0694 261.408 18.7678 262.456 16.8047C263.537 14.8417 265.024 13.3186 266.916 12.2355C268.809 11.1185 270.972 10.5601 273.405 10.5601C274.622 10.5601 275.771 10.7462 276.852 11.1185C277.934 11.4909 278.914 12.0155 279.792 12.6924C280.671 13.3693 281.381 14.1647 281.921 15.0786H281.972V0H287.802V23.811C287.802 26.6541 287.227 29.1248 286.078 31.2233C284.963 33.288 283.391 34.8787 281.364 35.9957C279.37 37.1126 277.038 37.6711 274.368 37.6711ZM274.368 32.6956C275.855 32.6956 277.156 32.3403 278.271 31.6295C279.421 30.8849 280.316 29.8695 280.958 28.5833C281.6 27.2971 281.921 25.8079 281.921 24.1156C281.921 22.4233 281.6 20.934 280.958 19.6478C280.316 18.3617 279.421 17.3632 278.271 16.6524C277.156 15.9078 275.838 15.5355 274.318 15.5355C272.864 15.5355 271.563 15.9078 270.414 16.6524C269.265 17.3971 268.37 18.4125 267.728 19.6986C267.085 20.9848 266.764 22.4571 266.764 24.1156C266.764 25.8079 267.085 27.2971 267.728 28.5833C268.37 29.8695 269.265 30.8849 270.414 31.6295C271.597 32.3403 272.915 32.6956 274.368 32.6956Z" fill="black"/>
<path d="M307.66 37.0618C304.754 37.0618 302.202 36.5203 300.005 35.4372C297.842 34.3203 296.153 32.7972 294.936 30.8679C293.72 28.9048 293.111 26.6541 293.111 24.1156C293.111 21.4417 293.652 19.0894 294.733 17.0586C295.815 15.0278 297.302 13.437 299.194 12.2862C301.087 11.1355 303.267 10.5601 305.734 10.5601C308.505 10.5601 310.786 11.1524 312.577 12.337C314.368 13.5216 315.686 15.1124 316.531 17.1094C317.41 19.1063 317.849 21.3402 317.849 23.811C317.849 24.1494 317.832 24.5387 317.798 24.9787C317.764 25.4187 317.714 25.7571 317.646 25.994H299.296C299.498 27.3479 299.988 28.4818 300.766 29.3956C301.543 30.2756 302.523 30.9525 303.706 31.4264C304.889 31.8664 306.207 32.0864 307.66 32.0864H314.605V37.0618H307.66ZM299.245 22.034H312.019C311.986 21.3909 311.884 20.7479 311.715 20.1048C311.58 19.4617 311.343 18.8525 311.006 18.2771C310.701 17.7017 310.296 17.2109 309.789 16.8047C309.316 16.3647 308.741 16.0263 308.065 15.7894C307.389 15.5186 306.612 15.3832 305.734 15.3832C304.72 15.3832 303.824 15.5863 303.047 15.9924C302.27 16.3647 301.611 16.8724 301.07 17.5155C300.529 18.1248 300.107 18.8355 299.803 19.6478C299.532 20.4263 299.346 21.2217 299.245 22.034Z" fill="black"/>
<path d="M323.091 37.0618V18.5309C323.091 16.2294 323.733 14.4355 325.017 13.1493C326.335 11.8293 328.143 11.1693 330.441 11.1693H336.676V16.1447H331.506C330.695 16.1447 330.053 16.3817 329.579 16.8555C329.14 17.3294 328.92 17.9724 328.92 18.7848V37.0618H323.091Z" fill="black"/>
<path d="M340.719 37.0618V22.1356C340.719 19.9017 341.226 17.9217 342.24 16.1955C343.254 14.4355 344.69 13.0647 346.549 12.0832C348.407 11.0678 350.587 10.5601 353.088 10.5601C355.589 10.5601 357.752 11.0678 359.576 12.0832C361.435 13.0647 362.871 14.4355 363.885 16.1955C364.899 17.9217 365.406 19.9017 365.406 22.1356V37.0618H359.627V22.1863C359.627 20.8663 359.323 19.7155 358.715 18.734C358.106 17.7186 357.295 16.9401 356.281 16.3986C355.301 15.8232 354.22 15.5355 353.037 15.5355C351.888 15.5355 350.807 15.8232 349.793 16.3986C348.813 16.9401 348.019 17.7186 347.41 18.734C346.836 19.7155 346.549 20.8663 346.549 22.1863V37.0618H340.719Z" fill="black"/>
<path d="M384.72 37.6711C382.05 37.6711 379.684 37.0788 377.623 35.8941C375.561 34.6757 373.922 33.051 372.706 31.0202C371.523 28.9556 370.932 26.6541 370.932 24.1156C370.932 21.5771 371.523 19.2925 372.706 17.2617C373.922 15.197 375.561 13.5724 377.623 12.3878C379.684 11.1693 382.05 10.5601 384.72 10.5601C387.356 10.5601 389.704 11.1693 391.766 12.3878C393.827 13.5724 395.45 15.1801 396.632 17.2109C397.849 19.2417 398.457 21.5432 398.457 24.1156C398.457 26.6541 397.849 28.9556 396.632 31.0202C395.45 33.051 393.827 34.6757 391.766 35.8941C389.704 37.0788 387.356 37.6711 384.72 37.6711ZM384.72 32.6956C386.308 32.6956 387.694 32.3233 388.876 31.5787C390.059 30.8002 390.972 29.7679 391.614 28.4818C392.256 27.1956 392.577 25.7402 392.577 24.1156C392.577 22.5248 392.256 21.0863 391.614 19.8002C390.972 18.4801 390.059 17.4478 388.876 16.7032C387.694 15.9247 386.308 15.5355 384.72 15.5355C383.098 15.5355 381.695 15.9247 380.512 16.7032C379.363 17.4478 378.451 18.4632 377.775 19.7494C377.133 21.0355 376.812 22.4909 376.812 24.1156C376.812 25.7064 377.133 27.1617 377.775 28.4818C378.451 29.7679 379.363 30.8002 380.512 31.5787C381.695 32.3233 383.098 32.6956 384.72 32.6956Z" fill="black"/>
<path d="M441.429 37.6203C439.536 37.6203 437.813 37.1972 436.258 36.3511C434.737 35.471 433.538 34.2695 432.659 32.7464C431.814 31.1895 431.392 29.4125 431.392 27.4156V10.4078C431.392 9.6293 431.206 8.93545 430.834 8.32622C430.462 7.68314 429.955 7.17544 429.313 6.80313C428.705 6.43082 428.029 6.24466 427.286 6.24466C426.542 6.24466 425.866 6.43082 425.258 6.80313C424.65 7.17544 424.16 7.68314 423.788 8.32622C423.416 8.93545 423.23 9.6293 423.23 10.4078V37.0618H417.198V11.1693C417.198 9.24007 417.62 7.5139 418.465 5.99081C419.31 4.43388 420.493 3.19848 422.014 2.28463C423.534 1.37078 425.292 0.913854 427.286 0.913854C429.313 0.913854 431.088 1.37078 432.608 2.28463C434.129 3.19848 435.312 4.43388 436.157 5.99081C437.002 7.5139 437.424 9.24007 437.424 11.1693V28.1771C437.424 28.9218 437.61 29.6156 437.982 30.2587C438.353 30.8679 438.843 31.3587 439.452 31.731C440.06 32.1033 440.719 32.2895 441.429 32.2895C442.172 32.2895 442.848 32.1033 443.456 31.731C444.065 31.3587 444.555 30.8679 444.927 30.2587C445.298 29.6156 445.484 28.9218 445.484 28.1771V11.1693C445.484 9.24007 445.907 7.5139 446.751 5.99081C447.596 4.43388 448.779 3.19848 450.3 2.28463C451.854 1.37078 453.629 0.913854 455.623 0.913854C457.65 0.913854 459.408 1.37078 460.895 2.28463C462.415 3.19848 463.598 4.43388 464.443 5.99081C465.288 7.5139 465.71 9.24007 465.71 11.1693V37.0618H459.627V10.4078C459.627 9.6293 459.441 8.93545 459.07 8.32622C458.732 7.68314 458.259 7.17544 457.65 6.80313C457.042 6.43082 456.366 6.24466 455.623 6.24466C454.879 6.24466 454.186 6.43082 453.544 6.80313C452.936 7.17544 452.446 7.68314 452.074 8.32622C451.702 8.93545 451.516 9.6293 451.516 10.4078V27.4156C451.516 29.4125 451.077 31.1895 450.199 32.7464C449.32 34.2695 448.12 35.471 446.599 36.3511C445.112 37.1972 443.389 37.6203 441.429 37.6203Z" fill="black"/>
<path d="M485.577 37.0618C482.671 37.0618 480.119 36.5203 477.923 35.4372C475.76 34.3203 474.07 32.7972 472.854 30.8679C471.637 28.9048 471.029 26.6541 471.029 24.1156C471.029 21.4417 471.569 19.0894 472.651 17.0586C473.732 15.0278 475.219 13.437 477.112 12.2862C479.004 11.1355 481.184 10.5601 483.651 10.5601C486.422 10.5601 488.703 11.1524 490.494 12.337C492.285 13.5216 493.603 15.1124 494.448 17.1094C495.327 19.1063 495.766 21.3402 495.766 23.811C495.766 24.1494 495.749 24.5387 495.716 24.9787C495.682 25.4187 495.631 25.7571 495.564 25.994H477.213C477.416 27.3479 477.906 28.4818 478.683 29.3956C479.46 30.2756 480.44 30.9525 481.623 31.4264C482.806 31.8664 484.124 32.0864 485.577 32.0864H492.522V37.0618H485.577ZM477.162 22.034H489.937C489.903 21.3909 489.802 20.7479 489.633 20.1048C489.497 19.4617 489.261 18.8525 488.923 18.2771C488.619 17.7017 488.213 17.2109 487.706 16.8047C487.233 16.3647 486.659 16.0263 485.983 15.7894C485.307 15.5186 484.53 15.3832 483.651 15.3832C482.637 15.3832 481.742 15.5863 480.964 15.9924C480.187 16.3647 479.528 16.8724 478.987 17.5155C478.447 18.1248 478.024 18.8355 477.72 19.6478C477.45 20.4263 477.264 21.2217 477.162 22.034Z" fill="black"/>
<path d="M513.225 37.6711C511.164 37.6711 509.288 37.3495 507.598 36.7064C505.942 36.0295 504.523 35.0649 503.34 33.8126C502.191 32.5603 501.295 31.0879 500.653 29.3956C500.045 27.6694 499.741 25.774 499.741 23.7094C499.741 21.0694 500.265 18.7678 501.312 16.8047C502.394 14.8417 503.881 13.3186 505.773 12.2355C507.666 11.1185 509.829 10.5601 512.262 10.5601C513.478 10.5601 514.628 10.7462 515.709 11.1185C516.79 11.4909 517.77 12.0155 518.649 12.6924C519.528 13.3693 520.237 14.1647 520.778 15.0786H520.829V0H526.658V23.811C526.658 26.6541 526.084 29.1248 524.935 31.2233C523.82 33.288 522.248 34.8787 520.221 35.9957C518.227 37.1126 515.895 37.6711 513.225 37.6711ZM513.225 32.6956C514.712 32.6956 516.013 32.3403 517.128 31.6295C518.277 30.8849 519.173 29.8695 519.815 28.5833C520.457 27.2971 520.778 25.8079 520.778 24.1156C520.778 22.4233 520.457 20.934 519.815 19.6478C519.173 18.3617 518.277 17.3632 517.128 16.6524C516.013 15.9078 514.695 15.5355 513.174 15.5355C511.721 15.5355 510.42 15.9078 509.271 16.6524C508.122 17.3971 507.226 18.4125 506.584 19.6986C505.942 20.9848 505.621 22.4571 505.621 24.1156C505.621 25.8079 505.942 27.2971 506.584 28.5833C507.226 29.8695 508.122 30.8849 509.271 31.6295C510.454 32.3403 511.772 32.6956 513.225 32.6956Z" fill="black"/>
<path d="M533.438 37.0618V11.1693H539.268V37.0618H533.438ZM536.328 7.56467C535.314 7.56467 534.435 7.19236 533.692 6.44774C532.948 5.70312 532.576 4.82311 532.576 3.80772C532.576 2.79233 532.948 1.91232 533.692 1.1677C534.435 0.42308 535.314 0.050769 536.328 0.050769C537.375 0.050769 538.254 0.42308 538.964 1.1677C539.707 1.91232 540.079 2.79233 540.079 3.80772C540.079 4.82311 539.707 5.70312 538.964 6.44774C538.254 7.19236 537.375 7.56467 536.328 7.56467Z" fill="black"/>
<path d="M558.628 37.6711C556.128 37.6711 553.948 37.1803 552.089 36.1987C550.231 35.1833 548.794 33.7956 547.78 32.0356C546.767 30.2756 546.26 28.2956 546.26 26.0956V11.1693H552.089V26.0448C552.089 27.3648 552.376 28.5325 552.951 29.5479C553.559 30.5295 554.353 31.3079 555.333 31.8833C556.347 32.4249 557.446 32.6956 558.628 32.6956C559.811 32.6956 560.893 32.4249 561.873 31.8833C562.887 31.3079 563.681 30.5295 564.255 29.5479C564.864 28.5325 565.168 27.3648 565.168 26.0448V11.1693H570.997V26.0956C570.997 28.2956 570.49 30.2756 569.477 32.0356C568.463 33.7956 567.026 35.1833 565.168 36.1987C563.309 37.1803 561.129 37.6711 558.628 37.6711Z" fill="black"/>
<path d="M577.992 37.0618V21.5771C577.992 19.5802 578.465 17.7524 579.411 16.094C580.357 14.4016 581.726 13.0647 583.517 12.0832C585.308 11.0678 587.454 10.5601 589.955 10.5601C591.172 10.5601 592.338 10.7124 593.453 11.017C594.568 11.3216 595.599 11.8124 596.545 12.4893C597.525 13.1324 598.353 13.9447 599.029 14.9263H599.08C599.755 13.9447 600.567 13.1324 601.513 12.4893C602.493 11.8124 603.541 11.3216 604.656 11.017C605.805 10.7124 606.988 10.5601 608.204 10.5601C610.739 10.5601 612.885 11.0678 614.642 12.0832C616.433 13.0647 617.802 14.4016 618.748 16.094C619.694 17.7524 620.167 19.5802 620.167 21.5771V37.0618H614.389V21.5771C614.389 20.4602 614.101 19.4448 613.527 18.5309C612.986 17.6171 612.26 16.8894 611.347 16.3478C610.435 15.8063 609.387 15.5355 608.204 15.5355C607.055 15.5355 606.008 15.8063 605.061 16.3478C604.115 16.8894 603.355 17.6171 602.78 18.5309C602.239 19.4448 601.969 20.4602 601.969 21.5771V37.0618H596.19V21.5771C596.19 20.4602 595.903 19.4448 595.328 18.5309C594.754 17.6171 593.993 16.8894 593.047 16.3478C592.135 15.8063 591.104 15.5355 589.955 15.5355C588.806 15.5355 587.758 15.8063 586.812 16.3478C585.9 16.8894 585.156 17.6171 584.582 18.5309C584.041 19.4448 583.771 20.4602 583.771 21.5771V37.0618H577.992Z" fill="black"/>
<path d="M704.84 37.6203C702.947 37.6203 701.224 37.1972 699.669 36.3511C698.148 35.471 696.948 34.2695 696.07 32.7464C695.225 31.1895 694.802 29.4125 694.802 27.4156V10.4078C694.802 9.6293 694.617 8.93545 694.245 8.32622C693.873 7.68314 693.366 7.17544 692.724 6.80313C692.116 6.43082 691.44 6.24466 690.696 6.24466C689.953 6.24466 689.277 6.43082 688.669 6.80313C688.06 7.17544 687.57 7.68314 687.199 8.32622C686.827 8.93545 686.641 9.6293 686.641 10.4078V37.0618H680.609V11.1693C680.609 9.24007 681.031 7.5139 681.876 5.99081C682.721 4.43388 683.904 3.19848 685.424 2.28463C686.945 1.37078 688.703 0.913854 690.696 0.913854C692.724 0.913854 694.498 1.37078 696.019 2.28463C697.54 3.19848 698.723 4.43388 699.568 5.99081C700.412 7.5139 700.835 9.24007 700.835 11.1693V28.1771C700.835 28.9218 701.021 29.6156 701.392 30.2587C701.764 30.8679 702.254 31.3587 702.863 31.731C703.471 32.1033 704.13 32.2895 704.84 32.2895C705.583 32.2895 706.259 32.1033 706.867 31.731C707.476 31.3587 707.966 30.8679 708.337 30.2587C708.709 29.6156 708.895 28.9218 708.895 28.1771V11.1693C708.895 9.24007 709.317 7.5139 710.162 5.99081C711.007 4.43388 712.19 3.19848 713.711 2.28463C715.265 1.37078 717.039 0.913854 719.033 0.913854C721.061 0.913854 722.818 1.37078 724.305 2.28463C725.826 3.19848 727.009 4.43388 727.854 5.99081C728.699 7.5139 729.121 9.24007 729.121 11.1693V37.0618H723.038V10.4078C723.038 9.6293 722.852 8.93545 722.48 8.32622C722.142 7.68314 721.669 7.17544 721.061 6.80313C720.453 6.43082 719.777 6.24466 719.033 6.24466C718.29 6.24466 717.597 6.43082 716.955 6.80313C716.347 7.17544 715.857 7.68314 715.485 8.32622C715.113 8.93545 714.927 9.6293 714.927 10.4078V27.4156C714.927 29.4125 714.488 31.1895 713.609 32.7464C712.731 34.2695 711.531 35.471 710.01 36.3511C708.523 37.1972 706.8 37.6203 704.84 37.6203Z" fill="black"/>
<path d="M735.909 37.0618V11.1693H741.739V37.0618H735.909ZM738.799 7.56467C737.785 7.56467 736.906 7.19236 736.163 6.44774C735.419 5.70312 735.048 4.82311 735.048 3.80772C735.048 2.79233 735.419 1.91232 736.163 1.1677C736.906 0.42308 737.785 0.050769 738.799 0.050769C739.846 0.050769 740.725 0.42308 741.435 1.1677C742.178 1.91232 742.55 2.79233 742.55 3.80772C742.55 4.82311 742.178 5.70312 741.435 6.44774C740.725 7.19236 739.846 7.56467 738.799 7.56467Z" fill="black"/>
<path d="M748.731 37.0618V0H754.561V37.0618H748.731Z" fill="black"/>
<path d="M761.553 37.0618V0H767.382V21.5263H772.958L779.447 11.1693H785.885L778.636 22.4402C780.968 23.2525 782.776 24.6233 784.06 26.5525C785.344 28.4479 785.986 30.631 785.986 33.1018V37.0618H780.156V33.1018C780.156 31.8833 779.869 30.7833 779.295 29.8018C778.72 28.7864 777.943 27.991 776.963 27.4156C775.983 26.8402 774.868 26.5525 773.617 26.5525H767.382V37.0618H761.553Z" fill="black"/>
<path d="M801.577 47.3681V37.4172C799.617 37.0449 797.927 36.3511 796.508 35.3357C795.089 34.2864 793.99 32.9664 793.213 31.3756C792.436 29.7848 792.047 28.0248 792.047 26.0956V11.1693H797.877V26.0448C797.877 27.3648 798.164 28.5325 798.738 29.5479C799.347 30.5295 800.141 31.3079 801.121 31.8833C802.135 32.4249 803.233 32.6956 804.416 32.6956C805.599 32.6956 806.68 32.4249 807.66 31.8833C808.674 31.3079 809.468 30.5295 810.043 29.5479C810.651 28.5325 810.955 27.3648 810.955 26.0448V11.1693H816.785V26.0956C816.785 28.0248 816.396 29.7679 815.619 31.3249C814.842 32.8818 813.743 34.2018 812.324 35.2849C810.938 36.3341 809.282 37.028 807.356 37.3664V47.3681H801.577Z" fill="black"/>
<path d="M850.729 37.6711C848.06 37.6711 845.694 37.1126 843.633 35.9957C841.571 34.8787 839.949 33.288 838.766 31.2233C837.583 29.1248 836.992 26.6371 836.992 23.7602V1.52309H843.024V24.1663C843.024 25.6556 843.328 27.0264 843.937 28.2787C844.579 29.4972 845.474 30.4787 846.623 31.2233C847.806 31.9679 849.192 32.3403 850.78 32.3403C852.335 32.3403 853.686 31.9679 854.835 31.2233C856.018 30.4787 856.914 29.4972 857.522 28.2787C858.13 27.0264 858.435 25.6556 858.435 24.1663V1.52309H864.518V24.1663C864.518 25.6556 864.822 27.0264 865.43 28.2787C866.072 29.4972 866.968 30.4787 868.117 31.2233C869.266 31.9679 870.635 32.3403 872.223 32.3403C873.811 32.3403 875.18 31.9679 876.329 31.2233C877.478 30.4787 878.357 29.4972 878.965 28.2787C879.607 27.0264 879.928 25.6556 879.928 24.1663V1.52309H885.96V23.7602C885.96 26.6371 885.369 29.1248 884.186 31.2233C883.003 33.288 881.381 34.8787 879.32 35.9957C877.258 37.1126 874.893 37.6711 872.223 37.6711C870.736 37.6711 869.3 37.468 867.914 37.0618C866.562 36.6557 865.346 36.0295 864.264 35.1833C863.183 34.3372 862.253 33.3218 861.476 32.1372C860.733 33.3218 859.803 34.3372 858.688 35.1833C857.573 35.9957 856.339 36.6218 854.988 37.0618C853.67 37.468 852.25 37.6711 850.729 37.6711Z" fill="black"/>
<path d="M903.231 37.6711C900.764 37.6711 898.635 37.0618 896.844 35.8434C895.053 34.6249 893.667 33.0003 892.687 30.9695C891.741 28.9048 891.268 26.6371 891.268 24.1663C891.268 21.594 891.809 19.2925 892.89 17.2617C894.005 15.197 895.577 13.5724 897.605 12.3878C899.666 11.1693 902.116 10.5601 904.955 10.5601C907.76 10.5601 910.142 11.1693 912.103 12.3878C914.096 13.5724 915.617 15.197 916.665 17.2617C917.746 19.2925 918.287 21.5602 918.287 24.0648V37.0618H912.457V32.2387H912.356C911.849 33.1864 911.19 34.0833 910.379 34.9295C909.568 35.7418 908.571 36.4018 907.388 36.9095C906.205 37.4172 904.82 37.6711 903.231 37.6711ZM904.803 32.6956C906.324 32.6956 907.642 32.3233 908.757 31.5787C909.906 30.8002 910.785 29.7679 911.393 28.4818C912.035 27.1617 912.356 25.6894 912.356 24.0648C912.356 22.4402 912.052 21.0017 911.443 19.7494C910.835 18.4632 909.973 17.4478 908.858 16.7032C907.743 15.9247 906.408 15.5355 904.854 15.5355C903.231 15.5355 901.846 15.9247 900.697 16.7032C899.548 17.4478 898.669 18.4632 898.061 19.7494C897.452 21.0355 897.148 22.4909 897.148 24.1156C897.148 25.7064 897.452 27.1617 898.061 28.4818C898.669 29.7679 899.531 30.8002 900.646 31.5787C901.795 32.3233 903.181 32.6956 904.803 32.6956Z" fill="black"/>
<path d="M934.792 47.3681V37.4172C932.832 37.0449 931.143 36.3511 929.723 35.3357C928.304 34.2864 927.205 32.9664 926.428 31.3756C925.651 29.7848 925.262 28.0248 925.262 26.0956V11.1693H931.092V26.0448C931.092 27.3648 931.379 28.5325 931.954 29.5479C932.562 30.5295 933.356 31.3079 934.336 31.8833C935.35 32.4249 936.448 32.6956 937.631 32.6956C938.814 32.6956 939.895 32.4249 940.875 31.8833C941.889 31.3079 942.683 30.5295 943.258 29.5479C943.866 28.5325 944.17 27.3648 944.17 26.0448V11.1693H950V26.0956C950 28.0248 949.611 29.7679 948.834 31.3249C948.057 32.8818 946.958 34.2018 945.539 35.2849C944.154 36.3341 942.498 37.028 940.571 37.3664V47.3681H934.792Z" fill="black"/>
<path d="M16.6333 111.597C5.54445 111.597 0 105.548 0 93.4505C0 87.7158 1.39436 83.2784 4.18309 80.1383C6.98831 76.9818 10.9404 75.4035 16.0393 75.4035C18.399 75.4035 20.4782 75.7836 22.2768 76.5438C24.0754 77.304 25.4203 78.3865 26.3114 79.7913L22.6481 84.1295C21.9055 83.1214 20.9567 82.3446 19.8016 81.7993C18.663 81.2539 17.4254 80.9812 16.0888 80.9812C13.1186 80.9812 10.7341 82.0471 8.93547 84.1791C7.13683 86.2945 6.2375 89.3023 6.2375 93.2026C6.2375 101.747 9.98331 106.019 17.4749 106.019C19.8676 106.019 22.2273 105.523 24.554 104.532L25.6926 109.911C22.8213 111.035 19.8016 111.597 16.6333 111.597Z" fill="black"/>
<path d="M47.7219 111.349L47.2516 103.565L46.905 100.64V94.8387C46.905 93.3018 46.3027 92.1779 45.0981 91.4673C43.8935 90.7401 42.0949 90.3435 39.7022 90.2774L33.1677 90.1039L33.6627 84.5757L39.2072 84.6501C43.7945 84.7162 47.2021 85.6582 49.4297 87.4761C51.6574 89.2775 52.7713 91.9135 52.7713 95.3841V105.598L56.7316 106.143V111.101L47.7219 111.349ZM38.6874 111.597C35.9152 111.597 33.7617 110.919 32.2271 109.564C30.709 108.209 29.9499 106.292 29.9499 103.813C29.9499 100.937 30.973 98.7307 33.0192 97.1938C35.0653 95.6568 37.9613 94.8883 41.7071 94.8883C43.1922 94.8883 44.4958 94.9709 45.6179 95.1362C46.74 95.3015 47.8126 95.5576 48.8357 95.9047L47.7466 100.466C46.674 100.218 45.6757 100.078 44.7516 100.045C43.8275 99.995 42.8622 99.9702 41.8556 99.9702C37.9613 99.9702 36.0142 101.119 36.0142 103.416C36.0142 104.424 36.3524 105.193 37.029 105.721C37.722 106.25 38.7204 106.515 40.024 106.515C41.5421 106.515 42.8127 106.242 43.8358 105.697C44.8589 105.135 45.6262 104.432 46.1377 103.59C46.6493 102.73 46.905 101.846 46.905 100.937V98.8051L48.0931 105.548H45.9892L46.8555 104.755C46.8225 106.275 46.4678 107.548 45.7912 108.572C45.1311 109.58 44.1988 110.341 42.9942 110.853C41.7896 111.349 40.354 111.597 38.6874 111.597Z" fill="black"/>
<path d="M70.3452 111.597C68.3485 111.597 66.6076 111.531 65.1225 111.398C63.6374 111.283 62.309 111.101 61.1374 110.853L61.8552 105.102C63.7859 105.366 65.4443 105.564 66.8304 105.697C68.2165 105.829 69.3881 105.895 70.3452 105.895C72.7544 105.895 74.4953 105.697 75.5679 105.3C76.6569 104.903 77.2015 104.275 77.2015 103.416C77.2015 102.871 77.0447 102.449 76.7312 102.152C76.4177 101.854 75.9226 101.615 75.2461 101.433L67.6967 99.3257C65.6176 98.7473 64.0664 97.954 63.0433 96.9459C62.0368 95.9212 61.5335 94.4834 61.5335 92.6324C61.5335 89.7898 62.6803 87.6992 64.974 86.3606C67.2842 85.0054 70.8732 84.3278 75.7411 84.3278C76.9292 84.3278 78.1008 84.3691 79.2559 84.4518C80.4275 84.5344 81.6486 84.6583 82.9192 84.8236L82.2757 90.3765C80.84 90.2443 79.5777 90.1534 78.4886 90.1039C77.416 90.0543 76.4507 90.0295 75.5926 90.0295C72.8699 90.0295 70.8897 90.2195 69.6521 90.5997C68.431 90.9798 67.8205 91.5912 67.8205 92.4341C67.8205 92.996 68.002 93.4092 68.365 93.6736C68.7281 93.938 69.2891 94.1694 70.0482 94.3677L76.3847 96.0782C78.8434 96.7062 80.6585 97.5904 81.8301 98.7307C83.0182 99.8711 83.6123 101.425 83.6123 103.391C83.6123 106.201 82.5314 108.275 80.3697 109.613C78.2246 110.936 74.883 111.597 70.3452 111.597Z" fill="black"/>
<path d="M104.924 111.597C100.27 111.597 96.6731 110.423 94.1319 108.076C91.6072 105.713 90.3448 102.325 90.3448 97.9127C90.3448 93.6158 91.5164 90.2774 93.8596 87.8976C96.2028 85.5177 99.5525 84.3278 103.909 84.3278C106.566 84.3278 108.835 84.8401 110.716 85.8648C112.613 86.8729 113.958 88.3025 114.75 90.1534L110.221 93.6984C109.495 92.525 108.562 91.6243 107.424 90.9963C106.302 90.3518 105.064 90.0295 103.711 90.0295C101.467 90.0295 99.7176 90.6906 98.4635 92.0127C97.2094 93.3348 96.5823 95.2188 96.5823 97.6648C96.5823 100.342 97.3496 102.383 98.8842 103.788C100.435 105.193 102.647 105.895 105.518 105.895C106.722 105.895 107.919 105.837 109.107 105.721C110.311 105.606 111.483 105.449 112.622 105.25L113.265 110.853C111.929 111.15 110.542 111.349 109.107 111.448C107.671 111.547 106.277 111.597 104.924 111.597Z" fill="black"/>
<path d="M136.829 111.349L136.359 103.565L136.012 100.64V94.8387C136.012 93.3018 135.41 92.1779 134.205 91.4673C133.001 90.7401 131.202 90.3435 128.809 90.2774L122.275 90.1039L122.77 84.5757L128.314 84.6501C132.902 84.7162 136.309 85.6582 138.537 87.4761C140.765 89.2775 141.878 91.9135 141.878 95.3841V105.598L145.839 106.143V111.101L136.829 111.349ZM127.795 111.597C125.022 111.597 122.869 110.919 121.334 109.564C119.816 108.209 119.057 106.292 119.057 103.813C119.057 100.937 120.08 98.7307 122.126 97.1938C124.173 95.6568 127.069 94.8883 130.814 94.8883C132.299 94.8883 133.603 94.9709 134.725 95.1362C135.847 95.3015 136.92 95.5576 137.943 95.9047L136.854 100.466C135.781 100.218 134.783 100.078 133.859 100.045C132.935 99.995 131.969 99.9702 130.963 99.9702C127.069 99.9702 125.121 101.119 125.121 103.416C125.121 104.424 125.46 105.193 126.136 105.721C126.829 106.25 127.828 106.515 129.131 106.515C130.649 106.515 131.92 106.242 132.943 105.697C133.966 105.135 134.733 104.432 135.245 103.59C135.756 102.73 136.012 101.846 136.012 100.937V98.8051L137.2 105.548H135.096L135.963 104.755C135.93 106.275 135.575 107.548 134.898 108.572C134.238 109.58 133.306 110.341 132.101 110.853C130.897 111.349 129.461 111.597 127.795 111.597Z" fill="black"/>
<path d="M159.131 111.597C155.797 111.597 153.231 110.44 151.433 108.126C149.651 105.812 148.76 102.466 148.76 98.0862C148.76 93.6405 149.651 90.2361 151.433 87.8728C153.231 85.5095 155.806 84.3278 159.155 84.3278C161.086 84.3278 162.596 84.774 163.685 85.6665C164.774 86.5589 165.451 87.8645 165.715 89.5833H167.843L166.309 97.6152C166.309 95.004 165.838 93.0704 164.898 91.8144C163.957 90.5418 162.563 89.9055 160.715 89.9055C158.85 89.9055 157.423 90.6079 156.433 92.0127C155.443 93.4174 154.948 95.4419 154.948 98.0862C154.948 100.697 155.434 102.672 156.408 104.011C157.381 105.35 158.817 106.019 160.715 106.019C162.695 106.019 164.122 105.391 164.997 104.135C165.871 102.879 166.309 100.945 166.309 98.3341L168.091 106.341H165.789C165.558 108.06 164.865 109.366 163.71 110.258C162.555 111.15 161.028 111.597 159.131 111.597ZM167.101 111.349L166.309 106.168V73.9161H172.422V111.101L167.101 111.349Z" fill="black"/>
<path d="M189.873 111.101V86.311H195.962V111.101H189.873ZM180.046 111.101V105.548H190.368V111.101H180.046ZM195.467 111.101V105.548H203.857V111.101H195.467ZM181.531 90.3765V84.8236H195.962V90.3765H181.531ZM192.67 81.0308C191.498 81.0308 190.533 80.6507 189.774 79.8904C189.015 79.1302 188.635 78.1634 188.635 76.99C188.635 75.8166 189.015 74.8498 189.774 74.0896C190.533 73.3294 191.498 72.9493 192.67 72.9493C193.841 72.9493 194.806 73.3294 195.566 74.0896C196.325 74.8498 196.704 75.8166 196.704 76.99C196.704 78.1634 196.325 79.1302 195.566 79.8904C194.806 80.6507 193.841 81.0308 192.67 81.0308Z" fill="black"/>
<path d="M225.936 111.349L225.466 103.565L225.119 100.64V94.8387C225.119 93.3018 224.517 92.1779 223.313 91.4673C222.108 90.7401 220.309 90.3435 217.917 90.2774L211.382 90.1039L211.877 84.5757L217.422 84.6501C222.009 84.7162 225.416 85.6582 227.644 87.4761C229.872 89.2775 230.986 91.9135 230.986 95.3841V105.598L234.946 106.143V111.101L225.936 111.349ZM216.902 111.597C214.13 111.597 211.976 110.919 210.442 109.564C208.923 108.209 208.164 106.292 208.164 103.813C208.164 100.937 209.187 98.7307 211.234 97.1938C213.28 95.6568 216.176 94.8883 219.922 94.8883C221.407 94.8883 222.71 94.9709 223.832 95.1362C224.954 95.3015 226.027 95.5576 227.05 95.9047L225.961 100.466C224.888 100.218 223.89 100.078 222.966 100.045C222.042 99.995 221.077 99.9702 220.07 99.9702C216.176 99.9702 214.229 101.119 214.229 103.416C214.229 104.424 214.567 105.193 215.243 105.721C215.936 106.25 216.935 106.515 218.238 106.515C219.757 106.515 221.027 106.242 222.05 105.697C223.073 105.135 223.841 104.432 224.352 103.59C224.864 102.73 225.119 101.846 225.119 100.937V98.8051L226.308 105.548H224.204L225.07 104.755C225.037 106.275 224.682 107.548 224.006 108.572C223.346 109.58 222.413 110.341 221.209 110.853C220.004 111.349 218.568 111.597 216.902 111.597Z" fill="black"/>
<path d="M283.955 111.597C272.866 111.597 267.322 105.548 267.322 93.4505C267.322 87.7158 268.716 83.2784 271.505 80.1383C274.31 76.9818 278.262 75.4035 283.361 75.4035C285.721 75.4035 287.8 75.7836 289.598 76.5438C291.397 77.304 292.742 78.3865 293.633 79.7913L289.97 84.1295C289.227 83.1214 288.278 82.3446 287.123 81.7993C285.985 81.2539 284.747 80.9812 283.41 80.9812C280.44 80.9812 278.056 82.0471 276.257 84.1791C274.458 86.2945 273.559 89.3023 273.559 93.2026C273.559 101.747 277.305 106.019 284.797 106.019C287.189 106.019 289.549 105.523 291.876 104.532L293.014 109.911C290.143 111.035 287.123 111.597 283.955 111.597Z" fill="black"/>
<path d="M309.994 111.597C306.281 111.597 303.394 110.407 301.331 108.027C299.285 105.647 298.262 102.292 298.262 97.9622C298.262 93.6158 299.285 90.2609 301.331 87.8976C303.394 85.5177 306.281 84.3278 309.994 84.3278C313.723 84.3278 316.611 85.5177 318.657 87.8976C320.703 90.2609 321.727 93.6158 321.727 97.9622C321.727 102.292 320.703 105.647 318.657 108.027C316.611 110.407 313.723 111.597 309.994 111.597ZM309.994 105.895C311.743 105.895 313.088 105.209 314.029 103.837C314.969 102.449 315.439 100.491 315.439 97.9622C315.439 95.4171 314.961 93.4587 314.004 92.087C313.063 90.7153 311.727 90.0295 309.994 90.0295C308.261 90.0295 306.917 90.7153 305.959 92.087C305.019 93.4587 304.549 95.4171 304.549 97.9622C304.549 100.491 305.019 102.449 305.959 103.837C306.917 105.209 308.261 105.895 309.994 105.895Z" fill="black"/>
<path d="M337.345 111.597C334.012 111.597 331.446 110.44 329.647 108.126C327.865 105.812 326.974 102.466 326.974 98.0862C326.974 93.6405 327.865 90.2361 329.647 87.8728C331.446 85.5095 334.02 84.3278 337.37 84.3278C339.3 84.3278 340.81 84.774 341.899 85.6665C342.988 86.5589 343.665 87.8645 343.929 89.5833H346.058L344.523 97.6152C344.523 95.004 344.053 93.0704 343.112 91.8144C342.172 90.5418 340.777 89.9055 338.929 89.9055C337.064 89.9055 335.637 90.6079 334.647 92.0127C333.657 93.4174 333.162 95.4419 333.162 98.0862C333.162 100.697 333.649 102.672 334.622 104.011C335.596 105.35 337.031 106.019 338.929 106.019C340.909 106.019 342.337 105.391 343.211 104.135C344.086 102.879 344.523 100.945 344.523 98.3341L346.305 106.341H344.003C343.772 108.06 343.079 109.366 341.924 110.258C340.769 111.15 339.243 111.597 337.345 111.597ZM345.315 111.349L344.523 106.168V73.9161H350.637V111.101L345.315 111.349Z" fill="black"/>
<path d="M371.552 111.597C367.047 111.597 363.566 110.423 361.107 108.076C358.648 105.713 357.419 102.325 357.419 97.9127C357.419 93.6158 358.458 90.2774 360.538 87.8976C362.633 85.5177 365.579 84.3278 369.374 84.3278C373.037 84.3278 375.867 85.4186 377.864 87.6001C379.877 89.7816 380.884 92.9464 380.884 97.0946C380.884 98.301 380.834 99.4331 380.735 100.491H361.825V96.0782H375.042C375.042 94.0785 374.547 92.5415 373.557 91.4673C372.567 90.3931 371.189 89.856 369.424 89.856C367.493 89.856 365.991 90.5335 364.919 91.8887C363.846 93.2439 363.31 95.1693 363.31 97.6648C363.31 100.359 364.077 102.416 365.612 103.837C367.146 105.242 369.325 105.945 372.146 105.945C373.301 105.945 374.432 105.887 375.537 105.771C376.659 105.639 377.798 105.465 378.953 105.25L379.597 110.903C377.98 111.2 376.494 111.39 375.141 111.473C373.788 111.555 372.592 111.597 371.552 111.597Z" fill="black"/>
<path d="M427.591 111.597C425.594 111.597 423.68 111.431 421.848 111.101C420.033 110.77 418.383 110.291 416.898 109.663L417.69 103.639C419.505 104.416 421.287 105.011 423.036 105.424C424.786 105.821 426.436 106.019 427.987 106.019C429.967 106.019 431.46 105.672 432.467 104.978C433.49 104.267 434.002 103.234 434.002 101.879C434.002 100.111 432.995 98.7638 430.982 97.8383L425.512 95.2354C423.053 94.0785 421.155 92.6489 419.819 90.9467C418.499 89.2445 417.839 87.2861 417.839 85.0715C417.839 81.9976 418.812 79.6177 420.759 77.932C422.723 76.2463 425.495 75.4035 429.076 75.4035C431.32 75.4035 433.383 75.7753 435.264 76.519C437.162 77.2462 438.894 78.3535 440.462 79.8409L436.378 84.3526C435.107 83.2288 433.87 82.3859 432.665 81.824C431.477 81.2456 430.289 80.9564 429.101 80.9564C427.55 80.9564 426.345 81.3117 425.487 82.0224C424.629 82.7165 424.2 83.7329 424.2 85.0715C424.2 85.997 424.489 86.8151 425.066 87.5257C425.66 88.2198 426.51 88.8478 427.616 89.4097L432.541 91.8639C435.066 93.12 436.997 94.5743 438.333 96.227C439.686 97.8631 440.363 99.7554 440.363 101.904C440.363 105.06 439.274 107.465 437.096 109.118C434.934 110.77 431.766 111.597 427.591 111.597Z" fill="black"/>
<path d="M460.659 111.597C456.155 111.597 452.673 110.423 450.214 108.076C447.755 105.713 446.526 102.325 446.526 97.9127C446.526 93.6158 447.566 90.2774 449.645 87.8976C451.741 85.5177 454.686 84.3278 458.481 84.3278C462.145 84.3278 464.975 85.4186 466.971 87.6001C468.984 89.7816 469.991 92.9464 469.991 97.0946C469.991 98.301 469.941 99.4331 469.842 100.491H450.932V96.0782H464.15C464.15 94.0785 463.654 92.5415 462.664 91.4673C461.674 90.3931 460.296 89.856 458.531 89.856C456.6 89.856 455.099 90.5335 454.026 91.8887C452.953 93.2439 452.417 95.1693 452.417 97.6648C452.417 100.359 453.184 102.416 454.719 103.837C456.254 105.242 458.432 105.945 461.254 105.945C462.409 105.945 463.539 105.887 464.645 105.771C465.767 105.639 466.905 105.465 468.06 105.25L468.704 110.903C467.087 111.2 465.602 111.39 464.249 111.473C462.895 111.555 461.699 111.597 460.659 111.597Z" fill="black"/>
<path d="M494.495 111.101V92.3845C494.495 90.5666 493.91 89.6576 492.738 89.6576C491.335 89.6576 490.634 90.7236 490.634 92.8555L488.852 88.0959H491.005C491.121 86.9886 491.55 86.0879 492.293 85.3938C493.052 84.6831 494.091 84.3278 495.411 84.3278C497.193 84.3278 498.489 84.8154 499.297 85.7904C500.122 86.7655 500.535 88.3438 500.535 90.5253V111.101H494.495ZM475.882 111.101V84.8236H481.352L481.946 90.3765V111.101H475.882ZM485.857 111.101V91.8887C485.857 90.4013 485.263 89.6576 484.075 89.6576C482.656 89.6576 481.946 90.7236 481.946 92.8555L480.412 88.0959H482.218C482.516 85.5838 483.91 84.3278 486.402 84.3278C487.722 84.3278 488.753 84.7988 489.496 85.7408C490.255 86.6829 490.634 88.1124 490.634 90.0295V111.101H485.857Z" fill="black"/>
<path d="M516.599 111.101V86.311H522.688V111.101H516.599ZM506.772 111.101V105.548H517.094V111.101H506.772ZM522.193 111.101V105.548H530.584V111.101H522.193ZM508.258 90.3765V84.8236H522.688V90.3765H508.258ZM519.396 81.0308C518.224 81.0308 517.259 80.6507 516.5 79.8904C515.741 79.1302 515.361 78.1634 515.361 76.99C515.361 75.8166 515.741 74.8498 516.5 74.0896C517.259 73.3294 518.224 72.9493 519.396 72.9493C520.568 72.9493 521.533 73.3294 522.292 74.0896C523.051 74.8498 523.431 75.8166 523.431 76.99C523.431 78.1634 523.051 79.1302 522.292 79.8904C521.533 80.6507 520.568 81.0308 519.396 81.0308Z" fill="black"/>
<path d="M542.094 111.101V105.598H548.752C550.699 105.598 552.209 105.151 553.281 104.259C554.354 103.35 554.89 102.077 554.89 100.441C554.89 98.7886 554.329 97.516 553.207 96.6236C552.085 95.7146 550.484 95.2601 548.405 95.2601H542.193L541.599 92.7812H550.88C554.131 92.7812 556.639 93.5331 558.405 95.037C560.187 96.541 561.078 98.6729 561.078 101.433C561.078 104.507 560.13 106.887 558.232 108.572C556.351 110.258 553.669 111.101 550.187 111.101H542.094ZM536.475 111.101V75.8993H542.44V111.101H536.475ZM540.41 93.7975V91.3681H550.311V93.7975H540.41ZM542.094 92.2358V89.7568H547.267C548.933 89.7568 550.204 89.3932 551.079 88.666C551.97 87.9223 552.415 86.8481 552.415 85.4434C552.415 84.1212 551.945 83.1214 551.004 82.4438C550.08 81.7497 548.719 81.4026 546.92 81.4026H542.193L541.599 75.8993H547.168C550.815 75.8993 553.628 76.6678 555.608 78.2047C557.605 79.7252 558.603 81.8902 558.603 84.6997C558.603 87.1125 557.762 88.9718 556.078 90.2774C554.412 91.583 552.036 92.2358 548.95 92.2358H542.094Z" fill="black"/>
<path d="M577.316 111.597C573.603 111.597 570.715 110.407 568.652 108.027C566.606 105.647 565.583 102.292 565.583 97.9622C565.583 93.6158 566.606 90.2609 568.652 87.8976C570.715 85.5177 573.603 84.3278 577.316 84.3278C581.045 84.3278 583.933 85.5177 585.979 87.8976C588.025 90.2609 589.048 93.6158 589.048 97.9622C589.048 102.292 588.025 105.647 585.979 108.027C583.933 110.407 581.045 111.597 577.316 111.597ZM577.316 105.895C579.065 105.895 580.41 105.209 581.35 103.837C582.291 102.449 582.761 100.491 582.761 97.9622C582.761 95.4171 582.283 93.4587 581.326 92.087C580.385 90.7153 579.048 90.0295 577.316 90.0295C575.583 90.0295 574.238 90.7153 573.281 92.087C572.341 93.4587 571.87 95.4171 571.87 97.9622C571.87 100.491 572.341 102.449 573.281 103.837C574.238 105.209 575.583 105.895 577.316 105.895Z" fill="black"/>
<path d="M610.929 111.597C607.728 111.597 605.417 110.721 603.998 108.969C602.596 107.217 601.894 104.416 601.894 100.565V73.9161H607.983V100.317C607.983 101.524 608.107 102.515 608.355 103.292C608.602 104.052 609.072 104.614 609.766 104.978C610.475 105.341 611.523 105.523 612.909 105.523C614.328 105.523 616.127 105.209 618.305 104.581L618.998 110.555C617.628 110.919 616.3 111.183 615.013 111.349C613.742 111.514 612.381 111.597 610.929 111.597ZM594.345 79.469V73.9161H602.34V79.469H594.345Z" fill="black"/>
<path d="M634.369 111.597C631.036 111.597 628.47 110.44 626.671 108.126C624.889 105.812 623.998 102.466 623.998 98.0862C623.998 93.6405 624.889 90.2361 626.671 87.8728C628.47 85.5095 631.044 84.3278 634.394 84.3278C636.324 84.3278 637.834 84.774 638.923 85.6665C640.012 86.5589 640.689 87.8645 640.953 89.5833H643.082L641.547 97.6152C641.547 95.004 641.077 93.0704 640.136 91.8144C639.196 90.5418 637.801 89.9055 635.953 89.9055C634.089 89.9055 632.661 90.6079 631.671 92.0127C630.681 93.4174 630.186 95.4419 630.186 98.0862C630.186 100.697 630.673 102.672 631.646 104.011C632.62 105.35 634.055 106.019 635.953 106.019C637.933 106.019 639.361 105.391 640.235 104.135C641.11 102.879 641.547 100.945 641.547 98.3341L643.329 106.341H641.027C640.796 108.06 640.103 109.366 638.948 110.258C637.793 111.15 636.267 111.597 634.369 111.597ZM642.339 111.349L641.547 106.168V73.9161H647.661V111.101L642.339 111.349Z" fill="black"/>
<path d="M695.284 97.9622L696.026 91.3929H696.323L699.393 75.8993H702.982L703.229 82.1463H701.719L698.402 97.9622H695.284ZM684.195 111.101V75.8993H689.813V111.101H684.195ZM693.848 97.9622L690.531 82.1463H689.021L689.269 75.8993H692.858L695.927 91.3929H696.125L696.744 97.9622H693.848ZM702.437 111.101V75.8993H708.056V111.101H702.437Z" fill="black"/>
<path d="M724.516 111.101V86.311H730.605V111.101H724.516ZM714.689 111.101V105.548H725.011V111.101H714.689ZM730.11 111.101V105.548H738.501V111.101H730.11ZM716.174 90.3765V84.8236H730.605V90.3765H716.174ZM727.313 81.0308C726.141 81.0308 725.176 80.6507 724.417 79.8904C723.658 79.1302 723.278 78.1634 723.278 76.99C723.278 75.8166 723.658 74.8498 724.417 74.0896C725.176 73.3294 726.141 72.9493 727.313 72.9493C728.484 72.9493 729.45 73.3294 730.209 74.0896C730.968 74.8498 731.347 75.8166 731.347 76.99C731.347 78.1634 730.968 79.1302 730.209 79.8904C729.45 80.6507 728.484 81.0308 727.313 81.0308Z" fill="black"/>
<path d="M759.441 111.597C756.24 111.597 753.929 110.721 752.51 108.969C751.108 107.217 750.406 104.416 750.406 100.565V73.9161H756.495V100.317C756.495 101.524 756.619 102.515 756.867 103.292C757.114 104.052 757.584 104.614 758.278 104.978C758.987 105.341 760.035 105.523 761.421 105.523C762.84 105.523 764.639 105.209 766.817 104.581L767.51 110.555C766.14 110.919 764.812 111.183 763.525 111.349C762.254 111.514 760.893 111.597 759.441 111.597ZM742.857 79.469V73.9161H750.852V79.469H742.857Z" fill="black"/>
<path d="M778.054 101.507V95.8055H781.025C783.071 95.8055 784.754 95.4502 786.074 94.7396C787.394 94.0289 788.434 92.8721 789.193 91.269C789.952 89.6494 790.505 87.5009 790.851 84.8236H797.163C796.47 90.4261 794.886 94.6073 792.411 97.3673C789.952 100.127 786.569 101.507 782.262 101.507H778.054ZM774.094 111.101V73.9161H780.208V111.101H774.094ZM791.495 111.101L784.638 98.3093L790.208 96.2765L798.846 111.101H791.495Z" fill="black"/>
<path d="M801.693 123L801.445 117.621L805.801 117.125C807.419 116.926 808.805 116.489 809.96 115.811C811.115 115.133 812.105 114.125 812.93 112.787C813.755 111.448 814.473 109.696 815.083 107.531L821.494 84.8236H827.93L820.479 108.771C819.489 111.927 818.359 114.464 817.088 116.381C815.834 118.298 814.341 119.736 812.608 120.695C810.876 121.653 808.805 122.256 806.395 122.504L801.693 123ZM810.653 111.101L801.198 84.8236H807.633L814.96 106.093H815.999V111.101H810.653Z" fill="black"/>
<path d="M863.573 111.101L859.736 75.8993H865.676L868.152 106.019H868.77L871.642 84.8236H877.087L875.181 90.8475H874.191L871.963 111.101H863.573ZM876.716 111.101L874.488 90.8475H873.498L871.642 84.8236H877.087L879.909 106.019H880.528L883.003 75.8993H888.943L885.107 111.101H876.716Z" fill="black"/>
<path d="M909.091 111.349L908.621 103.565L908.275 100.64V94.8387C908.275 93.3018 907.672 92.1779 906.468 91.4673C905.263 90.7401 903.465 90.3435 901.072 90.2774L894.537 90.1039L895.032 84.5757L900.577 84.6501C905.164 84.7162 908.572 85.6582 910.799 87.4761C913.027 89.2775 914.141 91.9135 914.141 95.3841V105.598L918.101 106.143V111.101L909.091 111.349ZM900.057 111.597C897.285 111.597 895.131 110.919 893.597 109.564C892.079 108.209 891.32 106.292 891.32 103.813C891.32 100.937 892.343 98.7307 894.389 97.1938C896.435 95.6568 899.331 94.8883 903.077 94.8883C904.562 94.8883 905.865 94.9709 906.988 95.1362C908.11 95.3015 909.182 95.5576 910.205 95.9047L909.116 100.466C908.044 100.218 907.045 100.078 906.121 100.045C905.197 99.995 904.232 99.9702 903.225 99.9702C899.331 99.9702 897.384 101.119 897.384 103.416C897.384 104.424 897.722 105.193 898.399 105.721C899.092 106.25 900.09 106.515 901.394 106.515C902.912 106.515 904.182 106.242 905.205 105.697C906.229 105.135 906.996 104.432 907.507 103.59C908.019 102.73 908.275 101.846 908.275 100.937V98.8051L909.463 105.548H907.359L908.225 104.755C908.192 106.275 907.837 107.548 907.161 108.572C906.501 109.58 905.568 110.341 904.364 110.853C903.159 111.349 901.724 111.597 900.057 111.597Z" fill="black"/>
<path d="M920.502 123L920.255 117.621L924.611 117.125C926.228 116.926 927.614 116.489 928.769 115.811C929.924 115.133 930.914 114.125 931.74 112.787C932.565 111.448 933.282 109.696 933.893 107.531L940.304 84.8236H946.739L939.289 108.771C938.299 111.927 937.169 114.464 935.898 116.381C934.644 118.298 933.15 119.736 931.418 120.695C929.685 121.653 927.614 122.256 925.205 122.504L920.502 123ZM929.462 111.101L920.007 84.8236H926.443L933.769 106.093H934.809V111.101H929.462Z" fill="black"/>
</svg>
