<svg width="950" height="139" viewBox="0 0 950 139" fill="none" xmlns="http://www.w3.org/2000/svg">
<path d="M95.8449 2.06396H71.8417V39.0464H53.8918V57.4533H41.785V39.0464H23.7931V2.06396H0V46.8809H17.9499V65.2458H35.7317V138.789H59.9451V65.2458H77.6849V46.8809H95.8449V2.06396Z" fill="#0831B4"/>
<path d="M170.881 127.627H137.336V125.521H124.178V138.789H183.913V125.521H170.881V127.627Z" fill="#0831B4"/>
<path d="M106.228 103.787H120.521V107.915H130.021V65.2458H178.07V107.915H187.696V103.787H201.989V94.9833H202.073V79.23H201.989V61.6233H202.073V57.4533H183.913V39.0464H124.178V57.4533H106.228V103.787Z" fill="#0831B4"/>
<path d="M311.118 112.59H263.069V39.0464H239.276V120.593H257.226V138.789H316.961V120.593H335.121V39.0464H311.118V112.59Z" fill="#0831B4"/>
<path d="M455.39 117.181C453.54 120.804 451.522 123.584 449.378 125.521C447.318 127.332 445.048 128.259 442.526 128.259C439.71 128.259 437.86 126.995 436.977 124.51C436.095 121.899 436.263 118.276 437.482 113.601L446.436 80.1988C449.126 69.7527 448.748 61.4548 445.301 55.3051C441.938 49.0712 435.968 45.9542 427.393 45.9542C421.423 45.9542 416.001 47.597 411.124 50.8824C407.341 53.4097 403.978 57.0321 400.993 61.5812C400.951 61.2442 400.951 60.9073 400.867 60.5703C400.111 55.8948 398.135 52.3145 395.024 49.8294C391.871 47.2179 387.584 45.9121 382.161 45.9121C378.125 45.9121 374.468 46.7124 371.105 48.313C367.742 49.9136 364.715 52.2303 361.983 55.3051C359.377 58.38 356.98 62.0445 354.837 66.383L351.095 73.7121H357.443L360.554 67.7309C362.403 63.9821 364.337 61.2021 366.397 59.3909C368.583 57.4533 370.811 56.4845 373.081 56.4845C376.107 56.4845 378.083 57.7903 378.924 60.4018C379.807 63.0133 379.554 66.6358 378.251 71.3112L360.848 136.388H383.8L399.732 76.7448C400.615 73.2909 401.12 70.1318 401.246 67.2254C403.263 64.1085 405.407 61.6233 407.719 59.8542C410.662 57.7061 413.815 56.6109 417.178 56.6109C421.297 56.6109 423.946 58.2536 425.165 61.5391C426.468 64.6982 426.3 69.5 424.66 75.8603L416.043 108.083C414.403 114.317 413.983 119.793 414.74 124.426C415.622 128.975 417.598 132.471 420.751 134.998C423.988 137.484 428.276 138.747 433.614 138.747C437.734 138.747 441.433 137.947 444.67 136.346C448.033 134.746 451.06 132.429 453.792 129.354C456.525 126.279 458.921 122.615 461.107 118.276L464.68 111.116H458.332L455.39 117.097V117.181Z" fill="#0831B4"/>
<path d="M523.406 117.181C519.623 124.552 515.335 128.259 510.542 128.259C507.6 128.259 505.666 126.911 504.699 124.173C503.732 121.435 503.985 117.855 505.498 113.432L517.857 76.787C520.043 70.7636 520.674 65.4985 519.833 60.9494C518.95 56.2739 516.89 52.6515 513.653 50.04C510.416 47.3021 506.003 45.9542 500.454 45.9542C494.61 45.9542 489.44 47.597 484.984 50.8824C480.654 54.1679 476.703 59.3488 473.087 66.383L469.346 73.7121H475.694L478.762 67.7309C480.612 63.8558 482.546 61.0336 484.605 59.2224C486.791 57.4112 489.061 56.4845 491.416 56.4845C494.442 56.4845 496.418 57.8324 497.259 60.5703C498.226 63.3082 497.973 66.8885 496.46 71.3112L484.101 107.957C482.041 113.854 481.369 119.161 482.167 123.794C483.05 128.47 485.11 132.134 488.347 134.872C491.71 137.484 496.124 138.789 501.547 138.789C507.39 138.789 512.56 137.189 517.016 134.03C521.472 130.744 525.466 125.521 529.039 118.361L532.612 111.2H526.264L523.322 117.181H523.406Z" fill="#0831B4"/>
<path d="M692.059 105.387C690.882 105.387 689.831 105.851 688.907 106.819C685.502 110.526 681.802 113.138 677.851 114.654C674.025 116.044 669.948 116.718 665.618 116.718C662.843 116.718 660.111 115.96 657.337 114.443C654.73 112.927 652.544 110.779 650.821 108.041L692.017 95.2361C696.599 93.7197 698.911 90.6448 698.911 85.9694C698.911 81.5467 696.894 76.4079 692.816 70.5109C689.915 66.6779 686.174 63.7715 681.592 61.8339C677.136 59.8964 672.386 58.9276 667.383 58.9276C661.33 58.9276 655.571 60.2333 650.022 62.8448C644.641 65.33 640.648 69.2473 638 74.5967C633.922 83.1051 631.904 90.687 631.904 97.3C631.904 103.492 633.081 108.715 635.435 112.969C637.789 117.223 640.816 120.762 644.515 123.499C648.215 126.111 652.124 128.048 656.328 129.27C660.658 130.492 664.735 131.123 668.561 131.123C672.386 131.123 676.127 130.492 679.785 129.27C683.484 128.175 686.763 126.743 689.621 124.932C692.522 122.994 694.792 121.014 696.515 118.95C698.365 116.886 699.29 114.907 699.29 112.969C699.29 111.032 698.449 109.305 696.726 107.83C695.128 106.188 693.573 105.345 692.017 105.345L692.059 105.387ZM648.719 87.4015C649.518 84.9164 650.737 82.5997 652.46 80.3673C654.184 78.177 656.328 76.3658 658.976 75.0179C661.75 73.5015 665.029 72.7433 668.813 72.7433C672.218 72.7433 675.329 73.6279 678.061 75.4391C680.962 77.0818 682.727 79.6933 683.4 83.2736L647.542 94.2252C647.542 92.1612 647.92 89.8867 648.719 87.4015Z" fill="#0831B4"/>
<path d="M781.935 59.3488C773.906 59.77 766.297 61.7076 759.067 65.1194C751.836 68.4048 745.615 72.8276 740.36 78.3455C737.88 73.5436 735.106 69.4158 732.079 65.9618C729.052 62.5079 726.404 60.823 724.176 60.823C721.948 60.823 719.888 61.7076 718.08 63.5188C716.357 65.1615 715.516 67.1833 715.516 69.5C715.516 70.5951 715.979 71.9009 716.903 73.4173C717.828 74.9336 718.879 76.45 720.056 77.9664C721.233 79.3564 722.368 80.7042 723.419 82.0942C724.596 83.3158 725.395 84.2845 725.773 85.0006C726.824 87.3594 727.917 90.3079 729.136 93.8882C730.439 97.4685 731.112 101.933 731.112 107.283C731.112 111.284 730.902 115.328 730.523 119.456C730.271 123.457 729.935 127.375 729.557 131.208C729.557 132.85 730.271 134.114 731.701 134.914C733.298 135.883 734.979 136.346 736.829 136.346C738.679 136.346 740.36 136.009 741.958 135.335C743.555 134.662 744.396 133.398 744.522 131.629C745.194 128.175 745.573 124.679 745.699 121.098C745.951 117.518 746.077 113.938 746.077 110.358C746.077 107.451 745.867 104.713 745.489 102.102C745.237 99.3639 745.11 96.5839 745.11 93.8461C749.062 88.623 754.232 84.4109 760.664 81.2518C767.222 78.0927 774.873 75.4812 783.532 73.4173C784.962 73.4173 786.013 72.7855 786.685 71.5639C787.484 70.1739 787.862 68.7418 787.862 67.2254C787.862 65.4564 787.358 63.7715 786.307 62.2551C785.382 60.6124 783.953 59.6436 781.977 59.3488H781.935Z" fill="#0831B4"/>
<path d="M615.804 56.0633C613.828 54.4206 611.684 53.5782 609.288 53.5782C608.237 53.5782 607.27 53.873 606.345 54.4206C605.421 54.9682 604.832 55.937 604.58 57.327C599.998 68.4891 595.5 79.4827 591.17 90.35C586.84 101.091 582.889 110.989 579.358 120.045C578.307 115.37 577.13 110.358 575.784 104.966C574.481 99.4482 573.094 93.9724 571.665 88.4545C570.362 82.9367 568.974 77.5873 567.545 72.3642C566.242 67.0148 564.939 62.1288 563.594 57.7061C563.089 55.937 562.08 54.6733 560.651 53.9994C559.222 53.157 557.75 52.7779 556.321 52.7779C554.219 52.7779 552.37 53.3255 550.814 54.4206C549.217 55.5158 548.46 56.9479 548.46 58.7591C548.46 59.1803 548.544 59.5173 548.67 59.77L567.209 126.195C567.881 129.228 569.227 132.092 571.328 134.872C573.43 137.61 575.995 139 579.021 139C581.123 139 583.309 138.031 585.537 136.094C587.891 134.325 590.203 130.997 592.431 126.195C595.584 119.877 598.358 113.896 600.712 108.252C603.066 102.607 605.252 97.1736 607.228 91.9506C609.204 86.7276 611.096 81.6309 612.945 76.7027C614.795 71.7324 616.771 66.8042 618.872 61.8339V61.4127C618.872 61.4127 619.083 61.0758 619.083 60.7809C619.083 59.1382 618.032 57.5376 615.93 56.0212L615.804 56.0633Z" fill="#0831B4"/>
<path d="M947.478 107.83C945.88 106.188 944.325 105.345 942.77 105.345C941.593 105.345 940.542 105.808 939.617 106.777C936.212 110.484 932.513 113.095 928.561 114.612C924.736 116.002 920.658 116.676 916.328 116.676C913.554 116.676 910.821 115.918 908.047 114.401C905.44 112.885 903.255 110.737 901.531 107.999L942.728 95.1939C947.31 93.6776 949.622 90.6027 949.622 85.9273C949.622 81.5045 947.604 76.3658 943.526 70.4688C940.626 66.6357 936.884 63.7294 932.302 61.7918C927.846 59.8542 923.096 58.8854 918.094 58.8854C912.04 58.8854 906.281 60.1912 900.732 62.8027C895.352 65.2879 891.358 69.2052 888.71 74.5545C884.632 83.063 882.614 90.6448 882.614 97.2579C882.614 103.45 883.791 108.673 886.145 112.927C888.5 117.181 891.526 120.719 895.225 123.457C898.925 126.069 902.834 128.006 907.038 129.228C911.368 130.449 915.445 131.081 919.271 131.081C923.096 131.081 926.837 130.449 930.495 129.228C934.194 128.133 937.473 126.701 940.331 124.889C943.232 122.952 945.502 120.972 947.226 118.908C949.075 116.844 950 114.865 950 112.927C950 110.989 949.159 109.262 947.436 107.788L947.478 107.83ZM899.387 87.4015C900.186 84.9164 901.405 82.5997 903.128 80.3673C904.852 78.177 906.996 76.3658 909.644 75.0179C912.419 73.5015 915.698 72.7433 919.523 72.7433C922.928 72.7433 926.039 73.6279 928.771 75.4391C931.672 77.0818 933.437 79.6933 934.11 83.2736L898.252 94.2252C898.252 92.1612 898.63 89.8867 899.429 87.4015H899.387Z" fill="#0831B4"/>
<path d="M854.239 95.4467C850.96 93.5091 847.345 92.077 843.394 91.1082C839.442 90.013 835.785 88.9179 832.338 87.8227C829.059 86.6012 826.284 85.127 824.056 83.4842C821.828 81.7151 820.693 79.1458 820.693 75.8603C820.693 72.28 821.66 69.3315 823.636 66.9727C825.738 64.4876 828.891 63.2661 833.094 63.2661C835.743 63.2661 838.769 63.7294 842.174 64.6982C845.579 65.667 849.531 67.3097 853.987 69.6685C854.786 69.9633 855.416 70.0897 855.963 70.0897C857.392 70.0897 858.989 69.4158 860.713 68.0257C862.436 66.6357 863.277 64.7824 863.277 62.4658C863.277 60.823 862.436 59.1803 860.713 57.4954C858.989 55.7264 856.761 54.1258 853.987 52.7358C851.381 51.3458 848.396 50.2506 845.117 49.4503C841.838 48.4815 838.685 48.0182 835.659 48.0182C830.782 48.0182 826.537 48.7764 822.837 50.2927C819.138 51.6827 816.069 53.5782 813.589 56.0633C811.109 58.5485 809.175 61.497 807.872 64.9509C806.569 68.2364 805.896 71.8167 805.896 75.6918C805.896 79.1458 806.569 81.7994 807.872 83.737C810.646 88.7073 813.715 92.3297 817.12 94.6885C820.651 97.0473 824.267 98.8164 827.966 100.038C830.32 100.88 832.884 101.681 835.659 102.523C838.559 103.365 841.166 104.292 843.562 105.429C846.042 106.398 848.102 107.704 849.657 109.347C851.381 110.863 852.221 112.716 852.221 114.907C852.221 117.645 851.044 119.793 848.69 121.309C846.336 122.825 842.174 123.584 836.289 123.584C833.263 123.584 829.731 123.247 825.654 122.573C821.576 121.73 817.246 120.214 812.664 118.024H812.076C812.076 118.024 811.739 117.813 811.487 117.813C809.764 117.813 808.376 118.655 807.326 120.298C806.401 121.815 805.938 123.457 805.938 125.268C805.938 127.627 806.905 129.523 808.881 131.039C810.857 132.555 813.337 133.735 816.364 134.535C819.516 135.504 823.005 136.178 826.789 136.599C830.614 137.02 834.271 137.231 837.845 137.231C846.504 137.231 853.356 135.462 858.359 131.882C863.487 128.428 866.052 123.078 866.052 115.791C866.052 110.442 864.917 106.23 862.689 103.197C860.461 100.038 857.644 97.4685 854.197 95.573L854.239 95.4467Z" fill="#0831B4"/>
<path d="M495.367 21.6924C496.334 22.4506 496.754 23.7564 496.376 24.9779L494.022 32.6018C493.181 35.2976 496.124 37.5721 498.352 35.8873L504.573 31.1697C505.54 30.4115 506.885 30.4115 507.852 31.1697L514.032 35.8873C516.218 37.5721 519.202 35.2976 518.361 32.6018L516.007 24.9779C515.629 23.7564 516.007 22.4506 517.016 21.6924L523.196 16.9748C525.382 15.29 524.247 11.6676 521.556 11.6676H513.905C512.686 11.6676 511.593 10.8673 511.257 9.64576L508.903 2.02182C508.062 -0.673939 504.405 -0.673939 503.564 2.02182L501.21 9.64576C500.832 10.8673 499.739 11.6676 498.52 11.6676H490.869C488.137 11.6676 487.044 15.29 489.23 16.9748L495.451 21.6924H495.367Z" fill="#7CBFFF"/>
<path d="M137.336 107.915H120.521V103.787H106.228V94.9833H95.2985V88.0333H97.8207V79.23H106.228V61.6233H89.4133V70.4267H81.0058V83.6106H78.4836V101.217H89.4133V112.59H103.706V121.393H120.521V125.521H137.336V107.915Z" fill="#7CBFFF"/>
<path d="M154.025 110.021H137.336V127.627H154.025V110.021Z" fill="#7CBFFF"/>
<path d="M227.211 70.4267H218.804V61.6233H201.989V79.23H210.396V88.0333H212.919V94.9833H201.989V103.787H187.696V107.915H170.881V110.021H154.067V127.627H170.881V125.521H187.696V121.393H204.511V112.59H218.804V101.217H229.734V83.6106H227.211V70.4267Z" fill="#7CBFFF"/>
</svg>
