<svg width="950" height="107" viewBox="0 0 950 107" fill="none" xmlns="http://www.w3.org/2000/svg">
<path d="M3.80971e-06 107L0 19.7812L87.156 19.7812L87.156 107L3.80971e-06 107Z" fill="#0831B4"/>
<path d="M95.8716 107L95.8716 19.7812L183.028 19.7812V107L95.8716 107Z" fill="#7CBFFF"/>
<path d="M191.743 107V19.7812L278.899 19.7812V107L191.743 107Z" fill="#C4EFFD"/>
<path d="M287.615 107V19.7812L374.771 19.7812V107L287.615 107Z" fill="#8652FF"/>
<path d="M383.486 107V19.7812L470.642 19.7812V107L383.486 107Z" fill="#FB89D7"/>
<path d="M3.12019 5.89599H0.540371L2.42294 1.50016H4.11377L3.12019 5.89599ZM6.64129 5.89599H4.06147L5.94404 1.50016H7.63487L6.64129 5.89599Z" fill="#F9F9F9"/>
<path d="M19.1841 1.50016L15.0704 9.43707V13.6759H12.63V9.43707L8.4988 1.50016H11.2529L13.8676 7.06472L16.4649 1.50016H19.1841Z" fill="#F9F9F9"/>
<path d="M24.8796 13.8329C23.95 13.8329 23.1133 13.6294 22.3695 13.2224C21.6258 12.8037 21.039 12.2164 20.609 11.4605C20.1906 10.7047 19.9815 9.83246 19.9815 8.84398C19.9815 7.8555 20.1964 6.98332 20.6264 6.22742C21.068 5.47153 21.6665 4.89007 22.4218 4.48305C23.1772 4.0644 24.0197 3.85507 24.9494 3.85507C25.879 3.85507 26.7215 4.0644 27.4769 4.48305C28.2322 4.89007 28.8249 5.47153 29.2549 6.22742C29.6964 6.98332 29.9172 7.8555 29.9172 8.84398C29.9172 9.83246 29.6906 10.7047 29.2374 11.4605C28.7958 12.2164 28.1916 12.8037 27.4246 13.2224C26.6692 13.6294 25.8209 13.8329 24.8796 13.8329ZM24.8796 11.7048C25.3212 11.7048 25.7338 11.6001 26.1172 11.3908C26.5123 11.1698 26.8261 10.8442 27.0585 10.4139C27.2909 9.98364 27.4072 9.46033 27.4072 8.84398C27.4072 7.92528 27.1631 7.22172 26.675 6.73329C26.1986 6.23324 25.6117 5.98321 24.9145 5.98321C24.2172 5.98321 23.6304 6.23324 23.1539 6.73329C22.6891 7.22172 22.4567 7.92528 22.4567 8.84398C22.4567 9.76269 22.6833 10.4721 23.1365 10.9721C23.6013 11.4605 24.1824 11.7048 24.8796 11.7048Z" fill="#F9F9F9"/>
<path d="M40.8239 4.01206V13.6759H38.3661V12.4548C38.0523 12.8735 37.6398 13.2049 37.1284 13.4491C36.6287 13.6817 36.0826 13.798 35.4899 13.798C34.7346 13.798 34.0664 13.641 33.4853 13.327C32.9043 13.0014 32.4453 12.5304 32.1083 11.9141C31.7829 11.2861 31.6202 10.5418 31.6202 9.68128V4.01206H34.0606V9.33241C34.0606 10.0999 34.2523 10.693 34.6358 11.1117C35.0193 11.5187 35.5422 11.7222 36.2046 11.7222C36.8786 11.7222 37.4073 11.5187 37.7908 11.1117C38.1743 10.693 38.3661 10.0999 38.3661 9.33241V4.01206H40.8239Z" fill="#F9F9F9"/>
<path d="M45.672 5.51223C45.9858 5.00054 46.3925 4.59934 46.8922 4.30861C47.4035 4.01788 47.9846 3.87251 48.6353 3.87251V6.43675H47.9904C47.2234 6.43675 46.6424 6.617 46.2473 6.9775C45.8638 7.33801 45.672 7.96598 45.672 8.86143V13.6759H43.2317V4.01206H45.672V5.51223Z" fill="#F9F9F9"/>
<path d="M60.0803 13.798C58.9415 13.798 57.8956 13.5305 56.9427 12.9956C55.9898 12.4607 55.2344 11.7222 54.6766 10.7802C54.1188 9.82665 53.8399 8.75095 53.8399 7.55315C53.8399 6.36697 54.1188 5.3029 54.6766 4.36094C55.2344 3.40735 55.9898 2.66308 56.9427 2.12814C57.8956 1.5932 58.9415 1.32573 60.0803 1.32573C61.2307 1.32573 62.2766 1.5932 63.2179 2.12814C64.1708 2.66308 64.9203 3.40735 65.4665 4.36094C66.0243 5.3029 66.3032 6.36697 66.3032 7.55315C66.3032 8.75095 66.0243 9.82665 65.4665 10.7802C64.9203 11.7222 64.1708 12.4607 63.2179 12.9956C62.265 13.5305 61.2191 13.798 60.0803 13.798ZM60.0803 11.6175C60.8124 11.6175 61.4573 11.4547 62.0151 11.1291C62.5729 10.7919 63.0087 10.3151 63.3225 9.69873C63.6362 9.08238 63.7931 8.36719 63.7931 7.55315C63.7931 6.7391 63.6362 6.02973 63.3225 5.42501C63.0087 4.80866 62.5729 4.33768 62.0151 4.01206C61.4573 3.68645 60.8124 3.52364 60.0803 3.52364C59.3482 3.52364 58.6974 3.68645 58.128 4.01206C57.5702 4.33768 57.1344 4.80866 56.8207 5.42501C56.5069 6.02973 56.35 6.7391 56.35 7.55315C56.35 8.36719 56.5069 9.08238 56.8207 9.69873C57.1344 10.3151 57.5702 10.7919 58.128 11.1291C58.6974 11.4547 59.3482 11.6175 60.0803 11.6175Z" fill="#F9F9F9"/>
<path d="M81.5059 4.01206L78.6821 13.6759H76.05L74.2894 6.92517L72.5289 13.6759H69.8793L67.0381 4.01206H69.5133L71.2215 11.3733L73.0692 4.01206H75.6491L77.4619 11.3559L79.1702 4.01206H81.5059Z" fill="#F9F9F9"/>
<path d="M88.1777 3.87251C89.3282 3.87251 90.2579 4.23883 90.9667 4.97147C91.6756 5.69248 92.03 6.70422 92.03 8.00668V13.6759H89.5897V8.33812C89.5897 7.57059 89.3979 6.98332 89.0144 6.5763C88.6309 6.15765 88.108 5.94832 87.4456 5.94832C86.7716 5.94832 86.2371 6.15765 85.8419 6.5763C85.4585 6.98332 85.2667 7.57059 85.2667 8.33812V13.6759H82.8264V4.01206H85.2667V5.21568C85.5921 4.79703 86.0046 4.47142 86.5043 4.23883C87.0157 3.99462 87.5735 3.87251 88.1777 3.87251Z" fill="#F9F9F9"/>
<path d="M100.91 1.50016V9.03587C100.91 9.86154 101.125 10.4953 101.555 10.9372C101.985 11.3675 102.589 11.5827 103.368 11.5827C104.158 11.5827 104.768 11.3675 105.198 10.9372C105.628 10.4953 105.843 9.86154 105.843 9.03587V1.50016H108.301V9.01842C108.301 10.0534 108.074 10.9314 107.621 11.6524C107.179 12.3618 106.581 12.8968 105.825 13.2573C105.082 13.6178 104.251 13.798 103.333 13.798C102.426 13.798 101.601 13.6178 100.857 13.2573C100.125 12.8968 99.5443 12.3618 99.1143 11.6524C98.6843 10.9314 98.4694 10.0534 98.4694 9.01842V1.50016H100.91Z" fill="#F9F9F9"/>
<path d="M116.01 3.87251C117.16 3.87251 118.09 4.23883 118.799 4.97147C119.508 5.69248 119.862 6.70422 119.862 8.00668V13.6759H117.422V8.33812C117.422 7.57059 117.23 6.98332 116.846 6.5763C116.463 6.15765 115.94 5.94832 115.278 5.94832C114.604 5.94832 114.069 6.15765 113.674 6.5763C113.291 6.98332 113.099 7.57059 113.099 8.33812V13.6759H110.658V4.01206H113.099V5.21568C113.424 4.79703 113.837 4.47142 114.336 4.23883C114.848 3.99462 115.405 3.87251 116.01 3.87251Z" fill="#F9F9F9"/>
<path d="M123.42 2.86078C122.99 2.86078 122.63 2.72704 122.34 2.45957C122.061 2.18047 121.921 1.83741 121.921 1.43039C121.921 1.02337 122.061 0.686121 122.34 0.41865C122.63 0.13955 122.99 0 123.42 0C123.85 0 124.205 0.13955 124.484 0.41865C124.774 0.686121 124.919 1.02337 124.919 1.43039C124.919 1.83741 124.774 2.18047 124.484 2.45957C124.205 2.72704 123.85 2.86078 123.42 2.86078ZM124.623 4.01206V13.6759H122.183V4.01206H124.623Z" fill="#F9F9F9"/>
<path d="M131.061 11.4257L133.501 4.01206H136.098L132.525 13.6759H129.562L126.006 4.01206H128.62L131.061 11.4257Z" fill="#F9F9F9"/>
<path d="M146.446 8.63466C146.446 8.98353 146.423 9.29752 146.376 9.57662H139.317C139.375 10.2744 139.619 10.8209 140.049 11.2163C140.479 11.6117 141.008 11.8094 141.635 11.8094C142.542 11.8094 143.186 11.4198 143.57 10.6407H146.202C145.923 11.571 145.389 12.3386 144.598 12.9433C143.808 13.5364 142.838 13.8329 141.687 13.8329C140.758 13.8329 139.921 13.6294 139.177 13.2224C138.445 12.8037 137.87 12.2164 137.452 11.4605C137.045 10.7047 136.842 9.83246 136.842 8.84398C136.842 7.84388 137.045 6.96587 137.452 6.20998C137.858 5.45408 138.428 4.87262 139.16 4.4656C139.892 4.05858 140.734 3.85507 141.687 3.85507C142.605 3.85507 143.425 4.05277 144.145 4.44816C144.877 4.84355 145.441 5.40756 145.836 6.1402C146.243 6.86121 146.446 7.6927 146.446 8.63466ZM143.919 7.93691C143.907 7.30893 143.68 6.80888 143.239 6.43675C142.797 6.05298 142.257 5.8611 141.618 5.8611C141.013 5.8611 140.502 6.04717 140.084 6.4193C139.677 6.77981 139.427 7.28568 139.334 7.93691H143.919Z" fill="#F9F9F9"/>
<path d="M150.668 5.51223C150.982 5.00054 151.388 4.59934 151.888 4.30861C152.399 4.01788 152.98 3.87251 153.631 3.87251V6.43675H152.986C152.219 6.43675 151.638 6.617 151.243 6.9775C150.859 7.33801 150.668 7.96598 150.668 8.86143V13.6759H148.227V4.01206H150.668V5.51223Z" fill="#F9F9F9"/>
<path d="M158.97 13.8329C158.18 13.8329 157.471 13.6933 156.844 13.4142C156.216 13.1235 155.716 12.7339 155.344 12.2455C154.984 11.7571 154.787 11.2163 154.752 10.6232H157.21C157.256 10.9954 157.436 11.3036 157.75 11.5478C158.075 11.792 158.476 11.9141 158.953 11.9141C159.418 11.9141 159.778 11.8211 160.033 11.635C160.301 11.4489 160.434 11.2105 160.434 10.9198C160.434 10.6058 160.272 10.3732 159.946 10.222C159.633 10.0592 159.127 9.8848 158.43 9.69873C157.709 9.52429 157.117 9.34404 156.652 9.15797C156.199 8.97191 155.803 8.68699 155.466 8.30323C155.141 7.91947 154.978 7.40197 154.978 6.75073C154.978 6.21579 155.129 5.72737 155.432 5.28546C155.745 4.84355 156.187 4.49467 156.756 4.23883C157.337 3.98299 158.017 3.85507 158.796 3.85507C159.946 3.85507 160.864 4.1458 161.55 4.72726C162.236 5.29709 162.613 6.07043 162.683 7.04728H160.347C160.312 6.66352 160.15 6.36116 159.859 6.1402C159.58 5.90762 159.203 5.79133 158.726 5.79133C158.285 5.79133 157.942 5.87273 157.698 6.03554C157.465 6.19835 157.349 6.42512 157.349 6.71585C157.349 7.04146 157.512 7.29149 157.837 7.46593C158.163 7.62874 158.668 7.79736 159.354 7.9718C160.051 8.14623 160.626 8.32649 161.079 8.51255C161.533 8.69862 161.922 8.98935 162.247 9.38474C162.584 9.7685 162.759 10.2802 162.77 10.9198C162.77 11.478 162.613 11.978 162.3 12.42C161.997 12.8619 161.556 13.2107 160.975 13.4666C160.405 13.7108 159.737 13.8329 158.97 13.8329Z" fill="#F9F9F9"/>
<path d="M173.75 8.63466C173.75 8.98353 173.727 9.29752 173.681 9.57662H166.621C166.679 10.2744 166.923 10.8209 167.353 11.2163C167.783 11.6117 168.312 11.8094 168.939 11.8094C169.846 11.8094 170.491 11.4198 170.874 10.6407H173.506C173.228 11.571 172.693 12.3386 171.903 12.9433C171.113 13.5364 170.142 13.8329 168.992 13.8329C168.062 13.8329 167.225 13.6294 166.482 13.2224C165.75 12.8037 165.174 12.2164 164.756 11.4605C164.349 10.7047 164.146 9.83246 164.146 8.84398C164.146 7.84388 164.349 6.96587 164.756 6.20998C165.163 5.45408 165.732 4.87262 166.464 4.4656C167.196 4.05858 168.039 3.85507 168.992 3.85507C169.91 3.85507 170.729 4.05277 171.45 4.44816C172.182 4.84355 172.745 5.40756 173.14 6.1402C173.547 6.86121 173.75 7.6927 173.75 8.63466ZM171.223 7.93691C171.211 7.30893 170.985 6.80888 170.543 6.43675C170.102 6.05298 169.561 5.8611 168.922 5.8611C168.318 5.8611 167.806 6.04717 167.388 6.4193C166.981 6.77981 166.731 7.28568 166.639 7.93691H171.223Z" fill="#F9F9F9"/>
<path d="M176.02 1.50016H178.582L176.7 5.89599H175.026L176.02 1.50016ZM179.541 1.50016H182.103L180.221 5.89599H178.547L179.541 1.50016Z" fill="#F9F9F9"/>
<path d="M187.4 7.57059C187.4 6.37279 187.667 5.3029 188.201 4.36094C188.748 3.40735 189.486 2.66889 190.415 2.14558C191.357 1.61064 192.408 1.34317 193.57 1.34317C194.93 1.34317 196.121 1.69204 197.144 2.3898C198.166 3.08755 198.881 4.05277 199.288 5.28546H196.481C196.202 4.704 195.807 4.26791 195.296 3.97718C194.796 3.68645 194.215 3.54108 193.553 3.54108C192.844 3.54108 192.211 3.70971 191.653 4.04695C191.107 4.37257 190.677 4.83773 190.363 5.44245C190.061 6.04717 189.91 6.75655 189.91 7.57059C189.91 8.373 190.061 9.08238 190.363 9.69873C190.677 10.3034 191.107 10.7744 191.653 11.1117C192.211 11.4373 192.844 11.6001 193.553 11.6001C194.215 11.6001 194.796 11.4547 195.296 11.164C195.807 10.8616 196.202 10.4197 196.481 9.83828H199.288C198.881 11.0826 198.166 12.0536 197.144 12.7514C196.133 13.4375 194.941 13.7806 193.57 13.7806C192.408 13.7806 191.357 13.5189 190.415 12.9956C189.486 12.4607 188.748 11.7222 188.201 10.7802C187.667 9.83828 187.4 8.7684 187.4 7.57059Z" fill="#F9F9F9"/>
<path d="M205.66 13.8329C204.73 13.8329 203.894 13.6294 203.15 13.2224C202.406 12.8037 201.819 12.2164 201.39 11.4605C200.971 10.7047 200.762 9.83246 200.762 8.84398C200.762 7.8555 200.977 6.98332 201.407 6.22742C201.849 5.47153 202.447 4.89007 203.202 4.48305C203.958 4.0644 204.8 3.85507 205.73 3.85507C206.66 3.85507 207.502 4.0644 208.257 4.48305C209.013 4.89007 209.605 5.47153 210.035 6.22742C210.477 6.98332 210.698 7.8555 210.698 8.84398C210.698 9.83246 210.471 10.7047 210.018 11.4605C209.576 12.2164 208.972 12.8037 208.205 13.2224C207.45 13.6294 206.601 13.8329 205.66 13.8329ZM205.66 11.7048C206.102 11.7048 206.514 11.6001 206.898 11.3908C207.293 11.1698 207.607 10.8442 207.839 10.4139C208.071 9.98364 208.188 9.46033 208.188 8.84398C208.188 7.92528 207.944 7.22172 207.456 6.73329C206.979 6.23324 206.392 5.98321 205.695 5.98321C204.998 5.98321 204.411 6.23324 203.934 6.73329C203.47 7.22172 203.237 7.92528 203.237 8.84398C203.237 9.76269 203.464 10.4721 203.917 10.9721C204.382 11.4605 204.963 11.7048 205.66 11.7048Z" fill="#F9F9F9"/>
<path d="M214.928 0.767526V13.6759H212.488V0.767526H214.928Z" fill="#F9F9F9"/>
<path d="M221.627 13.8329C220.698 13.8329 219.861 13.6294 219.117 13.2224C218.374 12.8037 217.787 12.2164 217.357 11.4605C216.938 10.7047 216.729 9.83246 216.729 8.84398C216.729 7.8555 216.944 6.98332 217.374 6.22742C217.816 5.47153 218.414 4.89007 219.17 4.48305C219.925 4.0644 220.767 3.85507 221.697 3.85507C222.627 3.85507 223.469 4.0644 224.225 4.48305C224.98 4.89007 225.573 5.47153 226.003 6.22742C226.444 6.98332 226.665 7.8555 226.665 8.84398C226.665 9.83246 226.438 10.7047 225.985 11.4605C225.544 12.2164 224.939 12.8037 224.172 13.2224C223.417 13.6294 222.569 13.8329 221.627 13.8329ZM221.627 11.7048C222.069 11.7048 222.482 11.6001 222.865 11.3908C223.26 11.1698 223.574 10.8442 223.806 10.4139C224.039 9.98364 224.155 9.46033 224.155 8.84398C224.155 7.92528 223.911 7.22172 223.423 6.73329C222.946 6.23324 222.36 5.98321 221.662 5.98321C220.965 5.98321 220.378 6.23324 219.902 6.73329C219.437 7.22172 219.204 7.92528 219.204 8.84398C219.204 9.76269 219.431 10.4721 219.884 10.9721C220.349 11.4605 220.93 11.7048 221.627 11.7048Z" fill="#F9F9F9"/>
<path d="M237.572 4.01206V13.6759H235.114V12.4548C234.8 12.8735 234.388 13.2049 233.876 13.4491C233.377 13.6817 232.83 13.798 232.238 13.798C231.482 13.798 230.814 13.641 230.233 13.327C229.652 13.0014 229.193 12.5304 228.856 11.9141C228.531 11.2861 228.368 10.5418 228.368 9.68128V4.01206H230.808V9.33241C230.808 10.0999 231 10.693 231.384 11.1117C231.767 11.5187 232.29 11.7222 232.952 11.7222C233.626 11.7222 234.155 11.5187 234.539 11.1117C234.922 10.693 235.114 10.0999 235.114 9.33241V4.01206H237.572Z" fill="#F9F9F9"/>
<path d="M242.42 5.51223C242.734 5.00054 243.14 4.59934 243.64 4.30861C244.151 4.01788 244.732 3.87251 245.383 3.87251V6.43675H244.738C243.971 6.43675 243.39 6.617 242.995 6.9775C242.612 7.33801 242.42 7.96598 242.42 8.86143V13.6759H239.979V4.01206H242.42V5.51223Z" fill="#F9F9F9"/>
<path d="M255.381 13.798C254.533 13.798 253.766 13.6526 253.08 13.3619C252.406 13.0712 251.872 12.6525 251.477 12.106C251.082 11.5594 250.878 10.914 250.867 10.1697H253.481C253.516 10.6698 253.69 11.0652 254.004 11.3559C254.33 11.6466 254.771 11.792 255.329 11.792C255.898 11.792 256.346 11.6582 256.671 11.3908C256.997 11.1117 257.159 10.7512 257.159 10.3093C257.159 9.94876 257.049 9.65221 256.828 9.41963C256.607 9.18705 256.328 9.00679 255.991 8.87887C255.666 8.73932 255.213 8.58814 254.632 8.42533C253.842 8.19275 253.197 7.96598 252.697 7.74503C252.209 7.51244 251.785 7.16938 251.424 6.71585C251.076 6.25068 250.901 5.63433 250.901 4.86681C250.901 4.1458 251.082 3.51782 251.442 2.98288C251.802 2.44794 252.308 2.04092 252.958 1.76182C253.609 1.47109 254.353 1.32573 255.19 1.32573C256.445 1.32573 257.461 1.6339 258.24 2.25024C259.03 2.85496 259.466 3.70389 259.547 4.79703H256.863C256.84 4.37838 256.66 4.03532 256.323 3.76785C255.997 3.48875 255.561 3.3492 255.015 3.3492C254.539 3.3492 254.155 3.47131 253.865 3.71552C253.586 3.95973 253.446 4.31442 253.446 4.77959C253.446 5.10521 253.551 5.37849 253.76 5.59945C253.981 5.80877 254.248 5.98321 254.562 6.12276C254.887 6.25068 255.341 6.40186 255.922 6.5763C256.712 6.80888 257.357 7.04146 257.857 7.27405C258.356 7.50663 258.786 7.85551 259.146 8.32067C259.507 8.78584 259.687 9.39637 259.687 10.1523C259.687 10.8035 259.518 11.4082 259.181 11.9664C258.844 12.5246 258.35 12.9723 257.7 13.3096C257.049 13.6352 256.276 13.798 255.381 13.798Z" fill="#F9F9F9"/>
<path d="M261.175 8.84398C261.175 7.84388 261.378 6.97169 261.785 6.22742C262.192 5.47153 262.755 4.89007 263.476 4.48305C264.196 4.0644 265.021 3.85507 265.951 3.85507C267.148 3.85507 268.136 4.15743 268.914 4.76215C269.705 5.35523 270.233 6.19253 270.501 7.27405H267.869C267.729 6.8554 267.491 6.52978 267.154 6.2972C266.828 6.05298 266.422 5.93088 265.934 5.93088C265.236 5.93088 264.684 6.18672 264.278 6.6984C263.871 7.19846 263.668 7.91365 263.668 8.84398C263.668 9.76269 263.871 10.4779 264.278 10.9896C264.684 11.4896 265.236 11.7396 265.934 11.7396C266.921 11.7396 267.566 11.2977 267.869 10.4139H270.501C270.233 11.4605 269.705 12.292 268.914 12.9084C268.124 13.5247 267.136 13.8329 265.951 13.8329C265.021 13.8329 264.196 13.6294 263.476 13.2224C262.755 12.8037 262.192 12.2223 261.785 11.478C261.378 10.7221 261.175 9.84409 261.175 8.84398Z" fill="#F9F9F9"/>
<path d="M277.727 3.87251C278.459 3.87251 279.11 4.03532 279.679 4.36094C280.249 4.67493 280.69 5.14591 281.004 5.77388C281.329 6.39023 281.492 7.1345 281.492 8.00668V13.6759H279.052V8.33812C279.052 7.57059 278.86 6.98332 278.477 6.5763C278.093 6.15765 277.57 5.94832 276.908 5.94832C276.234 5.94832 275.699 6.15765 275.304 6.5763C274.921 6.98332 274.729 7.57059 274.729 8.33812V13.6759H272.288V0.767526H274.729V5.21568C275.043 4.79703 275.461 4.47142 275.984 4.23883C276.507 3.99462 277.088 3.87251 277.727 3.87251Z" fill="#F9F9F9"/>
<path d="M292.79 8.63466C292.79 8.98353 292.767 9.29752 292.72 9.57662H285.66C285.719 10.2744 285.963 10.8209 286.393 11.2163C286.823 11.6117 287.351 11.8094 287.979 11.8094C288.885 11.8094 289.53 11.4198 289.914 10.6407H292.546C292.267 11.571 291.732 12.3386 290.942 12.9433C290.152 13.5364 289.182 13.8329 288.031 13.8329C287.101 13.8329 286.265 13.6294 285.521 13.2224C284.789 12.8037 284.214 12.2164 283.795 11.4605C283.389 10.7047 283.185 9.83246 283.185 8.84398C283.185 7.84388 283.389 6.96587 283.795 6.20998C284.202 5.45408 284.771 4.87262 285.504 4.4656C286.236 4.05858 287.078 3.85507 288.031 3.85507C288.949 3.85507 289.768 4.05277 290.489 4.44816C291.221 4.84355 291.785 5.40756 292.18 6.1402C292.586 6.86121 292.79 7.6927 292.79 8.63466ZM290.262 7.93691C290.251 7.30893 290.024 6.80888 289.582 6.43675C289.141 6.05298 288.601 5.8611 287.961 5.8611C287.357 5.8611 286.846 6.04717 286.427 6.4193C286.021 6.77981 285.771 7.28568 285.678 7.93691H290.262Z" fill="#F9F9F9"/>
<path d="M306.564 3.87251C307.749 3.87251 308.702 4.23883 309.422 4.97147C310.155 5.69248 310.521 6.70422 310.521 8.00668V13.6759H308.08V8.33812C308.08 7.58222 307.889 7.00658 307.505 6.61118C307.122 6.20416 306.599 6.00065 305.936 6.00065C305.274 6.00065 304.745 6.20416 304.35 6.61118C303.966 7.00658 303.775 7.58222 303.775 8.33812V13.6759H301.334V8.33812C301.334 7.58222 301.143 7.00658 300.759 6.61118C300.376 6.20416 299.853 6.00065 299.19 6.00065C298.516 6.00065 297.982 6.20416 297.587 6.61118C297.203 7.00658 297.011 7.58222 297.011 8.33812V13.6759H294.571V4.01206H297.011V5.1808C297.325 4.77378 297.726 4.45397 298.214 4.22139C298.714 3.98881 299.26 3.87251 299.853 3.87251C300.608 3.87251 301.282 4.03532 301.875 4.36094C302.467 4.67493 302.926 5.12846 303.252 5.72155C303.566 5.16335 304.019 4.71563 304.611 4.37838C305.216 4.04114 305.867 3.87251 306.564 3.87251Z" fill="#F9F9F9"/>
<path d="M321.813 8.63466C321.813 8.98353 321.79 9.29752 321.744 9.57662H314.684C314.742 10.2744 314.986 10.8209 315.416 11.2163C315.846 11.6117 316.375 11.8094 317.002 11.8094C317.909 11.8094 318.554 11.4198 318.937 10.6407H321.569C321.29 11.571 320.756 12.3386 319.966 12.9433C319.176 13.5364 318.205 13.8329 317.055 13.8329C316.125 13.8329 315.288 13.6294 314.545 13.2224C313.813 12.8037 313.237 12.2164 312.819 11.4605C312.412 10.7047 312.209 9.83246 312.209 8.84398C312.209 7.84388 312.412 6.96587 312.819 6.20998C313.226 5.45408 313.795 4.87262 314.527 4.4656C315.259 4.05858 316.102 3.85507 317.055 3.85507C317.973 3.85507 318.792 4.05277 319.513 4.44816C320.245 4.84355 320.808 5.40756 321.203 6.1402C321.61 6.86121 321.813 7.6927 321.813 8.63466ZM319.286 7.93691C319.274 7.30893 319.048 6.80888 318.606 6.43675C318.165 6.05298 317.624 5.8611 316.985 5.8611C316.381 5.8611 315.869 6.04717 315.451 6.4193C315.044 6.77981 314.794 7.28568 314.702 7.93691H319.286Z" fill="#F9F9F9"/>
<path d="M479.358 107V19.7812L566.514 19.7812V107L479.358 107Z" fill="#0831B4"/>
<path d="M575.229 107V19.7812L662.385 19.7812V107L575.229 107Z" fill="#1863FF"/>
<path d="M671.101 107V19.7812L758.257 19.7812V107L671.101 107Z" fill="#7CBFFF"/>
<path d="M766.972 107V19.7812L854.128 19.7812V107L766.972 107Z" fill="#C4EFFD"/>
<path d="M862.844 107V19.7812L950 19.7812V107L862.844 107Z" fill="white"/>
<path d="M490.235 1.50016L486.121 9.43707V13.6759H483.681V9.43707L479.55 1.50016H482.304L484.918 7.06472L487.516 1.50016H490.235Z" fill="#F9F9F9"/>
<path d="M495.93 13.8329C495.001 13.8329 494.164 13.6294 493.42 13.2224C492.677 12.8037 492.09 12.2164 491.66 11.4605C491.241 10.7047 491.032 9.83246 491.032 8.84398C491.032 7.8555 491.247 6.98332 491.677 6.22742C492.119 5.47153 492.717 4.89007 493.473 4.48305C494.228 4.0644 495.07 3.85507 496 3.85507C496.93 3.85507 497.772 4.0644 498.528 4.48305C499.283 4.89007 499.876 5.47153 500.306 6.22742C500.747 6.98332 500.968 7.8555 500.968 8.84398C500.968 9.83246 500.741 10.7047 500.288 11.4605C499.847 12.2164 499.242 12.8037 498.475 13.2224C497.72 13.6294 496.872 13.8329 495.93 13.8329ZM495.93 11.7048C496.372 11.7048 496.785 11.6001 497.168 11.3908C497.563 11.1698 497.877 10.8442 498.109 10.4139C498.342 9.98364 498.458 9.46033 498.458 8.84398C498.458 7.92528 498.214 7.22172 497.726 6.73329C497.249 6.23324 496.662 5.98321 495.965 5.98321C495.268 5.98321 494.681 6.23324 494.205 6.73329C493.74 7.22172 493.507 7.92528 493.507 8.84398C493.507 9.76269 493.734 10.4721 494.187 10.9721C494.652 11.4605 495.233 11.7048 495.93 11.7048Z" fill="#F9F9F9"/>
<path d="M511.875 4.01206V13.6759H509.417V12.4548C509.103 12.8735 508.69 13.2049 508.179 13.4491C507.679 13.6817 507.133 13.798 506.541 13.798C505.785 13.798 505.117 13.641 504.536 13.327C503.955 13.0014 503.496 12.5304 503.159 11.9141C502.834 11.2861 502.671 10.5418 502.671 9.68128V4.01206H505.111V9.33241C505.111 10.0999 505.303 10.693 505.687 11.1117C506.07 11.5187 506.593 11.7222 507.255 11.7222C507.929 11.7222 508.458 11.5187 508.842 11.1117C509.225 10.693 509.417 10.0999 509.417 9.33241V4.01206H511.875Z" fill="#F9F9F9"/>
<path d="M519.634 3.87251C520.784 3.87251 521.714 4.23883 522.423 4.97147C523.132 5.69248 523.486 6.70422 523.486 8.00668V13.6759H521.046V8.33812C521.046 7.57059 520.854 6.98332 520.47 6.5763C520.087 6.15765 519.564 5.94832 518.902 5.94832C518.228 5.94832 517.693 6.15765 517.298 6.5763C516.915 6.98332 516.723 7.57059 516.723 8.33812V13.6759H514.282V4.01206H516.723V5.21568C517.048 4.79703 517.461 4.47142 517.96 4.23883C518.472 3.99462 519.029 3.87251 519.634 3.87251Z" fill="#F9F9F9"/>
<path d="M527.044 2.86078C526.614 2.86078 526.254 2.72704 525.964 2.45957C525.685 2.18047 525.545 1.83741 525.545 1.43039C525.545 1.02337 525.685 0.686121 525.964 0.41865C526.254 0.13955 526.614 0 527.044 0C527.474 0 527.829 0.13955 528.108 0.41865C528.398 0.686121 528.543 1.02337 528.543 1.43039C528.543 1.83741 528.398 2.18047 528.108 2.45957C527.829 2.72704 527.474 2.86078 527.044 2.86078ZM528.247 4.01206V13.6759H525.807V4.01206H528.247Z" fill="#F9F9F9"/>
<path d="M534.685 11.4257L537.125 4.01206H539.722L536.149 13.6759H533.186L529.63 4.01206H532.244L534.685 11.4257Z" fill="#F9F9F9"/>
<path d="M550.07 8.63466C550.07 8.98353 550.047 9.29752 550 9.57662H542.941C542.999 10.2744 543.243 10.8209 543.673 11.2163C544.103 11.6117 544.632 11.8094 545.259 11.8094C546.166 11.8094 546.811 11.4198 547.194 10.6407H549.826C549.547 11.571 549.013 12.3386 548.222 12.9433C547.432 13.5364 546.462 13.8329 545.311 13.8329C544.382 13.8329 543.545 13.6294 542.801 13.2224C542.069 12.8037 541.494 12.2164 541.076 11.4605C540.669 10.7047 540.466 9.83246 540.466 8.84398C540.466 7.84388 540.669 6.96587 541.076 6.20998C541.482 5.45408 542.052 4.87262 542.784 4.4656C543.516 4.05858 544.359 3.85507 545.311 3.85507C546.229 3.85507 547.049 4.05277 547.769 4.44816C548.501 4.84355 549.065 5.40756 549.46 6.1402C549.867 6.86121 550.07 7.6927 550.07 8.63466ZM547.543 7.93691C547.531 7.30893 547.304 6.80888 546.863 6.43675C546.421 6.05298 545.881 5.8611 545.242 5.8611C544.637 5.8611 544.126 6.04717 543.708 6.4193C543.301 6.77981 543.051 7.28568 542.958 7.93691H547.543Z" fill="#F9F9F9"/>
<path d="M554.292 5.51223C554.606 5.00054 555.012 4.59934 555.512 4.30861C556.023 4.01788 556.604 3.87251 557.255 3.87251V6.43675H556.61C555.843 6.43675 555.262 6.617 554.867 6.9775C554.484 7.33801 554.292 7.96598 554.292 8.86143V13.6759H551.851V4.01206H554.292V5.51223Z" fill="#F9F9F9"/>
<path d="M562.594 13.8329C561.804 13.8329 561.095 13.6933 560.468 13.4142C559.84 13.1235 559.34 12.7339 558.969 12.2455C558.608 11.7571 558.411 11.2163 558.376 10.6232H560.834C560.88 10.9954 561.06 11.3036 561.374 11.5478C561.699 11.792 562.1 11.9141 562.577 11.9141C563.042 11.9141 563.402 11.8211 563.658 11.635C563.925 11.4489 564.058 11.2105 564.058 10.9198C564.058 10.6058 563.896 10.3732 563.57 10.222C563.257 10.0592 562.751 9.8848 562.054 9.69873C561.333 9.52429 560.741 9.34404 560.276 9.15797C559.823 8.97191 559.427 8.68699 559.091 8.30323C558.765 7.91947 558.602 7.40197 558.602 6.75073C558.602 6.21579 558.754 5.72737 559.056 5.28546C559.369 4.84355 559.811 4.49467 560.38 4.23883C560.961 3.98299 561.641 3.85507 562.42 3.85507C563.57 3.85507 564.488 4.1458 565.174 4.72726C565.86 5.29709 566.237 6.07043 566.307 7.04728H563.971C563.936 6.66352 563.774 6.36116 563.483 6.1402C563.204 5.90762 562.827 5.79133 562.35 5.79133C561.909 5.79133 561.566 5.87273 561.322 6.03554C561.089 6.19835 560.973 6.42512 560.973 6.71585C560.973 7.04146 561.136 7.29149 561.461 7.46593C561.787 7.62874 562.292 7.79736 562.978 7.9718C563.675 8.14623 564.25 8.32649 564.703 8.51255C565.157 8.69862 565.546 8.98935 565.871 9.38474C566.208 9.7685 566.383 10.2802 566.394 10.9198C566.394 11.478 566.237 11.978 565.924 12.42C565.621 12.8619 565.18 13.2107 564.599 13.4666C564.029 13.7108 563.361 13.8329 562.594 13.8329Z" fill="#F9F9F9"/>
<path d="M577.374 8.63466C577.374 8.98353 577.351 9.29752 577.305 9.57662H570.245C570.303 10.2744 570.547 10.8209 570.977 11.2163C571.407 11.6117 571.936 11.8094 572.563 11.8094C573.47 11.8094 574.115 11.4198 574.498 10.6407H577.13C576.852 11.571 576.317 12.3386 575.527 12.9433C574.737 13.5364 573.766 13.8329 572.616 13.8329C571.686 13.8329 570.849 13.6294 570.106 13.2224C569.374 12.8037 568.798 12.2164 568.38 11.4605C567.973 10.7047 567.77 9.83246 567.77 8.84398C567.77 7.84388 567.973 6.96587 568.38 6.20998C568.787 5.45408 569.356 4.87262 570.088 4.4656C570.82 4.05858 571.663 3.85507 572.616 3.85507C573.534 3.85507 574.353 4.05277 575.074 4.44816C575.806 4.84355 576.369 5.40756 576.764 6.1402C577.171 6.86121 577.374 7.6927 577.374 8.63466ZM574.847 7.93691C574.835 7.30893 574.609 6.80888 574.167 6.43675C573.726 6.05298 573.185 5.8611 572.546 5.8611C571.942 5.8611 571.43 6.04717 571.012 6.4193C570.605 6.77981 570.356 7.28568 570.263 7.93691H574.847Z" fill="#F9F9F9"/>
<path d="M582.717 7.57059C582.717 6.37279 582.984 5.3029 583.518 4.36094C584.065 3.40735 584.803 2.66889 585.732 2.14558C586.674 1.61064 587.725 1.34317 588.887 1.34317C590.247 1.34317 591.438 1.69204 592.461 2.3898C593.483 3.08755 594.198 4.05277 594.605 5.28546H591.798C591.519 4.704 591.124 4.26791 590.613 3.97718C590.113 3.68645 589.532 3.54108 588.87 3.54108C588.161 3.54108 587.528 3.70971 586.97 4.04695C586.424 4.37257 585.994 4.83773 585.68 5.44245C585.378 6.04717 585.227 6.75655 585.227 7.57059C585.227 8.373 585.378 9.08238 585.68 9.69873C585.994 10.3034 586.424 10.7744 586.97 11.1117C587.528 11.4373 588.161 11.6001 588.87 11.6001C589.532 11.6001 590.113 11.4547 590.613 11.164C591.124 10.8616 591.519 10.4197 591.798 9.83828H594.605C594.198 11.0826 593.483 12.0536 592.461 12.7514C591.45 13.4375 590.259 13.7806 588.887 13.7806C587.725 13.7806 586.674 13.5189 585.732 12.9956C584.803 12.4607 584.065 11.7222 583.518 10.7802C582.984 9.83828 582.717 8.7684 582.717 7.57059Z" fill="#F9F9F9"/>
<path d="M600.977 13.8329C600.047 13.8329 599.211 13.6294 598.467 13.2224C597.723 12.8037 597.136 12.2164 596.706 11.4605C596.288 10.7047 596.079 9.83246 596.079 8.84398C596.079 7.8555 596.294 6.98332 596.724 6.22742C597.165 5.47153 597.764 4.89007 598.519 4.48305C599.275 4.0644 600.117 3.85507 601.047 3.85507C601.977 3.85507 602.819 4.0644 603.574 4.48305C604.33 4.89007 604.922 5.47153 605.352 6.22742C605.794 6.98332 606.015 7.8555 606.015 8.84398C606.015 9.83246 605.788 10.7047 605.335 11.4605C604.893 12.2164 604.289 12.8037 603.522 13.2224C602.767 13.6294 601.918 13.8329 600.977 13.8329ZM600.977 11.7048C601.419 11.7048 601.831 11.6001 602.215 11.3908C602.61 11.1698 602.924 10.8442 603.156 10.4139C603.388 9.98364 603.505 9.46033 603.505 8.84398C603.505 7.92528 603.261 7.22172 602.773 6.73329C602.296 6.23324 601.709 5.98321 601.012 5.98321C600.315 5.98321 599.728 6.23324 599.251 6.73329C598.787 7.22172 598.554 7.92528 598.554 8.84398C598.554 9.76269 598.781 10.4721 599.234 10.9721C599.699 11.4605 600.28 11.7048 600.977 11.7048Z" fill="#F9F9F9"/>
<path d="M610.245 0.767526V13.6759H607.805V0.767526H610.245Z" fill="#F9F9F9"/>
<path d="M616.944 13.8329C616.015 13.8329 615.178 13.6294 614.434 13.2224C613.691 12.8037 613.104 12.2164 612.674 11.4605C612.255 10.7047 612.046 9.83246 612.046 8.84398C612.046 7.8555 612.261 6.98332 612.691 6.22742C613.133 5.47153 613.731 4.89007 614.487 4.48305C615.242 4.0644 616.084 3.85507 617.014 3.85507C617.944 3.85507 618.786 4.0644 619.542 4.48305C620.297 4.89007 620.89 5.47153 621.32 6.22742C621.761 6.98332 621.982 7.8555 621.982 8.84398C621.982 9.83246 621.755 10.7047 621.302 11.4605C620.861 12.2164 620.256 12.8037 619.489 13.2224C618.734 13.6294 617.886 13.8329 616.944 13.8329ZM616.944 11.7048C617.386 11.7048 617.799 11.6001 618.182 11.3908C618.577 11.1698 618.891 10.8442 619.123 10.4139C619.356 9.98364 619.472 9.46033 619.472 8.84398C619.472 7.92528 619.228 7.22172 618.74 6.73329C618.263 6.23324 617.677 5.98321 616.979 5.98321C616.282 5.98321 615.695 6.23324 615.219 6.73329C614.754 7.22172 614.521 7.92528 614.521 8.84398C614.521 9.76269 614.748 10.4721 615.201 10.9721C615.666 11.4605 616.247 11.7048 616.944 11.7048Z" fill="#F9F9F9"/>
<path d="M632.889 4.01206V13.6759H630.431V12.4548C630.117 12.8735 629.704 13.2049 629.193 13.4491C628.693 13.6817 628.147 13.798 627.555 13.798C626.799 13.798 626.131 13.641 625.55 13.327C624.969 13.0014 624.51 12.5304 624.173 11.9141C623.848 11.2861 623.685 10.5418 623.685 9.68128V4.01206H626.125V9.33241C626.125 10.0999 626.317 10.693 626.701 11.1117C627.084 11.5187 627.607 11.7222 628.269 11.7222C628.943 11.7222 629.472 11.5187 629.856 11.1117C630.239 10.693 630.431 10.0999 630.431 9.33241V4.01206H632.889Z" fill="#F9F9F9"/>
<path d="M637.737 5.51223C638.051 5.00054 638.457 4.59934 638.957 4.30861C639.468 4.01788 640.049 3.87251 640.7 3.87251V6.43675H640.055C639.288 6.43675 638.707 6.617 638.312 6.9775C637.929 7.33801 637.737 7.96598 637.737 8.86143V13.6759H635.296V4.01206H637.737V5.51223Z" fill="#F9F9F9"/>
<path d="M650.698 13.798C649.85 13.798 649.083 13.6526 648.397 13.3619C647.723 13.0712 647.189 12.6525 646.794 12.106C646.399 11.5594 646.195 10.914 646.184 10.1697H648.798C648.833 10.6698 649.007 11.0652 649.321 11.3559C649.647 11.6466 650.088 11.792 650.646 11.792C651.215 11.792 651.663 11.6582 651.988 11.3908C652.314 11.1117 652.476 10.7512 652.476 10.3093C652.476 9.94876 652.366 9.65221 652.145 9.41963C651.924 9.18705 651.645 9.00679 651.308 8.87887C650.983 8.73932 650.53 8.58814 649.949 8.42533C649.159 8.19275 648.514 7.96598 648.014 7.74503C647.526 7.51244 647.102 7.16938 646.741 6.71585C646.393 6.25068 646.218 5.63433 646.218 4.86681C646.218 4.1458 646.399 3.51782 646.759 2.98288C647.119 2.44794 647.625 2.04092 648.275 1.76182C648.926 1.47109 649.67 1.32573 650.506 1.32573C651.762 1.32573 652.778 1.6339 653.557 2.25024C654.347 2.85496 654.783 3.70389 654.864 4.79703H652.18C652.157 4.37838 651.977 4.03532 651.64 3.76785C651.314 3.48875 650.878 3.3492 650.332 3.3492C649.856 3.3492 649.472 3.47131 649.182 3.71552C648.903 3.95973 648.763 4.31442 648.763 4.77959C648.763 5.10521 648.868 5.37849 649.077 5.59945C649.298 5.80877 649.565 5.98321 649.879 6.12276C650.204 6.25068 650.658 6.40186 651.239 6.5763C652.029 6.80888 652.674 7.04146 653.173 7.27405C653.673 7.50663 654.103 7.85551 654.463 8.32067C654.824 8.78584 655.004 9.39637 655.004 10.1523C655.004 10.8035 654.835 11.4082 654.498 11.9664C654.161 12.5246 653.667 12.9723 653.017 13.3096C652.366 13.6352 651.593 13.798 650.698 13.798Z" fill="#F9F9F9"/>
<path d="M656.492 8.84398C656.492 7.84388 656.695 6.97169 657.102 6.22742C657.509 5.47153 658.072 4.89007 658.793 4.48305C659.513 4.0644 660.338 3.85507 661.268 3.85507C662.465 3.85507 663.453 4.15743 664.231 4.76215C665.022 5.35523 665.55 6.19253 665.818 7.27405H663.186C663.046 6.8554 662.808 6.52978 662.471 6.2972C662.145 6.05298 661.739 5.93088 661.251 5.93088C660.553 5.93088 660.001 6.18672 659.595 6.6984C659.188 7.19846 658.985 7.91365 658.985 8.84398C658.985 9.76269 659.188 10.4779 659.595 10.9896C660.001 11.4896 660.553 11.7396 661.251 11.7396C662.238 11.7396 662.883 11.2977 663.186 10.4139H665.818C665.55 11.4605 665.022 12.292 664.231 12.9084C663.441 13.5247 662.453 13.8329 661.268 13.8329C660.338 13.8329 659.513 13.6294 658.793 13.2224C658.072 12.8037 657.509 12.2223 657.102 11.478C656.695 10.7221 656.492 9.84409 656.492 8.84398Z" fill="#F9F9F9"/>
<path d="M673.044 3.87251C673.776 3.87251 674.427 4.03532 674.996 4.36094C675.566 4.67493 676.007 5.14591 676.321 5.77388C676.646 6.39023 676.809 7.1345 676.809 8.00668V13.6759H674.369V8.33812C674.369 7.57059 674.177 6.98332 673.793 6.5763C673.41 6.15765 672.887 5.94832 672.225 5.94832C671.551 5.94832 671.016 6.15765 670.621 6.5763C670.238 6.98332 670.046 7.57059 670.046 8.33812V13.6759H667.605V0.767526H670.046V5.21568C670.36 4.79703 670.778 4.47142 671.301 4.23883C671.824 3.99462 672.405 3.87251 673.044 3.87251Z" fill="#F9F9F9"/>
<path d="M688.107 8.63466C688.107 8.98353 688.084 9.29752 688.037 9.57662H680.977C681.036 10.2744 681.28 10.8209 681.71 11.2163C682.14 11.6117 682.668 11.8094 683.296 11.8094C684.202 11.8094 684.847 11.4198 685.231 10.6407H687.863C687.584 11.571 687.049 12.3386 686.259 12.9433C685.469 13.5364 684.499 13.8329 683.348 13.8329C682.418 13.8329 681.582 13.6294 680.838 13.2224C680.106 12.8037 679.531 12.2164 679.112 11.4605C678.706 10.7047 678.502 9.83246 678.502 8.84398C678.502 7.84388 678.706 6.96587 679.112 6.20998C679.519 5.45408 680.088 4.87262 680.821 4.4656C681.553 4.05858 682.395 3.85507 683.348 3.85507C684.266 3.85507 685.085 4.05277 685.806 4.44816C686.538 4.84355 687.102 5.40756 687.497 6.1402C687.903 6.86121 688.107 7.6927 688.107 8.63466ZM685.579 7.93691C685.568 7.30893 685.341 6.80888 684.899 6.43675C684.458 6.05298 683.918 5.8611 683.278 5.8611C682.674 5.8611 682.163 6.04717 681.744 6.4193C681.338 6.77981 681.088 7.28568 680.995 7.93691H685.579Z" fill="#F9F9F9"/>
<path d="M701.881 3.87251C703.066 3.87251 704.019 4.23883 704.739 4.97147C705.472 5.69248 705.838 6.70422 705.838 8.00668V13.6759H703.397V8.33812C703.397 7.58222 703.206 7.00658 702.822 6.61118C702.439 6.20416 701.916 6.00065 701.253 6.00065C700.591 6.00065 700.062 6.20416 699.667 6.61118C699.283 7.00658 699.092 7.58222 699.092 8.33812V13.6759H696.651V8.33812C696.651 7.58222 696.46 7.00658 696.076 6.61118C695.693 6.20416 695.17 6.00065 694.507 6.00065C693.833 6.00065 693.299 6.20416 692.904 6.61118C692.52 7.00658 692.328 7.58222 692.328 8.33812V13.6759H689.888V4.01206H692.328V5.1808C692.642 4.77378 693.043 4.45397 693.531 4.22139C694.031 3.98881 694.577 3.87251 695.17 3.87251C695.925 3.87251 696.599 4.03532 697.192 4.36094C697.784 4.67493 698.243 5.12846 698.569 5.72155C698.883 5.16335 699.336 4.71563 699.928 4.37838C700.533 4.04114 701.183 3.87251 701.881 3.87251Z" fill="#F9F9F9"/>
<path d="M717.13 8.63466C717.13 8.98353 717.107 9.29752 717.061 9.57662H710.001C710.059 10.2744 710.303 10.8209 710.733 11.2163C711.163 11.6117 711.692 11.8094 712.319 11.8094C713.226 11.8094 713.871 11.4198 714.254 10.6407H716.886C716.608 11.571 716.073 12.3386 715.283 12.9433C714.492 13.5364 713.522 13.8329 712.372 13.8329C711.442 13.8329 710.605 13.6294 709.862 13.2224C709.13 12.8037 708.554 12.2164 708.136 11.4605C707.729 10.7047 707.526 9.83246 707.526 8.84398C707.526 7.84388 707.729 6.96587 708.136 6.20998C708.543 5.45408 709.112 4.87262 709.844 4.4656C710.576 4.05858 711.419 3.85507 712.372 3.85507C713.29 3.85507 714.109 4.05277 714.829 4.44816C715.562 4.84355 716.125 5.40756 716.52 6.1402C716.927 6.86121 717.13 7.6927 717.13 8.63466ZM714.603 7.93691C714.591 7.30893 714.365 6.80888 713.923 6.43675C713.482 6.05298 712.941 5.8611 712.302 5.8611C711.698 5.8611 711.186 6.04717 710.768 6.4193C710.361 6.77981 710.111 7.28568 710.018 7.93691H714.603Z" fill="#F9F9F9"/>
</svg>
